<?xml version="1.0" encoding="UTF-8" standalone="no"?>
<!-- Created with Inkscape (http://www.inkscape.org/) -->

<svg
   width="64mm"
   height="64mm"
   viewBox="0 0 64 64"
   version="1.1"
   id="svg10448"
   inkscape:version="1.1.2 (b8e25be833, 2022-02-05)"
   sodipodi:docname="activitiesikon.svg"
   xmlns:inkscape="http://www.inkscape.org/namespaces/inkscape"
   xmlns:sodipodi="http://sodipodi.sourceforge.net/DTD/sodipodi-0.dtd"
   xmlns="http://www.w3.org/2000/svg"
   xmlns:svg="http://www.w3.org/2000/svg">
  <sodipodi:namedview
     id="namedview10450"
     pagecolor="#505050"
     bordercolor="#eeeeee"
     borderopacity="1"
     inkscape:pageshadow="0"
     inkscape:pageopacity="0"
     inkscape:pagecheckerboard="0"
     inkscape:document-units="mm"
     showgrid="false"
     inkscape:zoom="2.0107307"
     inkscape:cx="189.73202"
     inkscape:cy="157.9028"
     inkscape:window-width="1920"
     inkscape:window-height="991"
     inkscape:window-x="-9"
     inkscape:window-y="-9"
     inkscape:window-maximized="1"
     inkscape:current-layer="layer1"
     showborder="true"
     inkscape:showpageshadow="true"
     borderlayer="false" />
  <defs
     id="defs10445" />
  <g
     inkscape:label="Réteg 1"
     inkscape:groupmode="layer"
     id="layer1">
    <path
       style="fill:#f2f2f2;stroke:#f2f2f2;stroke-width:1.28939;stroke-miterlimit:4;stroke-dasharray:none;stroke-opacity:1"
       d="M 16.375843,51.312766 C 0.4266632,44.590859 0.59956756,44.68373 0.65107095,42.866676 c 0.032127,-1.134155 1.17555695,-2.285194 2.27003945,-2.285194 0.3916593,0 7.0820876,2.669182 14.8676246,5.931514 l 14.155516,5.931513 14.170531,-5.931513 c 7.793788,-3.262332 14.403022,-5.931514 14.687186,-5.931514 1.305283,0 2.511193,1.183341 2.511193,2.464191 0,0.812016 -0.641363,1.847642 -1.341914,2.166838 C 57.108914,47.427937 32.342291,57.578843 31.837789,57.563078 31.462513,57.551348 24.504645,54.73871 16.375843,51.312766 Z M 18.464892,41.303003 C 11.349536,38.316558 4.6412251,35.503226 3.5575282,35.051153 1.3016924,34.110116 0.61229917,33.392148 0.65107095,32.024235 c 0.03288,-1.158351 1.17399245,-2.285194 2.31422235,-2.285194 0.4271539,0 5.7070753,2.080295 12.1322567,4.780127 6.256775,2.629068 12.612478,5.297062 14.123777,5.928872 l 2.747811,1.148746 14.115645,-5.928873 c 7.763603,-3.260879 14.435192,-5.928872 14.825744,-5.928872 0.970827,0 1.589101,0.373669 2.030458,1.227163 1.103497,2.133943 0.26834,2.919717 -5.788297,5.446022 -2.64285,1.102366 -9.281132,3.877523 -14.751748,6.167019 -5.470616,2.289492 -10.183384,4.160676 -10.47281,4.158185 -0.289435,-0.0024 -6.347889,-2.447983 -13.463238,-5.434427 z M 17.352771,29.655214 C 0.55591544,22.607582 1.37335,22.978529 0.96710565,22.219454 0.55494625,21.449328 0.59302931,20.240123 1.0514851,19.540438 1.3124771,19.142127 5.4880435,17.280193 16.161298,12.802814 24.273327,9.3998538 31.203886,6.5419635 31.56253,6.4519493 c 0.51335,-0.1288429 3.734807,1.1292229 15.142038,5.9133777 7.969476,3.342373 14.799273,6.236996 15.177334,6.432495 1.471772,0.761083 1.864307,2.736532 0.761499,3.832293 C 62.216294,23.0545 33.494489,35.235444 32.264365,35.513891 31.812484,35.616183 27.838778,34.054927 17.35278,29.655214 Z m 26.000444,-4.035462 c 5.35346,-2.236645 10.010777,-4.211903 10.349602,-4.389468 l 0.616049,-0.32284 -0.616049,-0.242519 c -0.605264,-0.23827 -8.663015,-3.616669 -17.34149,-7.270817 l -4.404493,-1.854551 -11.214637,4.713584 c -9.828439,4.13095 -11.1435193,4.745552 -10.639261,4.972223 0.316454,0.14225 5.349066,2.261001 11.183586,4.708331 10.542662,4.422203 10.613538,4.447543 11.470675,4.101189 0.474354,-0.191678 5.242565,-2.178489 10.596018,-4.415132 z"
       id="path10521"
       sodipodi:nodetypes="scsscssscsssscssscssssscsssssssssssssscsscsssss" />
  </g>
</svg>
