<?xml version="1.0" encoding="UTF-8" standalone="no"?>
<!-- Created with Inkscape (http://www.inkscape.org/) -->

<svg
   width="210mm"
   height="225mm"
   viewBox="0 0 210 225"
   version="1.1"
   id="svg5"
   inkscape:version="1.1.2 (b8e25be833, 2022-02-05)"
   sodipodi:docname="arrow.svg"
   xmlns:inkscape="http://www.inkscape.org/namespaces/inkscape"
   xmlns:sodipodi="http://sodipodi.sourceforge.net/DTD/sodipodi-0.dtd"
   xmlns="http://www.w3.org/2000/svg"
   xmlns:svg="http://www.w3.org/2000/svg">
  <sodipodi:namedview
     id="namedview7"
     pagecolor="#505050"
     bordercolor="#eeeeee"
     borderopacity="1"
     inkscape:pageshadow="0"
     inkscape:pageopacity="0"
     inkscape:pagecheckerboard="false"
     inkscape:document-units="mm"
     showgrid="false"
     inkscape:zoom="0.71090067"
     inkscape:cx="216.62661"
     inkscape:cy="449.42988"
     inkscape:window-width="1920"
     inkscape:window-height="991"
     inkscape:window-x="-9"
     inkscape:window-y="-9"
     inkscape:window-maximized="1"
     inkscape:current-layer="layer1" />
  <defs
     id="defs2" />
  <g
     inkscape:label="Réteg 1"
     inkscape:groupmode="layer"
     id="layer1">
    <path
       style="mix-blend-mode:normal;fill:#5b2b08;fill-opacity:1;stroke:#5b2b08;stroke-width:1.5;stroke-miterlimit:4;stroke-dasharray:none;stroke-opacity:1"
       d="m 3.0527963,219.64181 c -0.122883,-0.19882 0.7629524,-2.88971 3.9554429,-12.01536 1.0077781,-2.88071 2.3328979,-6.67481 2.9447106,-8.43134 0.6118132,-1.75653 1.5839862,-4.51588 2.1603842,-6.13189 0.969102,-2.717 1.734906,-4.90068 4.211225,-12.00827 0.514065,-1.47549 1.035766,-2.91265 1.159333,-3.19369 0.233431,-0.53092 1.134948,-3.09685 3.455997,-9.83657 2.975372,-8.63969 3.73521,-10.52399 4.042964,-10.02604 0.09066,0.1467 0.287097,1.34159 0.436521,2.6553 0.395111,3.47377 0.671674,5.69791 0.995944,8.00948 0.474204,3.3804 0.789418,5.99877 1.030386,8.55909 0.295324,3.13785 0.53527,4.59891 0.755267,4.59891 0.09706,0 0.901438,-0.9204 1.787513,-2.04532 2.410677,-3.06052 2.994399,-3.4983 4.942622,-3.70694 1.431493,-0.1533 1.846006,-0.33164 3.273816,-1.40855 0.899141,-0.67816 2.497097,-2.13247 3.551015,-3.2318 1.053918,-1.09933 3.090882,-3.20846 4.526586,-4.68696 l 2.610369,-2.68817 -0.699288,-0.76107 c -3.044742,-3.31376 -4.6492,-6.53848 -4.6492,-9.3442 0,-1.57111 0.40277,-2.32971 1.552659,-2.92434 0.616962,-0.31904 0.953105,-0.33782 1.836832,-0.10263 1.336978,0.35583 4.05744,1.75279 6.523419,3.34979 2.250476,1.45743 2.803155,1.65788 3.273721,1.18731 0.302859,-0.30286 0.29478,-0.78432 -0.05511,-3.28382 -0.479454,-3.42511 -0.382473,-11.51839 0.164435,-13.72255 0.182909,-0.73716 0.24563,-1.427 0.139382,-1.53297 -0.10625,-0.10597 -1.534305,-0.19268 -3.173455,-0.19268 -2.985801,0 -4.205905,0.23464 -6.173962,1.18732 -1.121366,0.54282 -1.262052,0.21748 -0.436066,-1.00842 2.10562,-3.1251 6.486665,-6.22604 11.091133,-7.8504 1.434836,-0.50617 1.344552,-0.37012 2.369095,-3.57029 1.278355,-3.99295 3.646131,-7.8145 6.789083,-10.95745 3.79117,-3.79117 7.529267,-5.78244 13.017889,-6.93461 2.08478,-0.43763 8.358151,-0.50763 10.398855,-0.11604 0.744658,0.1429 1.986276,0.38222 2.759149,0.53183 0.772873,0.14961 3.050086,0.73646 5.060473,1.30413 l 3.655254,1.03211 0.62049,-0.58291 c 0.81071,-0.76163 2.80022,-4.80947 3.32284,-6.76063 0.91254,-3.406912 0.74212,-7.513402 -0.42655,-10.27786 -2.28493,-5.404993 -8.81282,-10.180356 -15.742688,-11.516295 -1.160891,-0.223796 -2.110712,-0.485264 -2.110712,-0.581039 0,-0.206435 1.007607,-0.616551 2.427205,-0.987913 2.543636,-0.665412 7.75097,0.01748 10.763525,1.411514 3.13849,1.452319 5.81671,4.020114 7.11183,6.818617 1.50311,3.247929 1.45521,4.483271 -0.0664,1.713113 -1.16035,-2.112437 -3.4907,-4.518489 -5.58169,-5.763029 -1.90952,-1.136532 -4.103132,-2.056634 -4.339549,-1.820214 -0.08196,0.08196 0.691536,0.687809 1.718889,1.346322 3.93806,2.524234 6.81445,6.06856 8.04619,9.914619 0.55472,1.732083 0.66649,2.565601 0.67258,5.015503 0.005,1.843142 -0.14376,3.553052 -0.398,4.587942 -0.22291,0.90735 -0.34812,1.70691 -0.27825,1.77677 0.16171,0.16172 3.7918,-3.56926 5.17369,-5.317478 1.00972,-1.277394 1.18824,-1.688509 1.95251,-4.496419 1.26069,-4.631801 1.03954,-9.470767 -0.70063,-15.329712 -0.29215,-0.983656 -0.69596,-2.018412 -0.89734,-2.299456 -0.33175,-0.462973 -0.35162,-0.394186 -0.21144,0.731988 0.77077,6.192453 0.69744,10.626145 -0.24356,14.725471 -0.44748,1.949369 -1.15078,3.899789 -1.33853,3.712041 -0.0725,-0.07248 -0.10635,-0.916022 -0.0753,-1.874543 0.17412,-5.368462 -3.60072,-12.883917 -9.65195,-19.216406 -1.36073,-1.423982 -2.384424,-2.644452 -2.27487,-2.712161 0.109553,-0.06771 0.90708,0.254195 1.77228,0.715343 3.05665,1.629178 7.13775,6.419582 9.17143,10.765448 0.46394,0.991419 0.91388,1.642594 1.06881,1.54684 0.17864,-0.110405 0.21032,-1.249883 0.0953,-3.428255 -0.20937,-3.96586 -0.78334,-7.166311 -2.19644,-12.247379 -0.74775,-2.688707 -0.80723,-3.065943 -0.48338,-3.065943 0.37228,0 0.65564,0.352814 2.56506,3.19369 2.70184,4.019857 4.58205,8.227451 5.51823,12.348839 0.35129,1.546505 0.43993,3.074969 0.42108,7.260417 -0.0131,2.915839 0.007,5.301526 0.0448,5.301526 0.1553,0 5.56174,-5.640879 6.16145,-6.42864 0.35715,-0.469135 1.14432,-1.887729 1.74927,-3.15243 2.37222,-4.959369 2.93908,-8.435831 2.40309,-14.73774 -0.47037,-5.530288 -0.41944,-11.532381 0.11867,-13.983786 0.60815,-2.770541 1.82182,-6.249903 2.99312,-8.580773 1.0142,-2.01823 2.17179,-3.537831 2.52754,-3.317965 0.10061,0.06218 0.26451,1.064099 0.36423,2.226498 0.3642,4.245216 1.72077,10.928032 2.21831,10.928032 0.12226,0 0.22231,-1.35093 0.22233,-3.002068 7e-5,-4.717517 1.08517,-9.157482 3.32841,-13.619064 1.7596,-3.499663 5.7531,-8.855177 6.24609,-8.376356 0.0956,0.09283 0.33184,1.675767 0.52502,3.517627 0.19318,1.841859 0.42102,3.461755 0.50632,3.599763 0.25758,0.416785 0.63591,0.282192 0.63591,-0.226228 0,-0.985049 1.60077,-5.37115 2.94961,-8.081931 1.6772,-3.370689 3.56613,-5.94381 7.12724,-9.708817 2.51839,-2.662582 4.08202,-3.938711 4.41638,-3.604349 0.0826,0.08257 -0.1266,1.272239 -0.46481,2.643719 -0.56351,2.285109 -0.61328,2.98493 -0.59529,8.36999 0.0108,3.232014 0.15452,6.775748 0.31937,7.874965 0.16486,1.099217 0.29974,4.3979 0.29974,7.330408 0,2.93251 0.0974,5.392016 0.2164,5.465576 0.41536,0.256709 1.63463,-1.347806 1.86138,-2.449509 0.47232,-2.294925 0.97326,-8.394921 0.98057,-11.940517 0.004,-2.025862 0.0753,-3.615691 0.15802,-3.532952 0.44181,0.4418 0.69712,2.977628 0.84232,8.36607 l 0.16179,6.004137 1.23766,-1.277476 c 1.85428,-1.91394 1.87325,-1.972808 2.75799,-8.559089 0.29778,-2.216799 0.34668,-21.931089 0.0551,-22.212932 -0.0813,-0.07859 -0.94485,0.705714 -1.91897,1.742905 -1.93455,2.059809 -3.49917,4.927372 -4.05932,7.439772 -0.491,2.202232 -0.61878,2.294188 -0.71003,0.510991 -0.21698,-4.240437 1.2325,-7.375116 5.02102,-10.858546 1.34594,-1.237548 6.8107,-5.3479719 7.70267,-5.7937117 0.35193,-0.1758675 0.92731,-0.5054829 1.27861,-0.7324787 1.01655,-0.6568372 3.53872,-1.5912448 3.91027,-1.4486659 0.62675,0.2405043 1.61489,4.4254798 2.21481,9.3800793 0.3358,2.773334 0.33016,11.787522 -0.008,13.255596 -0.31215,1.353965 -0.1699,1.557829 0.63306,0.907278 0.33527,-0.271634 1.20601,-0.982515 1.93497,-1.579735 0.72897,-0.59722 1.50266,-1.085855 1.71931,-1.085855 0.58364,0 2.62614,2.148393 2.62614,2.76229 0,0.291538 -0.63235,1.275449 -1.40522,2.186468 -0.77288,0.911017 -1.40523,1.72237 -1.40523,1.803004 0,0.227583 2.47041,0.172879 4.19475,-0.09289 0.85464,-0.131723 2.47368,-0.370588 3.59786,-0.530809 1.12418,-0.160224 3.80322,-0.634157 5.95343,-1.053185 2.15021,-0.41903 4.2772,-0.726286 4.72666,-0.68279 l 0.81719,0.07908 -0.0579,1.405224 c -0.17198,4.176825 -2.85299,10.775791 -6.84051,16.837056 -1.09285,1.661205 -1.49902,2.055309 -2.81045,2.726967 -0.84313,0.431823 -1.76291,0.852917 -2.04396,0.935769 -0.28104,0.08285 -1.20083,0.403118 -2.04396,0.7117 -2.90329,1.062592 -4.44962,1.347321 -11.11404,2.04645 -6.1948,0.649862 -13.76542,2.332569 -16.80754,3.735782 -0.52216,0.240847 -1.44836,0.774401 -2.05823,1.185669 -1.3714,0.92481 -1.12837,1.378555 0.50149,0.936272 2.36066,-0.640601 10.98142,-0.215201 12.66605,0.625018 0.42286,0.210903 -0.96426,0.281418 -5.6209,0.285741 -6.66912,0.0062 -7.7575,0.16402 -10.55368,1.530472 -1.17945,0.576377 -3.93215,3.11208 -3.93225,3.622273 -2e-5,0.113803 1.52337,0.207007 3.38531,0.207117 2.63818,1.58e-4 3.97744,0.134015 6.06805,0.606497 3.27163,0.739393 5.4674,0.749235 8.73191,0.03913 4.73412,-1.029771 8.37151,-2.493666 11.83546,-4.763258 2.09293,-1.371301 5.47275,-4.547227 5.1658,-4.854176 -0.094,-0.09404 -0.83493,-0.0443 -1.64641,0.11054 -3.638,0.694173 -8.75704,1.179662 -8.75704,0.830518 0,-0.144823 0.31617,-0.332594 0.70261,-0.41727 0.38644,-0.08468 0.8678,-0.206468 1.06969,-0.270651 0.20189,-0.06418 2.44386,-0.577289 4.98215,-1.140234 2.5383,-0.562948 5.18207,-1.190669 5.87506,-1.394938 1.53713,-0.453092 1.67822,-0.457236 1.67822,-0.0493 0,0.609264 -2.23481,3.641092 -4.11802,5.586657 -2.01187,2.078492 -4.59435,3.889394 -7.58748,5.320535 -1.01424,0.484952 -1.81059,0.98221 -1.76965,1.105016 0.0957,0.287082 0.0309,0.285355 2.87417,0.07665 1.33328,-0.09787 2.5373,-0.108016 2.6756,-0.02254 0.61314,0.378946 -2.19718,3.797487 -4.72163,5.743509 -3.05208,2.352746 -10.0689,5.316985 -15.45746,6.529972 -3.76997,0.848635 -3.57043,1.00371 1.4709,1.143126 2.54065,0.07026 4.70466,0.21326 4.80891,0.317775 0.34879,0.349678 -0.9874,2.493173 -2.47702,3.973584 -2.41459,2.399675 -5.13668,3.850034 -9.66476,5.149495 -1.32703,0.380829 -2.45135,0.808111 -2.49848,0.949518 -0.0471,0.141403 0.39393,0.445501 0.98014,0.675772 1.3196,0.518353 1.13865,0.827947 -1.13381,1.939911 -4.61105,2.256275 -12.23102,3.963387 -17.5464,3.930936 -3.03817,-0.01855 -4.39984,-0.206608 -11.84688,-1.636163 l -1.49933,-0.287815 -1.29895,1.298953 c -0.71442,0.714423 -1.22343,1.374472 -1.13113,1.466775 0.0923,0.0923 1.0641,0.268495 2.15954,0.391538 1.09545,0.123042 2.45161,0.327487 3.0137,0.454317 4.81653,1.08682 6.18112,1.36604 8.28134,1.69445 2.99002,0.46755 4.86937,0.46867 7.81486,0.005 2.83697,-0.44693 4.06337,-0.70782 6.51513,-1.38599 3.04803,-0.843094 3.25954,-0.638877 0.90094,0.8699 -2.20686,1.41171 -6.67658,2.65106 -9.71553,2.69388 -2.45721,0.0346 -2.41695,0.33502 0.15921,1.18795 5.28027,1.74823 6.55058,1.95676 12.01897,1.97295 4.1467,0.0123 4.97513,0.0741 4.74271,0.35417 -0.33511,0.40378 -2.54755,1.55089 -3.63278,1.88355 -4.13535,1.26758 -7.0048,1.63895 -10.09867,1.30698 -1.33262,-0.14299 -2.52144,-0.17288 -2.64182,-0.0664 -0.12038,0.10646 0.23395,0.69294 0.78739,1.30328 1.33456,1.47176 2.35624,3.03595 3.35504,5.13657 0.78017,1.64081 1.52826,4.40322 1.264,4.66748 -0.0677,0.0677 -1.37756,-1.12027 -2.91081,-2.63992 -3.61451,-3.58242 -5.62442,-5.04726 -9.68611,-7.05929 -6.7527,-3.34509 -11.72731,-4.26381 -18.7237,-3.45795 l -2.92894,0.33737 -1.46421,1.22347 c -1.28542,1.07406 -2.32142,2.21808 -2.90387,3.20661 -0.26992,0.45813 4.97688,2.09168 10.05227,3.1297 0.63235,0.12933 2.44317,0.37832 4.02405,0.55332 1.95397,0.2163 2.87432,0.42011 2.87432,0.63653 0,0.48688 -2.47126,2.56408 -4.47117,3.7582 -6.01804,3.59331 -11.23786,4.2242 -20.33882,2.45822 -1.46066,-0.28343 -2.88569,-0.43934 -3.16674,-0.34645 -0.58383,0.19295 -9.325572,9.08402 -9.325572,9.48488 0,0.26587 2.524392,1.03564 7.379304,2.25022 10.530808,2.63452 19.696598,2.58349 28.961618,-0.16126 2.22923,-0.66041 5.12748,-1.80983 6.41553,-2.54435 1.57806,-0.8999 0.0713,1.3568 -2.62746,3.93517 -3.04176,2.90608 -5.66822,4.69103 -9.83273,6.68235 -4.84345,2.31597 -8.43984,3.44936 -14.32781,4.51538 -2.32955,0.42177 -11.477871,0.43481 -13.605122,0.0194 -0.878264,-0.1715 -2.315425,-0.44126 -3.19369,-0.59946 -0.878264,-0.1582 -3.148978,-0.69152 -5.04603,-1.18515 -1.897052,-0.49363 -4.001569,-1.02054 -4.676704,-1.1709 l -1.227517,-0.27338 -1.551257,1.65015 c -0.85319,0.90758 -4.066168,4.18541 -7.139949,7.28405 -3.073784,3.09862 -5.588695,5.7568 -5.588695,5.90704 0,0.66686 6.893632,1.87568 10.651992,1.86787 2.26927,-0.005 6.493794,-0.52558 8.382401,-1.0335 2.624445,-0.70582 2.607748,-0.72394 1.115296,1.21056 -2.658579,3.44601 -6.87731,6.44222 -11.066412,7.85955 -4.98031,1.68503 -11.110284,1.65446 -16.36489,-0.0816 l -1.532971,-0.50648 -3.065943,3.13151 c -7.810938,7.978 -7.704573,7.85242 -8.273356,9.76767 -0.287036,0.96652 -0.676805,2.3652 -0.866155,3.10817 -0.398345,1.56303 -0.414272,1.5832 -3.33921,4.22896 -1.217825,1.10159 -2.159529,2.09139 -2.092676,2.19957 0.138406,0.22394 0.796506,0.30886 9.07825,1.17141 9.254688,0.96388 14.822315,1.76591 14.816063,2.13428 -0.0033,0.19585 -1.887453,1.07131 -6.640216,3.0854 -2.037574,0.86346 -4.049599,1.72457 -4.471166,1.91357 -0.421567,0.189 -2.95097,1.22696 -5.620895,2.3066 -2.669925,1.07963 -5.601732,2.28581 -6.515128,2.68039 -0.913395,0.39459 -3.500284,1.4901 -5.748642,2.43447 -2.248358,0.94437 -4.557079,1.92832 -5.130489,2.18656 -0.573411,0.25823 -1.656389,0.71147 -2.40662,1.00718 -0.750231,0.29571 -1.833208,0.75081 -2.406619,1.01133 -0.57341,0.26052 -2.939618,1.24343 -5.258237,2.18423 -2.318619,0.94081 -4.560589,1.86517 -4.982156,2.05415 -4.1633733,1.86625 -10.3758658,4.36451 -10.4709207,4.2107 z m 10.2404197,-6.26672 c 2.451621,-1.05392 4.513684,-1.91621 4.582363,-1.91621 0.06868,0 0.66974,-0.24346 1.335691,-0.54102 2.923736,-1.30638 3.385687,-1.50295 3.532009,-1.50295 0.144833,0 5.430382,-2.19048 7.132131,-2.95575 1.382952,-0.62192 9.887215,-4.19811 9.983184,-4.19811 0.05155,0 0.702737,-0.27857 1.447076,-0.61903 0.744337,-0.34047 1.981713,-0.86672 2.749724,-1.16944 0.768011,-0.30272 2.005387,-0.82896 2.749724,-1.16943 0.744339,-0.34047 1.41946,-0.61903 1.500268,-0.61903 0.08081,0 1.543306,-0.58801 3.249991,-1.30668 1.706687,-0.71867 3.3905,-1.42299 3.741806,-1.56515 l 0.638738,-0.25848 -0.766485,-0.21938 c -0.740321,-0.21189 -3.219122,-0.51227 -8.303595,-1.00622 -2.808114,-0.2728 -5.997507,-0.64225 -8.583361,-0.99426 -1.617683,-0.22022 -2.002567,-0.18257 -3.576933,0.34987 -0.970307,0.32815 -3.316328,0.97397 -5.21338,1.43516 -3.836304,0.93263 -3.537903,0.73389 -7.223859,4.81116 -2.159872,2.38918 -2.228058,2.27778 0.964226,1.57532 1.126944,-0.24798 2.495118,-0.51894 6.515128,-1.29028 7.218195,-1.38499 11.966732,-2.0907 12.407614,-1.84396 0.269108,0.15059 -0.014,0.30541 -0.967565,0.52907 -0.741394,0.17389 -1.807879,0.43583 -2.369969,0.58207 -1.461259,0.38019 -2.642137,0.66532 -3.960176,0.95621 -2.574829,0.56826 -3.50279,0.7774 -4.598913,1.0365 -3.352631,0.79248 -9.726534,2.06345 -10.348195,2.06345 -0.559123,0 -1.246914,0.52463 -3.161692,2.41164 -1.345918,1.3264 -2.381654,2.4771 -2.301636,2.55712 0.08002,0.08 1.169686,-0.18559 2.421484,-0.59024 3.438991,-1.11167 7.263246,-2.30215 8.407882,-2.61734 0.56209,-0.15478 1.286079,-0.38442 1.608866,-0.51031 0.679955,-0.26518 2.006621,-0.31002 1.755942,-0.0593 -0.193325,0.19332 -1.253513,0.58148 -6.813993,2.49476 -2.178097,0.74945 -4.650013,1.6175 -5.493147,1.92899 -0.843134,0.3115 -2.044994,0.67103 -2.670799,0.79897 -1.312118,0.26825 -2.09141,0.93886 -3.864775,3.32582 -1.213812,1.6338 -1.422771,2.01271 -1.1099483,2.01271 0.080895,0 2.1529543,-0.86229 4.6045743,-1.91621 z m -2.691175,-3.60743 c 1.026887,-1.3214 1.344602,-2.15727 3.678711,-9.67832 1.890984,-6.0932 2.407464,-7.53711 2.69598,-7.53711 0.210571,0 0.130703,0.39878 -1.074559,5.3654 -0.709421,2.92337 -1.327116,5.17029 -2.018913,7.344 -0.468284,1.4714 0.02336,1.39516 1.597941,-0.24777 1.790947,-1.8687 2.062467,-2.34962 2.491796,-4.41353 0.175387,-0.84313 0.414255,-1.99286 0.530817,-2.55495 0.26164,-1.26169 0.571622,-3.13826 1.413829,-8.55909 0.36023,-2.31862 0.755019,-4.73305 0.877306,-5.3654 0.122288,-0.63235 0.365381,-2.01203 0.540207,-3.06594 0.174827,-1.05392 0.470854,-2.20365 0.657836,-2.55495 0.30291,-0.56912 0.325192,-0.44379 0.204414,1.14972 -0.212835,2.80808 -0.730578,6.91176 -1.885731,14.94647 -0.393958,2.74019 -0.653935,5.08987 -0.577728,5.22151 0.07621,0.13165 1.148893,-0.84562 2.383747,-2.17171 1.966248,-2.11151 2.263938,-2.5539 2.396118,-3.56079 0.492383,-3.75075 0.973268,-6.70115 1.306184,-8.01388 0.230344,-0.90827 0.323567,-2.01553 0.236619,-2.81045 -0.07891,-0.72143 -0.429965,-3.89858 -0.780119,-7.06033 -0.350153,-3.16175 -0.699239,-6.38099 -0.775745,-7.15387 -0.194664,-1.96658 -0.380825,-2.81044 -0.619995,-2.81044 -0.112974,0 -0.264728,0.25868 -0.33723,0.57486 -0.07251,0.31618 -0.612001,1.89705 -1.198886,3.51306 -0.586885,1.61601 -1.162978,3.22563 -1.28021,3.57693 -0.117231,0.35131 -0.864404,2.47831 -1.660384,4.72666 -0.79598,2.24836 -1.616919,4.6053 -1.82431,5.23765 -0.20739,0.63236 -0.481125,1.37968 -0.608298,1.66072 -0.12717,0.28105 -0.802225,2.1781 -1.500118,4.21567 -1.377294,4.02117 -2.301574,6.63972 -3.742584,10.60305 -1.710813,4.70539 -4.2092386,12.21171 -4.2015326,12.62316 0.00811,0.43294 1.2805208,-0.8914 3.0748376,-3.20033 z m 20.002703,-16.70499 c 3.888415,-0.98297 4.874716,-1.44593 6.371269,-2.99063 l 1.224213,-1.26359 -3.01268,0.0163 c -2.330451,0.0127 -3.235164,-0.0835 -3.995155,-0.42471 l -0.982474,-0.44107 0.17331,-1.3442 c 0.09532,-0.73931 0.338495,-2.07969 0.54039,-2.9786 0.201895,-0.89892 0.306876,-1.6946 0.233293,-1.76818 -0.473149,-0.47315 -3.471281,3.79048 -3.919764,5.57428 -0.326316,1.29789 -0.732392,3.68126 -0.903273,5.30153 -0.109017,1.03369 -0.08193,1.08582 0.563781,1.08516 0.373064,-2.5e-4 2.041256,-0.34523 3.70709,-0.76635 z m 7.873103,-6.34526 c 2.565884,-0.19626 3.245701,-0.63028 3.780744,-2.41377 0.177702,-0.59234 0.412936,-1.36442 0.522743,-1.71572 0.109804,-0.35131 0.402287,-1.32858 0.649959,-2.17171 0.488717,-1.6637 0.36217,-1.51446 7.455741,-8.79308 1.860353,-1.90888 3.383743,-3.58795 3.385312,-3.73128 0.0015,-0.14332 -0.812544,-0.76375 -1.809146,-1.37873 l -1.812003,-1.11813 -4.057481,4.05153 c -4.557552,4.55088 -4.082607,3.65479 -4.93398,9.30897 -0.56454,3.74924 -1.073346,5.3654 -1.689161,5.3654 -0.268449,0 -0.764411,-0.37366 -1.102137,-0.83036 -0.955936,-1.29269 -1.005065,-1.43698 -0.438844,-1.28891 0.380466,0.0995 0.580669,-0.0497 0.803177,-0.5987 0.406508,-1.0029 0.977425,-4.77468 0.758507,-5.01108 -0.09777,-0.10558 -0.63175,0.13359 -1.186635,0.53148 -1.214387,0.87079 -2.148485,1.23185 -3.732054,1.44258 l -1.190204,0.15839 -0.561203,2.47893 c -0.308661,1.36341 -0.664109,2.81226 -0.789884,3.21967 -0.125775,0.40741 -0.228684,1.18347 -0.228684,1.72459 v 0.98386 l 1.980088,-0.0223 c 1.089049,-0.0122 2.976864,-0.0985 4.195145,-0.19167 z m 32.687385,-18.55894 c 5.1942,-1.1633 5.340667,-1.38833 0.866887,-1.33187 -3.636131,0.0459 -5.993439,-0.17525 -5.63964,-0.52904 0.08867,-0.0887 1.796267,-0.17642 3.794661,-0.195 2.522466,-0.0234 4.219358,-0.17479 5.54966,-0.49497 2.121699,-0.51065 4.348843,-1.44489 4.831831,-2.02686 0.274836,-0.33116 -0.213929,-0.37765 -3.941747,-0.37496 -2.340518,0.002 -5.079148,-0.13041 -6.085845,-0.29353 -6.01495,-0.97468 -11.697881,-3.07474 -16.766962,-6.19603 -5.075847,-3.12547 -6.65274,-3.92436 -6.65274,-3.37043 0,0.41576 1.439605,2.12366 3.547742,4.20892 2.80264,2.77222 6.530445,5.27207 9.993504,6.70159 0.491828,0.20303 1.296638,0.5622 1.788466,0.79818 l 0.894233,0.42904 -1.470561,-0.13704 c -3.01609,-0.28106 -8.272715,-3.15543 -11.657104,-6.37422 -0.896712,-0.85284 -2.290983,-2.44645 -3.098386,-3.54137 -1.59234,-2.15939 -1.993488,-2.16295 -1.425947,-0.0126 1.649406,6.24924 8.986906,11.7922 17.390512,13.13731 1.702878,0.27257 6.043795,0.0593 8.081436,-0.39707 z m -0.884346,-16.63162 c 3.914149,-4.01501 7.14801,-7.38587 7.186363,-7.4908 0.08059,-0.2205 -0.497894,-0.5157 -2.592983,-1.32321 l -1.501269,-0.57863 -7.439656,7.4761 -7.439652,7.4761 0.765078,0.40419 c 1.060614,0.56032 2.979544,1.28271 3.485011,1.31195 0.233458,0.0135 3.585791,-3.22256 7.537108,-7.2757 z m -9.633439,0.28922 1.372633,-1.38989 0.04519,-4.93361 c 0.02486,-2.71349 0.134805,-5.46225 0.244333,-6.10837 l 0.199146,-1.17476 -1.290458,-0.42208 c -1.852588,-0.60596 -1.95624,-0.57007 -2.285975,0.79151 -0.745013,3.07639 -0.922892,6.11264 -0.590321,10.07639 0.325227,3.87622 0.437842,4.55071 0.759807,4.55071 0.09516,0 0.790699,-0.62545 1.545645,-1.3899 z m 7.155299,-7.01593 c 1.834328,-1.74249 3.33514,-3.25752 3.33514,-3.36674 0,-0.10921 -0.918347,-0.55271 -2.040773,-0.98557 -3.505435,-1.35183 -4.390488,-1.60791 -4.65234,-1.34605 -0.69285,0.69284 -0.877205,9.1855 -0.194141,8.94343 0.119334,-0.0423 1.717786,-1.50257 3.552114,-3.24507 z m 38.899764,1.1226 c 5.70372,-0.76024 8.06481,-1.65305 4.4076,-1.66666 -2.99772,-0.0112 -9.48534,-0.73343 -12.506489,-1.39235 -2.486635,-0.54234 -5.156667,-1.27615 -5.727786,-1.57418 -0.789753,-0.41212 -0.801729,-0.4112 1.128872,-0.0868 6.944053,1.16678 10.650943,1.51748 16.096203,1.52283 6.48987,0.006 9.61697,-0.53056 13.03025,-2.23731 1.81707,-0.90859 4.25219,-2.60171 4.09881,-2.84988 -0.0714,-0.11553 -0.90786,-0.0124 -1.85881,0.22905 -5.06314,1.28584 -10.64328,1.74505 -15.97374,1.31455 -2.13458,-0.1724 -4.45916,-0.42392 -5.16572,-0.55895 -5.746279,-1.09812 -10.794276,-2.42576 -16.869868,-4.43684 -10.742661,-3.55593 -13.573758,-4.21165 -19.042413,-4.41044 -3.147195,-0.11441 -4.415849,-0.055 -6.131885,0.28712 -3.555328,0.70881 -6.139749,1.73619 -8.665598,3.44482 -1.298013,0.87805 -1.216625,0.94446 1.392004,1.13575 4.05612,0.29745 9.256027,1.81195 18.523403,5.39506 5.242501,2.02694 7.791153,2.93241 11.114042,3.94852 2.446027,0.74797 8.195852,1.86028 11.114041,2.15002 2.470573,0.2453 8.461694,0.12897 11.037084,-0.2143 z m -25.08932,-8.18832 c -1.19444,-0.32415 -2.976519,-0.83547 -3.960176,-1.13629 -0.983656,-0.30081 -2.880708,-0.87185 -4.215671,-1.26898 -1.334962,-0.39713 -2.714636,-0.8415 -3.065942,-0.98749 -0.633061,-0.26308 -0.631541,-0.26558 0.170985,-0.28163 1.950197,-0.039 13.881251,3.48732 13.881251,4.10272 0,0.30131 -0.277708,0.25899 -2.810447,-0.42833 z m 12.013134,-9.82748 c 2.456469,-2.53216 4.466307,-4.74033 4.466307,-4.90705 0,-0.28898 -1.087153,-0.68974 -3.321438,-1.22439 l -1.021981,-0.24456 -4.407292,4.47226 c -2.424011,2.45973 -4.406204,4.67153 -4.404873,4.91509 0.0018,0.31297 0.470029,0.60499 1.596845,0.99574 0.876934,0.3041 1.826558,0.56279 2.110276,0.57487 0.347994,0.0148 1.969168,-1.47614 4.982156,-4.58196 z m -6.661621,-2.39462 c 2.915906,-2.92843 4.32955,-4.51708 4.087923,-4.59399 -1.5813,-0.50335 -6.326759,-1.16395 -8.434405,-1.17413 -4.014755,-0.0194 -7.717869,1.15286 -10.523656,3.33134 -1.281091,0.99467 -3.767126,3.75225 -3.767126,4.1786 0,0.18545 0.988843,0.42631 2.618826,0.63789 2.294664,0.29786 10.323971,2.14675 10.623463,2.44624 0.24691,0.24691 1.133353,-0.54603 5.394975,-4.82595 z m -22.157091,2.23351 c 0.848195,-0.13599 1.076186,-0.35283 2.102827,-2.00001 1.781423,-2.85817 4.435653,-5.04122 7.80438,-6.41892 2.587791,-1.05833 4.234172,-1.36098 7.409361,-1.36206 4.162099,-0.002 7.875093,0.56918 13.858454,2.12972 5.748606,1.49931 6.152636,1.59996 7.730896,1.92589 0.84313,0.17411 2.10783,0.4412 2.81044,0.59352 1.80035,0.39031 8.38227,0.36934 10.09206,-0.0322 2.57947,-0.60571 5.9332,-2.09406 6.99108,-3.10257 0.45894,-0.43753 0.40873,-0.4646 -1.40522,-0.75765 -3.87796,-0.6265 -7.77778,-1.77048 -14.40044,-4.22425 -4.56611,-1.6918 -8.49421,-3.05505 -9.964314,-3.45813 -8.569882,-2.34972 -13.254338,-2.60407 -19.289889,-1.04736 -2.239293,0.57757 -5.266829,2.08737 -7.354856,3.66779 -2.374442,1.79721 -3.075654,2.78415 -1.24929,1.75834 2.39247,-1.34377 8.591525,-2.53067 9.770735,-1.87075 0.419761,0.23491 0.369224,0.28429 -0.407581,0.3983 -5.712526,0.83839 -7.679172,1.54021 -11.153927,3.98044 -2.022225,1.42015 -2.936729,2.47028 -4.2463,4.87606 -1.020336,1.87443 -2.037319,4.78776 -1.803418,5.16622 0.08521,0.13786 0.514634,0.17854 0.95429,0.0904 0.439656,-0.0881 1.227475,-0.22892 1.750712,-0.31281 z m 47.081758,-7.40172 c -2.04456,-0.33003 -3.8613,-0.86377 -8.17584,-2.402 -2.10449,-0.75029 -4.42336,-1.49059 -6.387385,-2.03917 -0.678079,-0.1894 -1.882678,-0.49428 -4.982156,-1.26098 -0.491829,-0.12167 -1.699044,-0.36648 -2.6827,-0.54405 -0.983657,-0.17755 -1.95682,-0.47625 -2.162586,-0.66376 -0.477277,-0.43493 -0.387545,-0.43416 2.801324,0.024 3.430125,0.49287 10.169073,2.26711 14.818723,3.90149 4.35133,1.52952 6.59077,2.24286 7.85355,2.50166 0.73204,0.15002 1.30002,0.55227 1.05049,0.74397 -0.0492,0.0378 -1.00924,-0.0797 -2.13342,-0.2612 z m 33.107,-6.44635 c -0.64341,-1.20222 -4.87679,-4.67925 -7.49872,-6.15898 -2.6635,-1.50319 -2.15323,-1.57738 1.85746,-0.27007 2.70628,0.88212 4.01934,1.21061 6.13188,1.534 3.40712,0.52157 5.98623,0.14761 3.38214,-0.4904 -2.67788,-0.65608 -8.25391,-2.56268 -10.92457,-3.73541 -2.08599,-0.916 -6.06678,-2.38097 -7.29866,-2.68599 -0.76057,-0.18832 -2.76253,-0.34799 -4.4488,-0.35481 -2.82304,-0.0114 -3.13289,0.0354 -3.91101,0.59033 -0.46479,0.3315 -0.79588,0.65192 -0.73577,0.71203 0.0601,0.0601 1.59012,0.13915 3.40002,0.17563 2.28279,0.046 3.50177,0.18008 3.97974,0.43769 0.63314,0.34125 0.41557,0.37227 -2.6827,0.38245 -3.90497,0.0129 -5.97318,0.46494 -7.11018,1.55426 -0.40299,0.38608 -0.7327,0.79543 -0.7327,0.90966 0,0.11423 1.90363,0.2077 4.23028,0.2077 2.32666,0 4.76983,0.12206 5.42927,0.27125 0.65945,0.1492 1.71638,0.39225 2.34873,0.54012 3.91909,0.91645 9.87575,3.6138 13.64077,6.17695 1.18023,0.80348 1.2748,0.8239 0.94282,0.20359 z m -32.07205,-4.7106 c 1.96018,-2.00781 4.24626,-4.39349 5.08018,-5.30152 1.89385,-2.06215 7.60738,-7.955617 15.59529,-16.086435 9.43368,-9.602455 14.53652,-14.899123 26.08049,-27.071113 1.27202,-1.34122 2.9437,-3.128419 3.71486,-3.971553 1.30931,-1.431537 5.21934,-5.627208 12.61934,-13.541245 5.68369,-6.078517 10.05731,-11.089245 11.54916,-13.231535 0.48177,-0.691819 0.59541,-1.046294 0.39853,-1.24317 -0.19688,-0.196877 -0.4276,-0.168801 -0.80918,0.09846 -1.43319,1.003843 -9.24194,8.66216 -23.51511,23.062096 -8.63623,8.712925 -25.36478,25.531518 -37.17456,37.374647 -11.80977,11.843128 -21.47232,21.657538 -21.47232,21.809798 0,0.28523 3.26695,1.71495 3.97314,1.73877 0.21792,0.007 2,-1.62938 3.96018,-3.6372 z M 147.9142,96.116159 c 5.16403,-1.104429 8.55909,-2.320259 8.55909,-3.065168 0,-0.313516 -0.31004,-0.397229 -1.4691,-0.396677 -1.97618,0.001 -6.99572,-0.523198 -7.47324,-0.780359 -0.51025,-0.27479 0.70955,-0.753312 1.92028,-0.753312 0.47576,0 1.4168,-0.105108 2.0912,-0.233577 0.6744,-0.128465 2.26093,-0.36722 3.52563,-0.530566 4.75344,-0.613937 7.74953,-1.380205 10.21981,-2.613772 2.19284,-1.095024 5.23765,-3.418099 5.23765,-3.996129 0,-0.121097 -2.04076,-0.22389 -4.53504,-0.228428 -2.49427,-0.0045 -6.77701,-0.150783 -9.51719,-0.324987 -5.23203,-0.332622 -13.45967,-0.189383 -15.08875,0.262685 -0.49981,0.138698 -1.2399,0.597825 -1.64464,1.020281 l -0.73589,0.768103 4.32735,4.4e-5 c 4.39432,4.6e-5 6.80627,0.298691 9.51041,1.177574 1.6949,0.550869 1.38576,0.953079 -0.46983,0.611275 -5.31177,-0.978436 -12.83975,-0.603346 -15.57178,0.77588 -0.90841,0.458596 -2.2222,1.685571 -2.02066,1.887121 0.0608,0.06077 1.14389,0.179899 2.40692,0.264732 2.60346,0.174866 4.97914,0.625784 4.97914,0.945074 0,0.118079 -1.81083,0.214869 -4.02405,0.215086 -3.32503,2.55e-4 -4.17675,0.078 -4.90307,0.447116 -1.90031,0.965744 -1.52826,1.092378 6.62766,2.255865 2.59966,0.370856 4.83588,0.776605 4.96938,0.901668 0.52636,0.493103 -5.76477,0.193859 -12.07914,-0.574561 -2.06647,-0.251473 -2.4354,-0.237697 -2.7768,0.103703 -0.21654,0.21654 -0.32594,0.503364 -0.24311,0.637384 0.22583,0.365415 5.52604,1.533769 7.70246,1.697901 2.47161,0.186392 8.70676,-0.09572 10.47531,-0.473956 z M 130.08645,82.722373 c 1.87574,-2.452391 2.68847,-9.091329 1.75558,-14.340803 -0.39123,-2.201489 -1.21706,-5.533877 -1.65124,-6.663082 -0.44786,-1.164795 -0.62146,0.152232 -0.45128,3.423725 0.47517,9.134531 0.48345,10.756131 0.0682,13.346599 -0.22661,1.413576 -0.58433,3.138168 -0.79493,3.832428 -0.2106,0.694262 -0.38415,1.358105 -0.38568,1.475206 -0.006,0.454031 0.67245,-0.04521 1.45938,-1.074073 z m 25.36486,-1.581904 c 7.46593,-0.958411 16.84887,-3.635209 22.36317,-6.379848 2.25781,-1.123778 5.46664,-3.495031 5.47835,-4.048375 0.006,-0.263239 -0.23419,-0.314951 -0.95065,-0.205035 -0.52696,0.08084 -2.74019,0.220416 -4.91829,0.310161 -3.78909,0.156123 -6.22374,-0.01055 -9.70881,-0.664619 -0.77288,-0.145053 -2.03758,-0.378172 -2.81045,-0.518043 -2.51808,-0.455703 -7.81909,-0.580881 -9.14358,-0.215913 -1.15669,0.31873 -3.12035,1.415908 -3.12004,1.7433 8e-5,0.08672 1.75341,0.161222 3.8963,0.165565 4.10272,0.0083 8.06885,0.552054 9.34859,1.281654 0.67041,0.382208 0.66415,0.385667 -0.47028,0.260122 -3.34405,-0.37008 -9.09641,-0.455027 -10.81462,-0.159702 -4.11286,0.706911 -5.35043,1.409802 -8.43701,4.791889 l -0.72823,0.797944 4.04967,-0.130683 c 3.30573,-0.106677 4.13963,-0.06213 4.5394,0.242516 0.44014,0.335404 0.16846,0.387395 -2.6827,0.513374 -4.16767,0.184149 -8.08178,1.264658 -8.49751,2.345781 -0.13599,0.353651 9.62286,0.252948 12.60669,-0.130088 z m -19.49437,-4.681704 c 1.08417,-2.096568 1.39276,-6.036179 0.72273,-9.226923 -0.20656,-0.983656 -0.90497,-3.570545 -1.55204,-5.748642 -1.61781,-5.445775 -2.4154,-8.826896 -2.4154,-10.239299 0,-1.863214 -0.9822,0.05019 -2.08018,4.05234 -0.5288,1.927514 -0.53041,3.169035 -0.006,4.909483 0.68903,2.288351 1.02012,3.579227 1.57272,6.131885 0.82837,3.826546 1.01582,5.523824 1.02993,9.325574 l 0.0152,4.087924 1.15409,-1.254346 c 0.63475,-0.689889 1.33645,-1.606989 1.55934,-2.037996 z m 7.11909,-6.931449 c 1.40145,-1.708867 2.38106,-5.372206 3.34671,-12.515282 0.16048,-1.187084 0.18558,-1.223242 0.35473,-0.51099 0.25568,1.076565 0.25504,4.730751 -0.001,7.153865 -0.1189,1.124179 -0.16899,2.093065 -0.11131,2.153084 0.1944,0.202275 1.60557,-1.324773 2.00806,-2.172941 0.62189,-1.310476 1.15746,-6.196783 1.15746,-10.559925 0,-3.429374 0.0474,-3.900832 0.34869,-3.46543 0.45625,0.659431 0.99414,7.844129 0.77596,10.364738 l -0.16376,1.892008 1.95425,-1.916214 c 1.07483,-1.053918 2.17413,-2.376105 2.44287,-2.938195 0.76574,-1.601548 1.787,-7.528695 1.96728,-11.4176 0.15664,-3.378944 0.34869,-4.371392 0.76533,-3.954761 0.32277,0.322777 0.18349,9.082992 -0.1764,11.09423 -0.18244,1.019563 -0.24684,1.93861 -0.14313,2.042326 0.18027,0.180272 1.21657,-0.895787 2.13662,-2.218587 0.57602,-0.828178 0.74377,-7.893358 0.30676,-12.919281 -0.17107,-1.967313 -0.36558,-6.250051 -0.43224,-9.517196 -0.0667,-3.267145 -0.21295,-5.940263 -0.32507,-5.940263 -0.40258,0 -1.81795,4.142764 -2.31318,6.770622 -0.59465,3.15544 -0.94337,4.743108 -1.06949,4.86922 -0.33997,0.339972 -0.45095,-2.866326 -0.18966,-5.479874 0.15849,-1.585419 0.23125,-2.939505 0.16167,-3.00908 -0.22297,-0.222969 -2.76541,3.762595 -3.76237,5.897939 -1.56185,3.345265 -2.81034,7.700561 -3.55823,12.412769 -0.16727,1.053918 -0.40892,2.467994 -0.537,3.142392 -0.12807,0.674397 -0.23286,1.622923 -0.23286,2.107835 0,0.92442 -0.38491,1.200922 -0.60491,0.434541 -0.20576,-0.716779 -1.38616,-7.1148 -1.82658,-9.900439 -0.60582,-3.831814 -0.59614,-3.799047 -1.01914,-3.447984 -1.09795,0.911219 -3.52305,5.362578 -4.45677,8.180591 -1.49815,4.521465 -1.74225,7.822356 -1.17093,15.834757 0.23546,3.302275 0.40699,7.211351 0.38117,8.686836 -0.0258,1.475485 -0.0331,2.797673 -0.0163,2.938195 0.0316,0.26271 2.50685,-2.267556 4.00301,-4.091906 z M 173.61775,55.27585 c 3.20073,-0.64453 4.96496,-0.934241 8.91605,-1.464136 6.96403,-0.93397 9.20606,-1.508615 12.77476,-3.274237 1.77734,-0.879343 2.02419,-1.104966 3.40606,-3.113138 1.54508,-2.245355 4.43294,-7.824747 4.18063,-8.077053 -0.0791,-0.07914 -1.5634,0.55759 -3.29836,1.414945 -1.73497,0.857357 -3.34533,1.55883 -3.57858,1.55883 -0.23326,0 -0.48696,0.101717 -0.5638,0.226036 -0.16733,0.270751 -1.67892,0.525068 -1.67892,0.282473 0,-0.09322 1.00601,-0.666546 2.23558,-1.274073 2.75159,-1.359548 7.35392,-4.410483 7.73921,-5.130405 0.81327,-1.519601 1.2063,-4.121303 0.56249,-3.723405 -0.17806,0.110042 -2.25213,0.468961 -6.96035,1.204486 -0.91339,0.142692 -2.29307,0.362259 -3.06594,0.487927 -0.77287,0.125668 -2.84239,0.362136 -4.59892,0.525487 -1.75653,0.163348 -3.38823,0.372116 -3.62601,0.463926 -0.49369,0.190614 -4.03884,4.019964 -4.03884,4.362606 0,0.124012 0.54612,0.06001 1.2136,-0.142219 2.66936,-0.80876 9.24146,-2.152294 11.29649,-2.309342 1.95388,-0.149319 2.14678,-0.125336 1.85329,0.230416 -0.18017,0.218397 -0.64006,0.452668 -1.02198,0.520602 -3.08243,0.548303 -13.8439,3.583933 -15.31526,4.320176 -1.04926,0.525032 -4.60324,3.93868 -4.35698,4.18494 0.0675,0.06753 0.97347,-0.06804 2.01321,-0.30126 1.91228,-0.428946 9.48549,-0.634147 9.85267,-0.266964 0.33134,0.331346 -0.097,0.412852 -2.9938,0.569631 -4.13846,0.22398 -8.16725,1.097636 -10.41011,2.257464 -0.98035,0.506959 -3.66285,2.957903 -3.50929,3.206367 0.065,0.105142 1.07077,-0.01745 2.23509,-0.272409 1.16432,-0.254966 3.50424,-0.602996 5.19981,-0.773401 2.72903,-0.274269 3.19821,-0.262067 4.08792,0.106304 l 1.00507,0.416132 -1.61178,0.01316 c -3.55667,0.02905 -9.00035,1.161589 -12.04157,2.505197 -1.00473,0.44389 -3.38964,2.581633 -3.208,2.875529 0.0664,0.10751 1.02494,-0.06738 2.12998,-0.388651 1.10505,-0.321267 3.43451,-0.871144 5.17658,-1.221947 z m -0.74029,-15.722405 c 0.63552,-1.028287 1.19364,-4.664017 1.21263,-7.899309 0.012,-2.050099 0.28298,-2.699781 0.63932,-1.532971 0.0966,0.316175 0.24047,1.983281 0.31979,3.70468 0.0964,2.092744 0.24097,3.129816 0.4362,3.129816 0.16058,0 1.5662,-1.26418 3.1236,-2.809292 l 2.83164,-2.80929 0.16009,-1.598001 c 0.57001,-5.689568 0.4526,-14.021901 -0.2538,-18.011332 -0.19117,-1.079601 -0.51407,-0.852457 -0.72513,0.510094 -0.7425,4.793196 -1.63546,8.4978 -1.96814,8.165123 -0.20387,-0.203871 0.001,-2.954187 0.56592,-7.591598 0.30565,-2.509683 0.32139,-4.7266607 0.0336,-4.7266607 -0.49848,0 -4.59784,2.6632127 -5.58116,3.6258817 -1.68138,1.646074 -1.75125,2.185073 -1.67798,12.945095 0.0473,6.951033 -0.0325,10.102397 -0.31705,12.519264 -0.20917,1.776446 -0.38135,3.448922 -0.38262,3.716617 -0.002,0.473111 0.0122,0.473581 0.51692,0.01681 0.28558,-0.258449 0.76538,-0.868165 1.06621,-1.354927 z"
       id="path836" />
  </g>
</svg>
