<?xml version="1.0" encoding="UTF-8" standalone="no"?>
<!-- Created with Inkscape (http://www.inkscape.org/) -->

<svg
   width="97mm"
   height="97mm"
   viewBox="0 0 97 97"
   version="1.1"
   id="svg5"
   sodipodi:docname="berlet.svg"
   inkscape:version="1.1.2 (b8e25be833, 2022-02-05)"
   xmlns:inkscape="http://www.inkscape.org/namespaces/inkscape"
   xmlns:sodipodi="http://sodipodi.sourceforge.net/DTD/sodipodi-0.dtd"
   xmlns="http://www.w3.org/2000/svg"
   xmlns:svg="http://www.w3.org/2000/svg">
  <sodipodi:namedview
     id="namedview7"
     pagecolor="#505050"
     bordercolor="#eeeeee"
     borderopacity="1"
     inkscape:pageshadow="0"
     inkscape:pageopacity="0"
     inkscape:pagecheckerboard="0"
     inkscape:document-units="mm"
     showgrid="false"
     inkscape:zoom="1.4142136"
     inkscape:cx="221.67797"
     inkscape:cy="71.06423"
     inkscape:window-width="1920"
     inkscape:window-height="991"
     inkscape:window-x="-9"
     inkscape:window-y="-9"
     inkscape:window-maximized="1"
     inkscape:current-layer="g6773" />
  <defs
     id="defs2">
    <rect
       x="46.419987"
       y="521.87317"
       width="275.7066"
       height="306.65326"
       id="rect2431" />
  </defs>
  <g
     inkscape:label="Réteg 1"
     inkscape:groupmode="layer"
     id="layer1">
    <g
       id="g6773"
       transform="translate(-40.533284,-26.819954)"
       style="fill:#5b2b08;fill-opacity:1;stroke:#5b2b08;stroke-width:1;stroke-miterlimit:4;stroke-dasharray:none;stroke-opacity:1">
      <path
         style="fill:#5b2b08;fill-opacity:1;stroke:#5b2b08;stroke-width:0.4;stroke-miterlimit:4;stroke-dasharray:none;stroke-opacity:1"
         d="m 64.174973,118.45006 c -1.2607,-1.33243 -2.54819,-1.69895 -4.20974,-1.19842 -1.91322,0.57634 -2.04186,0.5321 -2.97849,-1.02437 -1.04648,-1.73903 -1.09661,-2.44611 -0.20718,-2.92212 1.31104,-0.70165 0.53454,-2.50544 -0.81404,-1.89098 -1.18927,0.54187 -1.55138,0.36723 -2.4375,-1.17554 -0.46723,-0.81345 -0.8495,-1.58132 -0.8495,-1.70638 0,-0.12505 0.38695,-0.58922 0.85989,-1.03148 0.70757,-0.66167 0.80824,-0.88669 0.56829,-1.27019 -0.35723,-0.57094 -1.32682,-0.74726 -1.82692,-0.33222 -0.62368,0.51761 -1.28773,0.0661 -2.04866,-1.39292 -0.89716,-1.72025 -0.90735,-2.13415 -0.0661,-2.68533 1.38697,-0.90879 0.50441,-2.408024 -1.01106,-1.71753 -0.9622,0.43841 -1.3188,0.20937 -2.25399,-1.447694 -0.89401,-1.5841 -0.87556,-2.02293 0.11226,-2.67018 0.72956,-0.47802 0.83033,-1.24159 0.22966,-1.74011 -0.33616,-0.27898 -0.56847,-0.26416 -1.29585,0.0827 -0.69158,0.32979 -0.97018,0.35375 -1.26823,0.10909 -0.53035,-0.43536 -1.78884,-2.69754 -1.78884,-3.21553 0,-0.23457 0.46317,-0.86822 1.02925,-1.40809 1.35586,-1.29308 1.84475,-2.84559 1.37851,-4.37759 -0.18444,-0.60605 -0.35516,-1.3803 -0.37937,-1.72054 -0.0483,-0.67923 -1.77969,0.36148 35.93932,-21.602878 9.45886,-5.508035 20.312047,-11.840001 24.118207,-14.071033 3.80616,-2.231033 7.10658,-4.056423 7.33426,-4.056423 0.22769,0 0.67831,0.357527 1.00139,0.794504 1.17683,1.591751 3.7221,2.273608 5.5885,1.497113 0.46826,-0.194819 0.99644,-0.305221 1.17372,-0.245337 0.42034,0.141989 1.92663,2.778157 1.92663,3.371806 0,0.252385 -0.29765,0.693017 -0.66146,0.979184 -1.2081,0.950299 -0.54104,2.461128 0.81404,1.843712 1.23279,-0.561697 1.55272,-0.382159 2.50699,1.406888 l 0.91231,1.710369 -0.89512,0.748358 c -0.6889,0.575945 -0.85421,0.877274 -0.71754,1.307897 0.24702,0.778282 0.84929,0.939294 1.75723,0.469781 0.71451,-0.369486 0.81176,-0.360236 1.29518,0.123184 0.6138,0.613802 1.60296,2.475659 1.60296,3.017195 0,0.207343 -0.30485,0.576728 -0.67744,0.820859 -0.89581,0.58696 -0.82465,1.821879 0.11264,1.95449 0.34421,0.0487 0.75497,-0.04059 0.91281,-0.198437 0.61323,-0.61323 1.23603,-0.274352 2.0254,1.102078 0.97213,1.6951 1.00491,2.38561 0.14013,2.95223 -1.24482,0.81564 -0.52468,2.39298 0.81403,1.78302 1.18928,-0.54186 1.55139,-0.36723 2.43751,1.17554 1.05523,1.8372 1.05936,2.23506 0.0311,2.99528 -0.95247,0.70419 -1.81331,2.43202 -1.82163,3.65628 -0.003,0.47 0.18882,1.34098 0.4267,1.93551 0.25012,0.62511 0.3338,1.17818 0.19844,1.3115 -0.12874,0.12679 -9.0447,5.36905 -19.81325,11.64945 -17.790067,10.375494 -35.100287,20.476814 -43.808687,25.564424 -1.8301,1.06918 -3.55651,1.92756 -3.83646,1.90752 -0.27996,-0.0201 -0.99108,-0.54594 -1.58027,-1.16865 z m 34.80075,-19.901524 32.141987,-18.75963 -0.0837,-2.00464 c -0.094,-2.25266 0.42315,-3.81681 1.62825,-4.92462 0.57197,-0.52579 0.63092,-0.70535 0.36917,-1.12448 -0.23219,-0.3718 -0.62288,-0.49877 -1.53468,-0.49877 -0.96121,0 -1.369,-0.14581 -1.90395,-0.68076 -1.00384,-1.00384 -1.13288,-2.0091 -0.44128,-3.43776 0.31971,-0.66042 0.50508,-1.27697 0.41195,-1.37011 -0.0931,-0.0931 -0.71486,-0.17959 -1.38161,-0.19212 -1.01799,-0.0191 -1.33492,-0.16006 -1.97761,-0.87936 -0.91656,-1.025807 -0.99828,-2.182756 -0.24179,-3.423462 0.73167,-1.20002 0.50867,-1.548585 -0.91816,-1.435105 -1.02602,0.0816 -1.28632,-0.01111 -1.98083,-0.705625 -0.64639,-0.64639 -0.79845,-1.01891 -0.79369,-1.94441 0.004,-0.705739 0.19607,-1.392269 0.50174,-1.789969 0.71803,-0.934191 0.43065,-1.339237 -0.9502,-1.339237 -1.45359,0 -2.08047,-0.31801 -2.59739,-1.317619 -0.53948,-1.043229 -0.5014,-1.819479 0.14092,-2.873034 0.57097,-0.936523 0.47976,-2.038311 -0.14878,-1.797121 -1.8758,0.719814 -4.33769,0.292756 -6.10968,-1.059831 -1.02363,-0.781355 -1.25529,-0.858636 -1.76507,-0.588821 -0.49206,0.260435 -54.549057,31.732744 -62.001787,36.097814 l -2.4129,1.41324 0.13341,1.8646 c 0.15758,2.20233 -0.32344,3.75409 -1.51865,4.89918 -1.08723,1.04163 -0.72059,1.72618 0.92451,1.72618 2.44256,0 3.71504,2.43178 2.30712,4.40903 -0.71392,1.0026 -0.42422,1.36254 1.09494,1.36036 1.34334,-0.002 2.34581,0.76031 2.66672,2.027674 0.21112,0.83379 0.15861,1.17194 -0.31679,2.03985 -0.71522,1.30572 -0.55781,1.83645 0.48293,1.6283 0.97361,-0.19472 2.21309,0.31137 2.74288,1.11994 0.56172,0.8573 0.5211,2.54586 -0.0799,3.32031 -0.68418,0.88166 -0.4414,1.29245 0.76384,1.29245 1.42221,0 2.27565,0.45392 2.75577,1.46571 0.54092,1.13989 0.51572,1.66432 -0.13091,2.72495 -0.3179,0.52144 -0.47174,1.09389 -0.37546,1.39722 0.13922,0.43864 0.30533,0.48438 1.13486,0.31248 0.53447,-0.11076 1.49593,-0.17151 2.13657,-0.13501 1.24664,0.071 3.61604,1.20313 4.08302,1.95087 0.19248,0.30822 0.40895,0.37708 0.69121,0.21987 0.22603,-0.1259 14.87486,-8.67073 32.55296,-18.988534 z m -31.91604,13.687514 c -0.45781,-0.14008 -1.17333,-0.58191 -1.59005,-0.98186 -0.41671,-0.39994 -3.59908,-5.69984 -7.07192,-11.777564 -4.84766,-8.48371 -6.3443,-11.31678 -6.44354,-12.19729 -0.1679,-1.48961 0.61887,-3.30496 1.81738,-4.19328 0.49024,-0.36335 11.48791,-6.82767 24.43926,-14.36515 12.95135,-7.537476 24.816397,-14.45265 26.366767,-15.36705 1.55037,-0.914398 3.30655,-1.793865 3.90261,-1.954366 1.44244,-0.388411 2.96489,0.02833 4.14115,1.133557 1.08113,1.015836 12.97802,21.745879 13.4128,23.371489 0.37048,1.38518 -0.0423,2.94992 -1.07232,4.06496 -0.39243,0.42482 -3.03523,2.12713 -5.87288,3.78292 -2.83766,1.65579 -15.0024,8.74539 -27.032757,15.75466 -23.06218,13.436764 -22.91996,13.364344 -24.9965,12.728974 z m 4.25657,-2.67445 c 1.02711,-0.60375 1.89652,-1.11896 1.93202,-1.14493 0.0672,-0.0491 -14.6035,-25.745974 -14.82539,-25.967854 -0.2706,-0.2706 -4.07751,2.29359 -4.37522,2.94699 -0.71405,1.56717 -0.52011,2.00217 5.91953,13.27765 3.42669,5.999944 6.53837,11.151294 6.91485,11.447424 1.07752,0.84758 2.30398,0.69289 4.43421,-0.55928 z m 22.69167,-13.221984 c 10.520337,-6.12959 20.229217,-11.78895 21.575287,-12.57637 1.34606,-0.78741 2.44739,-1.50549 2.44739,-1.59574 0,-0.11245 -13.72564,-24.341896 -14.70485,-25.958024 -0.026,-0.04287 -1.75841,0.924341 -3.849837,2.14937 -4.13207,2.42031 -15.77426,9.208314 -27.08593,15.792514 -11.86158,6.90429 -12.3322,7.19322 -12.25007,7.52078 0.0775,0.30931 14.57853,25.789124 14.68572,25.804414 0.0299,0.004 8.66195,-5.00736 19.18229,-11.136944 z m -18.85823,6.492314 c -0.23214,-0.27972 -0.26491,-0.55016 -0.0985,-0.81338 0.41677,-0.65937 37.768617,-22.337104 38.349237,-22.256584 0.36327,0.0504 0.52917,0.27424 0.52917,0.71402 0,0.56876 -2.12256,1.88081 -18.917707,11.69397 -10.40474,6.07933 -19.05196,11.059564 -19.21604,11.067184 -0.16408,0.008 -0.45484,-0.17473 -0.64612,-0.40521 z M 64.151283,83.539516 c -0.0838,-0.21828 -0.092,-0.5457 -0.0183,-0.7276 0.0737,-0.1819 4.462,-2.85012 9.75175,-5.92938 32.526397,-18.934233 28.464077,-16.678792 29.026847,-16.116021 0.32042,0.320413 0.35634,0.535519 0.1453,0.870082 -0.15419,0.244444 -2.65248,1.82915 -5.551767,3.521569 -24.84985,14.50583 -32.2928,18.77823 -32.71357,18.77823 -0.26839,0 -0.55653,-0.17859 -0.64029,-0.39688 z m 55.388307,-2.43342 c 0.15143,0.25324 0.032,0.30414 2.26833,-0.9667 1.91272,-1.08694 2.57268,-1.95 2.57268,-3.36437 0,-1.00891 -11.77808,-21.908685 -12.99957,-23.067277 -1.13131,-1.073052 -2.28301,-0.979979 -4.57983,0.370115 0,0 -1.90247,1.124913 -1.94524,1.158153 M 60.188463,72.177886 c -0.0805,-0.20978 -0.10653,-0.55717 -0.0578,-0.77198 0.0487,-0.21481 3.77946,-3.51767 8.29061,-7.3397 4.51114,-3.822029 9.69509,-8.217912 11.51988,-9.768632 19.35088,-16.444508 27.541527,-23.277846 27.901557,-23.277846 0.23616,0 0.89519,0.374333 1.4645,0.83185 1.51892,1.220632 3.18897,1.329411 5.02962,0.327604 l 1.38683,-0.754809 1.28578,1.435567 c 1.41425,1.578993 1.54835,2.07349 0.75662,2.789997 -0.59812,0.541291 -0.6814,1.197139 -0.21167,1.666875 0.43488,0.434877 1.13798,0.39851 1.53459,-0.07937 0.57285,-0.690247 1.24078,-0.436122 2.35661,0.896614 1.2263,1.464683 1.30982,1.858788 0.54128,2.554303 -0.7756,0.701911 -0.60178,1.815475 0.29975,1.920272 0.38069,0.04425 0.83512,-0.102432 1.02459,-0.330729 0.59359,-0.715231 1.25744,-0.449888 2.36984,0.947227 1.23345,1.549146 1.29008,1.81073 0.53915,2.490313 -0.72071,0.652236 -0.60317,1.809607 0.19532,1.923247 0.31881,0.04537 0.87796,-0.112953 1.24254,-0.351838 0.81373,-0.533177 1.1471,-0.366218 2.38682,1.195382 1.09576,1.380267 1.13711,1.60105 0.42118,2.248959 -0.62267,0.563507 -0.69034,1.52124 -0.13976,1.978175 0.31387,0.260491 0.57966,0.205592 1.37027,-0.283035 l 0.98087,-0.606211 1.27556,1.424155 c 1.43912,1.606764 1.56892,2.278456 0.6137,3.175836 -1.31471,1.235101 -1.50274,3.23733 -0.49411,5.261382 0.64684,1.298049 0.66522,1.427803 0.25961,1.833404 -0.59401,0.594018 -1.18889,0.202808 -1.94791,-1.281009 -0.85952,-1.680282 -0.82664,-4.207711 0.0753,-5.785472 0.39776,-0.695823 0.59996,-1.364377 0.50405,-1.666571 -0.13764,-0.433652 -0.32405,-0.480049 -1.32547,-0.329877 -1.62559,0.243774 -2.4271,-0.02484 -3.03138,-1.0159 -0.62217,-1.02041 -0.65858,-1.907468 -0.12064,-2.938969 0.49203,-0.943457 0.10732,-1.63493 -0.67628,-1.215557 -0.99711,0.533638 -2.11966,0.298557 -3.05878,-0.64056 -1.00432,-1.004319 -1.14878,-1.923633 -0.49827,-3.170966 0.54747,-1.049776 0.13874,-1.554204 -0.95142,-1.174172 -2.30352,0.803011 -4.40015,-1.597939 -3.30771,-3.787802 0.3596,-0.720836 0.37132,-0.917363 0.0725,-1.216164 -0.27377,-0.273771 -0.52919,-0.290693 -1.10178,-0.07299 -1.06733,0.405797 -2.43376,-0.10555 -3.06991,-1.148824 -0.6081,-0.997269 -0.63709,-1.640435 -0.11873,-2.634242 0.31104,-0.596335 0.32391,-0.845427 0.0651,-1.259904 -0.19818,-0.317332 -0.47593,-0.450026 -0.72005,-0.343992 -2.28672,0.993265 -4.35849,0.92145 -6.39223,-0.221577 -0.86622,-0.486842 -1.05172,-0.510537 -1.45095,-0.185346 -0.25176,0.205072 -3.7536,3.170827 -7.781847,6.590567 -32.74069,27.794815 -38.39831,32.543755 -38.7708,32.543755 -0.21454,0 -0.45594,-0.17164 -0.53644,-0.38143 z"
         id="path836"
         sodipodi:nodetypes="csssssssssscssssssssscssscsssssscssssssssssssscssssccccccsssssscsssscsssssssscsssscsssssssssscssccsscsssssssssssscsssssssssssccsccsssccccsssscscccsssscccssssscsssssssssssssssscssssssssssssssssssscssscscc" />
      <g
         aria-label="BÉRLET"
         transform="matrix(0.22631263,-0.13569547,0.1903309,0.31743351,-42.684039,-73.681244)"
         id="text2429"
         style="font-size:40px;line-height:1.25;font-family:'Arial Rounded MT Bold';-inkscape-font-specification:'Arial Rounded MT Bold, Normal';white-space:pre;shape-inside:url(#rect2431);stroke-width:3.19984">
        <path
           d="m 61.771484,557.91938 h -8.75 q -1.894531,0 -2.714843,-0.83985 -0.800782,-0.85937 -0.800782,-2.71484 v -21.52344 q 0,-1.89453 0.820313,-2.71484 0.839844,-0.83985 2.695312,-0.83985 h 9.277344 q 2.050781,0 3.554688,0.25391 1.503906,0.25391 2.695312,0.97656 1.015625,0.60547 1.796875,1.54297 0.78125,0.91797 1.191406,2.05078 0.410157,1.11328 0.410157,2.36328 0,4.29688 -4.296875,6.28907 5.644531,1.79687 5.644531,6.99218 0,2.40235 -1.230469,4.33594 -1.230469,1.91406 -3.320312,2.83203 -1.308594,0.54688 -3.007813,0.78125 -1.699219,0.21485 -3.964844,0.21485 z m -0.429687,-12.71485 h -6.035156 v 8.35938 h 6.230468 q 5.878907,0 5.878907,-4.23828 0,-2.16797 -1.523438,-3.14453 -1.523437,-0.97657 -4.550781,-0.97657 z m -6.035156,-11.5625 v 7.40235 h 5.3125 q 2.167968,0 3.339843,-0.41016 1.191407,-0.41016 1.816407,-1.5625 0.488281,-0.82031 0.488281,-1.83594 0,-2.16797 -1.542969,-2.87109 -1.542969,-0.72266 -4.707031,-0.72266 z"
           id="path8986" />
        <path
           d="M 97.181641,533.75922 H 84.115234 v 7.03125 h 12.03125 q 1.328125,0 1.972657,0.60547 0.664062,0.58594 0.664062,1.5625 0,0.97656 -0.644531,1.60156 -0.644531,0.60547 -1.992188,0.60547 H 84.115234 V 553.31 h 13.515625 q 1.367188,0 2.050782,0.64453 0.703129,0.625 0.703129,1.67969 0,1.01563 -0.703129,1.66016 -0.683594,0.625 -2.050782,0.625 H 81.869141 q -1.894532,0 -2.734375,-0.83985 -0.820313,-0.83984 -0.820313,-2.71484 v -21.52344 q 0,-1.25 0.371094,-2.03125 0.371094,-0.80078 1.152344,-1.15234 0.800781,-0.3711 2.03125,-0.3711 h 15.3125 q 1.386718,0 2.050781,0.625 0.683594,0.60547 0.683594,1.60157 0,1.01562 -0.683594,1.64062 -0.664063,0.60547 -2.050781,0.60547 z m -7.070313,-11.93359 h 2.636719 q 0.996094,0 0.996094,0.29297 0,0.15625 -1.09375,1.26953 -1.09375,1.11328 -2.207032,2.1289 -1.113281,1.01563 -1.542968,1.23047 -1.113282,0.56641 -2.382813,0.56641 -0.839844,0 -0.839844,-0.48828 0,-0.33203 0.507813,-1.15235 l 0.878906,-1.64062 q 0.761719,-1.42578 1.328125,-1.81641 0.566406,-0.39062 1.71875,-0.39062 z"
           id="path8988" />
        <path
           d="m 112.78711,545.67328 h -2.03125 v 9.19922 q 0,1.81641 -0.80078,2.67578 -0.80078,0.85938 -2.08985,0.85938 -1.38671,0 -2.14843,-0.89844 -0.76172,-0.89844 -0.76172,-2.63672 v -22.03125 q 0,-1.875 0.83984,-2.71484 0.83985,-0.83985 2.71485,-0.83985 h 9.43359 q 1.95312,0 3.33984,0.17579 1.38672,0.15625 2.5,0.66406 1.34766,0.5664 2.38282,1.62109 1.03515,1.05469 1.5625,2.46094 0.54687,1.38672 0.54687,2.94922 0,3.20312 -1.81641,5.11719 -1.79687,1.91406 -5.46875,2.71484 1.54297,0.82031 2.94922,2.42187 1.40625,1.60157 2.5,3.41797 1.11328,1.79688 1.71875,3.26172 0.625,1.44531 0.625,1.99219 0,0.56641 -0.37109,1.13281 -0.35156,0.54688 -0.97656,0.85938 -0.625,0.33203 -1.44532,0.33203 -0.97656,0 -1.64062,-0.46875 -0.66406,-0.44922 -1.15234,-1.15235 -0.46875,-0.70312 -1.28907,-2.07031 l -2.32422,-3.86719 q -1.25,-2.1289 -2.24609,-3.24218 -0.97656,-1.11328 -1.99219,-1.52344 -1.01562,-0.41016 -2.55859,-0.41016 z m 3.32031,-12.03125 h -5.35156 v 7.8711 h 5.19531 q 2.08985,0 3.51563,-0.35157 1.42578,-0.37109 2.16797,-1.23046 0.76171,-0.87891 0.76171,-2.40235 0,-1.1914 -0.60546,-2.08984 -0.60547,-0.91797 -1.67969,-1.36719 -1.01563,-0.42969 -4.00391,-0.42969 z"
           id="path8990" />
        <path
           d="m 139.44727,532.31391 v 20.83984 h 11.75781 q 1.40625,0 2.14844,0.6836 0.76171,0.68359 0.76171,1.71875 0,1.05468 -0.74218,1.71875 -0.74219,0.64453 -2.16797,0.64453 h -14.00391 q -1.89453,0 -2.73437,-0.83985 -0.82032,-0.83984 -0.82032,-2.71484 v -22.05078 q 0,-1.75781 0.78125,-2.63672 0.80079,-0.87891 2.08985,-0.87891 1.30859,0 2.10937,0.87891 0.82032,0.85937 0.82032,2.63672 z"
           id="path8992" />
        <path
           d="m 176.79102,533.75922 h -13.06641 v 7.03125 h 12.03125 q 1.32812,0 1.97266,0.60547 0.66406,0.58594 0.66406,1.5625 0,0.97656 -0.64453,1.60156 -0.64453,0.60547 -1.99219,0.60547 H 163.72461 V 553.31 h 13.51562 q 1.36719,0 2.05079,0.64453 0.70312,0.625 0.70312,1.67969 0,1.01563 -0.70312,1.66016 -0.6836,0.625 -2.05079,0.625 h -15.76171 q -1.89454,0 -2.73438,-0.83985 -0.82031,-0.83984 -0.82031,-2.71484 v -21.52344 q 0,-1.25 0.37109,-2.03125 0.3711,-0.80078 1.15235,-1.15234 0.80078,-0.3711 2.03125,-0.3711 h 15.3125 q 1.38671,0 2.05078,0.625 0.68359,0.60547 0.68359,1.60157 0,1.01562 -0.68359,1.64062 -0.66407,0.60547 -2.05078,0.60547 z"
           id="path8994" />
        <path
           d="m 203.19727,534.07172 h -6.32813 v 20.80078 q 0,1.79688 -0.80078,2.67578 -0.80078,0.85938 -2.07031,0.85938 -1.28907,0 -2.10938,-0.87891 -0.80078,-0.8789 -0.80078,-2.65625 v -20.80078 h -6.32812 q -1.48438,0 -2.20704,-0.64453 -0.72265,-0.66406 -0.72265,-1.73828 0,-1.11328 0.74219,-1.75781 0.76171,-0.64454 2.1875,-0.64454 h 18.4375 q 1.5039,0 2.22656,0.66407 0.74219,0.66406 0.74219,1.73828 0,1.07422 -0.74219,1.73828 -0.74219,0.64453 -2.22656,0.64453 z"
           id="path8996" />
      </g>
    </g>
  </g>
</svg>
