<?xml version="1.0" encoding="UTF-8" standalone="no"?>
<!-- Created with Inkscape (http://www.inkscape.org/) -->

<svg
   width="64mm"
   height="64mm"
   viewBox="0 0 64 64"
   version="1.1"
   id="svg2583"
   inkscape:version="1.1.2 (b8e25be833, 2022-02-05)"
   sodipodi:docname="bowikon.svg"
   xmlns:inkscape="http://www.inkscape.org/namespaces/inkscape"
   xmlns:sodipodi="http://sodipodi.sourceforge.net/DTD/sodipodi-0.dtd"
   xmlns="http://www.w3.org/2000/svg"
   xmlns:svg="http://www.w3.org/2000/svg">
  <sodipodi:namedview
     id="namedview2585"
     pagecolor="#505050"
     bordercolor="#eeeeee"
     borderopacity="1"
     inkscape:pageshadow="0"
     inkscape:pageopacity="0"
     inkscape:pagecheckerboard="0"
     inkscape:document-units="mm"
     showgrid="false"
     inkscape:zoom="0.71090067"
     inkscape:cx="390.34989"
     inkscape:cy="336.89657"
     inkscape:window-width="1920"
     inkscape:window-height="991"
     inkscape:window-x="-9"
     inkscape:window-y="-9"
     inkscape:window-maximized="1"
     inkscape:current-layer="layer1" />
  <defs
     id="defs2580" />
  <g
     inkscape:label="Réteg 1"
     inkscape:groupmode="layer"
     id="layer1">
    <path
       style="fill:#f2f2f2;fill-opacity:1;stroke-width:0.304213"
       d="m 10.914724,63.518832 c 2.752214,-1.223232 3.831067,-4.633073 2.754743,-8.706724 l -0.439493,-1.663418 9.335909,-9.354567 c 5.134749,-5.145011 9.476194,-9.354566 9.647661,-9.354566 0.171468,0 1.643926,1.337185 3.272135,2.971524 l 2.960382,2.971524 v 2.253332 2.253333 l 4.485328,4.521405 c 3.209954,3.235761 4.657325,4.496532 5.090184,4.433924 0.480438,-0.06949 0.699816,-0.514535 1.066562,-2.163764 0.493867,-2.220859 0.705599,-2.447063 2.59121,-2.768346 3.34119,-0.569293 3.227247,-0.91198 -2.05725,-6.187047 l -4.338846,-4.331109 h -2.43561 -2.435609 l -2.960371,-2.971525 c -1.628208,-1.634338 -2.960382,-3.106814 -2.960382,-3.272167 0,-0.165351 4.15319,-4.452152 9.229301,-9.526222 l 9.229301,-9.225579 1.879332,0.369735 C 57.480727,14.290229 60.64599,14.01654 61.846317,13.16183 63.203821,12.195203 64,10.45831 64,8.4634955 c 0,-1.45203 -0.10624,-1.74676 -0.83649,-2.321198 -0.628725,-0.494549 -1.094468,-0.616122 -1.87509,-0.489445 -1.335992,0.216803 -1.495616,0.397456 -1.939156,2.194699 -0.358204,1.451499 -0.403712,1.497259 -1.585644,1.594521 -1.580216,0.130037 -3.109475,-0.329302 -5.999869,-1.802169 C 44.91096,4.1479114 38.68233,3.0613619 31.86017,4.1678402 26.711715,5.0028642 22.110155,7.1360475 17.522841,10.814323 L 14.927779,12.895135 11.724666,9.6920155 8.521542,6.4888955 9.794191,5.1082383 c 1.239777,-1.3450069 1.55046,-2.099282 1.00383,-2.4371176 C 10.341487,2.3889654 1.4007714,0.06342403 0.7725412,0.06342403 c -0.9014418,0 -0.9977937,0.7253836 -0.3736912,2.81347047 0.3126377,1.0460114 0.7330675,2.622535 0.9343027,3.503385 0.6057979,2.651794 1.3618263,4.4732415 1.8996841,4.5768255 0.2772467,0.0534 1.1349162,-0.484406 1.9059261,-1.1951045 l 1.4018511,-1.29218 3.214047,3.2140485 3.214048,3.214048 -1.649043,1.943884 c -3.963901,4.672619 -6.138982,9.070527 -7.2740242,14.707726 -0.5121371,2.543527 -0.4367802,8.359501 0.1438489,11.103796 0.5780532,2.732044 1.8166233,6.029932 3.5206603,9.374285 1.432584,2.811599 2.146738,5.579365 1.644903,6.374938 -0.177181,0.280892 -0.85015,0.620417 -1.495489,0.754499 -1.623414,0.337297 -2.26858,1.006073 -2.26858,2.351637 0,1.628424 0.976315,2.443014 2.909642,2.427682 0.825797,-0.0066 1.912148,-0.194442 2.414097,-0.417532 z M 10.076336,45.847564 C 7.228943,38.978767 7.871419,31.380139 11.93265,23.892813 c 1.041048,-1.919289 3.605354,-5.299905 4.155606,-5.478492 0.168362,-0.05465 3.384422,2.981234 7.146789,6.746391 l 6.840672,6.845738 -8.954479,8.958341 -8.954492,8.958341 -0.60382,-0.973037 c -0.332103,-0.535169 -1.001071,-1.931308 -1.48659,-3.102531 z M 25.074492,23.045396 c -7.855287,-7.86111 -7.48915,-6.82758 -3.41611,-9.643276 2.765517,-1.911795 6.926813,-3.7619455 9.839158,-4.3745775 2.67988,-0.56373 8.306531,-0.56685 10.952355,-0.0061 2.281089,0.483473 7.252064,2.7332195 7.252064,3.2821165 0,0.411102 -17.028766,17.47984 -17.494819,17.535881 -0.168708,0.02029 -3.378398,-3.037046 -7.132648,-6.794071 z"
       id="path2656" />
  </g>
</svg>
