<?xml version="1.0" encoding="UTF-8" standalone="no"?>
<!-- Created with Inkscape (http://www.inkscape.org/) -->

<svg
   width="210mm"
   height="207mm"
   viewBox="0 0 210 207"
   version="1.1"
   id="svg1029"
   inkscape:version="1.1.2 (b8e25be833, 2022-02-05)"
   sodipodi:docname="castle.svg"
   xmlns:inkscape="http://www.inkscape.org/namespaces/inkscape"
   xmlns:sodipodi="http://sodipodi.sourceforge.net/DTD/sodipodi-0.dtd"
   xmlns="http://www.w3.org/2000/svg"
   xmlns:svg="http://www.w3.org/2000/svg">
  <sodipodi:namedview
     id="namedview1031"
     pagecolor="#505050"
     bordercolor="#eeeeee"
     borderopacity="1"
     inkscape:pageshadow="0"
     inkscape:pageopacity="0"
     inkscape:pagecheckerboard="0"
     inkscape:document-units="mm"
     showgrid="false"
     inkscape:zoom="0.71090067"
     inkscape:cx="396.67989"
     inkscape:cy="336.89657"
     inkscape:window-width="1920"
     inkscape:window-height="991"
     inkscape:window-x="-9"
     inkscape:window-y="-9"
     inkscape:window-maximized="1"
     inkscape:current-layer="layer1" />
  <defs
     id="defs1026" />
  <g
     inkscape:label="Réteg 1"
     inkscape:groupmode="layer"
     id="layer1">
    <path
       style="fill:#5b2b08;fill-opacity:1;stroke:#5b2b08;stroke-width:1.401;stroke-miterlimit:4;stroke-dasharray:none;stroke-opacity:1"
       d="m 3.5460569,204.76889 c -2.0632077,-0.54551 -2.175341,-1.12446 -1.71154,-8.83685 0.2294283,-3.81509 0.5306588,-12.8964 0.6694007,-20.1807 0.2309885,-12.12745 0.1930598,-13.35864 -0.4498285,-14.60185 -0.9165753,-1.77246 -0.6253442,-3.10091 1.3091811,-5.97181 0.8513218,-1.26339 2.321111,-3.65138 3.2661983,-5.30665 3.5936945,-6.29415 4.3577155,-6.866 5.4953355,-4.11308 1.606299,3.88705 3.540611,7.47964 5.379726,9.99175 1.446229,1.97545 1.941141,2.97458 1.759131,3.55133 -0.640253,2.02887 -0.923621,5.28829 -0.950652,10.9348 l -0.0293,6.11947 h 1.003192 c 0.874657,0 1.003191,-0.17596 1.003191,-1.37335 0,-1.22506 0.158513,-1.42566 1.468016,-1.85783 1.432313,-0.47271 5.572783,-0.33173 7.064061,0.24054 0.472622,0.18135 0.697289,0.70626 0.697289,1.6291 0,1.18479 0.13023,1.36154 1.003192,1.36154 0.780408,0 1.003191,-0.20576 1.003191,-0.92649 0,-1.76666 0.818589,-2.30589 3.819985,-2.51636 4.438475,-0.31123 4.043635,0.40372 4.34312,-7.86425 0.394913,-10.90253 0.318466,-23.71494 -0.170952,-28.65056 -0.378572,-3.81778 -0.566213,-4.52239 -1.454111,-5.46038 -1.497565,-1.58206 -1.04588,-3.24714 1.722469,-6.34969 4.634999,-5.19453 6.630432,-9.44233 7.462094,-15.88499 0.294914,-2.28461 0.636517,-3.51667 1.015343,-3.66203 0.924726,-0.35485 1.225286,0.27965 2.04845,4.32444 1.003569,4.93125 2.514427,8.48362 5.698896,13.39941 2.845834,4.39305 3.127495,5.69037 1.66492,7.6686 -0.831369,1.12449 -0.88768,1.5715 -0.782489,6.21177 l 0.113349,5.00009 2.708618,0.11866 2.708617,0.11865 -0.02853,-9.94994 c -0.01569,-5.47246 -0.15517,-11.33985 -0.309931,-13.03865 -0.266977,-2.93063 -0.35923,-3.15657 -1.802322,-4.41405 -1.699643,-1.48103 -2.25902,-3.16016 -2.246191,-6.74256 0.01103,-3.08154 0.575965,-5.68337 1.358218,-6.25537 0.391304,-0.28612 1.309462,-0.39763 2.243064,-0.27241 2.734244,0.36674 2.792097,0.19435 2.792097,-8.319641 0,-7.309103 -0.02544,-7.543087 -0.88281,-8.112343 -1.591419,-1.056661 -1.199829,-3.036124 1.159117,-5.859246 1.123057,-1.344044 2.435805,-3.257376 2.917221,-4.251848 1.304643,-2.695035 2.29009,-8.182037 2.828888,-15.751313 0.481971,-6.770966 0.853188,-8.130994 2.089818,-7.656452 0.386016,0.148128 0.765985,2.050509 1.273299,6.374979 1.496397,12.755681 2.426119,16.22839 5.673897,21.193147 2.564543,3.920325 2.730042,5.061922 0.991639,6.840283 l -1.20383,1.231503 v 7.055031 7.05503 l 2.789166,-0.26321 c 2.681805,-0.25309 2.815053,-0.22371 3.461638,0.76309 0.448194,0.68403 0.740708,2.22318 0.877087,4.61505 0.187677,3.29155 0.117321,3.76449 -0.849587,5.71113 -0.655499,1.31968 -1.662691,2.54958 -2.663066,3.25192 l -1.608874,1.12953 v 3.60462 3.60461 l 2.507979,-0.11946 2.50798,-0.11947 0.321001,-3.58479 c 0.17655,-1.97164 0.685112,-4.58997 1.13014,-5.81852 1.55782,-4.30053 1.729302,-5.45064 1.184497,-7.9444 -0.85401,-3.90913 -1.651908,-6.238593 -2.871321,-8.382847 -1.467874,-2.581152 -1.520112,-4.590666 -0.176063,-6.772857 0.613765,-0.996506 0.993361,-2.222664 1.001137,-3.233837 0.0195,-2.536419 0.632035,-3.0513 3.908901,-3.285759 l 2.832946,-0.202697 0.197171,-2.052017 C 94.2745,77.267055 92.629623,70.819518 90.999557,70.819518 c -0.419611,0 -1.086064,-0.357065 -1.481012,-0.793478 -1.18491,-1.309314 -0.573392,-3.358004 1.78522,-5.980805 2.949408,-3.279767 4.989279,-6.349743 5.966769,-8.979899 0.843667,-2.270078 1.803597,-7.594696 4.755826,-26.379876 1.22823,-7.815266 1.52035,-10.872155 1.70596,-17.8521 0.26262,-9.87592912 0.0483,-9.5441571 4.65488,-7.2059837 2.64165,1.3408354 3.1779,1.4747217 5.07978,1.2682736 1.16948,-0.1269475 3.93207,-0.8189019 6.13909,-1.537676 3.46058,-1.1270258 4.59718,-1.3103403 8.25957,-1.3321396 4.22355,-0.02514 4.25874,-0.017359 6.42583,1.4205831 3.69153,2.4494654 4.81169,5.9654021 1.53684,4.8237815 -0.71176,-0.248122 -2.13468,-0.4511296 -3.16205,-0.4511296 -2.06364,0 -3.61168,0.8696727 -7.75119,4.3545217 -3.68535,3.102519 -7.03224,3.82112 -13.1168,2.816276 -1.51019,-0.249403 -3.4175,-0.327449 -4.23848,-0.173434 l -1.49266,0.280026 0.26725,2.079499 c 0.147,1.143724 0.88768,6.232712 1.64595,11.308862 3.84187,25.718698 3.86698,25.836083 6.44918,30.146045 0.77679,1.296552 2.18471,3.169957 3.12871,4.163117 2.69386,2.834158 3.45233,4.022531 3.45233,5.409158 0,1.385838 -1.01631,2.616378 -2.16087,2.616378 -1.54693,0 -3.34173,7.001319 -2.83482,11.058415 l 0.26008,2.081584 2.76322,0.197705 c 1.51977,0.108741 3.01467,0.406397 3.32201,0.661461 0.30733,0.255067 0.63846,1.424504 0.73584,2.598748 0.11406,1.375529 0.51214,2.605594 1.11905,3.457926 1.24834,1.753134 1.2818,4.427949 0.0743,5.942194 -1.50436,1.88654 -2.38888,3.845149 -2.841,6.290849 -0.60432,3.26906 -0.51901,6.92981 0.20604,8.84199 1.14948,3.03151 1.44031,4.36353 1.70212,7.79611 l 0.26234,3.43963 h 2.6083 c 2.44587,0 2.60651,-0.0562 2.57963,-0.90287 -0.0158,-0.49658 -0.0658,-2.12175 -0.11112,-3.61149 -0.0814,-2.67424 -0.10189,-2.72061 -1.61474,-3.65298 -2.62788,-1.61956 -3.31115,-3.46493 -3.36718,-9.09402 -0.0168,-1.68651 0.20398,-3.29551 0.55056,-4.01277 0.56565,-1.17058 0.64569,-1.19737 3.57806,-1.19737 h 2.99947 l -0.0182,-1.705424 c -0.13344,-12.478621 -0.0849,-12.011206 -1.38621,-13.34245 -1.76348,-1.804011 -1.5927,-2.996015 0.96409,-6.729342 1.41891,-2.071852 2.52118,-4.283814 3.19043,-6.402363 0.98697,-3.124316 2.32904,-11.390268 2.90658,-17.901974 0.1846,-2.081294 0.46444,-3.216133 0.82743,-3.355429 1.15264,-0.442307 1.6385,0.67935 1.90601,4.400281 1.06726,14.844599 1.96557,18.282618 6.10471,23.363845 2.22384,2.729998 2.5605,4.610922 1.0317,5.764104 -0.86124,0.649639 -0.88506,0.881596 -0.86114,8.388754 0.0135,4.246351 0.15027,7.731518 0.30388,7.744818 4.72996,0.40942 4.96866,0.54211 5.69801,3.16751 0.53568,1.92823 0.50477,7.08922 -0.0489,8.17076 -0.2468,0.48207 -1.09296,1.5505 -1.88036,2.37429 -1.4045,1.46941 -1.43735,1.57967 -1.73292,5.81851 -0.16571,2.37639 -0.31271,8.16617 -0.32667,12.86618 l -0.0254,8.54547 2.70861,-0.11865 2.70862,-0.11866 0.11146,-5.24463 c 0.10281,-4.83707 0.0482,-5.30188 -0.70224,-5.98103 -1.5061,-1.363 -1.10976,-3.60107 1.2463,-7.03745 2.77885,-4.05307 4.92887,-8.75545 5.77702,-12.6352 0.38599,-1.76562 0.82351,-3.75193 0.97226,-4.41404 0.18649,-0.83002 0.51176,-1.20383 1.04752,-1.20383 0.67606,0 0.86537,0.54759 1.45665,4.21341 1.01326,6.2819 2.8322,10.19489 6.80842,14.6466 3.49098,3.90841 3.88904,5.18762 2.17842,7.00038 -0.87669,0.92904 -1.01306,1.58948 -1.45453,7.04431 -0.52842,6.52906 -0.20878,32.06515 0.42213,33.72457 0.29997,0.78899 0.73103,0.93211 3.56257,1.18275 3.38062,0.29926 3.89042,0.57301 4.11696,2.21077 0.1059,0.76555 0.37642,1.00319 1.14196,1.00319 0.84249,0 0.98391,-0.16623 0.88278,-1.0377 -0.0662,-0.57074 0.13283,-1.24787 0.44234,-1.50474 0.86656,-0.71918 5.07491,-1.0175 7.00137,-0.4963 1.58907,0.4299 1.70544,0.55615 1.70544,1.85038 0,1.21408 0.12632,1.389 1.00318,1.389 h 1.0032 l -0.0339,-5.91883 c -0.0318,-5.54848 -0.34658,-9.2657 -0.94313,-11.13544 -0.18434,-0.57777 0.25746,-1.47686 1.57747,-3.2102 1.59905,-2.09976 4.41786,-7.34828 5.76496,-10.73416 0.89905,-2.25967 1.80749,-1.48941 5.44247,4.61468 1.87284,3.14501 3.7731,6.25992 4.22279,6.92202 0.99182,1.46031 1.05007,3.09243 0.15889,4.45254 -0.59615,0.90983 -0.63915,2.31357 -0.4206,13.72961 0.13389,6.99389 0.45283,15.91919 0.70875,19.834 0.25592,3.9148 0.35277,7.56621 0.21522,8.11426 -0.51879,2.06702 0.54329,2.01434 -37.96063,1.8827 -43.81377,-0.1498 -49.62615,-0.49371 -51.57723,-3.05171 -2.00983,-2.635 -2.19313,-3.91766 -2.20336,-15.41769 -0.0164,-18.3828 -0.69429,-22.72946 -4.07186,-26.10703 -4.29558,-4.29558 -13.066227,-3.504 -16.365512,1.47702 -2.182243,3.29458 -2.517445,5.98627 -2.711229,21.77121 -0.17271,14.06846 -0.186947,14.27069 -1.146958,16.28835 -0.534645,1.12366 -1.309503,2.34838 -1.72191,2.72161 -1.138443,1.03027 -8.618093,1.86842 -18.514737,2.0747 -17.343345,0.36149 -67.2502964,0.43868 -68.5087416,0.10595 z m 73.4243811,-2.41783 3.511172,-0.46982 0.0086,-3.23265 c 0.0047,-1.77795 -0.207195,-9.19161 -0.47081,-16.47477 -0.433195,-11.9684 -0.412657,-13.77424 0.213528,-18.77397 1.193151,-9.52666 3.400755,-14.77781 8.228592,-19.57309 3.36625,-3.34354 6.607327,-5.32798 11.348885,-6.94868 3.813635,-1.30352 6.254745,-1.32809 10.116415,-0.10177 4.53738,1.4409 8.09787,3.61901 11.51039,7.04147 4.35147,4.36415 6.38407,8.49023 7.86225,15.95999 0.82049,4.14623 0.95171,14.91434 0.38608,31.68112 l -0.35385,10.4889 1.95895,0.26294 c 3.43334,0.46085 73.71606,0.97731 74.53045,0.54769 0.67314,-0.35511 0.71919,-0.75617 0.49003,-4.26848 -0.64814,-9.93395 -1.025,-20.26329 -1.0285,-28.19058 l -0.004,-8.66426 -1.55135,-0.46479 c -2.01861,-0.60479 -9.54186,-0.61879 -9.9129,-0.0184 -0.15172,0.24549 -0.29781,4.173 -0.32464,8.72777 l -0.0486,8.28143 -2.26006,0.11894 c -2.52378,0.13281 -3.55846,-0.48563 -3.55846,-2.12694 0,-1.09857 -0.78473,-1.44435 -2.84915,-1.25542 -1.81672,0.16626 -2.36744,0.50418 -2.36744,1.4527 0,1.25307 -1.12691,2.01136 -2.9891,2.01136 -1.92202,0 -2.50276,-0.47344 -2.87719,-2.34558 -0.2496,-1.24798 -0.28657,-1.26591 -2.61068,-1.26591 -1.29663,0 -2.49294,-0.0451 -2.65846,-0.10034 -0.16553,-0.0552 -0.35654,0.4731 -0.42447,1.17395 -0.1364,1.4071 -1.09335,2.48471 -1.68294,1.89511 -0.7834,-0.78339 -1.35357,-31.13291 -0.80184,-42.68139 l 0.20064,-4.19966 -1.20384,-0.61155 c -1.49791,-0.76093 -9.46933,-0.84554 -11.13543,-0.11819 l -1.10351,0.48175 v 7.98633 c 0,6.70696 -0.0991,8.06862 -0.61892,8.49999 -0.81389,0.67547 -1.29782,0.13846 -1.45917,-1.61922 l -0.12893,-1.40447 h -2.6083 -2.6083 l -0.20063,1.40447 c -0.15288,1.07007 -0.39173,1.40447 -1.0032,1.40447 -0.7841,0 -0.80256,-0.26752 -0.80256,-11.63702 0,-6.40037 0.0709,-13.34905 0.15759,-15.44151 l 0.15758,-3.80449 -1.36141,-0.30126 c -1.81542,-0.40174 -10.62723,-0.3984 -12.39652,0.005 l -1.40447,0.31997 v 5.9998 c 0,5.9165 -0.0125,6.00158 -0.90288,6.12802 -0.76142,0.10815 -0.90287,-0.0575 -0.90287,-1.05671 0,-1.34187 -0.67809,-1.66523 -3.51117,-1.67433 -1.61254,-0.005 -1.70542,0.0575 -1.70542,1.14922 0,1.38503 -1.00486,2.41501 -1.68883,1.73104 -0.25865,-0.25866 -0.58329,-2.89529 -0.76125,-6.18272 -0.48529,-8.96476 -0.65134,-9.28837 -8.67673,-16.91002 -1.99652,-1.89608 -5.96937,-7.364105 -6.96611,-9.587796 -0.27205,-0.606932 -0.60109,-1.095606 -0.73119,-1.085944 -0.1301,0.0097 -1.2297,1.723901 -2.44356,3.809419 -2.31502,3.977391 -2.614792,4.336851 -8.186688,9.816421 -1.907574,1.87597 -3.831523,4.15763 -4.275444,5.07035 -1.040972,2.1403 -1.577314,5.48385 -1.580227,9.85109 -0.0024,3.69733 -0.487652,5.7153 -1.308941,5.44407 -0.274521,-0.0907 -0.589416,-0.78249 -0.699766,-1.5374 -0.1869,-1.27857 -0.31217,-1.38077 -1.829144,-1.4922 -2.127381,-0.15629 -3.788731,0.48613 -3.788731,1.46503 0,1.14152 -0.976446,1.81975 -1.577398,1.09564 -0.353593,-0.42605 -0.405659,-2.10866 -0.197642,-6.38741 l 0.282415,-5.80899 -2.564223,-0.24155 c -4.114687,-0.3876 -8.840098,-0.42335 -10.817104,-0.0818 l -1.832462,0.31653 0.179643,15.40703 c 0.167188,14.33918 0.131466,15.42553 -0.515384,15.67374 -0.84669,0.32491 -1.402017,-0.44559 -1.410432,-1.95693 -0.006,-1.09003 -0.03804,-1.10352 -2.614442,-1.10352 -2.591152,0 -2.608299,0.007 -2.608299,1.12714 0,0.61992 -0.258707,1.47765 -0.574901,1.90606 -0.471986,0.63949 -0.669531,0.68573 -1.103511,0.2583 -0.388091,-0.38223 -0.581944,-2.66513 -0.729248,-8.58788 l -0.200639,-8.06727 -1.605106,-0.57339 c -2.194394,-0.78393 -8.719087,-0.50081 -10.568823,0.45858 l -1.339458,0.69473 0.336265,3.88389 c 0.393316,4.54281 0.346182,34.39725 -0.06204,39.29793 -0.261207,3.13574 -0.336009,3.34697 -1.144413,3.23177 -0.645297,-0.092 -0.91589,-0.47449 -1.065578,-1.50639 l -0.200638,-1.38314 -2.407661,0.10816 c -2.695519,0.1211 -3.088748,0.35116 -3.254296,1.90388 -0.146557,1.3746 -0.744246,1.74361 -2.836512,1.75129 -1.912039,0.007 -2.937918,-0.77152 -2.937918,-2.22954 0,-0.536 -0.135432,-0.98672 -0.300958,-1.00162 -0.165527,-0.0149 -0.932969,-0.11095 -1.705427,-0.21347 -2.181037,-0.28944 -3.210213,0.10256 -3.210213,1.22273 0,1.66061 -1.026214,2.27959 -3.558449,2.14634 l -2.260064,-0.11894 -0.06264,-8.30384 c -0.03445,-4.56711 -0.180538,-8.4946 -0.324639,-8.72777 -0.351555,-0.56883 -7.9220627,-0.55144 -9.8380162,0.0226 l -1.4903185,0.44651 -0.2511968,14.09978 c -0.1381584,7.75487 -0.4392051,16.87689 -0.6689922,20.27115 -0.2847419,4.20601 -0.2871171,6.32884 -0.00746,6.66581 0.5611988,0.6762 67.9140967,0.41447 73.1357317,-0.28421 z m -8.848152,-29.28623 c -0.603532,-0.60353 -0.658354,-9.71229 -0.07691,-12.77825 1.038038,-5.47355 4.451535,-4.34022 5.622717,1.86681 0.623609,3.30499 0.290357,9.07181 -0.603034,10.43531 -0.516415,0.78814 -0.966796,0.95766 -2.544364,0.95766 -1.054282,0 -2.133568,-0.21668 -2.398411,-0.48153 z m 3.575107,-2.72868 c 0.46691,-1.6885 0.370913,-6.50926 -0.171264,-8.60046 -1.065378,-4.10918 -1.785393,-2.22927 -1.910792,4.98896 -0.08716,5.01677 -0.111338,4.89185 0.918225,4.74292 0.544324,-0.0787 0.993481,-0.51539 1.163831,-1.13142 z m 65.360757,2.60411 c -0.27665,-0.33335 -0.68164,-2.20603 -0.89996,-4.16151 -0.59411,-5.32137 0.75999,-11.19292 2.75816,-11.95969 1.2728,-0.48842 2.44887,0.54553 2.90296,2.55216 0.69814,3.08521 0.77564,12.70541 0.10883,13.51034 -0.7248,0.87492 -4.15823,0.91631 -4.86999,0.0587 z m 3.29523,-6.41624 c -0.17645,-7.13366 -0.65997,-8.66883 -1.73783,-5.51755 -0.53233,1.55635 -0.643,9.33366 -0.14429,10.14058 0.14916,0.24135 0.66046,0.38335 1.13621,0.31556 0.83865,-0.11951 0.86138,-0.27 0.74591,-4.93859 z m -94.03148,3.14852 c -0.75442,-0.90906 -0.755407,-11.33959 -0.0012,-13.50628 0.658483,-1.8919 2.110502,-2.60385 3.480189,-1.70639 1.363305,0.89327 2.119628,3.85899 2.422122,9.49768 0.268037,4.99641 0.259887,5.06582 -0.67152,5.7182 -1.262878,0.88455 -4.494401,0.88256 -5.229511,-0.003 z m 3.939852,-1.99944 c 0.423623,-1.10395 -0.464695,-10.03865 -1.070671,-10.76881 -0.51127,-0.61604 -0.578239,-0.6143 -0.935621,0.0242 -0.517751,0.92516 -0.852456,7.2376 -0.506194,9.54665 0.244373,1.6296 0.398319,1.85453 1.269302,1.85453 0.547623,0 1.103965,-0.29387 1.243184,-0.65667 z m 108.167868,2.39729 c -0.79666,-0.32146 -0.68216,-10.69839 0.14482,-13.12544 1.07862,-3.16559 3.34924,-3.88327 4.88182,-1.54302 0.58005,0.88574 0.69154,2.06781 0.69154,7.33174 0,7.40605 -0.0884,7.61808 -3.15902,7.5708 -1.13167,-0.0174 -2.28329,-0.12276 -2.55916,-0.23408 z m 3.82401,-6.79951 c 0.10648,-4.61025 -0.25225,-6.97942 -1.05678,-6.97942 -0.1994,0 -0.55028,0.49658 -0.77975,1.10351 -0.50052,1.32385 -1.00024,10.2835 -0.5961,10.68764 0.1562,0.1562 0.7422,0.23056 1.30222,0.16526 l 1.0182,-0.11874 z M 7.6785441,169.30429 c -0.7306351,-0.73063 -0.7905366,-1.78698 -0.2181871,-3.84763 0.309909,-1.11576 0.7094079,-1.57372 1.6627499,-1.90606 3.0787881,-1.07327 4.5342871,-0.19248 4.9311721,2.98408 0.190813,1.52722 0.12654,2.42337 -0.202217,2.81949 -0.692164,0.83401 -5.3270813,0.79656 -6.1735179,-0.0499 z m 4.1847429,-2.55595 c 0,-1.35517 -0.477394,-1.78607 -1.588172,-1.43353 -0.8372991,0.26575 -1.4307709,1.54797 -1.0223464,2.20881 0.1376216,0.22268 0.7812874,0.40487 1.4303694,0.40487 1.038496,0 1.180149,-0.14166 1.180149,-1.18015 z m 184.343483,2.71539 c -0.42962,-0.69513 -0.27152,-4.18383 0.23227,-5.12516 0.58357,-1.09041 2.15621,-1.43124 4.0231,-0.8719 1.16654,0.34951 1.63571,0.75855 1.97004,1.71762 0.57812,1.65841 0.55802,3.66833 -0.0427,4.26905 -0.63454,0.63454 -5.79161,0.64321 -6.18271,0.0104 z m 4.53367,-2.1917 c 0.36556,-0.9526 -0.415,-1.95184 -1.52465,-1.95184 -0.78916,0 -0.98178,0.23149 -1.0852,1.30415 -0.1174,1.2175 -0.0432,1.30415 1.1161,1.30415 0.77955,0 1.33562,-0.24438 1.49375,-0.65646 z M 45.970393,142.04443 c -0.616345,-0.74265 -0.616364,-6.26757 -2.7e-5,-7.41921 0.316278,-0.59097 0.839932,-0.80526 1.967832,-0.80526 1.950715,0 3.487432,1.17736 3.788045,2.90222 0.319946,1.8358 -0.320255,4.77435 -1.176559,5.40049 -0.990934,0.72459 -3.955032,0.67395 -4.579291,-0.0782 z m 3.682016,-2.39738 c 0.637295,-1.39871 -0.0299,-3.62007 -1.08732,-3.62007 -0.677266,0 -0.804384,0.32307 -0.907876,2.30734 -0.109794,2.10506 -0.04747,2.30735 0.710834,2.30735 0.495279,0 1.014327,-0.40196 1.284362,-0.99462 z m 109.499701,2.21872 c -0.6712,-0.67121 -0.82281,-1.33503 -0.82281,-3.60263 0,-2.52514 0.0969,-2.85601 1.0573,-3.6115 1.09536,-0.8616 3.13357,-1.08762 4.12866,-0.45781 0.69637,0.44073 1.22876,4.49779 0.87651,6.67953 l -0.25413,1.57406 -2.08136,0.12058 c -1.66682,0.0966 -2.24522,-0.0433 -2.90417,-0.70223 z m 3.51023,-3.26563 c 0.12822,-1.97292 -0.58607,-3.06563 -1.71964,-2.63064 -0.42674,0.16376 -0.60702,0.8127 -0.60702,2.18504 0,2.19831 0.21552,2.57156 1.38795,2.40374 0.66717,-0.0954 0.84126,-0.45865 0.93871,-1.95814 z m -93.868942,-5.44791 c -0.400587,-0.4857 -0.543711,-1.93886 -0.524987,-5.33032 0.03166,-5.737 0.760845,-7.76679 2.863162,-7.97022 1.138426,-0.11016 1.374481,0.0535 2.084645,1.44556 0.779384,1.52772 1.38912,4.50344 1.808863,8.82782 0.169728,1.74862 0.0674,2.26232 -0.579528,2.90924 -1.039234,1.03924 -4.827103,1.11826 -5.652155,0.11792 z m 4.063954,-3.21184 c 0,-2.23456 -0.712655,-6.56143 -1.214408,-7.37329 -0.651738,-1.05454 -1.180808,0.15011 -1.446534,3.29363 -0.141305,1.67166 -0.133942,3.69491 0.01637,4.49612 0.240963,1.28445 0.413508,1.45673 1.458929,1.45673 1.144021,0 1.185649,-0.0658 1.185649,-1.87319 z m 62.780258,3.31299 c -0.65014,-0.4754 -0.75568,-0.97588 -0.65578,-3.1099 0.16747,-3.57708 1.13831,-7.97948 2.021,-9.16437 0.49061,-0.65858 1.13826,-1.0032 1.88535,-1.0032 1.90349,0 2.61227,1.77146 2.87945,7.19648 0.29132,5.9149 -0.0652,6.64757 -3.23409,6.64757 -1.19324,0 -2.46002,-0.24784 -2.89593,-0.56658 z m 4.14988,-4.30161 c 0.13749,-3.11193 -0.34222,-6.44244 -0.95748,-6.64753 -0.62799,-0.20933 -1.353,2.58014 -1.64086,6.31322 l -0.25111,3.25619 1.36594,-0.13036 1.36595,-0.13035 z m -37.14637,-3.782 c -0.85985,-0.60227 -0.89153,-0.8578 -0.88304,-7.12267 0.007,-5.54921 0.12185,-6.74701 0.78294,-8.20342 0.72448,-1.59605 0.8778,-1.70543 2.39069,-1.70543 1.49476,0 1.68362,0.12852 2.50635,1.70543 0.8063,1.54539 0.89177,2.30179 0.91103,8.06093 0.0208,6.20726 -8e-4,6.37341 -0.92607,7.12266 -1.15293,0.93365 -3.55038,1.00509 -4.7819,0.1425 z m 3.63025,-3.58874 c 0.44534,-2.82876 -0.0459,-10.00484 -0.74679,-10.90846 -0.54402,-0.70141 -0.58754,-0.69952 -1.16701,0.0503 -0.44875,0.58072 -0.61273,1.95924 -0.64443,5.41724 -0.0684,7.45984 -0.0118,7.76981 1.38094,7.5705 0.69746,-0.0998 0.92153,-0.50513 1.17729,-2.12964 z m -21.381454,80.06674 c 0.507619,-0.32095 0.632802,-3.16616 0.84275,-19.15482 0.272286,-20.73585 0.297591,-20.96043 2.981153,-26.4581 1.862349,-3.81529 5.230421,-7.15985 9.280255,-9.21544 2.946626,-1.49563 3.246416,-1.56306 6.949326,-1.56306 3.67825,0 4.024,0.0762 6.98353,1.53887 6.05947,2.99475 10.0075,8.35004 11.53393,15.64515 0.66124,3.16012 0.79663,5.93037 0.95469,19.53281 0.22865,19.67681 0.31347,20.46604 2.13724,19.8872 0.65984,-0.20942 0.76039,-1.33874 1.20829,-13.56899 0.2687,-7.3373 0.48493,-15.21342 0.48051,-17.50247 -0.0155,-7.99506 -1.75408,-16.0251 -4.52901,-20.91789 -3.61162,-6.36804 -12.10262,-11.63703 -18.75309,-11.63703 -6.461718,0 -14.983295,5.18805 -18.559349,11.29916 -3.340504,5.70859 -4.945655,14.94771 -4.555342,26.22022 0.137554,3.97265 0.361964,11.28592 0.498695,16.25171 0.273385,9.92895 0.533834,10.9152 2.546422,9.64268 z m 5.289927,-1.9181 c 0.92095,-1.48122 0.939541,-1.73101 1.187254,-15.95075 0.27135,-15.57666 0.588929,-18.38651 2.505599,-22.16886 1.161315,-2.29176 2.872335,-3.87837 5.46892,-5.07131 2.581374,-1.18594 8.657374,-1.18295 11.256134,0.005 2.53843,1.16091 4.44571,2.94424 5.58182,5.2191 1.87759,3.75949 2.07783,5.52625 2.26781,20.00914 0.0984,7.50387 0.27491,14.40999 0.39218,15.34692 0.23658,1.89019 1.90873,4.22526 2.88881,4.03409 0.54128,-0.10558 0.60349,-2.18278 0.52646,-17.57527 -0.0977,-19.50677 -0.2946,-21.45529 -2.66211,-26.33651 -2.60047,-5.36151 -8.42876,-9.66267 -13.66273,-10.0828 -5.950609,-0.47766 -12.703642,4.01197 -15.803156,10.50641 -2.0971,4.39408 -2.38673,7.52322 -2.42274,26.1749 -0.01782,9.23575 -0.025,16.9277 -0.01597,17.09322 0.0091,0.16553 0.362882,0.30096 0.786286,0.30096 0.45573,0 1.151559,-0.61396 1.705426,-1.50479 z M 204.67478,156.00414 c -1.06755,-1.71795 -2.58726,-4.25045 -3.37717,-5.62779 -0.78989,-1.37735 -1.58293,-2.50594 -1.76229,-2.50798 -0.17937,-0.002 -0.84229,1.13465 -1.47316,2.52601 -0.63087,1.39134 -1.97385,3.76272 -2.98442,5.26973 -1.95708,2.91854 -2.23095,3.67319 -1.18771,3.27286 1.23705,-0.4747 8.36937,-0.27375 10.18481,0.28694 0.99316,0.30673 1.97117,0.41057 2.17333,0.23072 0.21302,-0.18947 -0.44861,-1.64046 -1.57339,-3.45049 z M 9.4556265,158.7641 c 1.6552665,-0.14609 3.9124485,-0.15585 5.0159595,-0.0217 1.103511,0.13416 2.146335,0.16585 2.317386,0.0704 0.171053,-0.0954 -0.2492,-0.88081 -0.933894,-1.7453 -0.684692,-0.86451 -2.134996,-3.3201 -3.222897,-5.45687 -1.0879,-2.13678 -2.041857,-3.94891 -2.119902,-4.02696 -0.07805,-0.078 -1.1024421,1.53327 -2.2764374,3.5807 -1.1739933,2.04742 -2.734122,4.62304 -3.4669504,5.72361 -0.7328288,1.10059 -1.3324161,2.16252 -1.3324161,2.35987 0,0.1984 0.67274,0.22984 1.5047878,0.0703 0.8276332,-0.15867 2.859097,-0.40802 4.5143636,-0.5541 z M 47.422562,127.48294 c 3.14432,-0.14238 4.526746,-0.0284 6.134394,0.50553 3.72244,1.23639 3.905915,0.52575 0.965159,-3.73828 -1.912257,-2.77273 -3.613309,-6.00287 -4.733906,-8.98928 -0.393367,-1.04833 -0.842678,-1.90606 -0.998461,-1.90606 -0.155784,0 -0.509998,0.76744 -0.787141,1.70542 -0.814587,2.75696 -3.248198,7.07035 -5.236472,9.28125 -4.122809,4.58444 -4.426596,5.55785 -1.30104,4.16886 1.377808,-0.6123 3.011542,-0.89406 5.957467,-1.02744 z m 122.695568,0.22287 c -3.78406,-4.29247 -4.69992,-5.45886 -5.81036,-7.39971 -0.69845,-1.22078 -1.68704,-3.41331 -2.19686,-4.87233 -0.85453,-2.44551 -0.95688,-2.57548 -1.31017,-1.66359 -2.00341,5.17093 -2.91178,6.92152 -5.87364,11.31963 -1.4639,2.17377 -1.80049,3.51356 -0.8827,3.51356 0.29174,0 1.39257,-0.29377 2.44629,-0.6528 2.67096,-0.91009 9.3311,-0.61061 11.87053,0.53378 2.09946,0.94611 2.94643,0.5708 1.75691,-0.77854 z M 68.09695,113.39778 c 0.819992,-0.1906 4.044339,-0.16868 7.359431,0.05 l 5.900045,0.38924 1.158421,-1.10984 c 0.637135,-0.61041 1.365609,-1.73761 1.618835,-2.50489 0.499846,-1.51456 0.291961,-6.73999 -0.290015,-7.28992 -0.193864,-0.18319 -1.282167,-0.23934 -2.418455,-0.12477 -1.903837,0.19196 -2.084596,0.30145 -2.303345,1.39519 -0.17089,0.85446 -0.43518,1.14906 -0.943605,1.05188 -0.573453,-0.10962 -0.760568,-0.73771 -0.995267,-3.34073 -0.15897,-1.76315 -0.204511,-3.596723 -0.101196,-4.074628 0.103313,-0.4779 0.237158,-3.3314 0.29743,-6.341108 0.123983,-6.190689 0.106198,-6.233621 -2.916768,-7.042619 -1.700804,-0.455164 -5.47049,-0.332025 -6.925242,0.226216 -0.907359,0.348184 -1.170512,2.478056 -1.305237,10.564207 -0.06482,3.890544 -0.135515,7.750862 -0.157096,8.578492 -0.03195,1.22418 -0.188889,1.50479 -0.841791,1.50479 -0.569929,0 -0.802553,-0.26753 -0.802553,-0.92294 0,-1.27638 -0.731668,-1.886 -2.263593,-1.886 -1.592311,0 -1.725371,0.2029 -2.162891,3.29822 -0.45894,3.24685 0.132707,6.05312 1.503508,7.13141 1.114939,0.877 3.921979,1.06775 6.589386,0.44777 z m 1.906294,-14.918084 c -0.347868,-0.214992 -0.555092,-1.650151 -0.643733,-4.458293 -0.159865,-5.06425 0.510954,-6.950178 2.472157,-6.950178 1.551192,0 2.443607,1.519896 3.021763,5.146459 0.467166,2.930364 0.242619,5.196301 -0.582818,5.881357 -0.64657,0.536605 -3.590184,0.79918 -4.267369,0.380655 z m 2.946839,-4.199458 c -0.125896,-2.792798 -0.596434,-4.801352 -1.124795,-4.801352 -0.204824,0 -0.522085,1.408926 -0.705023,3.130946 -0.352132,3.314598 0.0033,4.462313 1.298909,4.195596 0.51335,-0.105668 0.617621,-0.601638 0.530909,-2.52519 z m 75.335797,18.881072 c 1.66735,-1.03047 2.65376,-7.17022 1.51037,-9.40098 -0.41302,-0.8058 -0.79679,-0.96671 -2.30142,-0.96496 -1.45695,0.002 -1.83347,0.14976 -1.94926,0.76644 -0.21398,1.13976 -0.91771,1.87 -1.36807,1.41962 -0.21005,-0.21004 -0.50055,-4.72599 -0.64558,-10.03545 -0.14782,-5.411794 -0.43711,-9.826577 -0.65838,-10.04732 -0.65523,-0.653707 -5.45623,-0.966582 -7.27872,-0.474344 -3.13622,0.84707 -3.3099,1.214143 -2.96108,6.2584 0.16789,2.427724 0.19454,6.66928 0.0592,9.425674 -0.21355,4.35013 -0.33925,5.02943 -0.95226,5.14648 -0.50954,0.0973 -0.77296,-0.19887 -0.94586,-1.06336 -0.22263,-1.11317 -0.38172,-1.20785 -2.24163,-1.33434 -1.10109,-0.0749 -2.16832,-0.0333 -2.37165,0.0925 -0.20331,0.12576 -0.48091,1.6712 -0.61686,3.43432 -0.23007,2.98333 -0.17472,3.32051 0.79785,4.86117 0.57478,0.91052 1.30834,1.80282 1.63013,1.98292 0.73551,0.41162 19.61966,0.34952 20.29319,-0.0667 z M 136.36449,98.451346 c -1.70412,-0.479226 -1.95605,-1.569687 -1.33189,-5.764983 0.50657,-3.404918 1.58114,-5.815776 2.59222,-5.815776 1.93415,0 2.84156,1.463725 3.24459,5.233804 0.26621,2.490239 -0.21631,5.742801 -0.90943,6.130161 -0.7961,0.444918 -2.43325,0.543628 -3.59549,0.216794 z m 2.46183,-2.848339 c 0.30105,-1.505286 -0.11338,-5.847566 -0.58598,-6.139647 -0.50522,-0.312245 -0.72003,0.294388 -1.20029,3.38967 -0.50288,3.241168 -0.3509,4.049475 0.76138,4.049475 0.54147,0 0.84091,-0.379675 1.02489,-1.299498 z m -44.46923,9.687863 c 0.424117,-0.35221 1.912477,-1.84914 3.307467,-3.32653 2.544083,-2.694362 4.210243,-5.533989 5.442253,-9.275241 0.36338,-1.10351 0.83347,-2.277245 1.04462,-2.608299 0.67201,-1.053547 1.738,0.09072 2.84388,3.052718 1.75941,4.712333 2.65879,6.042028 7.23459,10.695942 l 4.43374,4.50943 0.52319,-2.00638 c 0.28775,-1.10351 0.82579,-3.39536 1.19564,-5.09298 0.36985,-1.697625 1.09584,-3.710463 1.61329,-4.472981 1.5425,-2.272996 1.56687,-2.818809 0.23709,-5.310745 -0.67225,-1.259793 -1.22229,-2.884955 -1.22229,-3.611471 0,-1.5716 -0.83257,-1.977363 -3.22714,-1.5728 -1.35133,0.228302 -1.58818,0.41683 -1.58818,1.26415 0,0.803188 -0.17467,0.971025 -0.90288,0.867601 -0.89727,-0.127434 -0.90283,-0.171763 -0.89737,-7.150572 0.005,-6.412101 0.0834,-7.192411 0.90286,-8.979418 1.12959,-2.463474 1.12597,-2.519712 -0.20613,-3.203203 -2.38912,-1.225848 -7.25882,-1.971095 -11.48253,-1.757259 -4.002472,0.202633 -9.153723,1.44354 -9.706711,2.338292 -0.141044,0.228214 0.120693,1.291617 0.581639,2.363115 1.187614,2.760691 1.616796,6.706871 1.310249,12.047411 -0.244454,4.25887 -0.32676,4.614682 -1.067432,4.614682 -0.567799,0 -0.838291,-0.308245 -0.92473,-1.053789 -0.108036,-0.93186 -0.33713,-1.078013 -1.979985,-1.263187 -2.518725,-0.283899 -2.913441,-0.0595 -2.915852,1.657675 -0.0012,0.848636 -0.416763,2.135165 -0.990669,3.066962 -1.294326,2.101458 -1.261377,3.209017 0.180366,6.063107 0.684502,1.355048 1.475122,3.90482 1.852747,5.97519 0.362296,1.98632 0.739978,4.05237 0.839294,4.59123 l 0.18057,0.97973 1.308645,-1.38101 c 0.719758,-0.75956 1.655652,-1.66918 2.079769,-2.02137 z m 7.60203,-22.824151 c -0.59621,-0.658804 -0.67116,-1.198397 -0.44459,-3.200948 0.41691,-3.684993 1.33669,-6.354611 2.43801,-7.076222 2.27079,-1.487878 3.99703,1.030911 4.45291,6.497324 0.3389,4.063657 -0.0406,4.572223 -3.41243,4.572223 -1.79727,0 -2.47761,-0.177689 -3.0339,-0.792377 z m 4.47181,-1.845748 c 0.31305,-0.815816 -0.50686,-5.787166 -1.04287,-6.323179 -0.77582,-0.775813 -2.51722,5.446618 -1.83377,6.552464 0.40278,0.651702 2.60596,0.476095 2.87664,-0.229285 z m -26.893629,2.830016 c 0.137807,-0.359115 -0.593364,-1.835833 -1.774999,-3.58491 -2.536739,-3.754923 -4.168969,-8.246771 -4.745443,-13.059327 -0.421148,-3.515879 -0.780997,-3.494073 -1.309598,0.07936 -0.968618,6.548039 -2.145684,9.481476 -5.345869,13.322789 -1.127788,1.353731 -1.821568,2.517442 -1.620633,2.718378 0.200936,0.200935 1.452594,0.06921 2.923823,-0.3077 3.150352,-0.807084 6.720085,-0.593138 9.218659,0.552502 2.222198,1.018918 2.364359,1.033857 2.65406,0.278913 z m 54.514749,-0.641333 c 2.47531,-0.898378 5.31685,-0.945657 8.41022,-0.139933 1.29747,0.337947 2.51206,0.461448 2.69906,0.274442 0.18701,-0.187008 -0.58262,-1.489633 -1.71028,-2.894723 -2.01976,-2.516671 -3.6598,-5.633251 -4.14761,-7.881741 -0.35189,-1.621928 -0.57506,-2.792076 -1.084,-5.683784 -0.24489,-1.391419 -0.52148,-2.453639 -0.61464,-2.360483 -0.0932,0.09316 -0.34904,1.321883 -0.56865,2.730496 -0.85064,5.456433 -2.46674,9.634827 -5.29208,13.682533 -1.64181,2.352129 -1.8312,3.927737 -0.39726,3.304919 0.38437,-0.166946 1.60173,-0.631224 2.70524,-1.031726 z M 93.548324,67.457324 c 5.544337,-2.671287 14.386856,-3.002024 20.640536,-0.772017 1.87597,0.668953 3.72685,1.350409 4.11308,1.514347 1.35894,0.576811 0.69819,-0.643696 -2.09634,-3.872301 -5.12084,-5.916211 -6.18887,-8.713676 -8.01572,-20.995293 -2.65461,-17.84656 -2.98091,-19.863198 -3.21397,-19.863198 -0.13215,0 -0.66072,2.844049 -1.17461,6.320108 -2.14331,14.498221 -3.68354,23.322216 -4.480832,25.670789 -1.041457,3.067796 -3.233402,6.516445 -6.176759,9.71808 -3.119718,3.393473 -3.024214,3.931509 0.404615,2.279485 z m 27.462236,-55.01897 c 0.77245,-0.399696 2.47067,-1.690229 3.77379,-2.8678506 2.7119,-2.4507092 5.14215,-3.7578181 6.98673,-3.7578181 1.59966,0 1.63971,-0.5947828 0.0939,-1.3941638 -1.66943,-0.8633015 -5.72406,-0.7688944 -9.05733,0.2108885 -9.34565,2.7470692 -11.0729,2.8903486 -14.8266,1.2299049 -2.25991,-0.9996658 -2.29466,-0.9418792 -2.13597,3.5521847 l 0.11763,3.3310904 3.7292,0.09705 c 2.05105,0.05338 3.8568,0.228513 4.01277,0.389199 0.51804,0.533723 5.86476,-0.04478 7.30591,-0.790479 z"
       id="path1102" />
  </g>
</svg>
