<?xml version="1.0" encoding="UTF-8" standalone="no"?>
<!-- Created with Inkscape (http://www.inkscape.org/) -->

<svg
   width="64mm"
   height="64mm"
   viewBox="0 0 64 64"
   version="1.1"
   id="svg5"
   inkscape:version="1.1.2 (b8e25be833, 2022-02-05)"
   sodipodi:docname="castleikon.svg"
   xmlns:inkscape="http://www.inkscape.org/namespaces/inkscape"
   xmlns:sodipodi="http://sodipodi.sourceforge.net/DTD/sodipodi-0.dtd"
   xmlns="http://www.w3.org/2000/svg"
   xmlns:svg="http://www.w3.org/2000/svg">
  <sodipodi:namedview
     id="namedview7"
     pagecolor="#505050"
     bordercolor="#eeeeee"
     borderopacity="1"
     inkscape:pageshadow="0"
     inkscape:pageopacity="0"
     inkscape:pagecheckerboard="0"
     inkscape:document-units="mm"
     showgrid="false"
     inkscape:zoom="2.0107307"
     inkscape:cx="139.99886"
     inkscape:cy="224.0479"
     inkscape:window-width="1920"
     inkscape:window-height="991"
     inkscape:window-x="-9"
     inkscape:window-y="-9"
     inkscape:window-maximized="1"
     inkscape:current-layer="layer1" />
  <defs
     id="defs2" />
  <g
     inkscape:label="Réteg 1"
     inkscape:groupmode="layer"
     id="layer1">
    <path
       style="fill:#f2f2f2;fill-opacity:1;stroke-width:0.200054"
       d="M 4.0699771,63.79226 C 3.837606,63.698376 3.4550009,63.376855 3.2197442,63.077771 2.7926459,62.534806 2.7920032,62.514226 2.7920032,49.383692 V 36.233397 L 1.9612596,36.121971 C 0.9465103,35.985863 0.2200627,35.312697 0.0664579,34.366142 -0.0318228,33.760508 0.4203903,32.73897 3.6618352,26.244282 5.9345133,21.69065 7.5462985,18.691446 7.8260708,18.495486 c 0.6637587,-0.464915 1.9918924,-0.413395 2.5414382,0.09859 0.652837,0.608211 7.628657,14.677797 7.628657,15.3863 0,1.304113 -0.895139,2.200342 -2.197665,2.200342 h -0.617099 l 0.05701,2.050561 0.05701,2.050562 3.450945,0.05474 3.450944,0.05474 v -6.306448 -6.306449 h -1.420386 c -1.348605,0 -1.454764,-0.03437 -2.100575,-0.680186 -0.480382,-0.480382 -0.680187,-0.861982 -0.680187,-1.299064 0,-0.651328 11.818512,-24.3205893 12.567052,-25.16838434 0.742588,-0.8410499 2.130979,-0.8410499 2.873568,0 0.74854,0.84779504 12.567051,24.51705634 12.567051,25.16838434 0,0.437082 -0.199804,0.818682 -0.680186,1.299064 -0.645811,0.645812 -0.75197,0.680186 -2.100575,0.680186 h -1.42039 v 6.306449 6.306452 l 3.450945,-0.05474 3.450945,-0.05474 0.05701,-2.050562 0.05701,-2.050561 h -0.62631 c -1.257103,0 -2.188455,-0.93641 -2.188455,-2.200342 0,-0.708503 6.97582,-14.778089 7.628657,-15.3863 0.549547,-0.511982 1.877681,-0.563502 2.541438,-0.09859 0.279773,0.19596 1.891559,3.195164 4.164237,7.748796 3.241452,6.494688 3.693666,7.516226 3.595381,8.12186 -0.153603,0.946555 -0.880055,1.619721 -1.894805,1.755829 l -0.830744,0.111426 v 13.174118 13.17412 l -0.58362,0.653333 -0.58362,0.653336 -9.097237,0.05585 -4.810149,0.02953 -4.287088,0.02631 -0.08695,-4.457053 c -0.08254,-4.230921 -0.113677,-4.525663 -0.613779,-5.809491 -0.289756,-0.743842 -0.798207,-1.746872 -1.129887,-2.228956 -1.201503,-1.746322 -3.484856,-3.347064 -5.578557,-3.910839 -1.168463,-0.314634 -3.939938,-0.277086 -5.057717,0.06852 -3.540179,1.094602 -6.13504,3.91717 -6.894332,7.499335 -0.182985,0.863291 -0.282011,2.631409 -0.284275,5.075791 l -0.0035,3.751032 -3.761495,-0.0054 -5.090928,-0.0073 c -4.868834,-0.007 -9.0425465,-0.0895 -9.2749167,-0.183388 z"
       id="path836"
       sodipodi:nodetypes="csscssssssscccccccsssssssscccccccsssssssccccccccsssscssccccc" />
  </g>
</svg>
