<?xml version="1.0" encoding="UTF-8" standalone="no"?>
<!-- Created with Inkscape (http://www.inkscape.org/) -->

<svg
   width="210mm"
   height="230mm"
   viewBox="0 0 210 230"
   version="1.1"
   id="svg2468"
   inkscape:version="1.1.2 (b8e25be833, 2022-02-05)"
   sodipodi:docname="horse2.svg"
   xmlns:inkscape="http://www.inkscape.org/namespaces/inkscape"
   xmlns:sodipodi="http://sodipodi.sourceforge.net/DTD/sodipodi-0.dtd"
   xmlns="http://www.w3.org/2000/svg"
   xmlns:svg="http://www.w3.org/2000/svg">
  <sodipodi:namedview
     id="namedview2470"
     pagecolor="#505050"
     bordercolor="#eeeeee"
     borderopacity="1"
     inkscape:pageshadow="0"
     inkscape:pageopacity="0"
     inkscape:pagecheckerboard="0"
     inkscape:document-units="mm"
     showgrid="false"
     inkscape:zoom="0.71090069"
     inkscape:cx="216.6266"
     inkscape:cy="405.82321"
     inkscape:window-width="1920"
     inkscape:window-height="991"
     inkscape:window-x="-9"
     inkscape:window-y="-9"
     inkscape:window-maximized="1"
     inkscape:current-layer="layer1"
     showguides="false" />
  <defs
     id="defs2465" />
  <g
     inkscape:label="Réteg 1"
     inkscape:groupmode="layer"
     id="layer1">
    <path
       style="fill:#5b2b08;fill-opacity:1;stroke:#5b2b08;stroke-width:0.379;stroke-miterlimit:4;stroke-dasharray:none;stroke-opacity:1"
       d="m 147.97041,225.99919 c -0.10287,-0.16644 -0.39356,-0.38784 -0.64599,-0.49201 -0.73156,-0.30188 -3.78833,-2.52836 -6.4048,-4.66509 -4.16853,-3.40422 -8.10409,-7.45936 -10.76732,-11.09446 -0.30641,-0.41823 -1.03923,-1.40787 -1.62849,-2.19921 -0.58926,-0.79133 -1.31426,-1.88021 -1.61111,-2.41971 -0.29685,-0.53951 -0.90764,-1.54499 -1.35731,-2.23441 -0.75171,-1.15247 -2.15328,-3.89692 -3.76975,-7.38164 -0.6916,-1.49092 -1.68727,-4.2011 -2.0491,-5.57761 -0.12176,-0.46321 -0.35842,-1.09825 -0.5259,-1.41118 -0.16747,-0.31294 -0.56266,-1.85673 -0.87818,-3.43064 -0.31552,-1.57391 -0.64235,-2.97277 -0.72628,-3.10858 -0.0839,-0.1358 -0.33283,-1.69975 -0.5531,-3.47544 -0.22028,-1.77568 -0.46284,-3.32938 -0.53904,-3.45266 -0.0762,-0.12328 -0.33379,-2.4534 -0.57245,-5.17805 -0.23865,-2.72465 -0.483,-5.03333 -0.54299,-5.1304 -0.06,-0.0971 -0.24751,-1.73846 -0.41669,-3.64754 -0.16918,-1.90908 -0.50034,-4.59919 -0.73591,-5.97802 -0.23556,-1.37884 -0.59118,-3.50977 -0.79025,-4.7354 -0.19908,-1.22563 -0.57631,-3.10586 -0.8383,-4.17829 -0.262,-1.07242 -0.53246,-2.23616 -0.60103,-2.58608 -0.0686,-0.34992 -0.42806,-0.77445 -0.79886,-0.94339 -0.59367,-0.2705 -0.83391,-0.17678 -2.01182,0.78485 -1.91056,1.55974 -4.26802,3.27981 -5.23902,3.82253 -0.72354,0.40441 -3.37993,2.17152 -6.126518,4.07554 -0.459611,0.31862 -2.02647,1.34606 -3.481907,2.2832 -1.455437,0.93714 -3.499122,2.27959 -4.541518,2.98323 -1.042397,0.70363 -2.098111,1.40468 -2.346031,1.55788 -1.363515,0.8426 -8.265299,6.26998 -10.179843,8.00517 -3.242288,2.93854 -3.937007,3.6665 -6.448492,6.75701 -5.605709,6.89811 -6.979032,10.04562 -7.414315,16.99282 -0.143987,2.29806 -0.382664,4.74236 -0.530395,5.43177 -0.147733,0.68942 -0.414592,2.00558 -0.593027,2.92481 -0.353698,1.82213 -1.074475,3.43291 -2.118941,4.73539 -0.368567,0.45961 -0.884168,1.1174 -1.145782,1.46176 -0.714735,0.94079 -4.166589,3.45264 -5.938075,4.32104 -3.919708,1.92146 -9.832978,2.60957 -17.233248,2.00538 -8.76238,-0.71539 -13.460412,-2.38638 -16.232577,-5.77359 -1.521369,-1.85891 -7.165545,-12.27401 -7.173929,-13.23792 -9.47e-4,-0.10853 -0.173545,-0.52664 -0.383558,-0.92913 -1.280896,-2.45485 -2.957356,-9.67849 -2.957356,-12.74286 0,-1.80913 1.01292,-7.61647 1.536566,-8.80954 0.201725,-0.45961 0.447149,-1.21171 0.545385,-1.67132 0.204238,-0.95555 1.301609,-3.86288 2.155364,-5.71033 0.318599,-0.68941 0.8117,-1.78621 1.095779,-2.43733 0.284081,-0.65112 0.764034,-1.71658 1.066564,-2.3677 0.978924,-2.10687 3.012197,-6.97209 3.928932,-9.40115 2.014898,-5.33884 2.274151,-6.07042 2.813287,-7.93875 0.309467,-1.07242 0.742225,-2.70196 0.961687,-3.62118 0.219461,-0.91922 0.5763,-2.23538 0.792975,-2.9248 0.216675,-0.68942 0.530461,-2.13093 0.697303,-3.20336 0.166842,-1.07242 0.510794,-2.88998 0.764338,-4.03901 0.363233,-1.64612 0.458443,-3.56588 0.44898,-9.05296 -0.01063,-6.1649 -0.08063,-7.23981 -0.610113,-9.36958 -0.328957,-1.32317 -0.5976,-2.57666 -0.596985,-2.78552 0.0017,-0.56547 -1.380496,-4.948863 -1.964226,-6.229366 -0.279358,-0.612816 -0.659238,-2.203031 -0.844177,-3.53381 -0.641977,-4.619494 0.493355,-7.597188 5.151059,-13.509948 0.625972,-0.794646 1.451505,-1.900088 1.834514,-2.456536 0.38301,-0.556447 0.987032,-1.376125 1.34227,-1.821505 0.411729,-0.516205 0.613701,-1.089918 0.557105,-1.582477 l -0.08878,-0.772693 -2.550603,0.09941 c -3.748227,0.146087 -7.751847,-0.982753 -10.8132,-3.048836 -1.888912,-1.274809 -4.597472,-4.171361 -4.600392,-4.919684 -0.0026,-0.661699 0.267762,-0.800811 0.707863,-0.364244 0.145544,0.144374 1.518112,0.591095 3.050151,0.992715 2.244384,0.588358 3.137268,0.695999 4.596117,0.554088 4.843586,-0.471166 10.136799,-3.532551 11.855944,-6.857009 0.653142,-1.263038 0.32894,-1.962317 -1.472228,-3.175511 -3.413528,-2.299212 -9.420692,-7.925191 -10.522992,-9.855254 -0.153204,-0.268252 -0.433349,-0.6662 -0.622544,-0.884332 -2.828525,-3.261115 -6.439452,-10.492014 -8.057319,-16.134821 -0.828497,-2.889638 -1.751259,-8.703249 -1.759667,-11.086298 -0.0087,-2.479545 0.877612,-3.955541 2.37537,-3.955541 0.640843,0 3.753286,2.111965 6.114292,4.148886 1.072427,0.925221 2.100325,1.686381 2.284217,1.691468 0.183892,0.0051 0.43484,0.188815 0.55766,0.408284 0.122821,0.219468 0.622007,0.689526 1.109302,1.044572 0.487295,0.355046 1.615183,1.208476 2.506418,1.896511 3.216779,2.483358 11.148015,7.801986 11.634468,7.801986 0.189934,0 0.554406,0.23102 0.809936,0.513378 0.25553,0.282358 1.147322,0.858803 1.98176,1.280988 0.834437,0.422188 1.656245,0.935201 1.82624,1.140035 0.169995,0.204831 0.675028,0.452796 1.122297,0.551033 0.447269,0.09824 0.8859,0.296215 0.974733,0.439954 0.207661,0.336001 2.003699,1.088837 2.594776,1.087639 0.249399,-5.57e-4 1.174743,-0.533236 2.05632,-1.183848 3.423606,-2.526648 10.133241,-6.205661 12.251597,-6.717769 1.480836,-0.35799 1.676006,-1.098336 1.343927,-5.097932 -0.58974,-7.102862 -1.150511,-17.8016691 -0.984867,-18.7899725 0.320374,-1.911496 2.523722,-3.0377399 4.981342,-2.5462165 0.991588,0.1983177 4.419665,3.5166252 6.408037,6.202846 1.41366,1.909804 2.570904,3.347121 3.880333,4.819438 0.435781,0.489989 1.277857,1.538167 1.871282,2.329284 0.593426,0.791117 1.365017,1.748646 1.714647,2.127843 1.98393,2.151701 2.550673,2.724505 4.326251,4.372511 1.724207,1.600328 5.780628,4.456842 6.328981,4.456842 0.111491,0 0.597699,0.181694 1.080464,0.403765 2.596219,1.194255 7.451333,2.448816 12.994792,3.357856 10.66474,1.748851 14.15897,2.736214 20.89144,5.903281 3.90376,1.836392 8.57066,4.446014 10.93383,6.113937 0.72808,0.513874 1.38397,0.934315 1.45754,0.934315 0.2921,0 9.36434,6.202898 12.83328,8.774407 0.82668,0.612815 1.95594,1.427582 2.50947,1.810591 0.55353,0.38301 1.60305,1.197776 2.33228,1.810592 0.72922,0.612816 2.36223,1.921135 3.62889,2.907376 7.64323,5.9511 17.60545,16.708219 21.45812,23.170296 0.38301,0.64242 1.19334,1.931929 1.80073,2.865576 0.60738,0.933644 1.43107,2.324279 1.8304,3.090299 2.01135,3.858248 4.80332,9.436865 5.71577,11.420651 0.56374,1.22563 1.93015,4.11371 3.03646,6.41794 5.13152,10.68796 7.17643,18.11509 7.70465,27.98331 0.34805,6.50214 -0.43621,13.74935 -2.12512,19.63795 -0.39546,1.37884 -0.9105,3.25755 -1.14453,4.17491 -0.23403,0.91736 -0.52924,1.7948 -0.65601,1.94987 -0.12678,0.15506 -0.68893,1.45783 -1.24922,2.89505 -0.56029,1.43721 -1.20542,2.79982 -1.43362,3.02802 -0.22819,0.22819 -0.4876,0.77844 -0.57647,1.22277 -0.0889,0.44434 -0.26706,0.87307 -0.39599,0.95275 -0.40455,0.25003 -0.57155,-1.10134 -0.27863,-2.25471 0.15436,-0.60781 0.42345,-1.66917 0.59796,-2.35859 0.9682,-3.82493 1.35324,-5.58847 1.52044,-6.96382 0.10243,-0.84262 0.41572,-2.5975 0.69619,-3.89973 0.60576,-2.81251 1.40867,-11.58941 1.40152,-15.32039 -0.01,-5.18264 -1.26569,-13.03533 -2.67268,-16.71316 -0.20513,-0.53621 -0.5093,-1.50683 -0.67594,-2.15692 -0.22564,-0.88033 -0.52172,-1.29511 -1.16012,-1.62524 l -0.85715,-0.44326 0.18446,2.73946 c 0.32825,4.87498 -1.19116,16.00906 -2.71162,19.87043 -0.0905,0.22981 -0.28988,0.85655 -0.4431,1.39276 -0.15321,0.53622 -0.61326,1.85238 -1.02232,2.92481 -0.40907,1.07242 -0.97184,2.57661 -1.2506,3.34263 -0.91217,2.5066 -4.46646,8.95595 -7.0616,12.81342 -2.12098,3.15267 -9.277,12.07644 -11.05266,13.783 -0.79161,0.7608 -3.75005,4.28048 -5.27254,6.27278 -0.81954,1.07243 -1.56197,2.01254 -1.64985,2.08915 -0.18576,0.16192 -1.67454,2.33762 -2.09795,3.06596 -2.80611,4.8269 -4.047,7.38144 -4.73492,9.74745 -0.20045,0.68942 -0.48862,1.56686 -0.64039,1.94987 -0.15176,0.38301 -0.36257,1.3858 -0.46846,2.22842 -0.10589,0.84262 -0.3624,2.15878 -0.57002,2.9248 -0.20761,0.76602 -0.463,2.34665 -0.56752,3.51251 -0.26053,2.90586 -0.51361,3.20611 -1.2577,1.49209 -0.90296,-2.07998 -1.93134,-5.09011 -2.34404,-6.86111 -0.20225,-0.86789 -0.46098,-1.72887 -0.57496,-1.91329 -0.26325,-0.42596 -1.10156,-4.48537 -1.7813,-8.62579 -0.28924,-1.76184 -0.65787,-3.91637 -0.81917,-4.78784 -0.76487,-4.13231 -0.62205,-17.86643 0.23035,-22.15215 0.14583,-0.7332 0.40032,-2.27321 0.56554,-3.42224 0.16521,-1.14903 0.48186,-2.71588 0.70366,-3.4819 0.2218,-0.76602 0.78607,-2.93827 1.25395,-4.82722 0.46787,-1.88895 0.96861,-3.64383 1.11275,-3.89974 0.14415,-0.2559 0.44549,-1.1547 0.66965,-1.99732 0.4204,-1.58027 1.07319,-3.69101 1.59373,-5.15322 1.11876,-3.14257 3.70845,-12.93296 4.12615,-15.59894 0.59431,-3.79328 0.83528,-9.2322 0.57385,-12.9527 -0.40571,-5.7739 -2.18696,-11.863389 -4.06155,-13.885048 -0.57874,-0.624145 -0.67752,-0.651521 -0.83837,-0.232346 -0.10029,0.261335 -0.11137,0.818326 -0.0247,1.237756 0.0867,0.419431 0.29669,1.452018 0.46659,2.294638 0.16988,0.84262 0.5512,2.66018 0.84735,4.03901 1.36712,6.36497 1.22359,16.03568 -0.31624,21.30928 -1.48501,5.0858 -3.52912,8.62273 -6.92236,11.97776 -2.42107,2.3938 -3.47272,3.06582 -3.98932,2.54922 -0.26292,-0.26291 -0.17165,-0.83708 0.4175,-2.62669 1.68323,-5.11293 2.03886,-6.77532 2.31528,-10.82281 0.21448,-3.14064 -0.24263,-7.93279 -1.00619,-10.54827 -1.70382,-5.8363 -2.0958,-7.12123 -3.05908,-10.02789 -0.58389,-1.76185 -1.14687,-3.74634 -1.25107,-4.40997 -0.1042,-0.66364 -0.36396,-1.54108 -0.57724,-1.94987 -0.21328,-0.40879 -0.39117,-1.056625 -0.3953,-1.439635 -0.004,-0.38301 -0.18745,-1.511148 -0.40735,-2.506973 -0.2199,-0.995826 -0.59362,-3.126753 -0.83048,-4.735394 -0.23687,-1.608641 -0.5622,-3.802243 -0.72298,-4.87467 -0.16077,-1.072427 -0.40998,-3.678148 -0.5538,-5.790493 -0.14383,-2.112342 -0.33916,-4.180595 -0.43408,-4.596117 -1.22375,-5.357187 -2.95723,-8.059387 -7.91076,-12.33157 -3.47742,-2.999103 -5.83572,-4.752266 -8.40907,-6.251288 -5.92549,-3.451718 -7.98429,-4.480076 -12.20382,-6.095736 -4.14216,-1.586034 -9.557689,-3.062856 -10.658164,-2.906496 -0.607203,0.08627 -0.620749,0.163706 -0.527205,3.013351 0.107212,3.265974 -0.310879,5.577311 -1.461209,8.078025 -1.596396,3.470417 -2.708144,3.628615 -2.159643,0.30731 0.443965,-2.68831 0.402113,-6.709997 -0.09697,-9.318168 -0.502729,-2.627222 -0.5774,-2.771292 -1.249835,-2.411416 -0.342658,0.183385 -0.626857,0.825527 -0.832485,1.880985 -0.171719,0.881396 -0.381968,1.962263 -0.467219,2.401922 -0.129443,0.667568 -1.428529,2.403973 -1.798527,2.403973 -0.06055,0 -0.1396,-1.535521 -0.175667,-3.412269 -0.112407,-5.851874 -0.845964,-9.754627 -3.075886,-16.364964 -1.253152,-3.714824 -4.330384,-10.156566 -5.908989,-12.369623 -0.447316,-0.627097 -1.05699,-1.578897 -1.354832,-2.115111 -0.29784,-0.536214 -1.18747,-1.727026 -1.976955,-2.646249 -0.789484,-0.919224 -1.961116,-2.286577 -2.603622,-3.038562 -1.321189,-1.546306 -4.770012,-4.91981 -5.389391,-5.271687 -0.224817,-0.127723 -0.606551,-0.156324 -0.848295,-0.06356 -0.391345,0.150172 -0.420208,0.985004 -0.263244,7.613867 0.09696,4.094861 0.291266,8.071945 0.431782,8.837964 0.140518,0.76602 0.448077,2.458227 0.683465,3.76046 0.235385,1.302234 0.685208,3.085321 0.999605,3.962416 0.314397,0.877095 0.571632,1.791046 0.571632,2.031005 0,0.239956 0.501394,1.459212 1.11421,2.709456 0.612816,1.250244 1.11421,2.435884 1.11421,2.634751 0,0.19887 0.219361,0.585066 0.487467,0.858218 0.268107,0.273148 0.939508,1.181926 1.492003,2.019506 1.176785,1.783998 2.971485,3.680097 5.670261,5.990627 2.199253,1.882867 3.40777,3.086593 4.814143,4.795051 1.631355,1.981768 1.532555,5.009055 -0.116385,3.566091 -0.279953,-0.244981 -1.950514,-1.399133 -3.712359,-2.564778 -4.027204,-2.664422 -4.83045,-3.29365 -8.013735,-6.277631 -1.420074,-1.331166 -2.830673,-2.499243 -3.134657,-2.595725 -1.738238,-0.551696 -8.089312,5.064501 -9.519802,8.418271 -0.182034,0.426779 -0.47891,0.963984 -0.659721,1.19379 -0.180814,0.229806 -0.486283,0.919223 -0.678824,1.532039 -0.192539,0.612816 -0.464512,1.258946 -0.604387,1.435844 -0.597061,0.755097 -2.068136,6.802443 -3.038747,12.491785 -0.807304,4.73209 -2.264465,10.364329 -3.18182,12.298411 -0.228978,0.482765 -0.416327,0.973639 -0.416327,1.090831 0,0.446044 -2.67791,4.490995 -3.732501,5.637899 -2.718275,2.956217 -7.680054,5.896927 -9.274506,5.496745 -0.542801,-0.136235 -0.580197,-0.244887 -0.33067,-0.960686 0.154742,-0.443893 0.524027,-1.026698 0.820633,-1.295122 0.296605,-0.268424 0.541565,-0.687978 0.544353,-0.932341 0.0028,-0.24436 0.35982,-0.96758 0.793407,-1.607153 0.888594,-1.310738 2.240245,-5.000623 3.289018,-8.978714 0.635339,-2.409911 0.706685,-3.218001 0.727754,-8.242897 0.01546,-3.685367 -0.08721,-5.833364 -0.303313,-6.346029 -0.321338,-0.762332 -0.340558,-0.767794 -1.177784,-0.334848 -0.46811,0.24207 -0.971572,0.716158 -1.118801,1.05353 -0.147229,0.337369 -0.700108,1.17747 -1.228626,1.866887 -0.528514,0.689418 -1.403191,1.88023 -1.943728,2.64625 -0.540537,0.766019 -1.381632,1.956832 -1.869099,2.646249 -0.48747,0.689418 -1.555285,2.238346 -2.372923,3.442063 -0.817638,1.203715 -1.877007,2.681481 -2.354151,3.283924 -1.357971,1.714583 -3.210599,4.55439 -4.011722,6.14939 -1.379437,2.746398 -0.919209,6.810302 1.237812,10.930127 0.317762,0.60691 0.577746,1.34586 0.577746,1.64211 0,0.5513 1.3902,2.96335 1.708466,2.96425 0.378336,0.001 0.558721,-1.42349 0.715226,-5.64833 0.08955,-2.417438 0.268945,-4.460933 0.398653,-4.541095 0.129708,-0.08016 0.579579,0.581579 0.999717,1.470541 0.692777,1.465838 0.76251,1.901516 0.749106,4.680374 -0.0081,1.68524 -0.160143,4.09857 -0.337815,5.36295 -0.177672,1.26439 -0.459422,3.39532 -0.626114,4.7354 -0.166691,1.34008 -0.428411,3.1886 -0.581604,4.10783 -0.15319,0.91922 -0.508439,3.05015 -0.78944,4.73539 -1.17628,7.05445 -2.886885,14.55311 -4.988187,21.86638 -0.330148,1.14903 -0.784436,2.8089 -1.009529,3.68859 -0.225093,0.8797 -0.523994,1.81981 -0.664224,2.08914 -0.14023,0.26934 -0.701257,1.86854 -1.246728,3.55378 -0.54547,1.68524 -1.632756,4.75629 -2.416192,6.82454 -0.783436,2.06825 -1.592348,4.27794 -1.797583,4.91042 -0.205236,0.63248 -0.500108,1.38458 -0.655272,1.67132 -0.155164,0.28674 -0.525686,1.08542 -0.823381,1.77484 -0.873423,2.02272 -2.278738,5.06215 -2.92327,6.32248 l -0.597959,1.16926 1.33447,2.68483 c 0.07577,0.15244 -1.353482,0.30884 -1.556302,0.23945 -0.172349,-0.059 -0.515344,0.93812 -0.598639,1.34111 -0.185296,0.89648 0.456634,2.51622 0.425403,2.76888 -0.04663,0.37726 -0.02925,2.49821 0.267677,2.42565 0.175367,-0.0429 0.302873,-0.0609 0.4522,-0.57302 0.143005,-0.49041 0.228217,-2.60462 0.228217,-2.60462 -0.05466,-0.94131 0.03699,-1.91635 -0.201622,-2.33745 -0.09421,-0.16626 -0.24115,-0.46015 -0.25713,-0.48982 -0.01319,-0.0245 -0.130878,-0.12105 -0.271918,-0.0975 -0.05647,0.009 -0.431023,0.16047 -0.52566,0.16937 -1.110567,0.10494 1.168167,-1.79068 1.652551,-1.58618 0.344972,0.14564 1.515317,4.5915 1.5109,5.05232 -0.0179,1.8675 -0.149493,2.60081 -0.622897,3.47117 -0.849327,1.56149 -0.755555,2.23352 0.523276,3.75014 1.332772,1.58059 1.922938,2.67306 3.219898,5.96042 0.533246,1.35161 1.078432,2.66777 1.211524,2.9248 0.133093,0.25704 0.661232,1.3273 1.173642,2.37836 1.09878,2.25382 3.510864,4.65686 5.824381,5.80255 2.212175,1.0955 5.697681,1.54156 8.588152,1.09908 4.796636,-0.73428 8.510279,-3.32163 11.649313,-8.11626 0.551665,-0.84262 1.346966,-2.05301 1.767338,-2.68974 0.420372,-0.63674 0.853995,-1.45151 0.963606,-1.81059 0.109613,-0.35909 0.354349,-0.84092 0.54386,-1.07072 0.18951,-0.22981 0.762418,-1.35795 1.273124,-2.50698 0.51071,-1.14902 1.027661,-2.22422 1.148782,-2.38931 0.219864,-0.29969 4.26662,-8.175 5.284894,-10.28483 0.295764,-0.61281 0.654688,-1.30223 0.797608,-1.53204 0.142916,-0.2298 1.047221,-1.96483 2.009561,-3.85562 0.962341,-1.89078 1.937735,-3.78709 2.16754,-4.21401 0.59122,-1.09835 2.843674,-3.62957 3.229831,-3.62957 0.177725,0 0.483593,-0.19334 0.679702,-0.42964 0.223656,-0.26949 0.454601,-0.3316 0.619568,-0.16663 0.16497,0.16497 -0.0587,0.81831 -0.600052,1.75276 -0.474682,0.81936 -1.059447,1.92847 -1.299476,2.46469 -0.240032,0.53621 -0.880429,1.84991 -1.423108,2.91932 -0.943277,1.85884 -1.284103,3.5026 -0.822054,3.96465 0.241856,0.24185 1.181824,-0.76439 4.629536,-4.95597 1.302233,-1.5832 4.65531,-5.17151 7.451281,-7.97402 2.795972,-2.80252 5.083585,-5.28948 5.083585,-5.52657 0,-0.2371 -0.391687,-0.64461 -0.870416,-0.90559 -1.844274,-1.00542 -5.103033,-3.20224 -5.801375,-3.91087 -1.662227,-1.68674 -3.587863,-4.23568 -4.162721,-5.51016 -0.337371,-0.74796 -0.795292,-1.7148 -1.017602,-2.14853 -0.452356,-0.88254 -0.543991,-2.41476 -0.144419,-2.41476 0.142881,0 0.335676,0.23912 0.428434,0.53138 0.09276,0.29225 0.345349,0.59917 0.561311,0.68205 0.215965,0.0829 0.600938,0.55344 0.855499,1.0457 0.254558,0.49227 0.919193,1.38717 1.476964,1.98868 0.557771,0.60151 1.110249,1.2633 1.227729,1.47064 0.281321,0.49651 3.257112,2.75254 4.432323,3.36027 8.482867,4.38666 19.445462,0.55375 26.581956,-9.29401 2.03645,-2.81012 4.90049,-9.40515 5.41053,-12.45885 1.42182,-8.5127 1.43318,-9.84653 0.15307,-17.96664 -0.25359,-1.60864 -0.63659,-3.4262 -0.8511,-4.03901 -0.21451,-0.61282 -0.78817,-2.55488 -1.2748,-4.3157 -0.48664,-1.76082 -1.05857,-3.449579 -1.27095,-3.7528 -0.21239,-0.303224 -0.3873,-0.742783 -0.3887,-0.976803 -0.001,-0.234017 -0.31085,-1.052229 -0.68767,-1.818249 -0.37682,-0.76602 -0.68905,-1.588165 -0.69384,-1.82699 -0.005,-0.238826 -0.1947,-0.677546 -0.42202,-0.974934 -0.22732,-0.297389 -0.54741,-1.017792 -0.71132,-1.600895 -0.28868,-1.026979 -1.58816,-3.816254 -6.124537,-13.145994 -2.232253,-4.590964 -2.613497,-5.711673 -2.012698,-5.916562 0.191505,-0.06531 0.348191,0.01705 0.348191,0.183023 0,0.16597 0.21936,0.52169 0.487467,0.790487 1.324785,1.328198 5.829567,7.702637 7.233417,10.235551 0.42456,0.76602 0.96064,1.723581 1.19128,2.127914 0.23064,0.404333 0.89779,1.720494 1.48255,2.924802 0.58477,1.204308 1.24285,2.522363 1.4624,2.929011 0.21956,0.406648 0.39919,0.914769 0.39919,1.129157 0,0.214388 0.29797,1.009815 0.66215,1.767614 0.86303,1.795826 1.97996,5.115343 2.85361,8.480908 0.21873,0.84262 0.64064,2.40948 0.93758,3.4819 0.29695,1.07243 0.61632,2.76464 0.70973,3.76046 0.0934,0.99583 0.34267,2.75071 0.55394,3.89974 0.49797,2.70842 0.76842,10.79226 0.47895,14.3159 -0.17991,2.19002 -0.14831,2.83407 0.15391,3.13628 0.54553,0.54553 0.84743,0.24946 1.71003,-1.67703 1.03255,-2.30603 1.83466,-4.85129 2.42566,-7.69712 0.98554,-4.74568 0.49673,-13.11665 -1.02885,-17.61956 -0.29866,-0.88154 -0.54302,-1.85798 -0.54302,-2.16988 0,-0.3119 -0.2354,-1.03216 -0.52312,-1.60057 -0.28771,-0.56841 -0.61757,-1.472196 -0.73303,-2.00841 -0.18943,-0.879828 -2.28923,-5.653823 -2.94044,-6.685262 -0.14509,-0.229806 -0.34418,-0.605852 -0.44243,-0.835658 -0.62876,-1.470727 -0.96247,-2.146623 -1.26837,-2.568945 -0.28003,-0.386609 -0.27435,-0.548919 0.0292,-0.835658 0.30665,-0.289642 0.4038,-0.281196 0.52211,0.04539 0.0799,0.220689 0.48011,0.722084 0.88926,1.114211 0.88811,0.851184 2.73199,3.436174 3.05739,4.286261 0.12737,0.332745 0.67905,1.28311 1.22597,2.111921 0.54691,0.828814 1.07906,1.892439 1.18255,2.363614 0.10349,0.471174 0.34939,1.109216 0.54645,1.417869 0.481,0.753373 1.63644,4.661357 2.38956,8.082107 0.90488,4.11008 0.91197,12.13912 0.0144,16.29533 -1.20587,5.5837 -3.05314,10.3683 -5.25681,13.61559 -0.35342,0.52078 -0.64258,1.17829 -0.64258,1.46112 0,0.64216 0.47753,2.65454 1.14848,4.8398 0.28222,0.91922 0.63601,2.54875 0.78618,3.62118 0.15017,1.07243 0.39597,2.32592 0.54622,2.78553 0.15025,0.45961 0.41492,2.02647 0.58815,3.4819 0.17323,1.45544 0.43293,3.10554 0.57712,3.66689 0.14419,0.56136 0.38444,2.3039 0.53388,3.87232 0.14944,1.56842 0.45361,3.74145 0.67594,4.82896 0.22234,1.08751 0.48532,3.10543 0.58441,4.48427 0.0991,1.37883 0.35269,3.25906 0.56356,4.17828 0.21088,0.91923 0.51205,2.67411 0.66928,3.89974 0.15723,1.22563 0.48228,3.04319 0.72233,4.03901 1.08839,4.51518 1.90398,7.48319 2.38706,8.68677 0.28811,0.71782 0.52383,1.51886 0.52383,1.78008 0,0.26123 0.24455,0.99008 0.54344,1.61968 0.2989,0.6296 0.91747,2.02216 1.37461,3.09459 0.96658,2.26754 2.58118,5.42779 3.48669,6.82454 4.0885,6.30643 7.44916,10.49234 13.38799,16.67553 1.2309,1.28155 2.53197,2.59771 2.89128,2.9248 0.84465,0.76893 1.51115,2.04735 1.17553,2.25478 -0.14206,0.0878 -0.34245,0.0234 -0.44531,-0.14299 z M 49.554139,206.36148 c 1.890544,-0.96263 5.46592,-4.267 6.883675,-6.36193 2.235348,-3.30302 2.549187,-4.63104 2.528251,-10.6984 -0.02365,-6.85342 -0.439478,-8.31224 -1.668663,-5.85401 -1.281345,2.56253 -1.71826,4.45333 -1.921746,8.31661 -0.188438,3.57759 -0.247775,3.86413 -1.151271,5.55964 -1.088166,2.04205 -4.391334,5.4814 -7.289666,7.5902 -1.034126,0.75243 -1.880229,1.41171 -1.880229,1.46507 0,0.0534 0.179588,0.27662 0.399087,0.49612 0.488222,0.48822 2.669997,0.21511 4.100562,-0.5133 z M 152.57536,192.58786 c 0.0106,-0.22981 0.26151,-0.91923 0.55753,-1.53204 0.29601,-0.61282 0.54245,-1.27641 0.54765,-1.47466 0.005,-0.19824 0.83786,-1.82778 1.85037,-3.62118 1.60561,-2.84395 2.40227,-4.11625 4.28724,-6.84687 0.67681,-0.98045 2.9072,-3.92273 3.08834,-4.07406 0.0917,-0.0766 0.59416,-0.70372 1.11662,-1.39359 0.52245,-0.68988 1.20024,-1.51439 1.50619,-1.83226 1.19413,-1.24064 6.95034,-8.37142 7.79865,-9.66094 0.1532,-0.23288 1.01802,-1.5338 1.92182,-2.89092 2.78223,-4.17771 5.18127,-8.17003 5.18127,-8.62231 0,-0.11441 0.17433,-0.40591 0.38739,-0.64778 0.21307,-0.24187 0.78463,-1.4394 1.27014,-2.66117 0.48551,-1.22178 1.06094,-2.60061 1.27873,-3.06408 0.94192,-2.00443 2.47316,-7.06222 3.08022,-10.17418 0.22415,-1.14903 0.54759,-2.65322 0.71876,-3.34263 0.46416,-1.86942 0.629,-11.87509 0.25221,-15.30868 -0.56832,-5.17895 -1.73325,-11.80575 -2.57282,-14.63573 -1.125,-3.792077 -1.18011,-3.946718 -2.92883,-8.217297 -1.24298,-3.035532 -5.76458,-9.799853 -8.30304,-12.421356 -5.07391,-5.239908 -5.87707,-5.980459 -6.404,-5.904752 -0.69657,0.100079 -0.6929,1.184484 0.009,2.527105 0.67786,1.297495 2.84015,7.508972 3.4635,9.949399 0.2935,1.14903 0.85232,3.279957 1.24182,4.735394 0.38951,1.455437 0.84043,3.52369 1.00205,4.596118 0.16162,1.072427 0.41912,2.325914 0.57222,2.785525 0.90534,2.717864 1.35319,15.313014 0.80893,22.750204 -0.24474,3.34438 -0.41996,4.36291 -1.54905,9.00479 -1.79377,7.3745 -4.18405,12.33215 -12.73074,26.4047 -0.88092,1.45048 -1.60168,2.76072 -1.60168,2.91163 0,0.15091 -0.23386,0.57333 -0.51971,0.9387 -0.63564,0.8125 -4.21567,8.90272 -4.21567,9.52668 0,0.24653 -0.24364,1.11102 -0.54142,1.92109 -1.51371,4.11778 -2.2441,9.2526 -2.2441,15.77648 0,4.12783 0.0747,5.03855 0.45859,5.58654 l 0.45859,0.65473 0.36719,-0.66239 c 0.20196,-0.36431 0.37589,-0.85041 0.38652,-1.08021 z m -2.53646,-21.53048 c 0.16175,-0.88768 0.48535,-1.88703 0.71911,-2.22076 0.23375,-0.33374 0.42501,-0.75615 0.42501,-0.93869 0,-0.89934 3.95317,-8.4274 7.48736,-14.25824 1.15581,-1.9069 1.22649,-2.02544 2.52077,-4.22748 0.67535,-1.14903 1.62902,-2.71589 2.11926,-3.48191 0.49024,-0.76602 1.20639,-2.08218 1.59145,-2.9248 0.38506,-0.84262 1.0944,-2.38578 1.57632,-3.42923 0.48192,-1.04345 1.19139,-2.86101 1.57662,-4.03901 0.38522,-1.17801 0.81978,-2.39252 0.96569,-2.69893 0.14591,-0.30641 0.45522,-1.4798 0.68737,-2.60754 0.23215,-1.12774 0.47594,-2.13758 0.54177,-2.24409 0.0658,-0.10651 0.44067,-2.2479 0.83298,-4.75866 0.57675,-3.6911 0.71096,-5.52781 0.70107,-9.5944 -0.007,-2.76616 -0.12066,-5.90683 -0.25318,-6.97925 -0.13252,-1.07243 -0.38707,-3.20336 -0.56568,-4.7354 -0.17861,-1.53203 -0.49477,-3.34959 -0.70258,-4.039008 -0.20782,-0.689417 -0.4575,-1.817555 -0.55486,-2.506973 -0.17939,-1.270358 -1.29318,-5.572709 -1.83884,-7.103091 -0.16388,-0.459611 -0.4712,-1.399726 -0.68295,-2.089144 -0.75414,-2.455394 -1.8051,-5.385463 -2.03902,-5.684785 -0.13071,-0.167254 -0.32738,-0.680141 -0.43704,-1.139753 -0.10967,-0.459612 -0.36282,-1.023681 -0.56257,-1.253487 -0.19975,-0.229806 -0.45174,-0.7312 -0.55997,-1.11421 -0.10824,-0.38301 -0.74189,-1.833848 -1.40813,-3.224082 -0.66623,-1.390236 -1.29422,-2.857941 -1.39552,-3.261569 -0.10131,-0.403626 -0.35992,-0.879703 -0.57469,-1.057951 -0.21478,-0.178246 -0.3905,-0.439161 -0.3905,-0.57981 0,-0.140647 -0.23381,-0.595356 -0.51959,-1.010464 -0.28577,-0.415107 -1.00652,-1.489941 -1.60167,-2.388524 -0.59515,-0.89858 -1.34941,-2.026718 -1.67612,-2.506973 -1.6716,-2.457179 -10.001,-9.683647 -12.42429,-10.779133 -0.34692,-0.15683 -0.94413,-0.46594 -1.32714,-0.68691 -1.79842,-1.037558 -2.4105,-0.103332 -1.04844,1.600262 1.38843,1.736578 2.29139,3.35777 4.69836,8.435486 0.76393,1.611596 2.7575,6.827566 2.75275,7.202314 -0.002,0.175232 0.24124,1.133372 0.54103,2.129197 0.68603,2.278869 1.41082,7.001444 1.70066,11.08115 0.21681,3.051714 0.32366,3.468328 1.94443,7.581873 0.27164,0.689418 0.83332,2.193601 1.24819,3.342631 0.41486,1.149029 0.94325,2.527865 1.17418,3.064078 0.23094,0.536214 0.64944,1.789701 0.93002,2.785526 0.28057,0.995825 0.77124,2.68803 1.09038,3.76046 0.31913,1.07243 0.9695,3.64207 1.44525,5.71033 0.83112,3.61314 0.86633,4.02236 0.89886,10.44572 0.0282,5.56331 -0.0491,7.0125 -0.4604,8.63513 -0.27185,1.07243 -0.67161,2.70196 -0.88837,3.62118 -1.00009,4.24125 -1.94976,7.44683 -2.80576,9.47079 -0.19438,0.45961 -0.5404,1.39973 -0.76894,2.08914 -0.22853,0.68942 -0.75188,2.13093 -1.16299,3.20336 -1.01811,2.65589 -2.90679,8.8643 -3.51668,11.55993 -0.15598,0.68942 -0.47543,2.05748 -0.7099,3.04014 -0.84404,3.53747 -1.7315,12.95771 -1.36012,14.43745 0.18399,0.73304 0.20258,0.72099 0.98026,-0.63536 0.43599,-0.76041 0.92505,-2.10885 1.08679,-2.99653 z m -0.33323,-53.53661 c -0.0638,-1.6868 -0.51828,-5.57388 -1.00989,-8.63796 l -0.89383,-5.57105 0.1749,-9.888619 c 0.18688,-10.565017 -0.0122,-14.455848 -0.96926,-18.944096 -0.99134,-4.649046 -1.53454,-6.295339 -3.62956,-11.000306 -0.13643,-0.306408 -0.43919,-0.995826 -0.67278,-1.532039 -0.23359,-0.536214 -0.54234,-1.162957 -0.68611,-1.392763 -0.14377,-0.229806 -0.5973,-1.107247 -1.00785,-1.949868 -1.10768,-2.273432 -4.08306,-6.642588 -6.07018,-8.913683 -0.20107,-0.229806 -0.97921,-1.140745 -1.72918,-2.024311 -3.81655,-4.496379 -10.46189,-8.605347 -17.12654,-10.589739 -4.75497,-1.415788 -8.11481,-1.930113 -8.50321,-1.301671 -0.0987,0.159753 0.30126,0.870123 0.88886,1.578605 0.5876,0.708479 1.20606,1.532711 1.37435,1.831623 0.19212,0.341238 1.4878,0.979126 3.48191,1.714212 1.74676,0.643905 3.76254,1.475187 4.47951,1.847291 2.44119,1.266966 4.87793,2.74437 5.23397,3.173377 0.19536,0.235391 0.51556,0.427982 0.71157,0.427982 0.49193,0 5.88766,5.170571 6.78414,6.501058 1.36697,2.028743 3.35623,5.336633 3.36627,5.597673 0.005,0.143134 0.26305,0.782986 0.57234,1.421891 0.54671,1.129352 1.00125,2.547472 1.82683,5.699506 0.22069,0.842622 0.58671,2.096108 0.81337,2.785526 0.22666,0.689418 0.53636,2.147351 0.68822,3.239851 0.15186,1.092499 0.40304,2.3202 0.55817,2.728224 0.15513,0.408024 0.47116,2.083808 0.70228,3.723964 0.23113,1.640157 0.53718,3.671521 0.68013,4.514142 0.23462,1.38307 0.91188,6.075658 1.68849,11.699209 0.32392,2.345602 0.85393,4.684616 1.98821,8.774401 0.82816,2.98605 3.00166,9.3893 3.49838,10.30645 0.16595,0.30641 0.45542,1.3092 0.64326,2.22842 0.18784,0.91922 0.51525,2.0098 0.72757,2.4235 0.21232,0.41371 0.38674,0.97777 0.38759,1.25349 8.4e-4,0.27571 0.14193,1.00269 0.3135,1.61551 0.30222,1.07943 0.32005,1.09257 0.57129,0.42066 0.14264,-0.38145 0.20711,-2.07366 0.14328,-3.76046 z M 47.827453,80.921153 c 0.0069,-0.211723 0.250006,-0.775792 0.540216,-1.253487 0.290207,-0.477693 0.612209,-1.432604 0.715557,-2.122022 0.103346,-0.689418 0.362573,-1.817556 0.576058,-2.506973 0.213483,-0.689418 0.573888,-2.820345 0.8009,-4.735394 0.89063,-7.513337 1.062452,-8.575807 1.756859,-10.863551 1.353417,-4.458888 3.713585,-7.692313 8.946237,-12.256313 0.96607,-0.842622 2.089994,-1.707747 2.497611,-1.9225 1.347868,-0.710128 2.343802,-1.910381 2.133913,-2.571684 -0.427071,-1.345585 -1.71443,-3.168817 -2.297733,-3.254188 -0.994789,-0.145596 -5.6694,2.468302 -8.124557,4.543001 -3.792036,3.204416 -5.897573,5.79023 -8.060704,9.899374 -1.205319,2.28966 -1.878784,6.88336 -1.448217,9.878296 0.833557,5.798058 1.159004,11.484483 0.842688,14.723952 -0.245591,2.515152 -0.236836,3.32196 0.04169,3.840864 l 0.352583,0.656891 0.357169,-0.835657 c 0.196443,-0.459612 0.362823,-1.008884 0.369734,-1.220609 z M 33.633834,69.331688 c 0.38301,-0.223449 1.072427,-0.603105 1.532039,-0.843682 2.182159,-1.142214 4.670313,-3.481016 5.818473,-5.469219 0.551587,-0.955145 0.810143,-1.906723 0.983923,-3.621183 0.296792,-2.928064 1.060051,-6.369701 1.534521,-6.919374 0.199466,-0.231082 0.449946,-0.786301 0.556621,-1.233821 0.106677,-0.44752 0.436882,-1.122506 0.733794,-1.499967 0.296911,-0.377461 0.539837,-0.831329 0.539837,-1.0086 0,-0.177268 0.563529,-0.943792 1.252283,-1.703388 0.688758,-0.759593 1.252827,-1.458858 1.253487,-1.553919 1.02e-4,-0.01747 2.75282,-2.482611 5.386471,-4.674577 1.376972,-1.146043 2.745301,-2.026179 3.619361,-2.853105 0.03619,-0.03424 1.149796,-0.775314 2.4664,-1.399122 1.273003,-0.603149 2.742215,-1.081675 3.241471,-1.567521 0.730683,-0.711058 -0.567908,-0.574596 -1.820658,-0.0068 -0.09762,0.04424 -1.006928,0.285864 -1.897547,0.71968 -1.011434,0.492665 -2.017821,1.185553 -2.127237,1.260278 -0.49637,0.33899 -1.22824,0.727927 -1.974861,1.191789 -0.854532,0.530905 -1.74878,1.159958 -2.680652,1.924613 -1.708329,1.401782 -3.551091,2.811646 -4.940764,4.198467 -1.162415,1.160029 -1.978176,2.373092 -2.416327,2.890886 -0.398273,0.470666 -1.111355,1.729313 -1.747464,3.084404 -0.251708,0.536214 -0.59452,1.142776 -0.761802,1.347913 -0.350879,0.430281 -1.866107,4.120581 -1.866107,4.544853 0,0.324127 -2.545503,5.445603 -3.443707,6.928636 -0.710253,1.172709 -1.745092,2.38107 -3.754097,4.383588 -0.916672,0.913711 -1.427763,1.638282 -1.331866,1.888182 0.197845,0.515576 0.951569,0.51191 1.844408,-0.009 z m 97.363676,-8.986666 c -0.10457,-0.42131 -0.36434,-1.079391 -0.57727,-1.462401 -0.21293,-0.38301 -0.59207,-1.129383 -0.84253,-1.658605 -1.58716,-3.353609 -6.81434,-8.176889 -11.32035,-10.44563 -1.11798,-0.562893 -2.22071,-1.131884 -2.45052,-1.264431 -3.47836,-2.006208 -12.82453,-4.741744 -18.625941,-5.451638 -1.894656,-0.231843 -3.575331,-0.447983 -3.734833,-0.480314 -0.159502,-0.03233 -0.475188,0.259162 -0.701526,0.647765 -0.380102,0.652605 -0.350742,0.830678 0.384505,2.332254 0.437815,0.894135 1.050191,1.728845 1.36083,1.85491 0.310642,0.126064 1.818288,0.431102 3.350327,0.67786 2.640748,0.425331 4.141398,0.813948 6.685258,1.731255 0.61282,0.220981 2.35183,0.835109 3.86447,1.364732 3.46299,1.212497 9.18409,4.035177 13.49573,6.658521 2.92609,1.780338 7.43452,5.227685 7.68276,5.874587 0.0817,0.212934 0.47946,0.387155 0.88389,0.387155 0.66255,0 0.71651,-0.0758 0.5452,-0.76602 z M 36.260187,54.545159 c 0.644623,-0.644623 0.666102,-2.992521 0.03422,-3.740563 -0.701722,-0.830716 -2.014573,-3.80761 -2.64118,-5.98888 C 32.465136,40.679876 31.783496,39.550897 27.49404,34.614466 26.645015,33.637384 25.64861,32.380753 25.279805,31.821949 24.911,31.263144 24.101471,30.559 23.480853,30.257182 22.113369,29.592146 20.542121,28.311496 17.69989,25.545388 c -2.233458,-2.17364 -2.899153,-2.381436 -2.633986,-0.822195 0.589685,3.46748 2.964283,10.489754 4.580791,13.546537 2.011055,3.802862 2.845675,5.224814 3.276674,5.582512 0.222211,0.184418 0.40402,0.485634 0.40402,0.669364 0,0.502125 5.375195,6.079268 7.33691,7.612558 0.943828,0.737702 2.119276,1.505914 2.612108,1.707137 0.492834,0.201224 1.040914,0.540401 1.217957,0.753725 0.426865,0.514339 1.224132,0.491826 1.765823,-0.04987 z m 2.768642,-6.386812 c 0.654635,-1.209681 1.724594,-2.839217 2.560581,-3.899736 1.474315,-1.870288 1.45793,-2.138652 -0.216352,-3.54366 -1.802842,-1.512891 -3.72393,-2.802526 -5.928632,-3.979914 -0.919224,-0.490899 -2.31195,-1.24396 -3.094948,-1.673472 -0.788688,-0.432631 -1.622117,-0.704763 -1.868664,-0.610155 -0.352244,0.13517 -0.130775,0.507458 1.062246,1.785633 0.829001,0.888173 1.837743,2.304276 2.241647,3.146898 0.403904,0.842621 0.870964,1.782736 1.037909,2.089144 0.166945,0.306408 0.461676,1.183849 0.654955,1.949868 0.547871,2.171362 1.641708,4.896169 2.078122,5.176705 0.569659,0.366193 1.126402,0.19941 1.473136,-0.441311 z M 103.72268,37.380873 c 0.11277,-0.182463 0.0508,-0.383158 -0.13767,-0.445988 -0.18849,-0.06283 -0.61807,-0.398074 -0.95462,-0.744986 -1.42687,-1.470825 -7.513969,-4.00772 -11.045492,-4.603388 -1.858219,-0.313427 -2.093526,-0.301413 -2.403672,0.122739 -0.284603,0.389216 -0.187227,0.814671 0.565503,2.470756 1.040918,2.290136 1.104846,2.322429 4.750842,2.399755 2.472556,0.05244 5.33535,0.38989 6.824539,0.80444 1.37555,0.382918 2.16254,0.381826 2.40057,-0.0033 z M 32.681948,193.96349 c -1.574332,-1.38228 -1.311727,-2.37342 1.454896,-5.49115 2.014473,-2.27013 2.30136,-3.58332 1.302988,-5.96427 -1.392409,-3.32067 -1.575961,-4.14097 -1.240879,-5.5455 0.251333,-1.05348 0.476353,-1.36138 1.27232,-1.74095 1.692714,-0.8072 3.50703,-0.43579 5.073665,1.03863 1.712463,1.61167 2.116231,2.92249 2.112075,6.85682 -0.0054,5.08923 -0.964672,7.60329 -3.931461,10.3033 -1.157241,1.05319 -1.436545,1.17027 -3.130315,1.31227 -1.804803,0.15131 -1.890804,0.12861 -2.913289,-0.76915 z m 6.409517,-11.86121 c -0.06947,-3.03864 -1.929164,-5.24106 -3.123817,-4.24959 -0.211171,0.17526 -0.383946,0.42236 -0.383946,0.54913 0,0.26002 1.60904,2.71798 2.130473,3.2545 0.187004,0.19241 0.386442,0.73138 0.483404,1.03688 0.06557,0.2066 0.309548,1.53042 0.228591,2.65843 -0.02335,0.32536 -0.262925,1.18157 -0.487206,1.68132 l -1.080327,1.09013 c -0.301288,0.30402 -0.374501,0.23155 -0.643957,0.64022 l -0.384833,0.38359 c -0.456521,0.45505 -0.629454,0.92746 -0.30449,1.2096 0,0 0.995859,0.19107 1.415864,-0.31782 0.361462,-0.43796 0.642013,-0.61907 0.954753,-1.17742 0.249672,-0.44574 0.459432,-0.98335 0.456825,-1.21347 -0.0031,-0.27168 0.158888,-0.77597 0.161818,-1.01986 0.0062,-0.51569 0.06704,-0.96021 0.159901,-1.45416 0.212113,-1.12824 0.306344,-1.69706 0.34502,-2.16588 0.0506,-0.61339 0.07189,-0.9056 0.07189,-0.9056 z m 8.858952,-10.00392 c -0.313336,-1.24842 1.012121,-11.19429 1.872536,-14.05102 1.406184,-4.66877 3.434102,-8.01392 6.026889,-9.94164 4.91057,-3.65099 6.924583,-5.68399 8.088005,-8.16428 0.774435,-1.651 1.937796,-5.63198 2.157139,-7.38164 0.09603,-0.76602 0.284129,-1.76881 0.417999,-2.22842 0.133867,-0.45962 0.391675,-2.90391 0.572905,-5.43178 0.380697,-5.3101 0.562099,-5.93944 1.244489,-4.31756 0.42428,1.00841 0.440266,1.71124 0.168349,7.40175 -0.245489,5.13738 -0.428431,6.78013 -1.000093,8.98033 -0.384804,1.48103 -0.89158,3.06395 -1.126172,3.5176 -0.234591,0.45365 -0.42653,0.98099 -0.42653,1.17187 0,0.38882 -1.067219,2.03689 -2.411475,3.72397 -0.490194,0.61521 -1.91043,1.93137 -3.156081,2.9248 -5.331856,4.25228 -6.621632,6.00056 -8.216777,11.13776 -0.801624,2.58165 -2.004515,7.97476 -2.235956,10.02483 -0.166647,1.47613 -1.03051,3.34569 -1.545936,3.34569 -0.137789,0 -0.33097,-0.32051 -0.429291,-0.71226 z M 33.633834,160.21158 c 0,-0.94946 1.535452,-7.27417 3.196575,-13.16707 0.388672,-1.37883 0.906744,-3.32174 1.151271,-4.31756 0.244525,-0.99583 0.602097,-2.18664 0.794605,-2.64625 0.192505,-0.45961 0.762206,-2.08915 1.266002,-3.62119 0.503793,-1.53204 1.006536,-2.91087 1.117202,-3.06407 0.110669,-0.15321 0.356375,-0.77995 0.546013,-1.39277 0.55366,-1.78913 3.206541,-7.34945 5.581807,-11.69921 1.595958,-2.92263 2.400802,-4.58772 2.950501,-6.10411 0.217352,-0.59958 0.503342,-1.22633 0.635526,-1.39276 0.257837,-0.32463 2.299822,-6.42435 3.59225,-10.73058 0.825844,-2.751627 1.301816,-3.361164 1.623577,-2.079167 0.253302,1.009227 -0.999577,7.979387 -1.772486,9.860897 -0.157337,0.38301 -0.692855,1.94987 -1.190037,3.48191 -1.008801,3.10855 -2.579055,6.62807 -5.033242,11.28138 -0.731267,1.38653 -2.579146,5.55361 -3.442506,7.76306 -0.555269,1.421 -1.131503,2.79394 -1.280523,3.05097 -0.417982,0.72097 -4.193088,11.4376 -5.512427,15.64846 -0.648019,2.06826 -1.370777,4.32453 -1.606126,5.01395 -0.235349,0.68942 -0.575966,1.9429 -0.756925,2.78553 -0.293747,1.3678 -0.411135,1.54148 -1.095037,1.62017 -0.504155,0.058 -0.76602,-0.0417 -0.76602,-0.29159 z m 27.646343,-50.83154 c -0.191505,-0.0692 -0.348191,-0.45335 -0.348191,-0.85366 0,-0.65143 0.326603,-1.26897 1.947615,-3.68258 0.257232,-0.38301 0.559044,-1.07243 0.67069,-1.53204 0.111647,-0.45962 0.938762,-2.33985 1.838032,-4.178291 2.498517,-5.1079 4.840979,-7.230986 8.496358,-7.700661 2.434728,-0.312837 4.680368,-0.0534 6.128157,0.707991 1.602501,0.84275 4.64251,0.807758 6.062398,-0.06978 1.078024,-0.666256 2.716442,-0.738777 2.916412,-0.12909 0.125291,0.381996 -3.361703,2.386107 -5.258822,3.022449 -1.380389,0.463018 -1.618769,0.849009 -1.628593,2.637052 -0.003,0.536213 -0.137043,1.44913 -0.29799,2.028706 -0.31411,1.131114 -1.818158,3.542344 -2.209596,3.542344 -0.130597,0 -0.591774,0.29334 -1.024837,0.65187 -1.327997,1.09942 -2.56421,1.38357 -6.776273,1.55756 -4.410738,0.1822 -4.232543,0.12585 -7.548042,2.38669 -2.643253,1.80243 -2.561556,1.75806 -2.967318,1.61144 z M 73.44693,99.143773 c 1.139996,-0.589515 1.53836,-1.974306 0.754981,-2.624453 -0.290408,-0.241018 -0.680981,-0.145973 -1.668686,0.406065 -1.460903,0.816513 -1.639084,1.016274 -1.418724,1.590524 0.123685,0.322322 0.95819,0.902998 1.460888,1.016536 0.04591,0.01036 0.438102,-0.164535 0.871541,-0.388672 z M 62.15264,96.084271 c -0.270837,-0.705786 0.686827,-3.369954 1.819906,-5.062888 1.195453,-1.786124 3.342289,-3.584487 4.97466,-4.167175 2.042982,-0.729259 5.224537,-0.40996 8.558658,0.858939 2.256494,0.858778 3.382331,1.159693 5.222861,1.395978 1.073252,0.137783 1.323125,0.273499 1.323125,0.718643 0,0.301829 -0.192084,0.622487 -0.426851,0.712577 -0.685323,0.262984 -6.156848,-0.409102 -7.301262,-0.896837 -0.575461,-0.245254 -1.986408,-0.509313 -3.135437,-0.586796 -1.958623,-0.132075 -2.202067,-0.08274 -3.896586,0.789652 -1.780884,0.916856 -3.097922,2.252613 -5.418722,5.495737 -0.845976,1.182183 -1.451295,1.44332 -1.720352,0.74217 z m 21.89921,-11.58947 c -1.149029,-0.755251 -2.903911,-1.760497 -3.899736,-2.23388 -6.154878,-2.925822 -6.957636,-3.156697 -11.002827,-3.164424 -3.135577,-0.006 -3.437531,0.04272 -4.87467,0.786329 -0.842621,0.435996 -2.048676,1.211831 -2.680121,1.724081 -1.237985,1.004296 -1.503713,0.9796 -1.488151,-0.138315 0.01215,-0.872625 0.768961,-1.797076 2.701334,-3.299695 1.569281,-1.22028 4.169703,-2.016016 6.588225,-2.016016 3.373257,0 9.198471,2.168972 12.706078,4.731007 0.842621,0.61547 1.970759,1.417312 2.506973,1.78187 0.536214,0.364558 1.26771,0.979377 1.625544,1.366261 0.539771,0.583593 0.597417,0.802817 0.338388,1.286816 -0.171719,0.320862 -0.339143,0.575684 -0.372054,0.566269 -0.03291,-0.0094 -0.999954,-0.635052 -2.148983,-1.390303 z"
       id="path2541"
       sodipodi:nodetypes="sssssssssssssssssssssssssssssssssssssssssssssssssssssscsssssscsscsssssscscsscssssssssscssssssssssssssssssssssssssssssssssssscssscssssssssscssssssssssssssssssssssssssssssssscssssssssssssssssscsssssssssssssssssssssssssssssssssssssssssssssssscssscssssssssssssscsssssscsssssssssssssssssssssssssssssssssssssssssssssssssscscsssssssssssssssssssssssssssscsssssssssssssssssssssssssssssssssssssssscscsssssssssssssssssscssssssssssssccsccssssssssssssscssssssssssssssssssssscssssssssssssssssssssscssssssssscssssssscssssssssssssssssssssssssssssssscssscsssssssscsssssssssssssssssccssssssssssssssssssssssssssssssssssssssssssssssssssssssssssssssssssssssssscsssssssscsssssssssssssssssssssssssssssssssssssssssssssssssssscsssssssssssssssssssssssssssssssssssss" />
  </g>
</svg>
