<?xml version="1.0" encoding="UTF-8" standalone="no"?>
<!-- Created with Inkscape (http://www.inkscape.org/) -->

<svg
   width="210mm"
   height="297mm"
   viewBox="0 0 210 297"
   version="1.1"
   id="svg5"
   inkscape:version="1.1.2 (b8e25be833, 2022-02-05)"
   sodipodi:docname="horse.svg"
   xmlns:inkscape="http://www.inkscape.org/namespaces/inkscape"
   xmlns:sodipodi="http://sodipodi.sourceforge.net/DTD/sodipodi-0.dtd"
   xmlns="http://www.w3.org/2000/svg"
   xmlns:svg="http://www.w3.org/2000/svg">
  <sodipodi:namedview
     id="namedview7"
     pagecolor="#505050"
     bordercolor="#eeeeee"
     borderopacity="1"
     inkscape:pageshadow="0"
     inkscape:pageopacity="0"
     inkscape:pagecheckerboard="true"
     inkscape:document-units="mm"
     showgrid="false"
     inkscape:zoom="0.71090067"
     inkscape:cx="500.06986"
     inkscape:cy="508.50986"
     inkscape:window-width="1174"
     inkscape:window-height="981"
     inkscape:window-x="736"
     inkscape:window-y="0"
     inkscape:window-maximized="0"
     inkscape:current-layer="layer1" />
  <defs
     id="defs2" />
  <g
     inkscape:label="Réteg 1"
     inkscape:groupmode="layer"
     id="layer1">
    <path
       style="fill:#000000;stroke-width:0.3215"
       d="m 105.59417,264.95215 c 0.0979,-0.51196 -0.0344,-1.64589 -0.29396,-2.51984 -1.96702,-6.62368 -3.4606,-21.64331 -3.23574,-32.53905 0.1528,-7.40419 0.89482,-16.84596 1.66757,-21.21899 0.24997,-1.41459 0.61586,-3.84521 0.81308,-5.40137 0.19722,-1.55615 0.47751,-3.14758 0.62288,-3.5365 0.14537,-0.38891 0.36569,-1.57517 0.4896,-2.63612 0.12392,-1.06095 0.4962,-3.15873 0.8273,-4.66175 1.02097,-4.63467 2.31248,-11.04491 3.33589,-16.55724 0.29546,-1.59142 0.75153,-3.83388 1.01349,-4.98324 0.44708,-1.96161 0.86898,-4.77155 1.93084,-12.85999 0.682,-5.19497 0.93081,-16.11585 0.50175,-22.02274 -0.35234,-4.85075 -1.43244,-11.52087 -2.44687,-15.11049 -2.07936,-7.35801 -3.00487,-10.12664 -4.51383,-13.50299 -0.39514,-0.88413 -1.03244,-2.33088 -1.41624,-3.215 -1.33353,-3.07199 -6.330314,-12.479449 -7.172124,-13.502995 -0.14543,-0.176825 -0.76338,-1.117212 -1.37323,-2.089749 -0.60984,-0.972537 -1.25481,-1.985261 -1.43326,-2.250498 -2.12944,-3.165102 -3.02098,-4.50601 -3.58044,-5.385122 -0.36573,-0.574681 -2.16883,-2.464624 -2.18857,-1.626474 -0.0112,0.475833 0.1076,0.944248 0.26402,1.040923 0.15643,0.09667 0.38626,0.864754 0.51074,1.706846 0.12449,0.842095 0.52911,2.760815 0.89916,4.263827 0.56076,2.277627 0.67649,3.776851 0.69488,9.001994 0.021,5.965058 -0.0195,6.394048 -0.83523,8.841248 -1.14329,3.43002 -2.16329,5.16864 -4.37235,7.45276 -2.10781,2.17943 -3.73812,3.44003 -4.89759,3.78695 -0.44207,0.13227 -1.09911,0.426 -1.46009,0.65274 -1.36026,0.85441 -6.77991,2.04218 -10.30752,2.25898 -1.96314,0.12066 -3.74453,0.32764 -3.95863,0.45996 -0.52342,0.32349 3.8153,1.84298 6.08124,2.12974 0.97254,0.12307 2.02987,0.35867 2.34964,0.52354 0.51299,0.26451 0.41889,0.42017 -0.80003,1.32329 -0.75977,0.56294 -1.76196,1.24054 -2.22707,1.50578 -5.84721,3.33446 -8.26197,4.94536 -11.86103,7.9126 -6.25784,5.15925 -10.04432,10.17317 -11.57397,15.32582 -0.59363,1.99965 -0.69752,2.95933 -0.57113,5.27603 0.24777,4.54165 -0.84872,7.15928 -4.24253,10.12811 -2.37461,2.07725 -4.54787,3.05044 -7.8288,3.50577 -3.68971,0.51206 -7.28454,0.0184 -9.67005,-1.32788 -2.0626,-1.16406 -4.62551,-3.56954 -5.81251,-5.45548 -0.50082,-0.79571 -1.15696,-1.81123 -1.45808,-2.25671 -0.30113,-0.44549 -0.65892,-1.16886 -0.7951,-1.6075 -0.40333,-1.29921 -1.73259,-3.79536 -2.16995,-4.07484 -0.22308,-0.14255 -0.76529,-0.76555 -1.20491,-1.38444 -0.63909,-0.89971 -0.8002,-1.5181 -0.80375,-3.08521 -0.003,-1.10538 0.17137,-2.17181 0.39878,-2.44582 0.22178,-0.26723 0.67246,-1.26602 1.00153,-2.21954 1.30148,-3.77121 3.86198,-11.55567 4.85311,-14.75442 0.57528,-1.85666 1.31955,-4.2082 1.65392,-5.22565 0.33438,-1.01745 0.60796,-2.06576 0.60796,-2.32959 0,-0.26383 0.27347,-1.31215 0.60772,-2.3296 0.69039,-2.10148 1.46903,-5.14579 2.29766,-8.98324 0.31263,-1.44779 0.66234,-2.78433 0.77714,-2.97008 0.19171,-0.3102 1.10638,-5.06654 1.79754,-9.347318 0.92766,-5.74562 1.59776,-11.250661 1.78061,-14.628242 0.24287,-4.486157 0.6449,-5.390735 1.85713,-4.17851 0.78441,0.784408 0.97884,-0.501669 0.35049,-2.318287 -0.65195,-1.884838 -1.00058,-10.329574 -0.53478,-12.953941 0.72724,-4.097416 1.72532,-7.112508 3.81135,-11.513709 0.93701,-1.976915 1.22663,-2.334979 1.82034,-2.250498 0.58469,0.0832 0.71266,0.321486 0.74457,1.386464 0.0534,1.783279 1.09505,8.185829 1.49068,9.162745 0.17903,0.442062 0.58165,1.671799 0.89473,2.732748 0.31308,1.06095 0.95614,2.941723 1.42903,4.179498 0.47289,1.237774 1.07253,2.815994 1.33254,3.507151 0.26,0.69116 0.62906,1.548748 0.82012,1.905751 0.19106,0.357003 0.70009,2.033972 1.13118,3.726595 2.07544,8.149001 0.87352,16.889253 -3.62052,26.328193 -0.7846,1.64791 -1.42654,3.12229 -1.42654,3.2764 0,2.13237 6.64979,-3.82963 9.36497,-8.396344 3.30364,-5.556472 4.68144,-11.06077 4.33717,-17.327004 -0.30158,-5.489156 -0.95733,-7.690034 -4.3585,-14.628241 -2.6975,-5.502765 -3.55665,-7.360009 -3.55665,-7.68854 0,-0.138479 -0.20938,-0.707669 -0.4653,-1.264867 -1.17278,-2.553483 -2.15656,-5.948145 -3.41098,-11.770088 -0.42694,-1.981436 -0.64347,-2.108682 -2.44605,-1.437397 -5.18853,1.93222 -10.04972,6.608123 -14.18168,13.641147 -0.88703,1.509814 -1.67947,4.695437 -1.67947,6.751496 0,3.225311 1.07575,6.176278 3.63164,9.962202 1.33863,1.982853 1.4276,2.709722 0.70882,5.791288 -0.26809,1.149362 -0.69333,3.319486 -0.94498,4.822497 -0.25164,1.503012 -0.74286,4.034823 -1.09159,5.626247 -0.34873,1.591424 -1.0038,4.597582 -1.45571,6.680351 -0.4519,2.082769 -0.9008,3.914936 -0.99755,4.07148 -0.0967,0.156545 -0.37728,1.273623 -0.62339,2.482393 -0.24612,1.20877 -0.83788,3.64452 -1.31504,5.41276 -0.47716,1.76825 -1.12039,4.30006 -1.42941,5.62625 -0.30901,1.32619 -0.72804,2.91761 -0.93116,3.5365 -0.20311,0.61889 -0.59358,1.9933 -0.8677,3.05425 -0.27412,1.06095 -0.85993,3.23107 -1.30181,4.82249 -0.44187,1.59143 -1.06213,3.91641 -1.37835,5.16664 -0.31622,1.25022 -0.67702,2.43828 -0.80177,2.64014 -0.12476,0.20186 -0.49951,1.34907 -0.83279,2.54936 -1.06537,3.83698 -1.56487,5.33234 -2.76942,8.29085 -1.5768602,3.873 -1.8693002,7.39746 -0.7975002,9.6115 0.39249,0.81078 1.3412802,2.07234 2.1084202,2.80347 0.76714,0.73114 1.48894,1.70439 1.60399,2.16279 0.87118,3.47106 3.86231,7.48354 7.32663,9.8284 7.47724,5.06103 19.80407,4.24439 27.63853,-1.83102 3.97742,-3.08437 5.06262,-4.62296 5.06262,-7.1777 0,-1.49393 -1.00884,-4.84516 -1.82581,-6.0651 -1.7709,-2.64439 1.87597,-8.99402 8.21503,-14.30331 1.18501,-0.99251 2.43851,-2.06103 2.78555,-2.37449 1.00921,-0.91156 3.99289,-3.16816 5.80351,-4.38928 2.63565,-1.77753 7.24465,-4.84016 8.65196,-5.74913 0.7073,-0.45683 2.04304,-1.37834 2.96832,-2.04778 0.92528,-0.66944 2.84472,-1.64575 4.26542,-2.16958 3.94026,-1.45282 7.16298,-4.15787 9.21625,-7.73583 1.1066,-1.92833 2.29067,-6.11374 2.49148,-8.8068 0.10488,-1.40656 0.33693,-2.70362 0.51567,-2.88237 0.52826,-0.52826 2.0316,1.29406 3.6919,4.47526 1.806944,3.46214 2.580274,5.53714 3.390024,9.09602 0.33363,1.46631 0.68728,2.79656 0.78588,2.95611 0.44138,0.71416 1.11522,10.02981 1.11656,15.4361 0.002,6.30109 -0.70044,17.9951 -1.24926,20.81008 -0.18023,0.92446 -0.48856,3.3116 -0.68516,5.30475 -0.19661,1.99315 -0.55221,4.56429 -0.79023,5.71365 -0.23801,1.14936 -0.59408,3.60884 -0.79125,5.4655 -0.19718,1.85666 -0.49225,3.80977 -0.65572,4.34024 -0.16347,0.53048 -0.51207,2.62827 -0.77466,4.66175 -0.262604,2.03349 -0.699844,5.07166 -0.971654,6.7515 -1.04128,6.43522 -1.48241,9.64512 -1.96614,14.30674 -0.27524,2.65237 -0.63411,5.4012 -0.79749,6.1085 -0.16339,0.7073 -0.47052,5.48157 -0.68251,10.60949 -0.82482,19.95103 0.7673,30.6188 6.261684,41.95572 0.72843,1.50302 1.61848,3.11123 1.97789,3.57381 0.35942,0.46258 0.81133,1.1095 1.00426,1.43761 0.31774,0.54038 0.36753,0.5089 0.52872,-0.33426 z m 36.65477,-77.25901 c 2.17516,-4.65528 5.99201,-11.00922 10.57172,-17.59884 5.38504,-7.74839 14.7897,-17.17751 22.30247,-22.36049 0.88413,-0.60995 1.67984,-1.18134 1.76825,-1.26975 0.39685,-0.39685 3.25855,-2.2505 3.47436,-2.2505 0.13231,0 1.24931,-0.72064 2.48223,-1.60141 9.62861,-6.87857 15.01034,-12.58591 18.48356,-19.60188 2.61533,-5.283 3.03492,-7.08117 3.04198,-13.03644 0.006,-4.79304 -0.057,-5.34065 -0.91865,-8.02654 -0.50861,-1.5854 -1.04749,-3.104484 -1.19751,-3.375746 -0.15002,-0.271262 -0.49052,-0.999565 -0.75666,-1.618453 -0.57089,-1.327549 -0.52357,-1.250361 -4.08897,-6.669214 -0.29585,-0.449637 -0.65753,-0.905276 -0.80375,-1.012528 -0.14622,-0.107253 -1.12698,-1.190945 -2.17948,-2.408204 -3.04422,-3.520783 -10.02368,-9.58716 -14.65358,-12.73654 -0.38992,-0.265237 -1.26932,-0.880106 -1.95421,-1.366374 -0.68489,-0.486269 -3.00621,-1.844107 -3.61609,-1.83723 -0.93542,0.01055 -0.96272,0.0408 -0.36748,0.40734 0.74937,0.461446 4.13356,3.612256 8.52841,7.940261 6.67306,6.571569 10.01052,11.589409 11.25326,16.919181 0.80001,3.431005 0.79658,5.000987 -0.0179,8.190947 -1.2868,5.03992 -3.49902,8.32277 -9.94621,14.75978 -5.50388,5.49518 -10.13803,10.34785 -12.91172,13.52055 -2.29136,2.62098 -8.97443,10.81073 -9.68952,11.874 -0.29731,0.44207 -1.06097,1.52713 -1.69703,2.41125 -1.35326,1.88104 -3.38473,4.8362 -3.84479,5.59298 -0.17682,0.29087 -0.62347,0.95988 -0.99255,1.48669 -0.36909,0.5268 -0.76929,1.17484 -0.88934,1.44008 -0.12005,0.26523 -0.64454,1.13328 -1.16554,1.929 -1.03164,1.5756 -1.33327,2.11656 -3.85409,6.91224 -0.92947,1.76825 -1.80839,3.57669 -1.95314,4.01875 -0.14476,0.44206 -0.71562,1.88803 -1.26858,3.21326 -1.89223,4.5349 -2.84065,7.85737 -4.13039,14.46923 -0.24553,1.25872 -0.12698,2.89523 0.20937,2.89023 0.12087,-0.002 0.47258,-0.54433 0.78157,-1.20563 z m -12.64691,-54.22869 c 0.33776,-0.71892 1.07419,-2.39219 1.63651,-3.71838 1.24034,-2.92527 6.48731,-13.53301 8.66688,-17.52174 2.60082,-4.75962 2.93985,-5.40933 6.17503,-11.83362 1.70902,-3.393705 3.207,-6.532054 3.32885,-6.974116 0.12185,-0.442063 0.40156,-1.0931 0.62157,-1.44675 0.22002,-0.353649 0.5855,-1.221699 0.81218,-1.928998 0.22668,-0.7073 0.5233,-1.430675 0.65916,-1.6075 0.32901,-0.428224 2.10143,-6.66742 2.44849,-8.619091 0.15122,-0.850354 0.4168,-1.573729 0.59017,-1.607499 0.17338,-0.03377 0.67974,0.589634 1.12525,1.385346 0.73576,1.314111 0.82025,1.853279 0.92153,5.88098 0.0983,3.909142 0.008,4.898989 -0.76615,8.358995 -0.48271,2.158621 -0.98638,4.069439 -1.11926,4.246264 -0.13288,0.176825 -0.34981,0.827862 -0.48206,1.446749 -0.38709,1.8114 -3.60928,9.51553 -5.10967,12.21699 -0.24552,0.44206 -0.99232,1.88881 -1.65955,3.215 -0.66723,1.32619 -1.47751,2.75628 -1.80061,3.17798 -0.3231,0.4217 -1.23045,2.11441 -1.23045,2.29577 0,0.68381 1.93982,-0.70754 3.43553,-2.46417 0.85124,-0.99974 1.83707,-2.1451 2.19072,-2.54524 2.37509,-2.68736 6.59683,-8.41158 8.10331,-10.98721 1.33307,-2.27917 3.74742,-7.318491 4.50839,-9.410117 2.09058,-5.74617 3.16683,-13.75526 2.37614,-17.68249 -0.86806,-4.311518 -1.36031,-6.224696 -1.92649,-7.487441 -0.33385,-0.74459 -0.70939,-1.688987 -0.83454,-2.098654 -0.78618,-2.57359 -5.00704,-8.665571 -8.49437,-12.259981 -1.94544,-2.005165 -6.10679,-5.537194 -8.07269,-6.851852 -0.44206,-0.295622 -1.38245,-0.947338 -2.08975,-1.44826 -3.14535,-2.227589 -10.67409,-6.066145 -15.27124,-7.786099 -1.50302,-0.562329 -3.16678,-1.22829 -3.69725,-1.479912 -0.53048,-0.251625 -1.76021,-0.684283 -2.73275,-0.961464 -5.80091,-1.653306 -7.8808,-2.182984 -10.70633,-2.726534 -1.73309,-0.333398 -3.27452,-0.682467 -3.42539,-0.775708 -0.15087,-0.09325 -2.20508,-0.391902 -4.56491,-0.663682 -2.35983,-0.271783 -5.158654,-0.632385 -6.219604,-0.801339 -1.06095,-0.168954 -5.11185,-0.308461 -9.002,-0.310015 -7.02543,-0.0028 -11.67639,0.394824 -17.36099,1.484268 -1.4146,0.271108 -3.64689,0.695697 -4.96064,0.943531 -2.6842,0.506366 -3.30598,0.87539 -2.34317,1.390667 0.45576,0.243916 2.49404,0.242218 7.02713,-0.0059 6.84113,-0.374374 27.91638,-0.153098 30.979924,0.325264 6.34542,0.990824 8.54061,1.399608 11.25249,2.095427 4.6662,1.197265 7.7122,2.266188 10.82663,3.799359 2.76663,1.361954 3.57605,1.822046 5.89136,3.348762 1.27735,0.842287 5.59528,5.033307 6.64094,6.445756 1.3127,1.773139 3.00199,5.138923 3.93626,7.842679 0.9511,2.752479 1.96129,9.118043 1.96129,12.358832 0,1.857777 -1.2343,12.994498 -1.4852,13.400453 -0.0844,0.136582 -0.49235,1.806054 -0.90653,3.709934 -0.41418,1.90388 -1.0512,4.546663 -1.4156,5.87285 -0.3644,1.326186 -0.94085,3.44423 -1.28101,4.706763 -0.34016,1.262533 -0.83731,2.926293 -1.10479,3.697243 -0.26747,0.77096 -0.88192,2.70381 -1.36544,4.29524 -0.48353,1.59142 -1.1415,3.61687 -1.46216,4.50099 -0.81568,2.24895 -1.48678,4.35919 -4.95888,15.59274 -1.75815,5.68828 -3.95895,15.81279 -4.22807,19.45074 -0.19544,2.6418 0.2202,5.4694 0.61436,4.1795 0,0 5.00968,-16.94239 5.34745,-17.66131 z M 54.371976,41.574749 c -0.20465,-0.397856 -0.69243,-1.085062 -1.08395,-1.527124 -1.74466,-1.969861 -3.26385,-5.797513 -4.01949,-10.127244 -0.71083,-4.072898 -1.90724,-6.172369 -8.70255,-15.271241 -1.66171,-2.225014 -4.04194,-5.9875761 -4.52395,-7.1512636 -0.46136,-1.1138097 -0.8589,-1.1289762 -1.13143,-0.043165 -0.31028,1.2362806 0.16425,9.1699036 0.6659,11.1328676 0.23723,0.928294 0.52764,2.48352 0.64536,3.456057 0.33678,2.782411 1.68807,6.968131 3.29561,10.208394 1.59032,3.205562 4.33146,6.432716 6.69866,7.886351 1.50238,0.92257 5.73846,2.159743 7.39496,2.159743 1.07085,0 1.11257,-0.03966 0.76088,-0.723375 z"
       id="path935"
       sodipodi:nodetypes="scsssssssssssscssssssssscsssssssscssssssssssscsssssssssssssssssssssssssssssssssssssscssssssssssssssssssssssssssssscssssssssssssssssssscssssssssssssssssssssssssssscsssssssssssssssssssssssssssssssssssssssssscsssssssssssssssscsssssssssssss" />
  </g>
</svg>
