<?xml version="1.0" encoding="UTF-8" standalone="no"?>
<!-- Created with Inkscape (http://www.inkscape.org/) -->

<svg
   width="210mm"
   height="227mm"
   viewBox="0 0 210 227"
   version="1.1"
   id="svg5"
   inkscape:version="1.1.2 (b8e25be833, 2022-02-05)"
   sodipodi:docname="horse3.svg"
   xmlns:inkscape="http://www.inkscape.org/namespaces/inkscape"
   xmlns:sodipodi="http://sodipodi.sourceforge.net/DTD/sodipodi-0.dtd"
   xmlns="http://www.w3.org/2000/svg"
   xmlns:svg="http://www.w3.org/2000/svg">
  <sodipodi:namedview
     id="namedview7"
     pagecolor="#505050"
     bordercolor="#eeeeee"
     borderopacity="1"
     inkscape:pageshadow="0"
     inkscape:pageopacity="0"
     inkscape:pagecheckerboard="0"
     inkscape:document-units="mm"
     showgrid="false"
     inkscape:zoom="0.71090067"
     inkscape:cx="396.67989"
     inkscape:cy="449.42987"
     inkscape:window-width="1920"
     inkscape:window-height="991"
     inkscape:window-x="-9"
     inkscape:window-y="-9"
     inkscape:window-maximized="1"
     inkscape:current-layer="layer1" />
  <defs
     id="defs2" />
  <g
     inkscape:label="Réteg 1"
     inkscape:groupmode="layer"
     id="layer1">
    <path
       style="fill:#000000;stroke-width:0.350789"
       d="m 102.36922,223.8864 c -0.76352,-0.43028 -2.17395,-2.80196 -2.96682,-4.98877 -0.343636,-0.9478 -0.760395,-2.03345 -0.926126,-2.41258 -0.321026,-0.73436 -1.029045,-3.30635 -1.992414,-7.23771 -0.412827,-1.68469 -0.641196,-4.61285 -0.756932,-9.70545 -0.16426,-7.2279 0.027,-9.74308 1.162065,-15.28189 1.090255,-5.32018 1.565963,-7.16746 2.840122,-11.0289 0.719315,-2.17993 1.542665,-4.73899 1.829675,-5.68678 0.28701,-0.94779 0.76499,-2.49873 1.06219,-3.44654 0.29718,-0.94779 0.76241,-2.57627 1.03383,-3.61884 2.09626,-8.05237 2.07627,-7.91748 2.11898,-14.30311 0.0295,-4.40887 -0.10154,-6.65248 -0.45291,-7.75469 -1.16312,-3.64871 -2.29708,-6.78743 -2.77741,-7.68771 l -0.51591,-0.96696 -2.212021,1.18922 c -1.216613,0.65408 -2.77435,1.5138 -3.461639,1.91049 -0.687289,0.39668 -1.65128,0.88237 -2.1422,1.07932 -0.490921,0.19694 -1.374579,0.56925 -1.963684,0.82735 -2.619154,1.14752 -5.620377,1.74362 -11.425068,2.26925 -1.767316,0.16004 -3.234283,0.30315 -3.259929,0.31802 -0.02563,0.0149 -1.230634,1.36241 -2.67775,2.9945 -1.447118,1.6321 -3.004122,3.37691 -3.460011,3.87735 -0.455889,0.50044 -1.257633,1.45273 -1.781657,2.11619 -0.524022,0.66346 -1.918337,2.38179 -3.098479,3.8185 -3.873956,4.71622 -4.987267,6.82238 -5.504745,10.41388 -0.57718,4.00589 -1.91508,8.12155 -2.879955,8.85938 -0.123949,0.0948 -0.688504,0.76751 -1.254569,1.49497 -1.429062,1.83652 -6.451575,4.93666 -9.911055,6.1176 -7.138225,2.43673 -14.384071,2.12081 -20.540295,-0.89555 -0.643759,-0.31542 -2.330741,-1.75067 -3.74885,-3.18944 -3.502554,-3.55357 -7.529314,-7.45002 -10.038826,-9.71396 -1.145068,-1.03302 -2.478231,-2.4842 -2.9625818,-3.22486 -2.6402418,-4.03739 -2.4585662,-8.944 0.5512098,-14.88681 0.768028,-1.51648 1.756108,-3.61024 2.195732,-4.65281 0.439624,-1.04258 1.021103,-2.38432 1.292176,-2.98165 0.271072,-0.59731 0.493602,-1.21769 0.494512,-1.3786 0.0022,-0.40069 1.625605,-4.21853 1.910745,-4.49379 0.126392,-0.122 0.229801,-0.5527 0.229801,-0.9571 0,-0.40438 0.148004,-0.88259 0.328897,-1.06267 0.180893,-0.18009 0.676357,-1.33553 1.101032,-2.56766 0.424674,-1.23214 0.981055,-2.70553 1.236404,-3.27421 0.465871,-1.03752 2.035545,-5.24256 4.116919,-11.02889 0.613668,-1.70604 1.386962,-3.71768 1.71843,-4.47032 0.747458,-1.69719 0.730745,-5.07903 -0.04117,-8.331356 -1.131844,-4.768792 -1.784862,-11.101261 -1.574039,-15.263822 0.222183,-4.386834 0.781062,-8.28707 1.543668,-10.772742 0.272633,-0.888633 0.496686,-1.97429 0.497896,-2.412571 0.0012,-0.438279 0.209606,-1.184607 0.463101,-1.658506 0.253496,-0.473897 0.848924,-1.869743 1.323174,-3.101877 1.778607,-4.620956 5.997082,-11.100182 9.617476,-14.771644 2.413509,-2.447554 2.641172,-3.285285 1.23788,-4.555014 C 35.533296,45.221686 32.260157,39.978989 30.540837,35.542194 28.24668,29.622 26.630946,18.962169 27.41073,14.891246 c 0.468927,-2.448068 1.173282,-3.302439 2.722583,-3.302439 1.184422,0 1.47971,0.240669 5.13077,4.181767 1.92556,2.078526 5.818176,4.596313 10.633864,6.878101 9.124927,4.323605 9.655846,4.5903 11.840309,5.947696 0.852835,0.529941 1.747064,0.890758 1.987176,0.801814 0.812916,-0.301129 1.99295,-6.783123 1.987298,-10.916317 C 61.706915,14.214811 60.413703,8.1204254 59.282364,7.028314 59.053028,6.8069326 58.865392,5.8216419 58.865392,4.8387796 c 0,-1.5190363 0.131971,-1.8704945 0.880024,-2.3436409 0.484011,-0.30614 1.241798,-0.5566181 1.683968,-0.5566181 1.153669,0 3.807408,1.0090481 5.469259,2.0796104 0.785473,0.506001 1.829796,1.1752346 2.320718,1.4871859 5.481104,3.4829183 9.394404,6.8995581 12.889116,11.2532851 2.299465,2.86468 5.676619,7.959595 5.676619,8.563981 0,0.167221 0.332991,0.712691 0.73998,1.212152 0.722465,0.886615 0.838679,0.908467 4.909209,0.923122 3.876605,0.01396 5.001095,0.145053 8.542885,0.995956 2.32878,0.559479 4.8764,1.491564 5.84443,2.138268 1.81304,1.211231 2.68739,1.352027 5.05274,0.813647 4.54325,-1.034089 10.55723,-0.320318 15.25577,1.810633 1.27652,0.578949 3.61292,1.897023 5.19196,2.929051 2.48935,1.62698 3.17751,1.908561 5.17674,2.118217 2.81689,0.295399 8.02343,1.991454 10.56841,3.442716 2.63864,1.504649 5.26718,3.713112 8.0289,6.745753 2.19952,2.415305 3.96551,3.595451 7.45116,4.979345 0.29454,0.116947 0.96007,0.482335 1.47893,0.811974 0.51886,0.329643 1.80418,1.094426 2.85626,1.699522 1.86337,1.071692 4.71168,3.497033 6.24269,5.31565 1.11167,1.32049 3.84123,6.721923 4.59939,9.101584 0.69114,2.169274 0.74778,2.233197 7.07383,7.981383 2.80494,2.548713 5.72764,6.463006 6.15014,8.236695 0.13186,0.553605 0.46313,1.671126 0.73614,2.483376 0.27665,0.82309 0.49698,2.882706 0.49772,4.652817 0.001,2.643392 0.12994,3.378285 0.76828,4.382281 4.7203,7.424305 5.59548,10.008905 5.99098,17.692395 0.289,5.6146 0.52997,6.7125 2.19754,10.0118 0.77784,1.53899 1.73576,6.09867 1.74623,8.31205 0.008,1.65432 -0.9099,6.46163 -1.39687,7.31723 -1.14391,2.00984 -2.51325,6.15858 -2.15819,6.53874 0.74753,0.80042 1.77653,5.25919 1.77653,7.69799 0,4.29629 -1.49052,7.94977 -4.88415,11.97175 -0.84834,1.00543 -1.54245,2.00125 -1.54245,2.21293 0,0.21168 0.37332,0.86479 0.82961,1.45137 0.45629,0.58656 0.94005,1.29913 1.07503,1.58346 0.13499,0.28435 0.5554,0.98226 0.93425,1.55094 1.05804,1.58816 2.51661,4.66852 2.51661,5.31484 0,0.3183 0.17756,0.75013 0.39458,0.95963 0.66133,0.6384 0.53594,6.21576 -0.19145,8.51541 -0.35449,1.12073 -1.74272,3.81132 -3.08496,5.97908 -1.68943,2.72848 -2.51051,4.43475 -2.66818,5.54466 -0.53005,3.73121 -1.42326,5.56679 -2.70884,5.56679 -1.29948,0 -5.6092,-2.78361 -8.19565,-5.29349 -6.02071,-5.84249 -8.28111,-13.02019 -6.44162,-20.4548 0.73763,-2.98124 2.77214,-7.43305 3.93778,-8.61644 1.04552,-1.06144 0.93206,-1.78273 -0.53084,-3.37478 -0.69672,-0.75824 -1.77019,-2.04447 -2.38549,-2.8583 -0.69302,-0.91666 -1.35095,-1.44123 -1.72908,-1.37861 -0.33571,0.0556 -2.47187,2.42748 -4.74703,5.27087 -5.10547,6.38057 -7.83884,9.3155 -13.48352,14.47786 -3.80443,3.47937 -10.663,9.04605 -13.50588,10.96192 -3.00529,2.02532 -10.26576,6.64911 -10.73685,6.83769 -0.30877,0.12361 -1.64393,0.86436 -2.96704,1.6461 -1.32311,0.78175 -3.80178,2.13587 -5.50817,3.00913 -1.70638,0.87328 -4.27498,2.18753 -5.70798,2.92055 -4.20649,2.15178 -6.85593,1.68539 -6.85593,-1.20684 0,-1.2004 0.1782,-1.59365 0.98184,-2.16671 1.09407,-0.78016 4.90151,-2.82249 8.03076,-4.30774 2.72037,-1.29117 12.78984,-7.15144 15.26567,-8.88438 1.08004,-0.75595 2.78336,-1.91654 3.78519,-2.57908 9.59166,-6.34334 19.95967,-16.16888 28.03439,-26.5676 3.81459,-4.91248 5.31189,-7.42499 5.31189,-8.91351 0,-0.68253 0.1871,-2.29421 0.41578,-3.58152 l 0.41579,-2.34056 -2.20095,-2.86548 c -1.21052,-1.57601 -2.20094,-3.06086 -2.20094,-3.29967 0,-0.2388 -0.23014,-0.88451 -0.51141,-1.43492 -0.28127,-0.55042 -0.78158,-2.29816 -1.11179,-3.8839 -0.55659,-2.67291 -0.55834,-3.08756 -0.0238,-5.68676 0.93971,-4.56995 0.84677,-5.15013 -1.15627,-7.2186 -0.95272,-0.98384 -2.18489,-2.56427 -2.73817,-3.51207 -0.55326,-0.94779 -1.20732,-1.9559 -1.45344,-2.24024 -0.47144,-0.54465 -1.15837,-2.2593 -2.27824,-5.68678 -0.37161,-1.13735 -0.9248,-4.08414 -1.22931,-6.5484 -0.48908,-3.95807 -0.648,-4.54077 -1.36293,-4.99747 -1.65958,-1.06016 -6.47737,-5.768297 -8.288,-8.099352 -2.17166,-2.795871 -3.65111,-5.290858 -5.00703,-8.444 -1.16816,-2.716506 -1.55897,-3.091358 -4.29482,-4.119418 -6.11322,-2.297184 -11.80755,-6.837719 -16.59474,-13.232295 -2.34762,-3.13584 -3.10569,-3.672123 -5.19076,-3.672123 -0.66526,0 -1.57864,-0.141867 -2.0297,-0.315262 -0.45106,-0.173395 -2.02511,-0.668327 -3.49787,-1.099853 -1.47276,-0.431523 -3.44798,-1.22022 -4.38938,-1.752658 -0.94139,-0.532433 -1.77682,-0.968065 -1.85652,-0.968065 -0.0797,0 -0.91612,-0.501852 -1.85871,-1.115228 -2.84431,-1.850887 -6.23866,-5.423599 -7.79407,-8.203639 l -1.438833,-2.571663 -2.31002,0.112664 c -2.438899,0.118946 -3.916674,0.74513 -3.916674,1.659625 0,1.024733 -2.578499,4.654898 -4.024674,5.666176 -1.704516,1.19193 -2.471535,1.250038 -3.864204,0.292762 -0.850789,-0.584811 -1.036956,-0.962045 -1.036956,-2.101195 0,-1.13081 0.267039,-1.681276 1.439248,-2.966794 2.228155,-2.443546 2.921842,-4.26023 2.727777,-7.143728 C 87.378543,39.172183 86.185306,35.552961 82.772359,28.620995 81.831448,26.709929 80.298114,24.073332 79.364954,22.761893 76.512143,18.752628 67.951436,10.974638 67.1951,11.704746 c -0.123531,0.119247 -0.03993,1.296249 0.185775,2.615561 0.548514,3.206214 0.51707,5.657133 -0.123619,9.634882 -0.807564,5.013808 -1.142435,10.269599 -0.814404,12.782007 0.410742,3.145882 1.570568,5.218802 4.898313,8.754601 1.582176,1.681097 2.876685,3.251867 2.876685,3.490602 0,1.830586 -3.85485,7.003746 -7.962455,10.685509 -3.535902,3.169334 -4.552129,3.909783 -7.747013,5.644687 -4.569314,2.481254 -5.839239,3.20364 -7.426342,4.224426 -0.844408,0.543101 -1.617208,0.987458 -1.717326,0.987458 -0.26509,0 -3.171503,2.1735 -4.708121,3.520866 -5.569925,4.883927 -7.849261,9.869244 -9.893471,21.638808 -0.312778,1.800813 -0.801657,4.063305 -1.086399,5.027757 -0.284741,0.96446 -0.517712,2.08363 -0.517712,2.48705 0,0.40341 -0.221465,1.2428 -0.492142,1.8653 -0.270678,0.62249 -0.773662,2.06237 -1.117747,3.19973 -0.34408,1.13736 -0.919186,2.84339 -1.278008,3.79118 -2.040417,5.38958 -3.354817,8.81337 -3.969385,10.3396 -0.381652,0.94779 -0.82313,2.11099 -0.981064,2.5849 -0.157935,0.4739 -0.691589,1.7364 -1.185899,2.80556 -0.494309,1.06917 -1.008076,2.42447 -1.141702,3.01176 -0.133628,0.58732 -0.391263,1.15631 -0.572523,1.26445 -0.181261,0.10815 -0.329565,0.42862 -0.329565,0.71217 0,0.46505 -0.445543,1.54851 -1.989488,4.83798 -0.28036,0.59732 -0.509746,1.23906 -0.509746,1.42608 0,0.18701 -0.497662,1.40433 -1.105917,2.70513 -3.801565,8.13 -4.249583,9.3587 -4.249583,11.6546 0,1.86424 0.150062,2.3388 1.183056,3.74135 0.650681,0.88346 2.047732,2.34538 3.104558,3.24871 1.056826,0.90333 2.57293,2.28564 3.36912,3.07181 0.79619,0.78617 2.788636,2.75944 4.427658,4.38506 3.827914,3.7966 5.820675,4.78859 10.003371,4.97966 3.596814,0.16431 6.911876,-0.53063 10.701608,-2.24339 4.883291,-2.20701 6.960644,-5.10404 8.089752,-11.2818 0.704409,-3.8541 1.132181,-5.00284 2.961641,-7.95318 1.149266,-1.8534 6.474091,-8.28405 8.70427,-10.51191 0.474391,-0.4739 1.410497,-1.55956 2.080238,-2.41257 2.29133,-2.91837 5.461615,-6.23862 6.391066,-6.69339 0.560598,-0.27429 2.840193,-0.52806 5.748905,-0.63998 12.117042,-0.46621 19.828835,-5.73783 24.313255,-16.62002 0.64046,-1.55418 1.39321,-6.27308 1.39408,-8.73936 7.1e-4,-2.43786 -0.52002,-5.45352 -1.52655,-8.837951 -0.73174,-2.460433 -2.29298,-5.44301 -4.69067,-8.96098 -2.462101,-3.612484 -3.051364,-5.205419 -2.420242,-6.542548 0.932346,-1.975321 4.174982,-1.111021 6.329602,1.687107 1.42369,1.848881 4.80617,7.269509 4.80617,7.702169 0,0.186133 0.46257,1.405347 1.02793,2.709358 1.40286,3.235672 2.12538,6.768855 2.38464,11.660945 0.20694,3.90495 0.27738,4.20206 1.3484,5.68678 0.62155,0.86161 1.22565,1.6441 1.34248,1.73888 0.51787,0.42016 4.71214,7.48645 5.8807,9.90751 2.12087,4.39408 2.23277,4.65088 3.04194,6.9805 0.42797,1.23213 0.92481,2.41975 1.10408,2.63915 0.17926,0.21941 0.47181,1.14998 0.65008,2.06792 0.17827,0.91796 0.64912,2.83222 1.04632,4.25391 1.94579,6.96454 2.3002,10.22855 2.28277,21.02384 -0.0143,8.87399 -0.11027,10.61235 -0.75379,13.66643 -0.41339,1.96177 -1.01904,3.81677 -1.37848,4.22201 -0.92569,1.04364 -2.96623,0.97766 -4.04498,-0.13081 -0.78936,-0.81109 -0.81968,-1.02142 -0.60868,-4.22199 0.12213,-1.85261 0.38763,-3.91019 0.58999,-4.5724 0.59391,-1.94347 0.46364,-16.75792 -0.17991,-20.45973 -0.92792,-5.33766 -1.65878,-8.61742 -2.17308,-9.75176 -0.27081,-0.59733 -0.49762,-1.3728 -0.50404,-1.72328 -0.0114,-0.62356 -1.04582,-3.74617 -1.46698,-4.4284 -0.11702,-0.18956 -0.40946,-0.93348 -0.64986,-1.65318 -0.24041,-0.71968 -1.14517,-2.70245 -2.01057,-4.40616 -0.8654,-1.70371 -1.57347,-3.194 -1.57347,-3.31177 0,-0.11776 -0.36693,-0.69403 -0.81541,-1.2806 -0.44848,-0.58657 -1.00284,-1.48343 -1.23193,-1.99303 -0.22908,-0.50958 -0.73224,-1.08964 -1.11814,-1.289 -0.61798,-0.31927 -0.79789,-0.17053 -1.50909,1.24768 -0.44411,0.88559 -1.34133,2.39267 -1.99382,3.34907 -0.65249,0.9564 -1.18634,1.94482 -1.18634,2.1965 0,0.41083 0.45784,1.51901 1.95334,4.72792 0.26503,0.56868 0.73391,1.88698 1.04195,2.92955 0.30803,1.04258 0.84244,2.74861 1.18757,3.79119 0.90653,2.73849 0.89872,16.27333 -0.0114,19.81755 -0.34076,1.32691 -0.8747,3.49823 -1.18654,4.82515 -0.31183,1.3269 -0.77548,3.03294 -1.03031,3.79118 -0.25485,0.75823 -0.80939,2.54181 -1.23232,3.9635 -0.42292,1.4217 -0.98434,3.12774 -1.2476,3.79118 -0.26325,0.66346 -0.7476,2.13686 -1.07631,3.27422 -0.32871,1.13735 -0.73894,2.45565 -0.91163,2.92954 -0.17268,0.4739 -0.41418,1.48202 -0.53667,2.24025 -0.1225,0.75824 -0.43945,2.07653 -0.70437,2.92955 -0.8271,2.66326 -1.60168,9.52305 -1.5893,14.07505 0.0118,4.3397 0.94748,11.65514 1.66024,12.98022 0.20392,0.37911 0.46053,1.25416 0.57024,1.94452 0.1097,0.69037 0.60356,2.08621 1.09743,3.10188 1.08644,2.23426 2.37276,5.37666 2.37276,5.79648 0,0.168 -0.41595,0.78263 -0.92432,1.36585 -0.96703,1.1094 -2.53561,1.40348 -3.77137,0.70706 z m 88.38121,-26.39058 c 0.30534,-0.1131 0.98466,-1.08244 1.50964,-2.15408 0.52497,-1.07165 1.36879,-2.56881 1.87515,-3.32705 3.52053,-5.27166 3.6767,-9.5518 0.54268,-14.8729 -1.94148,-3.29634 -3.35363,-4.76192 -4.29068,-4.45301 -0.79221,0.26118 -2.54912,2.4977 -4.01076,5.10566 -2.89343,5.16264 -1.929,12.44303 2.42035,18.27106 0.67148,0.89979 1.26083,1.63596 1.30967,1.63596 0.0489,0 0.33862,-0.0925 0.64395,-0.20564 z m -3.49515,-34.05458 c 0.50405,-1.268 -2.23043,-8.40811 -3.65816,-9.55194 -0.79878,-0.63993 -1.55554,-0.0787 -1.55135,1.15053 0.008,2.32194 1.09386,4.885 3.14408,7.42086 1.24632,1.54152 1.74779,1.7796 2.06543,0.98055 z m 8.23466,-1.84219 c 1.81368,-3.88936 2.35612,-6.47581 1.70284,-8.11923 -0.34747,-0.87407 -1.57218,-0.23222 -3.08891,1.61886 l -1.44327,1.7614 0.20777,2.84988 c 0.11428,1.56745 0.30518,3.00207 0.42426,3.18805 0.52691,0.82299 1.46695,0.26728 2.19731,-1.29896 z m -1.55779,-14.91211 c 4.08182,-5.11001 5.76587,-11.98575 4.3592,-17.79803 -0.22586,-0.93324 -1.34847,-0.7335 -1.92198,0.34197 -0.53239,0.9983 -1.11447,1.87977 -2.19889,3.32979 -2.32854,3.1136 -2.65853,4.27087 -2.78249,9.75836 -0.10904,4.82574 0.0987,6.13895 0.96234,6.08236 0.12324,-0.008 0.83506,-0.77957 1.58182,-1.71445 z m -8.22342,-0.21243 c 0.19554,-0.98745 -0.68548,-6.27855 -1.13672,-6.8267 -0.16528,-0.20077 -0.4233,-0.75041 -0.57339,-1.22143 -0.35425,-1.11179 -2.63774,-4.0863 -4.51244,-5.878 -1.35501,-1.29501 -1.52381,-1.36574 -2.04896,-0.85846 -0.4298,0.41517 -0.56996,1.22706 -0.56289,3.26077 0.009,2.46129 0.13835,2.95458 1.42531,5.4156 1.00316,1.91834 2.12579,3.38028 3.85103,5.01499 2.50809,2.37646 3.2583,2.60697 3.55806,1.09323 z m 4.71514,-18.72553 c 0.87505,-1.27061 2.27486,-3.68599 3.11069,-5.36752 1.40454,-2.82566 1.53024,-3.31066 1.65881,-6.40071 0.11421,-2.7449 -0.004,-3.79652 -0.66048,-5.87473 -0.75641,-2.39468 -1.53812,-3.73763 -2.1756,-3.73763 -0.15672,0 -0.55841,0.58161 -0.89264,1.29245 -0.33424,0.71086 -1.34594,2.76585 -2.24822,4.56667 l -1.6405,3.2742 -0.1097,7.19624 c -0.0604,3.95795 -0.0182,7.42625 0.0935,7.70735 0.29229,0.7353 0.94582,0.1292 2.86415,-2.65632 z m -8.95571,-2.28053 c 0.1192,-0.29983 0.21672,-1.81737 0.21672,-3.3723 0,-3.06567 -0.78029,-5.81047 -2.29852,-8.08549 -1.35837,-2.03545 -6.48316,-6.55526 -9.55422,-8.42635 -0.68947,-0.42007 -1.0348,-0.47507 -1.21506,-0.19352 -0.4983,0.77831 -0.11161,3.78375 0.78019,6.0632 0.50015,1.27845 1.00268,2.63463 1.11674,3.01376 0.11405,0.37912 0.66584,1.35623 1.2262,2.17136 0.56036,0.81513 1.01884,1.59174 1.01884,1.7258 0,0.35413 3.45988,4.10597 5.53646,6.00363 1.85707,1.69706 2.80468,2.02559 3.17265,1.09991 z m 3.84972,-19.01389 c 1.46213,-1.66271 3.04605,-9.343543 2.6475,-12.838325 -0.63239,-5.545202 -1.02203,-6.684449 -3.33629,-9.754809 -0.91672,-1.216225 -1.44916,-1.627728 -2.00674,-1.550938 -0.72507,0.09985 -0.7678,0.335381 -0.95692,5.274318 -0.10892,2.843388 -0.38037,5.679024 -0.6033,6.301413 -0.31373,0.875891 -0.29735,1.460033 0.0726,2.584897 1.16017,3.528355 1.58659,4.984044 1.81501,6.196074 0.13436,0.71294 0.37277,1.3729 0.52979,1.46658 0.15702,0.0937 0.39392,0.78988 0.52646,1.54712 0.26622,1.52115 0.52202,1.672 1.31197,0.77367 z m -9.34553,-5.35935 c 0,-0.43599 -0.12856,-0.94004 -0.28569,-1.120126 -0.15712,-0.180082 -0.65318,-1.257984 -1.10234,-2.395339 -1.56216,-3.955683 -3.79594,-7.90165 -5.49096,-9.699761 -0.88337,-0.937095 -4.91921,-3.224729 -5.68908,-3.224729 -0.13125,0 -0.69095,-0.183873 -1.24374,-0.40861 -0.55279,-0.224735 -1.88874,-0.602595 -2.96877,-0.839693 -5.86252,-1.286989 -5.828,-1.291042 -5.37883,0.631491 0.47603,2.037434 3.47283,6.060696 7.14066,9.586487 3.14288,3.021167 3.81367,3.479401 8.41363,5.74759 5.46116,2.69284 6.60512,2.99119 6.60512,1.72269 z M 30.872752,85.430725 c 0.134945,-0.710848 0.463555,-1.598373 0.730244,-1.972281 0.266694,-0.373904 0.484895,-0.874557 0.484895,-1.112561 0,-0.762231 2.514293,-5.647092 3.935796,-7.64661 1.95619,-2.751618 4.399044,-5.140914 7.489271,-7.325071 2.562222,-1.810965 8.617659,-5.466048 9.055692,-5.466048 0.620228,0 7.929266,-5.097619 9.750214,-6.800192 2.584743,-2.416721 4.401265,-4.64908 4.401265,-5.408806 0,-0.310157 -0.881191,-1.566641 -1.958199,-2.792189 -1.07701,-1.225549 -2.188609,-2.760593 -2.470221,-3.411211 -0.612524,-1.415145 -0.968336,-1.386522 -4.675932,0.376168 -5.595269,2.660139 -10.095239,5.954158 -15.565951,11.394416 -6.665964,6.628857 -9.86746,12.350175 -11.527359,20.600262 -0.59235,2.94412 -0.999629,8.988221 -0.684143,10.152807 0.297165,1.096959 0.764976,0.830732 1.034428,-0.588684 z m 145.137818,0.344652 c 0.22913,-3.615024 -0.45586,-8.972542 -1.68552,-13.182979 -1.41455,-4.843493 -3.99988,-8.763108 -7.55401,-11.452628 -4.30165,-3.255183 -4.57676,-2.774243 -2.41107,4.214914 0.26432,0.853016 0.58996,2.714142 0.72364,4.135837 0.18115,1.9266 0.51495,3.057096 1.31068,4.439041 1.16475,2.022797 1.15115,2.003848 2.87526,4.004958 0.65327,0.758237 2.28354,2.968325 3.62282,4.911307 2.41355,3.501537 3.04438,4.094198 3.1182,2.92955 z m -15.39066,-8.973848 c 0,-0.849877 -7.3586,-7.620538 -10.40076,-9.569747 -5.59104,-3.58238 -8.42578,-4.42225 -13.93813,-4.129568 -4.3126,0.228984 -4.58081,0.294641 -4.58081,1.12137 0,0.674255 2.47185,3.880035 4.50527,5.842948 1.66344,1.605756 6.51011,4.439718 8.16941,4.776847 0.58911,0.119691 1.48136,0.366297 1.98278,0.548015 0.50142,0.181719 2.02773,0.469383 3.39181,0.639257 5.40865,0.673548 9.88319,1.352966 10.06476,1.528236 0.32029,0.309181 0.80567,-0.147092 0.80567,-0.757358 z m -3.2684,-13.324884 c 0.0679,-0.338049 -0.23595,-1.643495 -0.67519,-2.90099 -2.57621,-7.375388 -6.70355,-12.549341 -11.87395,-14.884966 -3.03662,-1.371733 -3.79772,-0.994062 -2.58613,1.283289 0.28551,0.536648 1.01908,2.061383 1.63015,3.388298 2.01666,4.379072 3.01085,6.029174 4.45587,7.395582 2.1385,2.022166 8.16018,6.540953 8.5688,6.430196 0.19636,-0.05323 0.41257,-0.37336 0.48045,-0.711409 z m -26.90093,-5.680961 c 1.37459,-0.190008 3.66407,-0.350543 5.08773,-0.356744 1.42368,-0.0062 2.58849,-0.15976 2.58849,-0.341237 0,-0.709993 -2.427,-2.24383 -8.21177,-5.189734 -5.16404,-2.629803 -10.97327,-3.938344 -20.79719,-4.684615 -2.86351,-0.217524 -3.12404,-0.185474 -3.12404,0.384313 0,1.002747 2.6262,4.043576 5.21194,6.034802 0.86273,0.664371 4.37576,2.751235 4.63143,2.751235 0.10602,0 0.88516,0.304497 1.73145,0.676657 3.00074,1.319591 6.96718,1.542922 12.88196,0.725323 z m 5.36847,-10.038545 c 0.31863,-0.497686 -1.39507,-2.811169 -3.67209,-4.957258 -3.35993,-3.166755 -7.63781,-5.205592 -11.73248,-5.591703 -2.29244,-0.216167 -3.22864,0.226902 -2.1722,1.028007 0.29585,0.224338 1.50739,1.240565 2.69233,2.258284 1.34357,1.15396 3.33819,2.376979 5.29965,3.249513 1.72988,0.769514 4.43054,2.06451 6.0015,2.87777 3.14632,1.628817 3.24696,1.660704 3.58329,1.135387 z m -90.457168,-3.18134 c 0.841187,-0.792265 7.550066,-4.961826 9.84667,-6.119694 3.259633,-1.643396 3.281143,-1.719929 1.009862,-3.593057 -2.255623,-1.86022 -5.320455,-3.453347 -10.384738,-5.398086 -4.309647,-1.65495 -7.28237,-3.267513 -9.541867,-5.176015 -1.408525,-1.189718 -1.776377,-1.353555 -2.227528,-0.992115 -0.297215,0.238114 -0.442425,0.585957 -0.322683,0.772987 0.119742,0.187028 0.336465,1.216338 0.481602,2.287356 0.317753,2.344765 0.988769,5.018795 1.612981,6.427795 0.251933,0.568676 0.817039,1.886975 1.255793,2.92955 1.046501,2.486731 2.782554,4.986872 5.118949,7.371946 1.987862,2.029276 2.380584,2.214903 3.150959,1.489333 z m 59.264008,-2.955693 c 3.8623,-0.120346 7.11011,-0.303826 7.21736,-0.407735 0.6168,-0.59758 -5.75715,-5.070084 -9.24127,-6.484454 -4.038968,-1.639611 -9.259586,-2.260835 -10.328461,-1.229023 -0.678242,0.654724 -0.702434,0.314982 0.182651,2.565146 0.409035,1.039897 0.959213,2.636168 1.222614,3.547266 0.682449,2.360583 1.123777,2.771162 2.658553,2.473323 0.696401,-0.135145 4.426243,-0.344181 8.288553,-0.464523 z M 26.204061,164.21555 c -1.26698,-1.45351 -1.011761,-2.24457 1.452331,-4.50155 3.916874,-3.58765 3.988391,-4.98735 0.500426,-9.79392 -0.783436,-1.07961 -1.424428,-2.2958 -1.424428,-2.70261 0,-0.96324 1.812276,-2.24793 3.171088,-2.24793 1.726989,0 3.971636,1.92407 5.337332,4.57506 1.073589,2.08397 1.190203,2.60474 1.199221,5.35529 0.01062,3.24159 -0.377113,4.37949 -2.36711,6.94673 -1.389663,1.79276 -4.058245,3.43078 -5.612886,3.44527 -1.037029,0.01 -1.503203,-0.21275 -2.255974,-1.07634 z M 56.36616,95.744936 c -0.96967,-0.348699 -2.423599,-1.362193 -3.667239,-2.556333 l -2.060589,-1.978567 -1.474056,1.030771 c -0.81073,0.566927 -1.690946,1.030775 -1.956036,1.030775 -0.658994,0 -0.620952,-1.830742 0.09432,-4.538815 1.367826,-5.178744 4.559148,-8.193097 10.670256,-10.078552 2.646296,-0.816462 3.002055,-0.774549 11.960619,1.409055 1.865499,0.454704 3.861801,0.941209 4.436222,1.081118 2.044795,0.498041 1.449445,1.37337 -2.115505,3.110377 -1.178211,0.574082 -2.562054,1.197325 -3.075211,1.384989 -0.848897,0.310449 -0.955888,0.565347 -1.186804,2.827522 -0.381611,3.738473 -2.033865,5.876566 -5.585548,7.227968 -2.136437,0.812902 -3.878233,0.827232 -6.040423,0.04969 z m 5.37441,-5.766986 c 1.292965,-1.328576 1.197655,-3.414499 -0.205541,-4.498268 -1.385642,-1.07021 -3.008074,-1.067194 -4.209709,0.0078 -1.60093,1.432243 -1.589751,2.970688 0.03463,4.768353 0.871016,0.96393 3.323467,0.808339 4.380611,-0.277918 z"
       id="path836" />
  </g>
</svg>
