<?xml version="1.0" encoding="UTF-8" standalone="no"?>
<!-- Created with Inkscape (http://www.inkscape.org/) -->

<svg
   width="64mm"
   height="64mm"
   viewBox="0 0 64 64"
   version="1.1"
   id="svg2402"
   inkscape:version="1.1.2 (b8e25be833, 2022-02-05)"
   sodipodi:docname="horseikon.svg"
   xmlns:inkscape="http://www.inkscape.org/namespaces/inkscape"
   xmlns:sodipodi="http://sodipodi.sourceforge.net/DTD/sodipodi-0.dtd"
   xmlns="http://www.w3.org/2000/svg"
   xmlns:svg="http://www.w3.org/2000/svg">
  <sodipodi:namedview
     id="namedview2404"
     pagecolor="#505050"
     bordercolor="#eeeeee"
     borderopacity="1"
     inkscape:pageshadow="0"
     inkscape:pageopacity="0"
     inkscape:pagecheckerboard="0"
     inkscape:document-units="mm"
     showgrid="false"
     inkscape:zoom="1.4218013"
     inkscape:cx="261.9916"
     inkscape:cy="197.98828"
     inkscape:window-width="1920"
     inkscape:window-height="991"
     inkscape:window-x="-9"
     inkscape:window-y="-9"
     inkscape:window-maximized="1"
     inkscape:current-layer="layer1" />
  <defs
     id="defs2399" />
  <g
     inkscape:label="Réteg 1"
     inkscape:groupmode="layer"
     id="layer1">
    <path
       style="fill:#f2f2f2;fill-opacity:1;stroke-width:0.35359"
       d="m 27.072056,61.868068 c 3.118267,-2.605309 5.814576,-4.202448 13.600833,-8.056334 7.971737,-3.945691 10.585616,-5.499854 12.854355,-7.642984 2.162868,-2.043117 3.154148,-3.763364 3.461736,-6.007451 0.250563,-1.82813 -0.122816,-4.80218 -0.602948,-4.80218 -0.182566,0 -0.331923,0.203385 -0.331923,0.451963 0,0.248581 -0.555798,1.611714 -1.235107,3.029187 C 52.584154,43.503608 48.4248,47.034145 39.965715,51.447996 32.682268,55.248408 29.088081,57.65724 26.808557,60.265935 25.495671,61.768412 24.029739,64 24.355649,64 c 0.09061,0 1.312993,-0.959368 2.716407,-2.131932 z m -1.073201,-3.610043 c 2.228285,-2.475843 5.575438,-4.743642 12.375694,-8.384899 7.52265,-4.028068 11.627479,-7.061661 13.973008,-10.326481 2.643827,-3.680007 3.287308,-7.272195 1.938418,-10.821153 -0.388854,-1.023082 -0.707013,-2.028278 -0.707013,-2.23377 0,-0.47756 1.107388,-0.163325 3.303359,0.937366 0.941699,0.472015 1.787779,0.858207 1.880178,0.858207 0.399947,0 -0.43226,-1.761979 -1.837079,-3.889501 -2.374194,-3.595607 -6.621511,-7.463835 -13.117747,-11.946939 -0.556066,-0.383749 -0.243253,-0.428349 1.992289,-0.284044 l 2.65194,0.171187 -1.110287,-1.002196 C 44.653191,8.9091132 39.310154,6.4539962 35.038889,5.6827277 32.608672,5.2438991 27.88367,5.2091864 25.791604,5.6147847 24.415854,5.8815117 24.293452,5.831395 23.231583,4.5665734 22.223985,3.3664112 18.126533,-2.5e-7 17.673345,-2.5e-7 c -0.101836,0 -0.07845,0.8353601 0.05185,1.85635395 l 0.236957,1.8563528 -0.843554,-0.7429771 c -1.682537,-1.4819154 -1.84507,-1.4500207 -1.58109,0.3102723 0.132973,0.8870084 0.131102,2.8346047 -0.004,4.3279947 -0.191694,2.1154288 -0.432528,2.9368646 -1.090173,3.7184336 -1.291664,1.535064 -3.362749,5.722487 -5.1534011,10.419426 -0.8896866,2.3337 -2.1880463,5.188428 -2.8852234,6.343837 -1.0906822,1.807558 -1.2675954,2.405421 -1.2675954,4.283806 0,1.678423 0.170699,2.40006 0.738405,3.121789 1.0571251,1.343919 2.5065922,1.985372 4.4862789,1.985372 1.959815,0 2.844717,-0.684071 3.779762,-2.921953 0.303605,-0.726626 0.784016,-1.321141 1.067574,-1.321141 1.578338,0 4.686688,-1.93283 7.174276,-4.4611 l 2.641156,-2.68434 0.929204,0.688913 c 0.511069,0.378905 1.406555,1.363572 1.989977,2.188149 0.950373,1.34319 1.073523,1.824159 1.183202,4.621 0.171541,4.37375 -0.987431,8.039828 -3.872,12.248012 -1.794594,2.618077 -2.488779,4.921542 -2.488779,8.258326 0,2.883766 0.588969,6.393164 1.064863,6.344935 0.122817,-0.01243 1.098354,-0.994992 2.167961,-2.18344 z"
       id="path2475" />
  </g>
</svg>
