<?xml version="1.0" encoding="UTF-8" standalone="no"?>
<!-- Created with Inkscape (http://www.inkscape.org/) -->

<svg
   width="64mm"
   height="64mm"
   viewBox="0 0 64 64"
   version="1.1"
   id="svg7233"
   inkscape:version="1.1.2 (b8e25be833, 2022-02-05)"
   sodipodi:docname="houseikon.svg"
   xmlns:inkscape="http://www.inkscape.org/namespaces/inkscape"
   xmlns:sodipodi="http://sodipodi.sourceforge.net/DTD/sodipodi-0.dtd"
   xmlns="http://www.w3.org/2000/svg"
   xmlns:svg="http://www.w3.org/2000/svg">
  <sodipodi:namedview
     id="namedview7235"
     pagecolor="#505050"
     bordercolor="#eeeeee"
     borderopacity="1"
     inkscape:pageshadow="0"
     inkscape:pageopacity="0"
     inkscape:pagecheckerboard="0"
     inkscape:document-units="mm"
     showgrid="false"
     inkscape:zoom="1.4218013"
     inkscape:cx="190.95495"
     inkscape:cy="208.53828"
     inkscape:window-width="1920"
     inkscape:window-height="991"
     inkscape:window-x="-9"
     inkscape:window-y="-9"
     inkscape:window-maximized="1"
     inkscape:current-layer="layer1" />
  <defs
     id="defs7230" />
  <g
     inkscape:label="Réteg 1"
     inkscape:groupmode="layer"
     id="layer1">
    <path
       style="fill:#f2f2f2;fill-opacity:1;stroke:#f2f2f2;stroke-width:0.99262;stroke-miterlimit:4;stroke-dasharray:none;stroke-opacity:1"
       d="M 13.203363,59.862089 C 11.53522,59.104268 9.8726359,57.234224 9.4209459,55.6077 9.2177439,54.875971 9.0730943,50.58998 9.0720139,45.268732 l -0.0019,-9.089115 11.0391311,-11.05336 c 8.930442,-8.94195 11.206106,-11.053362 11.913235,-11.053362 0.705895,0 2.975027,2.094463 11.791767,10.884072 l 10.917661,10.884068 v 9.785409 c 0,9.605081 -0.0142,9.812281 -0.769889,11.243703 -0.42344,0.802061 -1.403628,1.904984 -2.178205,2.450941 l -1.408315,0.992648 -6.259301,0.108499 -6.2593,0.1085 v -9.959892 -9.959892 l -5.873166,0.09036 -5.873166,0.09036 -0.08764,9.843757 -0.08764,9.843755 -5.7028,-0.0072 c -4.799332,-0.0062 -5.912933,-0.102734 -7.029169,-0.609824 z M 2.1580545,35.532115 C 0.57810164,34.656415 0.02552975,32.49658 0.93870054,30.766035 1.5990398,29.514629 26.219683,5.0797977 27.440825,4.4639172 29.032558,3.6611326 31.880146,3.2554226 33.628087,3.582385 c 2.539133,0.4749639 3.856467,1.3831018 7.863176,5.4206773 2.089864,2.1059627 3.913855,3.8290227 4.053311,3.8290227 0.139457,0 0.253558,-1.128181 0.253558,-2.50707 0,-2.3297987 0.06839,-2.5754634 0.967198,-3.4742676 0.791901,-0.7919032 1.246278,-0.9671957 2.507071,-0.9671957 1.260791,0 1.715168,0.1752925 2.507069,0.9671957 l 0.967199,0.9671946 v 6.206151 6.206153 l 5.109211,5.152029 c 2.810068,2.833616 5.271342,5.582942 5.469492,6.109617 0.468901,1.246288 -0.0651,2.928846 -1.217128,3.835033 -0.934897,0.73539 -2.710724,0.873994 -3.841047,0.299797 C 57.869695,35.42479 51.956272,29.69225 45.126256,22.887742 35.623977,13.420951 32.519448,10.515908 31.904861,10.515908 c -0.615345,0 -3.788923,2.979232 -13.56998,12.73898 C 5.7968327,35.765613 5.5446174,35.993658 4.2584606,35.98214 3.5381711,35.975637 2.5929873,35.773181 2.1580545,35.532115 Z"
       id="path914"
       sodipodi:nodetypes="csccssscsssccccccccccccsssssssssscccssssssscs" />
  </g>
</svg>
