<?xml version="1.0" encoding="UTF-8" standalone="no"?>
<!-- Created with Inkscape (http://www.inkscape.org/) -->

<svg
   width="64mm"
   height="64mm"
   viewBox="0 0 64 64"
   version="1.1"
   id="svg901"
   inkscape:version="1.1.2 (b8e25be833, 2022-02-05)"
   sodipodi:docname="logoikon.svg"
   xmlns:inkscape="http://www.inkscape.org/namespaces/inkscape"
   xmlns:sodipodi="http://sodipodi.sourceforge.net/DTD/sodipodi-0.dtd"
   xmlns="http://www.w3.org/2000/svg"
   xmlns:svg="http://www.w3.org/2000/svg">
  <sodipodi:namedview
     id="namedview903"
     pagecolor="#505050"
     bordercolor="#eeeeee"
     borderopacity="1"
     inkscape:pageshadow="0"
     inkscape:pageopacity="0"
     inkscape:pagecheckerboard="0"
     inkscape:document-units="mm"
     showgrid="false"
     inkscape:zoom="0.71090067"
     inkscape:cx="390.34989"
     inkscape:cy="442.39654"
     inkscape:window-width="1920"
     inkscape:window-height="991"
     inkscape:window-x="-9"
     inkscape:window-y="-9"
     inkscape:window-maximized="1"
     inkscape:current-layer="layer1" />
  <defs
     id="defs898" />
  <g
     inkscape:label="Réteg 1"
     inkscape:groupmode="layer"
     id="layer1">
    <path
       style="fill:#f2f2f2;fill-opacity:1;stroke-width:0.20998"
       d="m 12.457449,57.296373 c -0.17855,-0.288904 0.05349,-0.566626 3.023159,-3.618665 1.321026,-1.35766 2.348044,-2.522285 2.28226,-2.588069 -0.06579,-0.06579 -1.474735,0.719789 -3.131021,1.745704 -1.656286,1.025915 -3.124791,1.933333 -3.263367,2.016497 -0.320141,0.19213 -0.756843,-0.589768 -0.600895,-1.075881 0.06341,-0.197749 0.876903,-0.960798 1.80771,-1.695674 0.930807,-0.734875 1.647945,-1.380563 1.593645,-1.434863 -0.05429,-0.05428 -0.738455,0.287111 -1.520346,0.758684 -0.78189,0.471582 -1.536455,0.85742 -1.676808,0.85742 -0.140354,0 -0.357562,-0.25985 -0.482677,-0.577444 -0.125123,-0.317602 -0.34649,-0.742812 -0.4919302,-0.944917 -0.376323,-0.522953 -0.130624,-0.835627 2.1656992,-2.756016 4.089692,-3.420171 4.603987,-3.926681 5.21685,-5.137916 0.330538,-0.653251 1.122166,-1.896421 1.75918,-2.762587 0.637013,-0.866173 1.069128,-1.607366 0.96025,-1.647095 -0.500938,-0.182797 -3.109688,2.14566 -4.844892,4.324344 -1.551567,1.948118 -2.120178,1.806432 -5.3331412,-1.328907 -1.587843,-1.549479 -2.570862,-3.226018 -3.135433,-5.347497 -0.436948,-1.641913 -0.395695,-4.836218 0.08616,-6.671569 0.217779,-0.829485 0.316253,-1.508163 0.218835,-1.508163 -0.256461,0 -1.151594,1.620223 -1.539424,2.786404 -0.183201,0.550865 -0.394386,1.661134 -0.469312,2.467278 -0.183114,1.970213 -0.556793,1.95765 -1.684801,-0.05666 -2.225372,-3.973886 -3.49662096,-8.152448 -3.39105296,-11.146346 0.06333,-1.795766 0.08725,-1.874232 0.753169,-2.469088 L 1.4470398,18.870968 1.0774788,17.665391 C 0.80651884,16.781464 0.70705284,15.731495 0.70467184,13.73006 c -0.0032,-2.408827 0.05357,-2.85318 0.47997096,-3.7796527 0.26577,-0.5774514 0.785469,-1.3685715 1.154895,-1.7580603 0.674703,-0.7113366 2.606393,-1.7685523 2.899932,-1.5871368 0.08643,0.053411 0.214359,0.6389498 0.284294,1.3011927 0.263746,2.4974831 0.353363,2.9889131 0.54504,2.9889131 0.108417,0 0.197113,-0.140075 0.197113,-0.311284 0,-0.533715 1.764814,-2.2085632 2.32629,-2.2076982 0.745804,7.936e-4 1.7693382,0.701091 2.5219282,1.7246092 0.700392,0.952535 2.291132,4.066279 2.291132,4.48472 0,0.136329 0.156813,0.377552 0.348474,0.536056 0.319642,0.264341 0.336419,0.196986 0.202748,-0.814215 -0.113155,-0.855999 -0.08256,-1.102397 0.136885,-1.102397 0.878364,0 1.900668,1.835614 3.508304,6.299422 2.590124,7.191761 4.886598,10.710113 8.034174,12.308876 l 0.996614,0.506216 0.788215,-0.489296 c 1.862899,-1.156403 4.992031,-2.026457 7.312012,-2.033092 2.423327,-0.0071 4.122064,0.851071 4.696825,2.372305 0.407854,1.079477 0.350554,1.123856 -1.645159,1.274519 -2.099122,0.158463 -3.979472,0.591221 -4.743212,1.091643 -0.971385,0.636481 -0.883903,1.359373 0.334244,2.761936 0.935529,1.07716 1.153864,2.203476 0.739241,3.813494 -0.190288,0.738899 -0.644045,1.872795 -1.008344,2.519768 -0.823326,1.462165 -4.108335,4.778823 -4.929597,4.977095 -1.131864,0.273254 -2.919566,1.305026 -7.422104,4.283639 -5.525253,3.655196 -7.961159,4.948358 -8.297134,4.404738 z m 19.658879,-8.892038 c -0.330117,-0.397766 -0.324173,-0.408091 1.400888,-2.435834 1.683134,-1.978451 2.424534,-3.582088 2.444573,-5.28757 0.01484,-1.265393 -0.04833,-1.482283 -0.672616,-2.309783 -0.974988,-1.29232 -1.168649,-1.749386 -1.009645,-2.382916 0.223057,-0.888744 1.572391,-1.349889 4.80002,-1.640445 2.405971,-0.216596 2.782317,-0.30038 2.846411,-0.633672 0.119869,-0.623228 -0.128362,-1.250281 -0.788843,-1.992728 -0.341006,-0.38333 -0.577126,-0.808723 -0.524715,-0.945314 0.05238,-0.136592 0.8265,-0.573016 1.720181,-0.969837 3.994861,-1.77383 10.287458,-5.374941 17.507496,-10.019133 2.037053,-1.310303 3.820906,-2.382376 3.964116,-2.382376 0.193241,0 0.235049,0.419631 0.162162,1.62735 -0.08387,1.38954 -0.229565,1.888168 -0.997003,3.412188 -2.847577,5.654813 -6.690395,9.973927 -11.662569,13.108107 l -1.259885,0.794152 0.94491,-0.12837 c 0.519707,-0.07063 1.410102,-0.189994 1.978657,-0.265302 l 1.033748,-0.136924 -0.895498,1.660896 c -2.446374,4.537314 -6.509217,7.794951 -11.993766,9.616748 -2.590076,0.86034 -4.915565,1.360103 -7.119787,1.530075 -1.319875,0.101782 -1.643723,0.06397 -1.878835,-0.219312 z"
       id="path992" />
  </g>
</svg>
