<?xml version="1.0" encoding="UTF-8" standalone="no"?>
<!-- Created with Inkscape (http://www.inkscape.org/) -->

<svg
   width="210mm"
   height="180mm"
   viewBox="0 0 210 180"
   version="1.1"
   id="svg5"
   inkscape:version="1.1.2 (b8e25be833, 2022-02-05)"
   sodipodi:docname="logo.svg"
   xmlns:inkscape="http://www.inkscape.org/namespaces/inkscape"
   xmlns:sodipodi="http://sodipodi.sourceforge.net/DTD/sodipodi-0.dtd"
   xmlns="http://www.w3.org/2000/svg"
   xmlns:svg="http://www.w3.org/2000/svg">
  <sodipodi:namedview
     id="namedview7"
     pagecolor="#505050"
     bordercolor="#eeeeee"
     borderopacity="1"
     inkscape:pageshadow="0"
     inkscape:pageopacity="0"
     inkscape:pagecheckerboard="0"
     inkscape:document-units="mm"
     showgrid="false"
     inkscape:zoom="0.35545034"
     inkscape:cx="104.0933"
     inkscape:cy="550.00651"
     inkscape:window-width="1920"
     inkscape:window-height="991"
     inkscape:window-x="-9"
     inkscape:window-y="-9"
     inkscape:window-maximized="1"
     inkscape:current-layer="layer1" />
  <defs
     id="defs2" />
  <g
     inkscape:label="Réteg 1"
     inkscape:groupmode="layer"
     id="layer1">
    <path
       style="fill:#000000;stroke-width:0.2606"
       d="m 83.188101,159.20808 c -0.688344,-0.21165 -1.574894,-0.51897 -1.970108,-0.68294 -0.775571,-0.32177 -0.78335,-0.4805 -0.148735,-3.03509 l 0.252009,-1.01446 1.062703,0.50954 c 1.380013,0.66169 4.221166,1.14792 5.391054,0.92263 2.618447,-0.50427 3.773024,-2.75188 2.539848,-4.94431 -0.359247,-0.63869 -0.993309,-1.13765 -2.18925,-1.72274 -3.995438,-1.95474 -4.796404,-2.45372 -5.7627,-3.59003 -3.200088,-3.76309 -1.170971,-9.55659 3.802688,-10.85737 1.872604,-0.48975 6.538823,-0.0333 7.507465,0.73453 0.383171,0.30371 0.383648,0.43668 0.0063,1.81957 -0.223758,0.82055 -0.450732,1.57087 -0.504406,1.66736 -0.05367,0.0966 -0.80212,-0.0654 -1.663218,-0.35988 -3.950775,-1.35089 -7.248277,0.35867 -6.356699,3.29556 0.343701,1.13218 1.398724,1.92492 4.540758,3.41192 3.793228,1.79518 5.244554,3.71224 5.234962,6.91486 -0.0088,3.09334 -1.545967,5.4699 -4.269346,6.6027 -1.624066,0.67553 -5.754003,0.85687 -7.473592,0.32815 z m 37.045409,0.1032 c -1.89557,-0.48975 -3.16738,-1.11518 -3.03398,-1.492 0.0703,-0.19842 0.25216,-0.8873 0.40424,-1.53084 0.46033,-1.94778 0.37712,-1.87779 1.55873,-1.31123 1.67137,0.80139 4.32139,1.17839 5.72238,0.81407 2.22368,-0.57821 3.34619,-2.91574 2.28186,-4.75171 -0.48704,-0.84013 -1.06932,-1.21175 -4.80562,-3.06687 -3.35212,-1.66438 -4.74485,-3.58868 -4.74485,-6.55583 0,-4.14972 3.09428,-6.81007 7.92084,-6.81007 1.87718,0 4.94505,0.63993 5.18907,1.0824 0.0502,0.0911 -0.12872,0.93891 -0.39772,1.88399 -0.40158,1.41083 -0.56472,1.68416 -0.91166,1.52746 -1.26949,-0.57341 -2.76977,-0.93959 -3.84952,-0.93959 -3.46248,0 -5.11632,2.89662 -2.86582,5.01937 0.47461,0.44767 1.99183,1.34001 3.3716,1.98298 4.13261,1.92581 5.56798,3.76963 5.58298,7.17176 0.0137,3.09091 -1.87863,5.77878 -4.74502,6.74005 -1.22718,0.41156 -5.42405,0.55992 -6.67751,0.23606 z M 62.788096,147.26971 V 135.21562 L 64.102207,135.07 c 3.669817,-0.40662 5.088662,-0.4404 6.942742,-0.16524 4.438029,0.65866 6.48403,2.73959 6.713972,6.82858 0.198538,3.53057 -1.152215,6.02759 -4.016949,7.42578 -1.31882,0.64368 -1.994074,0.78439 -4.258169,0.88729 l -2.690798,0.12228 v 4.57755 4.57755 H 64.79055 62.788096 Z m 8.763236,-1.1062 c 1.576205,-0.8835 2.498397,-2.92703 2.156671,-4.77908 -0.40814,-2.21199 -2.147465,-3.30477 -5.044506,-3.16931 l -1.745338,0.0816 -0.06899,4.11634 c -0.0628,3.74659 -0.02907,4.12899 0.375459,4.25707 0.746996,0.2365 3.596139,-0.097 4.326704,-0.50662 z m 27.280946,0.95102 v -12.20928 h 2.002442 2.00246 v 5.62498 5.62498 l 0.6673,-1.08042 c 0.36699,-0.59422 2.06692,-3.12547 3.77759,-5.62497 l 3.11032,-4.54457 h 2.51072 c 1.96888,0 2.45925,0.0732 2.27223,0.33916 -0.13118,0.18653 -1.83454,2.49015 -3.78526,5.11917 -1.95072,2.62903 -3.54677,4.84956 -3.54677,4.93453 0,0.085 1.80221,3.20704 4.00491,6.93793 2.2027,3.73089 4.00491,6.85191 4.00491,6.93561 0,0.0836 -1.05435,0.15215 -2.343,0.15215 h -2.34299 l -3.08026,-5.43824 c -1.69414,-2.99103 -3.15096,-5.48561 -3.23739,-5.54352 -0.0865,-0.0579 -0.57456,0.45267 -1.08473,1.13458 l -0.92758,1.23987 v 4.30364 4.30367 h -2.00246 -2.002442 z m 36.544782,0 v -12.20928 h 6.63313 6.63314 v 1.76356 1.76356 h -4.50553 -4.50552 v 3.25581 3.25581 h 4.25522 4.2552 v 1.76355 1.76356 h -4.2552 -4.25522 v 3.52114 3.52113 l 4.69326,0.0738 4.69324,0.0738 0.0739,1.8314 0.074,1.83139 h -6.89488 -6.89486 z M 8.8787962,130.15603 C 26.612271,109.83024 43.766802,86.796773 52.524539,71.552687 c 2.796268,-4.867297 4.102221,-6.764626 6.207606,-9.018628 3.082792,-3.300392 7.404253,-5.991934 11.476503,-7.147923 2.447946,-0.694897 7.416474,-0.98671 9.350003,-0.54915 1.799699,0.407279 6.439796,2.464773 7.989462,3.542665 0.671056,0.466755 2.273655,2.093765 3.561333,3.615564 1.484881,1.754863 1.975013,2.460189 1.340005,1.928329 -3.018792,-2.528423 -8.379059,-5.45916 -11.915721,-6.514943 -2.290911,-0.683894 -7.726721,-0.680479 -10.111277,0.0062 -3.60655,1.038791 -7.051252,3.194893 -9.939562,6.221336 -2.114094,2.215209 -3.424157,4.12833 -6.071238,8.866021 -1.208952,2.163751 -3.271383,5.643394 -4.583178,7.732535 -2.246043,3.577001 -14.165913,20.954357 -16.703202,24.350707 -0.641009,0.85805 -1.086413,1.56009 -0.989784,1.56009 0.576524,0 15.680702,-11.890165 18.858599,-14.845674 l 1.096794,-1.020031 -0.180435,0.94642 c -0.412486,2.163605 -1.779767,6.02527 -3.161856,8.930175 -0.811212,1.70501 -1.422501,3.15685 -1.358424,3.22631 0.171572,0.18596 2.167399,-1.64254 4.942552,-4.528211 1.345059,-1.398631 2.445561,-2.428405 2.445561,-2.288415 0,0.140015 -0.397701,1.584548 -0.883776,3.210102 -0.949685,3.175984 -1.954907,5.326424 -3.683596,7.880244 -1.623327,2.39817 -1.654949,2.53116 -0.300768,1.26491 1.864683,-1.74364 6.108952,-5.2177 6.37444,-5.2177 0.47896,0 -0.858882,5.12775 -1.946372,7.46016 -0.581249,1.24663 -3.345322,4.47779 -3.830498,4.47779 -0.114754,0 0.12855,-0.78107 0.540685,-1.7357 0.412136,-0.95463 0.814896,-2.20608 0.895027,-2.78101 l 0.145693,-1.04529 -1.095907,1.10863 c -1.833039,1.85431 -3.244347,2.9707 -5.590931,4.42261 -1.233241,0.76304 -2.31992,1.38734 -2.414845,1.38734 -0.09493,0 0.443589,-0.99784 1.196691,-2.21743 1.459536,-2.36359 2.535486,-4.53668 3.335435,-6.73652 0.524507,-1.44237 0.380494,-1.72313 -0.399418,-0.77864 -0.715472,0.86644 -7.121871,6.36997 -10.113644,8.6883 -2.498334,1.93597 -10.46602,7.75037 -11.263805,8.21976 -0.206503,0.12153 1.654185,-2.02322 4.134867,-4.76603 6.302177,-6.96815 10.764685,-12.03123 12.416296,-14.08732 0.774182,-0.96377 1.872403,-2.31538 2.440493,-3.00358 0.568088,-0.6882 1.032887,-1.32461 1.032887,-1.41426 0,-0.19423 -2.207377,1.50849 -3.479522,2.684 -0.495464,0.45785 -2.252503,1.91332 -3.904528,3.23437 -1.652024,1.32106 -8.691904,7.16207 -15.644175,12.98003 -12.8706317,10.77066 -16.6016325,13.88205 -17.2711689,14.4029 -0.2065022,0.16063 1.3284272,-1.66089 3.4109561,-4.04784 z m 194.5817138,2.63075 c -15.14014,-12.69505 -28.76735,-24.04941 -31.1632,-25.96551 -1.65202,-1.32124 -3.40905,-2.77684 -3.90452,-3.23469 -1.27215,-1.17552 -3.47952,-2.87823 -3.47952,-2.68399 0,0.0896 0.4648,0.72605 1.03289,1.41425 0.56808,0.6882 1.6663,2.0398 2.44048,3.00358 1.65162,2.05609 6.11412,7.11917 12.4163,14.0873 2.48068,2.74282 4.34137,4.8892 4.13486,4.76975 -0.20649,-0.11952 -2.689,-1.89956 -5.51666,-3.95579 -5.90204,-4.2919 -10.78708,-8.20637 -14.16092,-11.34741 -1.29143,-1.2023 -2.40303,-2.18601 -2.47023,-2.18601 -0.17349,0 0.73114,2.42675 1.60059,4.29367 0.40508,0.86984 1.35268,2.57935 2.10579,3.79893 0.75311,1.2196 1.29163,2.21744 1.1967,2.21744 -0.0949,0 -1.18161,-0.6243 -2.41485,-1.38734 -2.34658,-1.45191 -3.7579,-2.5683 -5.59094,-4.42261 l -1.0959,-1.10863 0.14569,1.04529 c 0.0801,0.57492 0.4829,1.82636 0.89503,2.781 0.41214,0.95464 0.65545,1.73571 0.54069,1.73571 -0.48518,0 -3.24925,-3.23117 -3.8305,-4.4778 -1.08749,-2.33241 -2.42533,-7.46016 -1.94638,-7.46016 0.26549,0 4.50977,3.47407 6.37446,5.21768 1.35417,1.26627 1.32255,1.13328 -0.30079,-1.26489 -1.72868,-2.55383 -2.73389,-4.70427 -3.68358,-7.880244 -0.48608,-1.625553 -0.88378,-3.0701 -0.88378,-3.21009 0,-0.140002 1.10051,0.889784 2.44555,2.288404 2.77516,2.88566 4.77099,4.71417 4.94257,4.52821 0.064,-0.0694 -0.54722,-1.5213 -1.35843,-3.22632 -1.38209,-2.904882 -2.74937,-6.76656 -3.16186,-8.930165 l -0.18044,-0.946433 1.0968,1.020044 c 3.17791,2.955522 18.28207,14.845654 18.85859,14.845654 0.0967,0 -0.34877,-0.70203 -0.98977,-1.56006 -2.60179,-3.48272 -14.51243,-20.842116 -16.72024,-24.369286 -1.30131,-2.078933 -3.35561,-5.550217 -4.56512,-7.713969 -2.64917,-4.739218 -3.959,-6.651694 -6.07226,-8.86601 -2.8883,-3.026454 -6.33301,-5.182546 -9.93956,-6.221347 -2.38456,-0.686816 -7.82036,-0.690231 -10.11128,-0.0062 -3.53666,1.055784 -8.89692,3.986521 -11.91572,6.514954 -0.635,0.53186 -0.14488,-0.173465 1.34001,-1.928329 1.28767,-1.521809 2.89027,-3.148809 3.56132,-3.615574 1.54967,-1.077883 6.18977,-3.135386 7.98948,-3.542654 1.93353,-0.437571 6.90204,-0.145758 9.35,0.549148 4.07224,1.15598 8.3937,3.847522 11.4765,7.147913 2.1224,2.272224 3.40281,4.139314 6.37088,9.289944 8.70737,15.110403 26.46614,38.92876 43.40519,58.21583 2.08809,2.3775 3.75531,4.32237 3.70496,4.32192 -0.0504,-5.5e-4 -0.93636,-0.7092 -1.96888,-1.57497 z m -102.43718,-10.9726 c -7.300034,-8.92701 -12.44292,-19.03319 -12.874962,-25.300319 -0.08752,-1.269477 0.0051,-2.526474 0.27966,-3.790941 0.459875,-2.118821 1.863922,-5.481858 2.583213,-6.187445 0.447398,-0.438878 0.44213,-0.311757 -0.101584,2.45157 -0.675593,3.433597 -0.757074,7.095384 -0.209991,9.436858 0.621459,2.659797 5.893048,13.718607 11.537854,24.204237 0.34142,0.63419 0.56981,1.15308 0.50755,1.15308 -0.0623,0 -0.83706,-0.88516 -1.72175,-1.96704 z m 7.4165,0.88179 c 0.34315,-0.67152 1.98706,-3.84592 3.65317,-7.05425 3.9242,-7.55662 7.41497,-15.17445 7.88984,-17.217817 0.54507,-2.345392 0.46281,-6.007216 -0.21201,-9.436858 -0.54369,-2.763327 -0.54897,-2.890448 -0.10158,-2.45157 0.7193,0.705587 2.12335,4.068624 2.58322,6.187445 0.78537,3.618496 0.0306,7.57687 -2.53345,13.28703 -2.2457,5.00119 -6.73452,11.96994 -10.48588,16.27903 l -1.4172,1.6279 z M 86.931058,104.18539 c -0.802551,-2.13021 -1.60696,-4.479631 -1.787573,-5.220975 -0.471143,-1.933808 -0.405133,-4.433879 0.169617,-6.423909 0.510188,-1.766473 1.942228,-4.731674 2.167327,-4.48769 0.06903,0.07483 -0.115407,0.971367 -0.409843,1.99234 -0.344823,1.195716 -0.583218,2.918383 -0.669896,4.840791 -0.130147,2.886418 -0.09637,3.148319 1.02762,7.969973 0.639203,2.74202 1.117129,5.03433 1.062059,5.09403 -0.05507,0.0596 -0.756761,-1.63437 -1.559311,-3.76456 z m 35.187352,3.78068 c -0.004,-0.11789 0.5107,-2.43771 1.14418,-5.15503 1.11275,-4.773183 1.14723,-5.041726 1.01722,-7.925093 -0.0866,-1.922408 -0.32508,-3.645075 -0.66989,-4.840791 -0.29445,-1.020973 -0.47887,-1.917524 -0.40985,-1.99234 0.23584,-0.255648 1.67126,2.760352 2.20215,4.627052 0.42386,1.49031 0.50449,2.3075 0.40253,4.079158 -0.10986,1.909388 -0.34271,2.795205 -1.68503,6.411504 -1.53523,4.13603 -1.98635,5.21698 -2.00131,4.79554 z M 100.5646,86.958622 c -1.910016,-3.133466 -3.255238,-4.343457 -6.174324,-5.553598 -1.13525,-0.470643 -2.023564,-0.899627 -1.97403,-0.953326 0.209872,-0.227487 3.885628,0.560387 4.986188,1.068758 1.628617,0.75228 2.934696,2.435474 3.662326,4.719785 0.60763,1.907643 1.20921,3.004913 0.94687,1.727137 -0.0766,-0.373064 -0.38614,-2.038995 -0.68792,-3.702051 -0.61562,-3.392667 -1.22861,-4.811651 -2.470478,-5.718773 -1.270607,-0.92814 -2.661731,-1.231523 -5.076351,-1.107039 l -2.176868,0.112243 1.836322,-2.083377 c 1.009974,-1.145865 1.984029,-2.526173 2.164572,-3.067364 0.180543,-0.541182 0.420497,-0.983962 0.533255,-0.983962 1.054482,0 5.327028,4.371432 6.293858,6.439543 0.8663,1.853015 1.25988,4.327021 1.0826,6.805108 -0.14582,2.038129 -0.83207,4.933599 -1.16931,4.933599 -0.0933,0 -0.89275,-1.1865 -1.77671,-2.636658 z m 7.18214,1.220248 c -0.97695,-3.271899 -0.76467,-7.604872 0.50572,-10.322298 0.96684,-2.06811 5.23939,-6.439542 6.29389,-6.439542 0.11274,0 0.35271,0.44278 0.53324,0.983962 0.18054,0.541191 1.15461,1.921499 2.16459,3.067364 l 1.8363,2.083377 -2.17686,-0.112243 c -2.41462,-0.124421 -3.80573,0.178899 -5.07635,1.107039 -1.24187,0.907122 -1.85485,2.326106 -2.47047,5.718773 -0.30178,1.663056 -0.61135,3.328987 -0.68795,3.702051 -0.26232,1.277776 0.33924,0.180505 0.9469,-1.727138 0.72762,-2.28431 2.0337,-3.967504 3.6623,-4.719784 1.10057,-0.508371 4.77634,-1.296245 4.98619,-1.068758 0.0496,0.05374 -0.83877,0.482683 -1.974,0.953326 -2.89231,1.199042 -4.26553,2.426711 -6.13773,5.487193 -0.86382,1.412079 -1.66225,2.601529 -1.77432,2.643237 -0.11212,0.04168 -0.39622,-0.568748 -0.63145,-1.356584 z M 85.822028,83.191145 c 1.31932,-0.940946 1.491706,-1.11486 1.983356,-2.001053 0.191968,-0.34602 0.292624,-0.332686 0.730376,0.09667 0.279244,0.273928 1.217744,0.783906 2.085551,1.133316 l 1.577834,0.635266 -1.501841,0.01996 c -0.826012,0.0113 -2.509876,0.261549 -3.741921,0.556758 -1.232046,0.295222 -2.299539,0.536771 -2.372209,0.536771 -0.07267,0 0.484818,-0.440008 1.238854,-0.977796 z m 37.790622,0.426713 c -1.03252,-0.265228 -2.60946,-0.500298 -3.5043,-0.522358 l -1.62699,-0.04005 1.57782,-0.635253 c 0.86781,-0.349397 1.80395,-0.857078 2.08033,-1.128181 0.52656,-0.516532 0.51041,-0.524994 1.16738,0.612039 0.0993,0.171917 0.79754,0.751853 1.55159,1.288761 1.5252,1.085996 1.44,1.115074 -1.24583,0.425118 z M 79.683804,77.201193 c -2.293332,-0.558277 -2.832596,-1.150115 -3.104489,-3.407199 -0.09457,-0.785044 -0.290596,-1.403011 -0.435619,-1.373252 -4.374451,0.897607 -6.738124,0.704166 -8.337847,-0.682355 -0.958022,-0.830349 -3.265605,-3.967527 -3.265605,-4.439624 0,-0.158698 0.803596,0.533162 1.785769,1.537466 3.177069,3.248658 4.235476,3.428982 10.184831,1.735215 4.730891,-1.346878 6.378017,-1.361378 8.559372,-0.07537 1.182553,0.697174 3.994897,3.730179 3.727525,4.019991 -0.05665,0.06142 -0.923062,-0.485048 -1.925359,-1.214348 -1.700568,-1.23738 -3.776667,-2.15602 -4.872548,-2.15602 -0.549864,0 -1.48441,0.492862 -1.749007,0.922393 -0.621127,1.008304 0.207614,2.94254 1.794695,4.188715 l 1.001598,0.786455 -1.153403,0.171365 c -1.22079,0.181372 -1.414432,0.180192 -2.209913,-0.01343 z m 48.733046,-8.8e-5 -0.8277,-0.12304 1.02372,-0.803819 c 1.6082,-1.262776 2.44151,-3.191966 1.81681,-4.206087 -0.2646,-0.42954 -1.19916,-0.922402 -1.74901,-0.922402 -1.09589,0 -3.17199,0.91864 -4.87255,2.156031 -1.0023,0.72929 -1.86872,1.275752 -1.92537,1.214348 -0.26737,-0.289823 2.54498,-3.322829 3.72753,-4.020001 2.18136,-1.286019 3.82849,-1.271519 8.55938,0.07537 5.94935,1.693767 7.00776,1.513453 10.18483,-1.735205 0.98218,-1.004304 1.78577,-1.696164 1.78577,-1.537476 0,0.472097 -2.30759,3.609275 -3.26561,4.439624 -1.59972,1.386531 -3.9634,1.579972 -8.33784,0.682365 -0.14503,-0.02974 -0.33845,0.565002 -0.42984,1.321703 -0.21882,1.812045 -0.59984,2.525957 -1.58657,2.972845 -0.94744,0.429098 -2.91704,0.662272 -4.10355,0.485822 z m 45.3191,-3.632311 c -0.44709,-0.732334 -0.81287,-1.468095 -0.81287,-1.635029 0,-0.166923 0.75018,-2.000541 1.66706,-4.074685 0.91691,-2.074149 1.62089,-3.820532 1.56442,-3.88086 -0.0565,-0.0603 -0.49811,-0.189718 -0.98146,-0.287555 -0.77656,-0.157192 -1.12598,-0.0031 -3.00368,1.327424 -1.16867,0.827908 -2.23907,1.507535 -2.37865,1.510263 -0.3064,0.0062 -1.5412,-2.09556 -1.39558,-2.375169 0.0761,-0.145973 10.23297,-7.342748 12.45131,-8.822473 0.17862,-0.119149 0.5373,0.266288 0.93866,1.008643 0.35726,0.660811 0.64958,1.263488 0.64958,1.33929 0,0.07578 -1.26439,1.030804 -2.80977,2.122221 l -2.80974,1.98441 2.74718,0.20141 c 6.18573,0.453525 5.77825,0.33686 6.71828,1.92356 0.60522,1.021575 0.73724,1.426442 0.48641,1.491631 -0.18936,0.04922 -1.99411,-0.10574 -4.01057,-0.344347 -2.01646,-0.238612 -3.74975,-0.339927 -3.85173,-0.225148 -0.10195,0.114792 -1.10757,2.406363 -2.23463,5.092405 -1.12705,2.686035 -2.06543,4.90436 -2.08528,4.929607 -0.0198,0.02522 -0.40187,-0.553272 -0.84894,-1.285598 z m -143.543905,-3.578749 -6.438996,-4.350173 1.044295,-2.17575 c 1.385296,-2.886223 3.202145,-4.962894 4.699949,-5.372079 2.807746,-0.767067 5.757057,1.719219 5.757057,4.853221 0,1.312022 -0.557174,3.102275 -1.392339,4.473712 l -0.62195,1.021316 1.909635,1.284878 c 3.189507,2.146033 3.041194,1.91868 2.200111,3.372584 l -0.71877,1.242467 z m 1.991929,-4.156107 c 0.847485,-1.613167 0.754386,-2.95054 -0.283736,-4.075797 -0.965771,-1.046841 -2.014381,-1.210955 -3.047778,-0.477019 -0.650052,0.461689 -2.016221,2.729533 -1.791215,2.973427 0.428231,0.464181 4.10704,2.784939 4.313349,2.721063 0.137669,-0.04266 0.50189,-0.556378 0.80938,-1.141674 z m 6.249419,-9.330001 c -3.138764,-2.822592 -5.687231,-5.230843 -5.663259,-5.351671 0.02398,-0.120819 0.39565,-0.679095 0.825947,-1.240601 l 0.782362,-1.020918 5.756974,5.162067 c 3.166334,2.839123 5.756971,5.320211 5.756971,5.51353 0,0.410959 -1.249311,2.086463 -1.548257,2.076424 -0.112142,-0.0041 -2.771971,-2.316237 -5.910738,-5.138831 z m 126.710257,1.591511 c -2.38864,-0.387713 -4.72798,-2.445546 -5.60283,-4.928623 -0.58464,-1.659313 -0.44478,-4.222591 0.32412,-5.940763 0.77789,-1.738293 2.74486,-3.826469 4.46225,-4.737244 1.93264,-1.024916 4.42644,-1.085039 6.09282,-0.146865 4.80171,2.703314 5.53307,8.681516 1.58406,12.948026 -2.0365,2.200228 -4.46667,3.194012 -6.86042,2.805469 z m 2.4003,-3.230056 c 3.88359,-2.037818 5.57605,-6.628185 3.35827,-9.108411 -1.48286,-1.658359 -3.28532,-1.744004 -5.61104,-0.266638 -1.38981,0.882851 -3.02681,3.064457 -3.38678,4.513541 -0.92039,3.704932 2.39577,6.563591 5.63955,4.861508 z M 43.889933,49.826174 c -2.753373,-3.201785 -5.035627,-5.915251 -5.071673,-6.029927 -0.03605,-0.114666 0.358186,-0.656104 0.876074,-1.203181 l 0.941612,-0.994707 4.462286,5.144951 4.462287,5.144963 2.283596,-2.309736 2.283599,-2.309745 0.83726,0.879621 0.837255,0.879612 -3.202772,3.313024 c -1.761525,1.822165 -3.315413,3.31157 -3.453081,3.309796 -0.137668,-0.002 -2.503068,-2.622877 -5.256443,-5.824671 z M 153.08626,47.351423 c -0.51626,-0.383713 -0.93864,-0.776154 -0.93864,-0.872084 0,-0.152701 3.86532,-7.475945 5.5258,-10.469194 l 0.60205,-1.085265 -0.65158,0.542628 c -0.35836,0.298457 -2.60722,2.273157 -4.99746,4.38823 l -4.34591,3.845593 -0.71391,-0.45413 c -0.39266,-0.249769 -0.80573,-0.576221 -0.91794,-0.725444 -0.18522,-0.246335 1.89284,-8.6297 2.84993,-11.497259 0.21794,-0.652966 0.39626,-1.309183 0.39626,-1.458263 0,-0.14907 -1.47176,1.972373 -3.27056,4.714335 -1.79882,2.741962 -3.42656,5.158179 -3.61719,5.369371 -0.29821,0.33037 -0.49092,0.280502 -1.37969,-0.357031 -0.93528,-0.67089 -1.0016,-0.790869 -0.7006,-1.2676 1.48999,-2.359972 8.63317,-12.703527 8.78168,-12.71614 0.10395,-0.0093 0.84985,0.431663 1.65745,0.978864 l 1.46839,0.994913 -0.73173,3.00702 c -0.40243,1.653847 -1.12013,4.36925 -1.59488,6.034223 -0.47475,1.664962 -0.86318,3.111812 -0.86318,3.215197 0,0.103392 0.61891,-0.425131 1.37534,-1.174509 1.30613,-1.293915 6.92617,-6.238585 7.55713,-6.64896 0.16479,-0.107184 0.96214,0.272975 1.79205,0.854405 l 1.49518,1.047488 -3.71986,7.160782 c -2.04593,3.938427 -3.80977,7.185465 -3.91967,7.215644 -0.10985,0.03015 -0.62219,-0.259091 -1.13846,-0.642814 z M 54.049481,40.352764 c -2.352016,-3.505933 -4.304764,-6.503765 -4.339442,-6.661849 -0.06388,-0.291249 1.990062,-2.077245 2.145343,-1.865469 0.04635,0.06327 2.073884,3.089539 4.505625,6.725161 l 4.421343,6.610229 -0.997414,0.783166 c -0.548577,0.430742 -1.101286,0.783167 -1.228238,0.783167 -0.126956,0 -2.155202,-2.868481 -4.507217,-6.374405 z m 9.331297,1.35942 c -0.07839,-0.221426 -0.159335,-0.797154 -0.179876,-1.279383 -0.03588,-0.842377 0.0079,-0.884031 1.113326,-1.061218 3.566439,-0.571638 5.263178,-3.663207 2.793173,-5.089352 -0.389606,-0.224954 -1.348134,-0.273365 -3.128836,-0.158022 -2.368429,0.153408 -2.652915,0.117328 -3.675016,-0.466129 -1.830194,-1.04476 -2.545661,-3.49411 -1.678084,-5.744799 0.466807,-1.211006 2.213955,-2.772787 3.839277,-3.431937 1.950558,-0.791064 2.479174,-0.731054 2.66998,0.303051 0.250507,1.357676 0.190346,1.593837 -0.406748,1.596647 -0.683322,0.003 -2.952984,1.119064 -3.359019,1.651416 -0.613547,0.804436 -0.63225,1.732437 -0.05106,2.533325 l 0.560556,0.772451 2.563963,-0.157386 c 3.037779,-0.186468 4.156926,0.08573 5.257519,1.278705 2.793594,3.028084 0.83212,7.528028 -3.993037,9.160688 -1.771796,0.59951 -2.141264,0.614112 -2.326124,0.09198 z M 75.82277,35.535761 c -2.548712,-7.093512 -5.022335,-14.155492 -5.078127,-14.497603 -0.04927,-0.302119 0.304493,-0.610082 1.124494,-0.978916 0.658007,-0.295975 1.230148,-0.490883 1.271423,-0.433129 0.379993,0.531686 5.392017,15.291907 5.241116,15.434897 -0.109845,0.104082 -0.681144,0.390932 -1.269561,0.63744 -1.056026,0.44241 -1.072687,0.440308 -1.289345,-0.162689 z m 56.83708,-0.224112 c -0.86072,-0.414086 -1.05279,-0.624232 -0.91242,-0.998265 0.0978,-0.260577 0.60953,-1.706616 1.13719,-3.213413 l 0.95939,-2.739645 -0.68484,-5.472071 c -0.37667,-3.009645 -0.61993,-5.439584 -0.54059,-5.399878 0.0794,0.03969 0.72519,0.307143 1.43519,0.594299 0.8675,0.350848 1.33219,0.706813 1.41674,1.085266 0.0692,0.309747 0.20554,2.191603 0.30298,4.18191 l 0.17715,3.618723 2.65841,-2.872605 c 1.46212,-1.579932 2.73681,-2.872605 2.83264,-2.872605 0.0958,0 0.79791,0.252916 1.56014,0.562049 l 1.38589,0.562049 -3.98352,3.544963 -3.9835,3.544972 -1.08501,3.217823 c -0.59676,1.769803 -1.19765,3.209526 -1.33531,3.199384 -0.13767,-0.0103 -0.74091,-0.254476 -1.34053,-0.542956 z m -9.85772,-3.229984 c -2.30432,-0.546698 -4.25905,-1.069206 -4.34386,-1.161118 -0.1204,-0.130468 2.62574,-14.530777 3.01967,-15.834925 0.15284,-0.506008 2.63531,0.136344 2.63531,0.681895 0,0.242672 -0.56627,3.23824 -1.25839,6.656824 -0.69211,3.418586 -1.2179,6.347303 -1.16839,6.508258 0.0495,0.160955 1.37608,0.602944 2.94796,0.982186 l 2.85797,0.689544 -0.0861,0.939343 c -0.0475,0.516644 -0.16003,1.072694 -0.2503,1.235669 -0.11325,0.204393 -1.46383,-0.01205 -4.35379,-0.697676 z m -33.982127,-0.79737 c -0.554116,-0.172696 -0.620006,-0.328584 -0.575454,-1.361469 0.02767,-0.641543 0.08408,-1.203039 0.125351,-1.247768 0.04128,-0.04471 0.63814,0.03282 1.326376,0.172398 1.736723,0.35216 3.708357,-0.112682 4.375136,-1.031521 1.118866,-1.541786 0.266986,-3.018363 -2.159251,-3.74269 -3.597967,-1.074139 -4.853293,-2.048788 -5.197062,-4.035055 -0.573055,-3.311046 2.146301,-5.876057 6.217821,-5.864921 1.986191,0.0051 2.204463,0.173835 2.002212,1.544801 l -0.161836,1.097026 -1.559356,-0.135677 c -1.887354,-0.164215 -3.233846,0.403823 -3.591205,1.514981 -0.510043,1.585919 0.178753,2.210574 3.62356,3.286157 2.764123,0.863041 4.084147,2.402201 4.084147,4.762173 0,2.265619 -1.507184,4.102334 -3.984554,4.855806 -1.47329,0.448079 -3.426932,0.52826 -4.525885,0.185759 z m 16.645407,-1.418844 c -0.80681,-0.322862 -2.29695,-1.438522 -2.83083,-2.119442 -0.18027,-0.229905 -0.62905,-1.08952 -0.99729,-1.91025 -0.57509,-1.281752 -0.66922,-1.836695 -0.66728,-3.9341 0.003,-2.097867 0.10144,-2.676426 0.70591,-4.10695 1.51046,-3.5743 4.49826,-5.237581 7.99499,-4.450732 2.97593,0.669661 4.94206,3.049177 5.39667,6.531381 0.54761,4.194523 -0.96106,7.949324 -3.84184,9.561639 -1.17579,0.658073 -4.55793,0.909637 -5.76033,0.428454 z m 4.38427,-2.633531 c 2.39965,-1.384071 3.21591,-6.873544 1.44418,-9.712432 -0.64049,-1.026281 -2.24563,-1.993782 -3.30776,-1.993782 -0.97981,0 -2.42054,0.9445 -3.06188,2.007288 -1.95354,3.237254 -1.09825,8.749902 1.54241,9.94165 0.872,0.393548 2.47993,0.278185 3.38305,-0.242724 z m -2.75729,-14.917494 c 0,-0.124736 0.40931,-0.796243 0.90956,-1.492247 l 0.90957,-1.265447 h 1.59133 1.59133 l -1.49749,1.492236 c -1.29521,1.290673 -1.63303,1.492245 -2.50089,1.492245 -0.55188,0 -1.00341,-0.102036 -1.00341,-0.226787 z"
       id="path836" />
  </g>
</svg>
