<?xml version="1.0" encoding="UTF-8" standalone="no"?>
<!-- Created with Inkscape (http://www.inkscape.org/) -->

<svg
   width="64mm"
   height="64mm"
   viewBox="0 0 64 64"
   version="1.1"
   id="svg10629"
   inkscape:version="1.1.2 (b8e25be833, 2022-02-05)"
   sodipodi:docname="personikon.svg"
   xmlns:inkscape="http://www.inkscape.org/namespaces/inkscape"
   xmlns:sodipodi="http://sodipodi.sourceforge.net/DTD/sodipodi-0.dtd"
   xmlns="http://www.w3.org/2000/svg"
   xmlns:svg="http://www.w3.org/2000/svg">
  <sodipodi:namedview
     id="namedview10631"
     pagecolor="#505050"
     bordercolor="#eeeeee"
     borderopacity="1"
     inkscape:pageshadow="0"
     inkscape:pageopacity="0"
     inkscape:pagecheckerboard="0"
     inkscape:document-units="mm"
     showgrid="false"
     inkscape:zoom="1.0053654"
     inkscape:cx="45.257177"
     inkscape:cy="111.89961"
     inkscape:window-width="1920"
     inkscape:window-height="991"
     inkscape:window-x="-9"
     inkscape:window-y="-9"
     inkscape:window-maximized="1"
     inkscape:current-layer="layer1" />
  <defs
     id="defs10626" />
  <g
     inkscape:label="Réteg 1"
     inkscape:groupmode="layer"
     id="layer1">
    <path
       style="fill:#f2f2f2;fill-opacity:1;stroke:#f2f2f2;stroke-width:1.99863;stroke-miterlimit:4;stroke-dasharray:none;stroke-opacity:1"
       d="M 29.450309,62.942257 C 24.801819,62.518832 19.56102,61.102388 15.877874,59.274004 14.043957,58.36361 13.537805,57.906167 13.537805,57.15914 c 0,-0.797019 0.550561,-1.392521 1.287426,-1.392521 0.296226,0 1.496682,0.458497 2.667688,1.018883 2.555941,1.223163 4.882155,1.997624 8.026067,2.672107 2.159855,0.463367 2.671673,0.501757 6.645804,0.498456 3.941667,-0.0033 4.504533,-0.04566 6.656733,-0.501365 5.846738,-1.237964 10.984156,-3.723521 15.433568,-7.466992 0.926671,-0.779645 1.923864,-1.669635 2.215986,-1.977753 l 0.531121,-0.560218 -0.311202,-1.523621 c -0.182743,-0.894694 -0.42383,-1.78726 -0.718083,-2.669201 -1.491083,-4.469098 -4.347412,-8.665359 -7.895923,-11.482994 -2.516909,-1.99851 -2.33387,-1.94035 -3.398248,-1.079828 -2.739404,2.214742 -5.93655,3.632329 -9.465379,4.196868 -2.011978,0.321874 -6.001719,0.144789 -7.857276,-0.348746 -2.953978,-0.785686 -5.494166,-2.029989 -7.537882,-3.69241 -1.277899,-1.039479 -1.156878,-1.073577 -3.72338,1.049006 -4.483716,3.708197 -7.5421227,8.970797 -8.6346309,14.857634 -0.3970852,2.139658 -0.6354291,2.523661 -1.566364,2.523661 -0.8481481,0 -2.0971429,-0.237197 -1.6881408,-1.948353 0.5005734,-2.094265 1.0768805,-4.025206 1.4188679,-5.043066 2.0060025,-5.970538 5.9232528,-11.062251 11.1754598,-14.526074 0.919014,-0.606086 1.863262,-1.101975 2.098342,-1.101975 0.250559,0 0.992224,0.475152 1.792379,1.148295 2.487618,2.092741 4.520158,3.184065 7.328635,3.934944 2.173464,0.581098 6.117427,0.581098 8.290899,0 2.816126,-0.752922 4.839689,-1.841165 7.349699,-3.952562 1.67216,-1.406606 1.780636,-1.404539 4.000133,0.07627 5.211845,3.47724 8.890826,8.579288 11.060015,14.462187 0.748873,2.030964 2.607233,4.797328 -1.07401,8.614273 0,0 -9.353768,7.887676 -19.582083,9.580689 -2.076884,0.34377 -6.871884,0.576208 -8.613686,0.41755 z m 1.310443,-33.269139 c -0.257409,-0.0452 -0.973472,-0.172724 -1.591253,-0.283397 -2.466778,-0.44191 -5.246118,-1.948553 -7.207431,-3.907055 -3.91533,-3.909735 -5.208389,-9.608816 -3.382976,-14.910401 0.704519,-2.0461537 1.520018,-3.378776 3.082894,-5.03778 2.909145,-3.0880843 6.260384,-4.53516895 10.502804,-4.53516895 4.182691,0 7.51165,1.41347255 10.404089,4.41756715 4.93126,5.1216058 5.344177,13.0283108 0.977681,18.7210068 -1.866158,2.432939 -5.03792,4.495015 -7.951984,5.169864 -1.275186,0.295312 -4.041806,0.504426 -4.833824,0.365364 z m 4.097175,-3.168816 c 3.852016,-0.906717 6.995752,-3.886503 8.375119,-7.938342 0.536633,-1.576364 0.495368,-5.094883 -0.07928,-6.757197 -2.316589,-6.7015726 -9.726283,-9.8555095 -16.007715,-6.8136988 -3.864289,1.8712948 -6.20159,5.4062128 -6.439254,9.7386678 -0.124284,2.265772 0.165062,3.600146 1.267859,5.846982 1.374941,2.801326 4.348408,5.174411 7.411309,5.914894 1.456464,0.352112 3.995861,0.356146 5.471949,0.0087 z"
       id="path10814"
       sodipodi:nodetypes="cssssssssscssssssssssscssssssssssccsscssssssssscsccsss" />
  </g>
</svg>
