<?xml version="1.0" encoding="UTF-8" standalone="no"?>
<!-- Created with Inkscape (http://www.inkscape.org/) -->

<svg
   width="50mm"
   height="60mm"
   viewBox="0 0 50 60"
   version="1.1"
   id="svg9034"
   inkscape:version="1.1.2 (b8e25be833, 2022-02-05)"
   sodipodi:docname="rangsor.svg"
   xmlns:inkscape="http://www.inkscape.org/namespaces/inkscape"
   xmlns:sodipodi="http://sodipodi.sourceforge.net/DTD/sodipodi-0.dtd"
   xmlns="http://www.w3.org/2000/svg"
   xmlns:svg="http://www.w3.org/2000/svg">
  <sodipodi:namedview
     id="namedview9036"
     pagecolor="#505050"
     bordercolor="#eeeeee"
     borderopacity="1"
     inkscape:pageshadow="0"
     inkscape:pageopacity="0"
     inkscape:pagecheckerboard="0"
     inkscape:document-units="mm"
     showgrid="false"
     inkscape:zoom="8"
     inkscape:cx="55.125"
     inkscape:cy="34.4375"
     inkscape:window-width="1920"
     inkscape:window-height="991"
     inkscape:window-x="-9"
     inkscape:window-y="-9"
     inkscape:window-maximized="1"
     inkscape:current-layer="layer1" />
  <defs
     id="defs9031" />
  <g
     inkscape:label="Réteg 1"
     inkscape:groupmode="layer"
     id="layer1">
    <path
       style="fill:#5b2b08;fill-opacity:1;stroke-width:0.264583;stroke:#5b2b08;stroke-opacity:1"
       d="m 18.070016,57.15257 c -3.04205,-0.420944 -5.54544,-1.13434 -6.08928,-1.735269 -0.28913,-0.319487 -0.3995,-0.840931 -0.3434,-1.622335 0.0744,-1.035847 0.18235,-1.200224 1.07487,-1.636335 l 0.99219,-0.484811 v -2.439628 c 0,-2.329736 0.0385,-2.492626 0.85423,-3.61623 1.03621,-1.427257 1.35463,-1.698826 2.73108,-2.329182 2.17309,-0.995185 3.74995,-2.874529 4.21367,-5.021958 0.1567,-0.725615 0.0918,-0.952143 -0.36458,-1.271773 -0.69048,-0.483629 -0.74955,-1.811359 -0.0968,-2.176629 0.41459,-0.232016 0.38697,-0.322718 -0.28904,-0.949222 -0.41109,-0.380981 -0.68765,-0.848474 -0.61459,-1.038873 0.0731,-0.190397 -0.31935,-0.870493 -0.87204,-1.511321 -0.96976,-1.124424 -1.02282,-1.148961 -1.51828,-0.702122 -0.69291,0.624922 -1.99354,0.591158 -2.58937,-0.06722 -0.42539,-0.470057 -0.43852,-0.612707 -0.11564,-1.256771 0.20032,-0.399593 0.40682,-0.813115 0.45889,-0.91894 0.0521,-0.105826 -1.20261,-1.545876 -2.78818,-3.200112 C 7.5739861,19.811497 4.8874758,14.818694 4.0177758,9.0126066 3.3346158,4.451824 3.8259458,3.6676258 7.2297261,3.8860674 c 2.45328,0.1574419 2.9134099,0.5138786 3.1545199,2.4436146 0.11116,0.889739 0.36679,1.5854106 0.69005,1.8779616 0.49427,0.447305 0.51348,0.441663 0.51348,-0.150795 0,-0.338518 -0.1905,-0.8259856 -0.42333,-1.0832636 -0.62919,-0.695244 -0.54898,-2.361299 0.14055,-2.9196519 2.07085,-1.6768724 18.07588,-2.1266294 25.275159,-0.7102573 2.01601,0.3966255 2.92194,1.2078622 2.683,2.4025522 -0.0908,0.453747 -0.34218,1.020777 -0.55873,1.260065 -0.42611,0.4708486 -0.53964,1.5840276 -0.16155,1.5840276 0.52164,0 0.96601,-0.959739 1.09073,-2.3557396 0.1226,-1.372154 0.20019,-1.515674 1.05834,-1.9574812 1.29962,-0.6690957 4.64343,-0.5381524 5.18542,0.2030602 0.79176,1.082798 0.26015,5.646428 -1.09522,9.401826 -1.46287,4.05328 -3.44377,7.018878 -7.45109,11.15496 -1.64401,1.696845 -2.98911,3.207864 -2.98911,3.357825 0,0.149957 0.11906,0.346236 0.26458,0.436173 0.36786,0.227349 0.33171,1.546834 -0.0529,1.931458 -0.48994,0.48994 -1.83503,0.376047 -2.45674,-0.208018 l -0.55938,-0.525515 -0.97902,1.17122 c -0.53847,0.644173 -0.979019,1.409684 -0.979019,1.701139 0,0.291454 -0.259,0.711324 -0.57555,0.933045 l -0.57554,0.403127 0.5094,0.954381 0.50939,0.954381 -0.70666,0.611169 c -0.62299,0.538798 -0.68132,0.723562 -0.49259,1.560359 0.29566,1.310884 1.45259,3.209827 2.324759,3.815742 0.39962,0.277627 1.3496,0.838991 2.11107,1.247476 0.76717,0.411546 1.79943,1.275294 2.3151,1.937184 0.9186,1.179057 0.93062,1.227682 0.93062,3.764798 v 2.570313 l 0.80429,0.333148 c 1.55952,0.645977 2.08859,2.408777 1.02136,3.403057 -0.72942,0.679551 -3.96427,1.523148 -7.17304,1.870612 -3.344039,0.362114 -9.500669,0.30924 -12.511989,-0.10745 z m 12.699999,-0.692687 c 2.82755,-0.336174 5.32727,-0.929764 6.15156,-1.46077 0.7294,-0.469871 0.84252,-1.584055 0.1323,-1.303035 -5.68666,2.250074 -19.052799,2.255895 -24.230469,0.01056 -0.41398,-0.179525 -0.47147,-0.10024 -0.39687,0.547323 0.0729,0.633298 0.29271,0.8333 1.34243,1.221766 2.98924,1.106212 11.72237,1.611762 17.001049,0.984171 z M 13.373666,55.005651 c -0.40018,-0.217104 -0.72761,-0.509992 -0.72761,-0.650867 0,-0.338225 0.19688,-0.320214 1.45521,0.133112 0.89007,0.320657 0.95317,0.387318 0.39688,0.419267 l -0.66146,0.03799 0.66146,0.211836 c 0.53925,0.172699 0.56369,0.214752 0.13229,0.227616 -0.29104,0.0087 -0.85659,-0.161849 -1.25677,-0.37895 z m 0.33073,-0.377833 c -0.21828,-0.141065 -0.51594,-0.256479 -0.66146,-0.256479 -0.14552,0 -0.086,0.115414 0.13229,0.256479 0.21828,0.141066 0.51594,0.256479 0.66146,0.256479 0.14552,0 0.086,-0.115413 -0.13229,-0.256479 z m 19.300629,-0.38073 c 2.43396,-0.502047 3.71812,-0.916149 3.71812,-1.19898 0,-0.463222 -0.90787,-0.521883 -2.33929,-0.151154 -4.44271,1.150633 -14.334539,1.238557 -18.414349,0.163682 -1.98807,-0.523783 -3.05886,-0.531225 -3.05886,-0.02126 0,0.340749 2.72851,1.086315 5.42395,1.482098 3.11,0.456652 11.925679,0.291772 14.670429,-0.274384 z m -2.49959,-1.213718 c 1.01864,-0.143576 2.47716,-0.387784 3.24114,-0.542684 l 1.38907,-0.281636 v -1.941668 -1.941669 l -1.37372,0.362382 c -3.55049,0.936601 -11.705459,1.128651 -15.956489,0.375777 -0.87313,-0.154633 -1.97445,-0.350803 -2.4474,-0.43593 l -0.85989,-0.154776 v 1.745099 c 0,2.059548 0.0294,2.085316 2.91041,2.549805 1.09141,0.175964 2.16297,0.354923 2.38125,0.39769 1.01787,0.199427 9.06702,0.09998 10.715629,-0.13239 z M 15.424186,51.981985 c -0.43138,-0.18537 -0.44649,-0.230828 -0.0818,-0.245986 0.24607,-0.01023 0.52099,0.100465 0.61092,0.245986 0.18803,0.304239 0.17884,0.304239 -0.52916,0 z m -0.26458,-0.79375 c -0.20696,-0.334857 0.1433,-0.334857 0.66145,0 0.34203,0.221033 0.33504,0.25704 -0.0505,0.260533 -0.24607,0.0022 -0.52099,-0.115012 -0.61092,-0.260533 z m 0.0661,-0.704395 c 0.1819,-0.0734 0.47956,-0.0734 0.66146,0 0.1819,0.0734 0.0331,0.133453 -0.33073,0.133453 -0.3638,0 -0.51263,-0.06005 -0.33073,-0.133453 z m 0.0661,-0.618522 c -0.21828,-0.141065 -0.27782,-0.256479 -0.13229,-0.256479 0.14552,0 0.44317,0.115414 0.66145,0.256479 0.21828,0.141066 0.27782,0.25648 0.13229,0.25648 -0.14552,0 -0.44317,-0.115414 -0.66145,-0.25648 z m -0.11705,-0.769074 c -0.0815,-0.131951 0.09,-0.177594 0.38126,-0.101434 0.6178,0.161557 0.6959,0.341342 0.14828,0.341342 -0.2097,0 -0.44799,-0.107958 -0.52954,-0.239908 z m 17.314959,-0.686142 c 1.23693,-0.239723 2.36802,-0.561893 2.51354,-0.715933 0.18497,-0.195792 -0.0141,-0.224907 -0.66145,-0.09675 -3.34522,0.66225 -4.666409,0.769612 -9.524999,0.774026 -4.85919,0.0044 -6.35531,-0.118478 -9.5,-0.780339 -0.59367,-0.124952 -0.84368,-0.09685 -0.73291,0.08239 0.16468,0.266462 3.77331,1.028708 5.86728,1.239337 2.3175,0.233117 9.868829,-0.08223 12.038539,-0.502732 z m -0.0276,-1.037084 c 2.35087,-0.43066 2.54897,-0.506585 2.31395,-0.886855 -0.0847,-0.137038 -0.91602,-0.06258 -1.94472,0.174191 -2.60864,0.600409 -13.816549,0.588796 -16.133709,-0.01672 -1.547,-0.404246 -1.93496,-0.390948 -1.93496,0.06633 0,0.1782 3.54427,0.875715 5.82083,1.145545 1.91414,0.226873 9.742019,-0.09108 11.878609,-0.482488 z m 0.0938,-1.214089 c 1.57904,-0.34813 1.66623,-0.417716 1.28252,-1.023503 -0.18821,-0.297148 -0.4678,-0.308637 -1.5173,-0.06235 -3.520389,0.826129 -11.915059,0.836898 -14.951839,0.01918 -0.7892,-0.212508 -1.1556,-0.205539 -1.43618,0.02732 -0.66613,0.552836 -0.4146,0.722754 1.54155,1.041386 1.05503,0.17185 2.09682,0.354037 2.3151,0.40486 0.98124,0.228473 11.388889,-0.103251 12.766149,-0.406897 z m -15.015109,-0.397404 -1.32291,-0.348826 1.45521,0.144213 c 1.44818,0.143516 2.84693,0.607759 1.71979,0.570794 -0.29104,-0.0096 -1.12448,-0.174323 -1.85209,-0.366181 z m 13.626049,-1.014208 c 1.6159,-0.307552 1.6823,-0.348036 1.09931,-0.670148 -0.48513,-0.268041 -0.98043,-0.280141 -2.27063,-0.05546 -2.146689,0.37383 -7.974519,0.36888 -10.142259,-0.0086 -1.32234,-0.230278 -1.85574,-0.221917 -2.40292,0.03766 l -0.7033,0.33364 0.88892,0.242004 c 2.75275,0.74944 9.89336,0.813249 13.530879,0.120928 z m -12.038539,-0.173665 -1.05834,-0.189492 0.97657,-0.03754 c 0.53712,-0.02065 1.05016,0.08152 1.1401,0.227036 0.0899,0.145521 0.12673,0.247687 0.0818,0.227036 -0.045,-0.02065 -0.55801,-0.122817 -1.14009,-0.227036 z m 10.12187,-0.96538 1.390619,-0.167031 -1.168149,-1.248852 c -0.67004,-0.71632 -1.37545,-1.832502 -1.65429,-2.617589 l -0.48613,-1.368737 -2.47843,0.07494 -2.47842,0.07494 -0.50299,1.350034 c -0.30294,0.813096 -0.974,1.812787 -1.68726,2.513541 l -1.18426,1.163508 0.98976,0.16089 c 1.37511,0.223536 7.57552,0.266626 9.25955,0.06435 z m -9.19583,-0.474924 c 0,-0.115298 0.36572,-0.626171 0.81273,-1.135277 0.75378,-0.858515 1.30193,-1.860378 1.68772,-3.084685 0.0868,-0.275489 0.2151,-0.443624 0.28509,-0.373633 0.19499,0.194992 -0.42267,1.843066 -1.00279,2.675696 -0.28466,0.408559 -0.46201,0.798391 -0.39411,0.866288 0.2195,0.219504 0.76677,-0.633497 1.40999,-2.197684 0.34562,-0.84046 0.63005,-1.289984 0.63209,-0.998943 0.006,0.854136 -1.18057,3.12029 -2.00664,3.832495 -0.41945,0.361622 -0.6138,0.486638 -0.4319,0.277813 0.60235,-0.691497 0.34269,-0.906492 -0.33073,-0.273849 -0.3638,0.341775 -0.66145,0.527073 -0.66145,0.411779 z m 6.48229,-5.605965 c -1.89801,-0.197075 -4.10197,-0.213913 -4.10153,-0.03133 2.7e-4,0.109141 1.10181,0.179382 2.44788,0.156094 1.34607,-0.02328 2.09021,-0.07943 1.65365,-0.124759 z m 1.53743,-1.20853 c 0.2635,-0.136231 0.43437,-0.381883 0.3797,-0.545893 -0.0676,-0.202941 -1.19268,-0.288132 -3.52181,-0.266679 -2.85202,0.02627 -3.43636,0.09942 -3.50613,0.438952 -0.0869,0.422952 0.38471,0.600405 2.0681,0.778139 1.28051,0.135197 4.00095,-0.105074 4.58014,-0.404519 z m -5.63847,-0.211867 -0.66146,-0.211836 0.71199,-0.02638 c 0.39159,-0.0145 0.78557,0.09269 0.87551,0.238215 0.18588,0.300762 0.0131,0.300762 -0.92604,0 z m 4.70717,-1.227926 c 1.30231,-0.348856 0.31929,-0.654577 -2.2647,-0.704324 -1.91641,-0.03689 -2.70748,0.03807 -2.70731,0.256556 1.4e-4,0.169773 0.14908,0.368734 0.33098,0.442132 0.47784,0.19281 3.92666,0.196998 4.64103,0.0056 z m -4.11182,-0.277376 c 0.25466,-0.06655 0.67138,-0.06655 0.92604,0 0.25466,0.06655 0.0463,0.121002 -0.46302,0.121002 -0.50932,0 -0.71768,-0.05445 -0.46302,-0.121002 z m 4.80682,-1.105689 c 0.42455,-0.09192 0.81147,-0.286197 0.85981,-0.431718 0.056,-0.168537 -1.3528,-0.264583 -3.8808,-0.264583 -2.18278,0 -3.96868,0.08589 -3.96867,0.190873 8e-5,0.582163 4.97407,0.941835 6.98966,0.505428 z m -6.26203,-0.474654 c 0.1819,-0.0734 0.47956,-0.0734 0.66146,0 0.1819,0.0734 0.0331,0.133453 -0.33073,0.133453 -0.3638,0 -0.51263,-0.06006 -0.33073,-0.133453 z m 7.28446,-1.266484 c 1.919209,-1.257514 5.115719,-6.674598 6.492819,-11.003304 1.3614,-4.279348 2.55566,-12.2847354 1.89369,-12.6938544 C 35.889765,7.219058 21.289306,6.834296 16.085646,7.5000466 c -4.02096,0.514437 -3.72758,0.307215 -3.55053,2.5078184 0.26904,3.343812 1.19242,8.395152 1.96912,10.771929 1.28063,3.91888 3.86912,8.580483 5.7723,10.395305 1.05484,1.005862 2.04293,1.220418 5.20686,1.130631 2.01203,-0.0571 2.82582,-0.189854 3.37681,-0.550873 z m -8.39108,-0.954609 c -3.82205,-4.230552 -6.55983,-11.906489 -7.16668,-20.093261 -0.25164,-3.394747 0.008,-2.9513394 0.38774,0.661459 0.36402,3.465882 1.15393,7.517161 1.90221,9.756084 0.76542,2.290204 2.94941,6.678995 4.07733,8.193499 1.40392,1.885098 1.38029,1.339247 -0.0333,-0.768752 -0.67044,-0.999789 -1.51588,-2.403713 -1.87876,-3.119832 -1.09273,-2.156395 -2.42841,-6.606854 -2.97112,-9.899659 -0.60353,-3.661886 -0.90533,-7.2894964 -0.59024,-7.0947644 0.12266,0.07581 0.29332,1.243092 0.37925,2.5939624 0.44544,7.002618 2.70137,13.934096 5.91463,18.173049 1.97791,2.60927 2.14602,2.892306 1.20386,2.026806 -0.87759,-0.806185 -1.17657,-0.68825 -0.40805,0.160959 0.24083,0.266121 0.37375,0.483854 0.29537,0.483854 -0.0784,0 -0.5789,-0.483031 -1.11227,-1.073404 z m 9.598499,-1.311454 c 0.72262,-0.94787 1.79968,-2.614745 2.39347,-3.704167 0.59378,-1.089422 1.08128,-1.799683 1.08332,-1.578359 0.006,0.684964 -2.26466,4.319175 -3.55998,5.696932 l -1.230679,1.308994 z m 4.00968,0.385323 c 0,-0.195482 -0.19874,-0.466641 -0.44164,-0.602573 -0.77974,-0.436369 0.0873,-1.804429 2.95363,-4.660643 1.46773,-1.462518 3.21713,-3.43303 3.88756,-4.378915 2.94947,-4.161266 4.97754,-9.773622 4.97754,-13.774528 0,-1.660813 -0.36631,-1.92475 -2.4841,-1.789899 -2.13172,0.135737 -2.54299,0.462169 -2.54299,2.018439 0,1.0885436 -0.11585,1.3137696 -1.19062,2.3146436 -1.7072,1.5898194 -1.51652,2.3063914 0.31635,1.1888214 1.09567,-0.6680724 1.63699,-1.5184274 1.88038,-2.953876 0.19288,-1.137574 0.21702,-1.160301 1.3174,-1.240285 1.43025,-0.103961 1.54342,0.174918 1.16293,2.8654906 -0.3584,2.5343034 -1.08206,4.7367434 -2.47079,7.5197824 -1.32862,2.662569 -2.43415,4.18828 -5.10903,7.050799 -3.16787,3.390089 -4.5525,6.167473 -3.39708,6.814078 0.54537,0.305199 1.14046,0.111434 1.14046,-0.371335 z M 17.359776,29.566449 c 0.13497,-0.949315 -1.74949,-4.019111 -3.79365,-6.179902 C 9.2138961,18.786001 6.4377861,13.109622 6.1033861,8.1272996 L 5.9568858,5.944488 h 1.1978803 1.19788 l 0.18754,1.250652 c 0.14825,0.9885596 0.42448,1.4875836 1.31815,2.3812496 0.6218299,0.6218284 1.3248599,1.1305974 1.5622799,1.1305974 0.74965,0 0.46169,-0.9023754 -0.48326,-1.5143704 -0.93205,-0.603642 -1.4617699,-1.804561 -1.4648199,-3.3208236 -0.002,-0.923793 -0.76421,-1.250222 -2.91981,-1.250222 -1.9514003,0 -2.2078703,0.35515 -1.9627403,2.7178846 0.65536,6.3166674 3.7236703,12.3400784 8.8425202,17.3587794 2.90033,2.843588 3.49978,3.981725 2.52376,4.791749 -0.5467,0.453718 -0.2245,0.842611 0.61738,0.745186 0.49266,-0.05701 0.72758,-0.256847 0.78613,-0.668721 z m -3.68341,-8.805462 c -0.673,-2.092762 -1.06353,-3.96201 -1.69634,-8.119244 -0.14667,-0.963569 -0.27292,-1.130854 -0.96887,-1.283709 -0.44012,-0.09667 -1.2643499,-0.639886 -1.8316199,-1.207153 -1.18709,-1.1870934 -2.08973,-1.3669004 -2.08973,-0.4162784 0,1.2516554 1.59211,5.3406754 3.0440299,7.8180044 0.85727,1.462704 3.96357,5.589796 4.20722,5.589796 0.0556,0 -0.24349,-1.071637 -0.66469,-2.381416 z m 25.468019,-2.063635 c 1.54837,-2.270886 2.70133,-4.741032 3.41504,-7.316536 0.28254,-1.0196 0.51372,-1.9455084 0.51372,-2.0575734 0,-0.558927 -1.26175,-0.08365 -2.28713,0.8615154 -0.63563,0.585899 -1.50693,1.135519 -1.93622,1.221378 -0.69709,0.139418 -0.79791,0.287181 -0.943,1.382124 -0.33765,2.548028 -1.24253,6.732041 -1.85436,8.574246 l -0.63508,1.912188 1.20502,-1.322916 c 0.66277,-0.727604 1.79767,-2.192096 2.52201,-3.254426 z M 7.7857361,7.7304246 c -0.0877,-0.327422 -0.16116,-0.6846086 -0.16315,-0.7937496 -0.002,-0.109141 -0.1822,-0.198437 -0.40048,-0.198437 -0.26459,0 -0.39688,0.264583 -0.39688,0.7937486 0,0.631941 0.11416,0.79375 0.56003,0.79375 0.45164,0 0.52915,-0.115205 0.40048,-0.595312 z M 43.289155,7.4658416 c 0.066,-0.5739486 -0.0254,-0.7276036 -0.43299,-0.7276036 -0.37365,0 -0.54948,0.22327 -0.63507,0.8063896 -0.10214,0.695928 -0.0428,0.795598 0.43299,0.727604 0.37985,-0.05428 0.57739,-0.305118 0.63507,-0.80639 z M 15.937036,7.005333 c 6.06,-0.644857 16.714599,-0.502136 20.160259,0.270051 1.23906,0.2776786 1.83493,0.1476516 1.17956,-0.257393 -1.94639,-1.202933 -20.372659,-1.288552 -24.432359,-0.113526 -0.77328,0.223817 -0.53799,0.7037056 0.24827,0.5063656 0.39121,-0.09819 1.67113,-0.2806616 2.84427,-0.4054976 z M 38.310645,6.243475 c 0,-0.298733 -2.21717,-0.791969 -4.8948,-1.088908 -3.06924,-0.340368 -13.851369,-0.341331 -16.933329,-0.0015 -2.89352,0.319036 -4.89479,0.761586 -4.89479,1.082402 0,0.294803 -0.0974,0.300865 2.77812,-0.172944 5.42393,-0.893725 18.465389,-0.746151 22.300219,0.252344 1.24332,0.323732 1.64458,0.306314 1.64458,-0.07139 z M 15.821056,4.737306 c 5.5242,-0.7357065 16.998559,-0.4378301 21.899029,0.568502 0.72019,0.147896 0.83784,0.10771 0.7042,-0.240541 -0.37366,-0.9737589 -3.75493,-1.4862359 -11.093849,-1.681423 -8.75835,-0.2329386 -15.74271,0.509537 -15.74271,1.673535 0,0.320964 0.16529,0.373806 0.7276,0.232611 0.40019,-0.100483 1.97776,-0.349191 3.50573,-0.552684 z m -3.30729,-0.09584 c 0.29104,-0.116132 1.12448,-0.278818 1.85208,-0.3615232 l 1.32292,-0.1503735 -1.32292,0.3528957 c -0.7276,0.194092 -1.56104,0.356778 -1.85208,0.361523 l -0.52917,0.0086 z"
       id="path9247" />
  </g>
</svg>
