<?xml version="1.0" encoding="UTF-8" standalone="no"?>
<!-- Created with Inkscape (http://www.inkscape.org/) -->

<svg
   width="220mm"
   height="200mm"
   viewBox="0 0 220 200"
   version="1.1"
   id="svg1210"
   inkscape:version="1.1.2 (b8e25be833, 2022-02-05)"
   sodipodi:docname="sabers.svg"
   xmlns:inkscape="http://www.inkscape.org/namespaces/inkscape"
   xmlns:sodipodi="http://sodipodi.sourceforge.net/DTD/sodipodi-0.dtd"
   xmlns="http://www.w3.org/2000/svg"
   xmlns:svg="http://www.w3.org/2000/svg">
  <sodipodi:namedview
     id="namedview1212"
     pagecolor="#505050"
     bordercolor="#eeeeee"
     borderopacity="1"
     inkscape:pageshadow="0"
     inkscape:pageopacity="0"
     inkscape:pagecheckerboard="0"
     inkscape:document-units="mm"
     showgrid="false"
     inkscape:zoom="0.71090067"
     inkscape:cx="265.85993"
     inkscape:cy="467.71654"
     inkscape:window-width="1920"
     inkscape:window-height="991"
     inkscape:window-x="-9"
     inkscape:window-y="-9"
     inkscape:window-maximized="1"
     inkscape:current-layer="layer1" />
  <defs
     id="defs1207" />
  <g
     inkscape:label="Réteg 1"
     inkscape:groupmode="layer"
     id="layer1">
    <path
       style="fill:#5b2b08;fill-opacity:1;stroke:#5b2b08;stroke-width:2.3;stroke-miterlimit:4;stroke-dasharray:none;stroke-opacity:1"
       d="m 170.50725,190.86025 c -0.68526,-0.18008 -1.56124,-0.33819 -1.94662,-0.35134 -0.62977,-0.0215 -2.94822,-0.93178 -3.90925,-1.53486 -0.20557,-0.129 -0.60378,-0.33517 -0.8849,-0.45814 -0.28113,-0.12298 -1.00999,-0.56099 -1.61971,-0.97337 -3.04441,-2.05906 -5.67926,-5.57058 -7.60833,-10.13981 -1.18738,-2.81243 -2.07766,-7.77883 -2.09186,-11.66935 -0.007,-2.00132 0.67969,-7.30317 1.1033,-8.5147 0.19167,-0.54821 0.42607,-1.38921 0.52087,-1.86889 0.0948,-0.47968 0.31976,-1.15249 0.4999,-1.49512 0.18013,-0.34263 0.44884,-1.00792 0.59712,-1.47841 0.24464,-0.77623 0.20733,-0.92046 -0.40291,-1.55741 -0.36989,-0.38608 -0.84777,-0.70238 -1.06197,-0.7029 -0.2142,-4.9e-4 -0.7352,-0.21176 -1.15778,-0.46944 -0.42257,-0.25769 -1.11566,-0.54481 -1.54019,-0.63805 -0.42453,-0.0933 -0.90549,-0.33053 -1.06879,-0.5273 -0.16331,-0.19677 -0.46415,-0.35776 -0.66855,-0.35776 -0.2044,0 -0.77937,-0.20504 -1.27772,-0.45565 -0.49834,-0.2506 -1.41067,-0.68728 -2.02741,-0.97039 -1.89947,-0.87193 -12.22368,-6.03978 -14.25142,-7.13364 -2.13718,-1.15289 -6.35247,-3.53315 -6.92937,-3.91282 -0.20558,-0.1353 -0.73055,-0.41024 -1.16659,-0.61099 -0.43605,-0.20074 -0.86422,-0.48052 -0.95149,-0.62173 -0.0873,-0.1412 -0.51544,-0.423 -0.95149,-0.62622 -0.43604,-0.20321 -1.08329,-0.56595 -1.43832,-0.80608 -0.6948,-0.46993 -2.3101,-1.52015 -3.71524,-2.41555 -3.07748,-1.96106 -4.73911,-3.07911 -5.64993,-3.80163 -1.1781,-0.93454 -1.54102,-0.89549 -3.10515,0.33407 -0.49814,0.39159 -1.70333,1.21659 -2.67818,1.83332 -0.97485,0.61674 -2.6699,1.70188 -3.76678,2.41143 -1.09688,0.70956 -2.617445,1.66269 -3.379032,2.11808 -0.761589,0.4554 -1.7987,1.07948 -2.304694,1.38687 -0.505992,0.30739 -1.256387,0.73559 -1.667544,0.95157 -0.411156,0.21598 -1.196092,0.66451 -1.7443,0.99674 -0.548209,0.33223 -1.372655,0.77936 -1.832101,0.99362 -0.459449,0.21426 -0.96405,0.50137 -1.121336,0.63802 -0.330466,0.2871 -0.26414,0.25267 -7.21743,3.74625 -7.202548,3.61882 -12.429818,5.90951 -12.987034,6.17102 -0.557215,0.2615 -1.798055,0.81767 -2.75742,1.23593 -1.737518,0.7575 -1.744069,0.76406 -1.684394,1.68629 0.03295,0.5092 0.271159,1.33113 0.529363,1.8265 0.258201,0.49537 0.5522,1.28868 0.653335,1.76292 0.101134,0.47423 0.385328,1.53504 0.631544,2.35735 0.506014,1.69 0.996294,5.67532 0.996294,8.09854 0,2.48034 -0.495102,6.42757 -1.024275,8.16607 -0.261606,0.85945 -0.475646,1.71494 -0.475646,1.90108 0,0.35097 -1.095438,2.98186 -1.51481,3.63807 -0.131381,0.20558 -0.378245,0.65411 -0.548585,0.99674 -0.794896,1.59889 -1.912708,3.03433 -3.888866,4.99387 -1.633039,1.61932 -2.652772,2.38859 -4.264356,3.21698 -1.164944,0.59881 -2.45448,1.17533 -2.865637,1.28115 -0.411156,0.10582 -1.196091,0.3633 -1.7443,0.57217 -0.754692,0.28754 -2.08807,0.38242 -5.490724,0.3907 -3.873521,0.009 -4.689751,-0.0579 -5.911938,-0.48744 -0.779874,-0.2741 -1.698091,-0.49837 -2.04048,-0.49837 -0.342386,0 -1.102091,-0.21196 -1.688229,-0.47101 -0.586137,-0.25906 -1.738506,-0.71734 -2.560819,-1.0184 -1.325056,-0.48513 -5.633749,-2.53289 -6.977202,-3.316 -2.826038,-1.64733 -5.725699,-3.50807 -6.809749,-4.36987 -1.066399,-0.84777 -1.098708,-0.85554 -2.88525,-0.69364 -3.710593,0.33624 -6.423634,-0.87458 -8.0374866,-3.58711 -2.3948769,-4.02526 -1.1577318,-8.95965 2.8164356,-11.23344 1.267455,-0.72517 1.601559,-0.80216 3.547701,-0.81751 1.181661,-0.009 2.656573,0.0209 3.277581,0.067 1.086284,0.0808 1.246942,-0.005 4.236158,-2.25879 2.773286,-2.09112 5.255778,-3.85453 6.434716,-4.57084 0.225568,-0.13705 1.026858,-0.65015 1.780645,-1.14023 2.066816,-1.34374 2.804038,-1.80678 3.488601,-2.19116 1.432524,-0.80434 1.92485,-1.09569 2.990229,-1.76954 1.457954,-0.92216 10.007358,-5.24169 10.372996,-5.24089 0.154533,2.5e-4 0.41458,-0.16038 0.577884,-0.35715 0.163304,-0.19677 0.653602,-0.43352 1.089553,-0.5261 0.435948,-0.0926 0.960835,-0.31159 1.166413,-0.48666 0.205579,-0.17507 0.736865,-0.39547 1.180635,-0.48978 1.22437,-0.26019 2.920146,-1.23878 3.017406,-1.74126 0.04756,-0.24573 -0.169001,-0.79232 -0.48125,-1.21466 -0.817058,-1.10513 -0.824192,-3.02109 -0.0137,-3.67781 0.873309,-0.70761 2.050699,-0.61592 2.853708,0.22224 0.368271,0.38439 0.669584,0.80794 0.669584,0.94121 0,0.13327 0.333894,0.60788 0.741986,1.05468 0.72686,0.79581 0.757343,0.80443 1.495114,0.42292 0.414222,-0.21421 0.753129,-0.48072 0.753129,-0.59225 0,-0.11153 0.293277,-0.33641 0.651728,-0.49974 0.358452,-0.16332 2.447989,-1.49889 4.643418,-2.96793 2.195429,-1.46904 4.581811,-3.06345 5.303072,-3.54313 2.352663,-1.56467 4.222358,-2.84942 4.524935,-3.10928 0.163127,-0.1401 0.700351,-0.53506 1.193831,-0.87769 0.49348,-0.34263 1.425281,-1.01538 2.070667,-1.49499 0.645389,-0.47961 1.758447,-1.27039 2.47346,-1.75729 0.715017,-0.4869 1.668152,-1.18637 2.118079,-1.55438 1.099411,-0.89925 4.31302,-3.42076 7.003085,-5.49487 1.208933,-0.93212 2.387457,-1.88304 2.618943,-2.11315 0.231486,-0.23012 0.791264,-0.7071 1.243955,-1.05998 1.067607,-0.83219 0.907963,-1.50662 -0.665575,-2.81178 -2.540367,-2.1071 -7.741674,-7.36303 -12.497168,-12.62839 -0.205578,-0.22762 -0.77118,-0.851286 -1.256893,-1.385926 -0.485713,-0.53464 -1.423239,-1.68053 -2.08339,-2.546428 -0.66015,-0.8659 -1.480009,-1.8751 -1.821907,-2.24268 -0.3419,-0.36757 -1.000695,-1.2382 -1.463991,-1.93473 -0.463296,-0.69653 -1.068207,-1.47081 -1.344245,-1.72062 -0.276041,-0.24982 -0.50189,-0.55073 -0.50189,-0.6687 0,-0.117972 -0.476568,-0.875171 -1.05904,-1.682667 -1.504661,-2.085949 -2.957765,-4.302133 -4.212057,-6.423962 -0.226587,-0.383306 -1.107608,-1.874321 -1.957828,-3.313369 -0.850217,-1.439048 -1.932675,-3.401386 -2.405457,-4.360752 -0.472783,-0.959365 -0.959891,-1.912501 -1.082466,-2.118079 -0.207173,-0.347469 -1.292277,-2.652229 -2.837725,-6.027323 -0.356959,-0.779566 -0.649757,-1.564501 -0.650659,-1.744301 -9.02e-4,-0.179802 -0.224432,-0.663315 -0.496729,-1.074471 -0.272298,-0.411157 -0.496565,-0.971825 -0.498372,-1.245929 -0.0017,-0.274105 -0.226074,-0.834773 -0.498371,-1.245929 -0.272298,-0.411157 -0.495828,-0.954878 -0.49673,-1.20827 -9.97e-4,-0.253392 -0.163929,-0.81406 -0.362284,-1.245929 -0.635857,-1.384444 -1.797863,-4.890954 -2.531057,-7.637826 -0.201202,-0.753787 -0.515199,-1.650856 -0.697772,-1.993486 -0.182574,-0.342631 -0.405672,-1.204447 -0.495773,-1.915148 -0.0901,-0.7107 -0.328429,-1.607769 -0.529612,-1.993486 -0.201185,-0.385717 -0.36648,-0.961229 -0.367325,-1.278916 -7.47e-4,-0.31769 -0.274433,-1.775427 -0.607973,-3.239416 -1.236923,-5.429078 -2.014256,-10.136798 -2.517352,-15.245635 -0.195696,-1.987256 -0.465793,-4.173862 -0.600216,-4.859123 -0.134424,-0.685261 -0.320104,-3.178156 -0.412625,-5.539768 -0.130693,-3.336037 -0.09663,-4.380097 0.152711,-4.6805341 0.286335,-0.345012 0.384217,-0.32724 0.908041,0.1648681 0.322912,0.303359 0.930574,1.160145 1.350363,1.903968 0.800992,1.419279 1.396818,2.244804 4.488673,6.21911 2.646731,3.402136 6.205388,6.991259 9.081005,9.158744 0.363657,0.274105 0.847062,0.673726 1.074232,0.888049 0.588575,0.55528 4.995241,3.472703 5.245401,3.472703 0.114807,0 0.476161,0.209717 0.803011,0.466039 1.227718,0.962797 6.567373,3.465357 8.240128,3.861937 0.367758,0.08719 0.732927,0.361037 0.811486,0.608551 0.07856,0.247514 0.24942,2.51796 0.379696,5.045434 0.130277,2.527474 0.343398,4.950831 0.473603,5.385239 0.130207,0.434408 0.316436,1.667878 0.41384,2.741044 0.09741,1.073166 0.329087,2.322167 0.514848,2.775556 0.18576,0.453391 0.407556,1.406527 0.492877,2.118079 0.08532,0.711555 0.368653,1.886643 0.629625,2.611308 0.260972,0.724665 0.474495,1.548722 0.474495,1.831234 0,0.282514 0.156127,0.867009 0.346946,1.298878 0.190821,0.431869 0.514322,1.289818 0.718891,1.906553 0.785003,2.36664 1.646191,4.623872 2.424291,6.354238 0.246515,0.548209 0.570471,1.277077 0.719903,1.619708 0.149434,0.34263 0.372662,0.791165 0.496066,0.996743 0.123405,0.205578 0.809849,1.551181 1.525434,2.990229 0.715581,1.439048 1.791658,3.401386 2.391278,4.360752 0.599619,0.959365 1.163815,1.912501 1.253769,2.118079 0.259385,0.592793 4.481783,6.808511 5.670691,8.347724 1.757142,2.274872 3.900042,4.928932 4.742402,5.873632 0.55864,0.6265 1.64918,1.859978 2.42342,2.741038 2.6047,2.964106 3.37291,3.720026 3.7805,3.720026 0.35724,0 1.80755,-1.39942 4.39022,-4.236156 0.43672,-0.47968 1.68698,-1.967938 2.77834,-3.307228 1.09137,-1.3393 2.19645,-2.6849 2.45575,-2.99023 1.23757,-1.457298 2.9704,-3.860687 5.1613,-7.158577 1.32019,-1.987256 2.58795,-3.893528 2.81724,-4.236158 0.22928,-0.34263 0.49875,-0.791165 0.59882,-0.996743 0.10007,-0.205578 0.45203,-0.822313 0.78213,-1.370522 0.33009,-0.548209 1.05558,-1.893812 1.61219,-2.99023 0.55661,-1.096417 1.10563,-2.161686 1.22005,-2.367265 0.20498,-0.368299 0.82845,-1.72446 1.74701,-3.800083 0.25777,-0.582472 0.7063,-1.594674 0.99674,-2.249338 0.29044,-0.654663 0.52807,-1.31052 0.52807,-1.457455 0,-0.146938 0.16336,-0.620505 0.36301,-1.052374 0.57141,-1.235984 1.87966,-5.349107 1.87966,-5.909608 0,-0.278871 0.15392,-0.809836 0.34204,-1.179925 0.18811,-0.370088 0.42394,-1.345571 0.52405,-2.167742 0.10011,-0.822171 0.32472,-1.775306 0.49912,-2.118079 0.17441,-0.342772 0.39265,-1.520292 0.48497,-2.61671 0.0923,-1.096417 0.32362,-2.778421 0.51397,-3.737787 0.19037,-0.959365 0.41383,-3.426304 0.49658,-5.482087 0.0979,-2.433222 0.25552,-3.830965 0.45147,-4.00476 0.16555,-0.146833 0.8056,-0.474123 1.42233,-0.727311 2.01205,-0.826001 6.20682,-2.878749 6.34735,-3.106133 0.0755,-0.122096 1.93549,-1.166703 2.31302,-1.331402 1.55123,-0.676724 5.81181,-3.803079 8.37632,-6.146422 0.81666,-0.746234 2.4152,-2.376296 4.78838,-4.882788 1.71977,-1.816384 4.17123,-5.20414 7.42954,-10.2671101 0.2877,-0.447049 0.69129,-0.782074 0.89687,-0.744501 0.30499,0.05574 0.38667,0.659411 0.4438,3.2801241 0.0385,1.766495 -0.0488,4.007792 -0.19405,4.98066 -0.14524,0.972868 -0.37568,2.890186 -0.51208,4.260708 -0.66754,6.707344 -1.20903,10.215673 -2.59609,16.820041 -0.21588,1.027892 -0.54617,2.666921 -0.73399,3.642289 -0.18782,0.975366 -0.4545,1.984568 -0.59262,2.242672 -0.13812,0.258102 -0.33282,1.029945 -0.43267,1.715206 -0.0999,0.685261 -0.32155,1.526263 -0.49266,1.868893 -0.17111,0.342631 -0.44007,1.232052 -0.59769,1.976492 -0.15762,0.744438 -0.38257,1.473306 -0.49991,1.619708 -0.11733,0.146399 -0.33215,0.770781 -0.47739,1.387516 -0.26469,1.123995 -1.11113,3.675658 -1.52922,4.609937 -0.12266,0.274105 -0.35524,0.929713 -0.51684,1.456908 -0.16161,0.527194 -0.44906,1.256063 -0.6388,1.619707 -0.18973,0.363645 -0.34565,0.798339 -0.3465,0.965989 -7.5e-4,0.16765 -0.23917,0.840451 -0.5296,1.495115 -0.29044,0.654663 -0.72366,1.638832 -0.96272,2.187041 -1.26081,2.891348 -4.63467,9.795347 -5.56776,11.39343 -0.29789,0.510193 -1.20553,2.080063 -2.01697,3.488601 -0.81144,1.408535 -1.55155,2.617041 -1.6447,2.685568 -0.0931,0.06853 -0.3138,0.404926 -0.49034,0.747557 -0.42544,0.825657 -2.89281,4.556557 -3.98978,6.032905 -4.66972,6.284743 -5.23576,7.027643 -5.56101,7.298533 -0.16455,0.137058 -1.08064,1.202328 -2.03576,2.367268 -0.95512,1.164936 -2.13154,2.554906 -2.61428,3.088806 -1.51342,1.67382 -8.51852,8.65462 -10.83035,10.79278 -2.51448,2.32558 -2.5067,2.1149 -0.14436,3.91148 1.52957,1.16324 2.20831,1.71821 3.15091,2.57632 0.33779,0.30752 1.47818,1.19699 2.5342,1.97661 1.05602,0.77963 2.58191,1.96712 3.39087,2.63888 0.80896,0.67177 1.87423,1.49092 2.36726,1.82034 0.49304,0.32942 1.73743,1.2174 2.76532,1.97327 1.02789,0.75588 2.59776,1.88152 3.4886,2.50142 0.89084,0.61991 2.57285,1.8016 3.73779,2.62599 2.01268,1.42431 3.6304,2.5333 4.51201,3.09311 0.22024,0.13985 0.89305,0.58839 1.49511,0.99674 0.60207,0.40836 1.28103,0.85689 1.5088,0.99674 0.22777,0.13986 0.93423,0.61872 1.56991,1.06414 0.63567,0.44541 1.2449,0.80985 1.35384,0.80985 0.10894,0 0.40103,0.22427 0.6491,0.49837 0.24806,0.2741 0.58671,0.49837 0.75257,0.49837 0.16585,0 0.60333,0.23738 0.97218,0.52751 l 0.67062,0.52751 0.67121,-0.76356 c 0.36916,-0.41997 0.84712,-1.07785 1.06213,-1.46196 0.79482,-1.41993 2.38172,-1.66353 3.50691,-0.53834 0.67082,0.67082 0.53188,2.30644 -0.29451,3.46699 -0.52405,0.73597 -0.54311,0.86301 -0.21674,1.44448 0.23861,0.42511 0.70631,0.72426 1.4037,0.89783 0.57522,0.14316 1.18485,0.40046 1.35474,0.57178 0.16989,0.17131 0.47532,0.31148 0.67875,0.31148 0.46402,0 1.51793,0.48707 7.20238,3.32865 5.31607,2.65743 6.0712,3.05039 6.40708,3.33421 0.13705,0.11582 1.31445,0.81536 2.61645,1.55455 1.30199,0.73919 2.42333,1.4197 2.49186,1.51223 0.0685,0.0925 0.46099,0.35551 0.87215,0.58438 1.75916,0.97923 5.72617,3.74496 9.7337,6.78617 2.27357,1.72535 2.85968,1.98374 3.60046,1.58728 0.28596,-0.15304 1.38635,-0.27635 2.44532,-0.27402 2.61559,0.006 4.19126,0.71067 6.05369,2.7083 1.241,1.33108 1.44174,1.69971 1.83505,3.36988 0.2429,1.03141 0.37943,2.19419 0.30342,2.58394 -0.50419,2.58497 -0.73251,3.06902 -2.20625,4.67735 -0.8255,0.90089 -1.6328,1.63797 -1.794,1.63797 -0.1612,0 -0.71153,0.22427 -1.22295,0.49838 -0.75483,0.40456 -1.40593,0.49837 -3.45912,0.49837 -2.51428,0 -2.53734,0.006 -3.89222,0.93444 -0.74963,0.51395 -1.5358,1.04658 -1.74704,1.18364 -0.21125,0.13705 -1.09678,0.71679 -1.96785,1.28831 -0.87108,0.57152 -2.50739,1.50525 -3.63625,2.07495 -1.12886,0.5697 -2.22068,1.12944 -2.42626,1.24387 -2.23647,1.24487 -7.92869,3.17058 -11.08876,3.75138 -2.46057,0.45224 -6.9573,0.51343 -8.47232,0.11529 z m 11.21336,-2.10338 c 3.65793,-1.09167 6.16248,-2.03729 7.35098,-2.77546 0.20558,-0.12768 0.65411,-0.34394 0.99674,-0.48059 0.34263,-0.13664 0.79117,-0.35748 0.99675,-0.49076 0.20557,-0.13327 0.9076,-0.52178 1.56004,-0.86334 1.96363,-1.02797 3.54323,-1.9791 3.63109,-2.18639 0.0456,-0.10748 0.80245,-0.59785 1.682,-1.08973 1.97401,-1.10393 2.08556,-1.65923 0.60244,-2.99914 -0.54821,-0.49527 -0.99674,-1.05843 -0.99674,-1.25145 0,-0.92296 -1.82247,-0.80389 -4.36075,0.2849 -0.41116,0.17636 -1.14003,0.40206 -1.61971,0.50155 -0.47968,0.0995 -1.15249,0.32232 -1.49512,0.49519 -0.34263,0.17286 -1.10335,0.39413 -1.6905,0.4917 -0.58715,0.0976 -1.37208,0.32345 -1.7443,0.50195 -0.37222,0.17851 -1.34956,0.40075 -2.17188,0.49387 -0.82231,0.0931 -1.99971,0.34311 -2.61645,0.55555 -1.64097,0.56523 -10.96084,0.59727 -12.2101,0.042 -0.47968,-0.21322 -1.29825,-0.46747 -1.81904,-0.565 -1.86747,-0.34971 -4.64206,-2.10759 -6.34852,-4.0222 -1.87299,-2.10144 -2.98322,-4.57213 -3.56012,-7.92261 -0.59946,-3.48152 -0.59943,-4.89271 2e-4,-9.26146 0.58423,-4.25652 1.2679,-6.9513 2.16341,-8.52738 0.37215,-0.65497 0.88378,-1.58333 1.13695,-2.06301 0.505,-0.95682 0.68263,-1.25462 1.88332,-3.15748 0.44721,-0.70872 0.88812,-1.49366 0.97982,-1.7443 0.0917,-0.25064 0.3719,-0.72314 0.62268,-1.04999 0.46887,-0.6111 0.60076,-1.4049 0.26765,-1.61077 -0.49823,-0.30792 -1.51286,0.18616 -1.88739,0.91907 -0.56806,1.11164 -2.39493,4.29938 -4.02154,7.01725 -0.32809,0.54821 -0.77019,1.33314 -0.98243,1.7443 -0.21224,0.41115 -0.49602,0.91576 -0.63062,1.12133 -0.4493,0.68621 -1.50959,3.15821 -1.50959,3.5195 0,0.19612 -0.15414,0.57777 -0.34254,0.84811 -0.1884,0.27033 -0.42533,0.9847 -0.52651,1.58747 -0.10119,0.60278 -0.36539,1.49985 -0.58712,1.99349 -0.59557,1.32593 -0.59557,12.43005 0,13.75598 0.22173,0.49364 0.48265,1.39071 0.57983,1.99348 0.0972,0.60278 0.3341,1.34432 0.52651,1.64786 0.19241,0.30355 0.35335,0.69602 0.35765,0.87215 0.0199,0.81381 1.80863,3.91013 3.34487,5.78991 2.02068,2.47257 5.44551,5.07209 7.27702,5.52342 0.38953,0.096 0.95404,0.33362 1.25446,0.52808 0.85068,0.55061 3.59507,0.79388 7.67692,0.68048 3.24052,-0.09 4.06929,-0.20277 6.22964,-0.8475 z m -130.947123,-0.011 c 1.164944,-0.29645 2.366435,-0.69923 2.669981,-0.89508 0.303546,-0.19585 0.68779,-0.35608 0.853877,-0.35608 0.535182,0 3.789247,-2.32315 5.073052,-3.62176 1.08791,-1.10045 2.861948,-3.56317 3.805047,-5.28215 0.866511,-1.57939 2.12444,-5.49122 2.545599,-7.91614 0.280863,-1.61712 0.279933,-9.10546 -0.0012,-10.71498 -0.348356,-1.99348 -1.014866,-4.40356 -1.520606,-5.49847 -0.257461,-0.55722 -0.468043,-1.15665 -0.468043,-1.33207 0,-0.17543 -0.167433,-0.61659 -0.372072,-0.98037 -0.204639,-0.36378 -0.487637,-0.94175 -0.62888,-1.28438 -0.141246,-0.34263 -0.50645,-1.0384 -0.811563,-1.54616 -2.700671,-4.49437 -3.387928,-5.68234 -4.558313,-7.87943 -0.388807,-0.72988 -1.019888,-1.54991 -1.4024,-1.82228 l -0.695481,-0.49523 -0.290528,0.63764 c -0.23418,0.51397 -0.218326,0.72241 0.08175,1.07472 0.204751,0.2404 0.516482,0.80153 0.692734,1.24694 0.176249,0.44542 0.411428,0.80986 0.522617,0.80986 0.111189,0 0.270593,0.2156 0.35423,0.47912 0.08363,0.26351 0.756137,1.46895 1.494449,2.67874 2.004456,3.2845 2.551105,4.39716 2.75004,5.59744 0.09914,0.59814 0.2852,1.28731 0.413479,1.53149 0.328885,0.62603 1.204008,7.38861 1.204008,9.30407 0,2.33687 -0.679099,6.21264 -1.413776,8.06876 -1.19273,3.01337 -3.32872,5.58396 -5.608815,6.75003 -0.504646,0.25808 -0.987832,0.58297 -1.073747,0.72198 -0.08591,0.13902 -0.347482,0.25275 -0.581265,0.25275 -0.233781,0 -0.822777,0.21316 -1.308876,0.4737 -1.16372,0.62372 -4.698403,1.12486 -7.954897,1.12784 -2.84542,0.003 -8.593536,-0.63725 -9.363472,-1.04229 -0.263651,-0.13871 -0.983968,-0.33014 -1.600703,-0.42543 -1.051185,-0.1624 -3.410301,-0.81827 -5.108308,-1.42019 -0.411157,-0.14575 -1.26677,-0.41072 -1.901362,-0.58883 -0.634593,-0.1781 -1.50266,-0.50422 -1.92904,-0.72471 -0.940218,-0.48621 -1.931284,-0.29394 -2.310325,0.4482 -0.149444,0.2926 -0.735188,1.01427 -1.301653,1.6037 l -1.029937,1.0717 0.622965,0.49224 c 3.681607,2.90909 12.066644,7.41541 15.07574,8.10208 0.411156,0.0938 0.888972,0.28202 1.061815,0.41823 0.318594,0.25105 3.885865,1.08584 6.164572,1.44259 1.975518,0.30928 5.546278,0.0783 7.849352,-0.50779 z m 128.081483,-9.73962 c 0.61674,-0.13399 2.18661,-0.39641 3.4886,-0.58315 1.302,-0.18674 2.92794,-0.50702 3.6132,-0.71174 0.68526,-0.20472 1.75053,-0.50304 2.36726,-0.66294 2.46134,-0.63813 3.71613,-1.03467 4.39585,-1.38917 0.39186,-0.20437 0.94794,-0.37227 1.23574,-0.37311 0.28781,-7.5e-4 0.99008,-0.33969 1.56061,-0.75298 1.01202,-0.7331 1.02764,-0.76624 0.63995,-1.35793 -0.21857,-0.33357 -0.80871,-0.74025 -1.31143,-0.90373 -0.50272,-0.16347 -1.13522,-0.44947 -1.40556,-0.63555 -0.27033,-0.18608 -0.64171,-0.33832 -0.82528,-0.33832 -0.33464,0 -1.34297,-0.43792 -5.28662,-2.29597 -5.34102,-2.51642 -11.68993,-5.89254 -12.41479,-6.60174 -0.18111,-0.17719 -0.42989,-0.32217 -0.55285,-0.32217 -0.12296,0 -0.89988,-0.44853 -1.7265,-0.99674 -0.82661,-0.54821 -2.17926,-1.44528 -3.00587,-1.99348 -0.82662,-0.54821 -1.55027,-0.99675 -1.60811,-0.99675 -0.12147,0 -5.13379,-3.76165 -6.20436,-4.65625 -0.39516,-0.33022 -0.88843,-0.56702 -1.09614,-0.52622 -0.64868,0.12739 -1.28993,2.66563 -1.66653,6.59661 -0.31352,3.27256 -0.31511,4.18376 -0.0118,6.77149 0.19274,1.64454 0.45674,3.19479 0.58666,3.44498 0.12992,0.2502 0.58075,1.14984 1.00184,1.99922 0.82957,1.67334 1.25298,2.27239 2.40286,3.39966 1.37135,1.34439 4.58941,3.13679 5.69372,3.17132 0.29476,0.009 1.2648,0.22193 2.15564,0.47271 1.82388,0.51344 6.1238,0.64391 7.97394,0.24195 z m 27.22256,-0.27146 c 1.90029,-0.65455 2.93593,-1.41265 3.99271,-2.92272 0.77153,-1.10246 0.80487,-1.24916 0.79951,-3.5177 -0.005,-2.13128 -0.0713,-2.46915 -0.66508,-3.38938 -1.07407,-1.66468 -3.24499,-3.09231 -5.28398,-3.47483 -1.24428,-0.23343 -3.85335,0.71479 -4.9813,1.81036 -0.47727,0.46357 -1.18307,1.36983 -1.56844,2.01391 -0.605,1.01114 -0.69952,1.42625 -0.69218,3.03994 0.007,1.44423 0.13321,2.09751 0.55734,2.87498 0.89018,1.63179 2.38474,2.90831 4.11068,3.51098 1.976,0.68998 1.88935,0.68872 3.73074,0.0545 z M 18.845248,177.57558 c 1.521617,-0.87891 2.247337,-1.67162 2.964512,-3.23814 0.522812,-1.14197 0.60033,-1.61075 0.497105,-3.00621 -0.179741,-2.42985 -1.269361,-4.17161 -3.414013,-5.4573 -1.013588,-0.60763 -1.378991,-0.6813 -3.379153,-0.6813 -2.129694,0 -2.302056,0.0412 -3.421513,0.81853 -1.790981,1.24356 -2.8665109,2.80093 -3.0724022,4.44882 -0.3973755,3.18049 0.6513868,5.49636 3.2545012,7.18656 1.535352,0.9969 4.782962,0.96183 6.570963,-0.071 z m 32.675797,0.12236 c 0.890839,-0.308 1.787389,-0.66863 1.992332,-0.80139 0.204945,-0.13276 0.623034,-0.35351 0.929087,-0.49056 0.860177,-0.38519 3.190368,-2.40604 3.735297,-3.23942 1.158006,-1.77098 1.450089,-2.31092 1.887149,-3.4886 0.978288,-2.63603 1.261897,-7.18427 0.74593,-11.96247 -0.25105,-2.32489 -0.892197,-4.95408 -1.327482,-5.44369 -0.103829,-0.11679 -1.278171,0.61208 -2.609648,1.61971 -1.33148,1.00763 -2.940358,2.18782 -3.575286,2.62266 -0.634927,0.43484 -1.266549,0.88337 -1.403601,0.99674 -0.259315,0.21451 -1.860256,1.2665 -3.364008,2.21051 -2.378416,1.49309 -3.680992,2.31254 -4.360751,2.74333 -0.966778,0.61269 -3.538281,1.99023 -6.977202,3.73766 -1.507574,0.76604 -2.909244,1.48906 -3.114822,1.60669 -0.205578,0.11764 -0.934447,0.45839 -1.619708,0.75721 -0.68526,0.29883 -1.806597,0.79702 -2.491857,1.1071 -0.685261,0.31007 -1.862664,0.81273 -2.616451,1.11701 -2.696051,1.08832 -3.607804,1.67177 -3.69258,2.36299 -0.06702,0.54642 0.06887,0.70706 0.87215,1.03104 0.523345,0.21107 1.304884,0.54497 1.736753,0.74198 0.431869,0.19702 0.992537,0.36202 1.245929,0.36667 0.253392,0.005 0.909247,0.22511 1.457455,0.48991 0.548209,0.26481 1.244893,0.48527 1.548187,0.48992 0.303294,0.005 1.120414,0.23272 1.815822,0.50683 0.695407,0.2741 1.578806,0.49837 1.963108,0.49837 0.384301,0 1.249185,0.17747 1.921964,0.39438 1.807489,0.58275 5.202018,0.82757 9.695553,0.69926 3.285145,-0.0938 4.27209,-0.21242 5.60668,-0.67384 z m 145.055555,-7.5216 c 0.0944,-0.41115 0.31763,-1.10771 0.49596,-1.5479 0.34783,-0.85856 0.0964,-1.47632 -0.30728,-0.75499 -0.13359,0.2387 -0.37748,0.43856 -0.54198,0.44413 -0.16451,0.006 -0.67771,0.33393 -1.14045,0.7297 -0.69361,0.59322 -0.81247,0.83465 -0.67686,1.37493 0.14539,0.57931 0.27092,0.64645 1.08169,0.57853 0.78941,-0.0661 0.94113,-0.18099 1.08892,-0.8244 z M 25.565972,169.92707 c 0.275686,-0.2575 0.177069,-0.46895 -0.564617,-1.21063 -0.494255,-0.49426 -1.233269,-1.07169 -1.642253,-1.28318 -0.675469,-0.3493 -0.743608,-0.34807 -0.743608,0.0134 0,0.21889 0.1682,0.56618 0.373779,0.77176 0.205578,0.20557 0.373778,0.67974 0.373778,1.05369 0,0.37396 0.131769,0.8117 0.29282,0.97274 0.332041,0.33205 1.405579,0.15342 1.910101,-0.31782 z m 167.029468,-0.64174 c 0.27546,-0.14743 0.69456,-0.45579 0.93133,-0.68526 0.23677,-0.22947 1.29355,-1.11948 2.3484,-1.97781 1.05486,-0.85833 1.91792,-1.71536 1.91792,-1.90453 0,-0.41345 -0.67797,-0.71455 -1.08152,-0.48032 -0.36981,0.21464 -2.55523,1.98929 -3.52841,2.86521 -0.41116,0.37006 -1.02426,0.89182 -1.36245,1.15946 -0.52828,0.41809 -0.56785,0.54329 -0.28096,0.88896 0.39566,0.47674 0.41194,0.47881 1.05569,0.13429 z M 28.402727,168.91599 c 0.370499,-0.3705 -0.271768,-1.22297 -1.890099,-2.5087 -0.97848,-0.77739 -1.891188,-1.53845 -2.028241,-1.69125 -0.366256,-0.40835 -1.561903,-1.14312 -1.860126,-1.14312 -0.141874,0 -0.257953,0.3364 -0.257953,0.74756 0,0.41115 0.106357,0.74755 0.236348,0.74755 0.129991,0 0.550492,0.29377 0.934446,0.65283 0.383955,0.35905 1.090567,0.94711 1.57025,1.30681 0.479683,0.35969 0.940164,0.74734 1.023292,0.86145 0.225026,0.30889 1.55269,1.12672 1.86311,1.14767 0.148473,0.01 0.332511,-0.0443 0.408973,-0.1208 z m 163.836703,-2.76525 c 3.26733,-2.62152 2.97253,-2.34295 3.16905,-2.99459 0.13399,-0.44427 -0.0426,-0.68301 -0.98475,-1.33122 -1.37803,-0.9481 -1.81578,-0.88385 -3.32685,0.48831 -0.59925,0.54415 -1.91682,1.66836 -2.92794,2.49823 -1.01111,0.82987 -1.83794,1.6476 -1.83738,1.81716 0.001,0.36203 2.17199,1.66128 2.79305,1.67168 0.23474,0.004 1.63641,-0.96338 3.11482,-2.14957 z M 32.296885,167.1883 c 0.813816,-0.29647 1.271423,-0.7431 1.278784,-1.24812 0.002,-0.13705 -0.921387,-0.9974 -2.051965,-1.91188 -1.130581,-0.91449 -2.279868,-1.87067 -2.553973,-2.12485 -0.274104,-0.25419 -0.876608,-0.72887 -1.338897,-1.05486 -0.759373,-0.53548 -0.862819,-0.55287 -1.071422,-0.18012 -0.126992,0.22693 -0.359355,0.41259 -0.51636,0.41259 -0.693226,0 -2.173949,1.97835 -1.496368,1.99925 0.102789,0.003 1.027891,0.73996 2.055783,1.63731 2.438546,2.12884 3.990371,3.14813 4.475583,2.93971 0.210946,-0.0906 0.759421,-0.30168 1.218835,-0.46903 z M 185.1681,165.45362 c 0.49532,-0.33613 1.31371,-0.9809 1.81864,-1.43281 1.58999,-1.42305 2.0425,-1.79853 3.08297,-2.5582 0.55728,-0.40688 1.07875,-1.0008 1.15882,-1.31983 0.39415,-1.57042 -0.72526,-0.97188 -4.90608,2.62326 -0.20112,0.17295 -0.81422,0.659 -1.36243,1.0801 -0.99829,0.76684 -1.49379,1.56839 -1.2317,1.99246 0.21352,0.34549 0.46083,0.27936 1.43978,-0.38498 z M 36.22876,164.94824 c 0.08635,-0.22503 -0.170441,-0.63154 -0.658234,-1.04199 -0.439903,-0.37016 -0.949533,-0.82272 -1.13251,-1.0057 -0.182977,-0.18297 -0.864971,-0.73898 -1.515545,-1.23558 -1.719247,-1.31233 -1.82415,-1.39897 -2.46535,-2.03612 -0.602252,-0.59846 -1.614861,-0.66792 -1.794159,-0.12308 -0.05314,0.16148 0.947278,1.15485 2.223153,2.20747 1.275876,1.05263 2.686153,2.23023 3.133949,2.61689 0.717476,0.61953 1.177722,0.85506 1.872392,0.95818 0.107093,0.0159 0.258428,-0.13713 0.336304,-0.34007 z m 147.39785,-1.6868 c 0.87757,-0.71953 1.76086,-1.44777 1.96287,-1.61833 0.20201,-0.17056 1.06434,-0.88584 1.91629,-1.58952 1.21073,-1.00002 1.50146,-1.36823 1.3313,-1.68617 -0.36571,-0.68334 -1.15001,-1.2764 -2.01668,-1.52496 -0.74836,-0.21463 -0.93013,-0.15046 -1.96257,0.69281 -0.6258,0.51113 -1.32206,1.09754 -1.54725,1.30312 -0.22519,0.20558 -0.67505,0.57479 -0.9997,0.82047 -0.32464,0.24568 -0.92666,0.73028 -1.33782,1.07688 -0.41115,0.3466 -1.11609,0.91893 -1.56653,1.27185 l -0.81898,0.64165 0.81898,0.70602 c 0.67871,0.58509 1.70729,1.08159 2.4693,1.19193 0.0854,0.0124 0.87321,-0.56623 1.75079,-1.28575 z m -143.856688,0.12459 c 1.829993,-1.05479 1.80926,-1.08716 -3.363106,-5.25148 -1.39169,-1.12046 -2.666679,-2.0372 -2.83331,-2.0372 -0.166628,0 -0.789981,0.30836 -1.385229,0.68526 -1.047776,0.66342 -1.291353,1.12342 -0.909762,1.71814 0.333545,0.51983 6.655807,5.55841 6.982213,5.56453 0.176169,0.003 0.855308,-0.30236 1.509194,-0.67925 z m 138.748878,-2.4161 c 0.80163,-0.60932 1.88086,-1.47836 2.3983,-1.93119 0.51743,-0.45282 1.23623,-1.04758 1.59733,-1.32169 1.12018,-0.85031 2.07182,-1.81798 2.07182,-2.10673 0,-0.15189 -0.17123,-0.34188 -0.3805,-0.42218 -0.4199,-0.16113 -1.67592,0.63581 -3.28396,2.08367 -0.5764,0.51899 -1.33995,1.16055 -1.69678,1.42569 -0.35682,0.26514 -0.95049,0.74157 -1.31926,1.05874 -0.36877,0.31716 -0.75736,0.57679 -0.86354,0.57696 -0.27044,5e-4 -0.71287,1.23917 -0.54158,1.51633 0.23836,0.38568 0.50845,0.26796 2.01817,-0.8796 z m -135.063652,-0.009 c 0.08697,-0.22664 -0.177842,-0.63517 -0.686472,-1.05904 -0.455432,-0.37953 -1.003334,-0.85825 -1.217554,-1.06383 -0.214223,-0.20558 -1.193339,-0.98064 -2.175813,-1.72236 -0.982478,-0.74172 -1.843895,-1.49862 -1.914266,-1.682 -0.07037,-0.18339 -0.262803,-0.33343 -0.427627,-0.33343 -0.164827,0 -0.499451,-0.18078 -0.743611,-0.40175 -0.414019,-0.37468 -0.455244,-0.35666 -0.611883,0.26743 -0.09237,0.36805 -0.06964,0.75457 0.05053,0.85893 0.120165,0.10437 1.451951,1.18786 2.959525,2.40776 1.507574,1.2199 2.853177,2.34687 2.990229,2.50438 0.53713,0.61731 1.575759,0.74818 1.776942,0.22392 z m 133.130292,-1.80308 c 0.76856,-0.64643 1.63912,-1.40333 1.93458,-1.682 0.29546,-0.27868 0.68792,-0.62187 0.87215,-0.76265 0.18422,-0.14078 0.83955,-0.64422 1.45629,-1.11875 0.61673,-0.47454 1.15251,-0.87644 1.1906,-0.89311 0.0381,-0.0167 -0.0348,-0.30415 -0.16208,-0.63881 -0.20371,-0.5358 -1.24529,-1.16546 -2.52364,-1.5256 -0.37316,-0.10513 -1.28169,0.53059 -3.0591,2.14052 -0.51757,0.4688 -1.53656,1.28835 -2.26444,1.82122 -0.72787,0.53288 -1.52824,1.23861 -1.7786,1.56831 -0.45257,0.59599 -0.44995,0.60423 0.45418,1.43281 1.31202,1.20238 2.12962,1.13033 3.88006,-0.34194 z m -130.048111,0.31158 c 0.205578,-0.16854 0.570012,-0.37603 0.809854,-0.46108 0.706162,-0.25043 0.558826,-1.48054 -0.249186,-2.08047 -0.691264,-0.51324 -4.584684,-3.77373 -5.316102,-4.45189 -0.588848,-0.54598 -1.625499,-0.44433 -2.862656,0.2807 -0.606877,0.35565 -1.100918,0.72008 -1.09787,0.80985 0.014,0.41247 1.108951,1.44589 4.106023,3.87529 3.314699,2.68686 3.634305,2.82743 4.609937,2.0276 z m 127.497321,-4.67935 c 1.67069,-1.35835 3.10269,-2.6393 3.18222,-2.84656 0.18009,-0.46929 -0.0279,-0.83022 -0.47836,-0.83022 -0.29019,0 -3.40838,2.30701 -4.61155,3.41189 -0.20558,0.18878 -0.89444,0.73747 -1.53079,1.21931 -0.85706,0.64895 -1.12424,1.00139 -1.0306,1.35946 0.21917,0.83811 1.24654,0.30619 4.46908,-2.31388 z m -123.612806,2.01868 c 0.193497,-0.31309 -1.013643,-1.50964 -4.093836,-4.05795 -2.206535,-1.82551 -3.214973,-2.34423 -3.436269,-1.76754 -0.07656,0.19953 -0.100597,0.46893 -0.05341,0.59867 0.04719,0.12974 1.375339,1.26512 2.951439,2.52305 1.5761,1.25794 2.955308,2.44502 3.064907,2.63797 0.239244,0.42117 1.319501,0.46653 1.567165,0.0658 z m 119.678586,-2.30478 c 1.08525,-0.87617 2.1854,-1.80525 2.44478,-2.06463 0.25938,-0.25938 0.89127,-0.7917 1.4042,-1.18293 0.90542,-0.6906 0.9197,-0.7258 0.48953,-1.20708 -0.2437,-0.27266 -0.92789,-0.70502 -1.52041,-0.9608 -1.23262,-0.5321 -1.61954,-0.41549 -2.98326,0.89908 -0.45165,0.43537 -1.6509,1.39938 -2.66502,2.14226 -2.26543,1.65951 -2.40671,2.23659 -0.80196,3.27567 0.5768,0.37348 1.18603,0.68185 1.35385,0.68526 0.16781,0.003 1.19304,-0.71066 2.27829,-1.58683 z m -115.962935,-0.28353 0.747558,-0.63911 -1.121336,-1.01452 c -1.549866,-1.40224 -5.038315,-4.20915 -5.435624,-4.37368 -0.180025,-0.0746 -0.93978,0.17434 -1.688349,0.55308 -1.151749,0.58273 -1.337028,0.76977 -1.204933,1.21637 0.08586,0.29026 0.290267,0.63988 0.454254,0.77693 2.029127,1.69586 5.365303,4.33332 5.748875,4.54486 0.555258,0.30621 1.235678,0.0166 2.499555,-1.06393 z m 110.275225,-1.55138 c 1.15638,-0.79302 5.22238,-4.13722 5.22238,-4.29529 0,-0.0855 -0.15366,-0.3656 -0.34147,-0.62244 -0.32087,-0.43882 -0.50841,-0.33419 -3.11029,1.73532 -2.64084,2.1005 -3.25053,2.80778 -2.90386,3.36871 0.21425,0.34666 0.40081,0.31599 1.13324,-0.1863 z M 56.663908,151.98559 c 0.149401,-0.38934 -1.106198,-1.63136 -3.935945,-3.89337 -1.326224,-1.06015 -1.55385,-1.15953 -2.093095,-0.91383 -0.779311,0.35508 -0.695827,0.45496 2.594348,3.10381 2.609321,2.10071 3.174641,2.38107 3.434692,1.70339 z M 163.5695,149.93351 c 2.09214,-1.69611 3.38023,-3.01362 3.26991,-3.34458 -0.14635,-0.43903 -2.16122,-0.9564 -2.77848,-0.71345 -0.29199,0.11493 -0.86608,0.86396 -1.27576,1.66451 -0.40968,0.80056 -0.95279,1.76791 -1.2069,2.14967 -0.49433,0.74264 -0.40973,1.42397 0.17681,1.42397 0.19732,0 1.01381,-0.53105 1.81442,-1.18012 z m -104.868519,0.2375 c 0.04298,-0.2914 -0.153256,-0.87132 -0.436075,-1.28871 -0.282821,-0.4174 -0.738484,-1.09076 -1.012588,-1.49637 -0.274105,-0.4056 -0.498372,-0.85414 -0.498372,-0.99674 0,-0.44231 -0.970875,-1.25602 -1.498608,-1.25602 -0.547559,0 -2.23112,0.99708 -2.236094,1.32431 -0.0033,0.21843 0.588084,0.74375 3.340313,2.96706 0.970701,0.78415 1.877044,1.3921 2.014097,1.351 0.137052,-0.0411 0.284348,-0.31314 0.327327,-0.60453 z m 98.348799,-1.36235 c 0.20847,-0.44542 0.6033,-1.15808 0.8774,-1.58369 l 0.49836,-0.77383 -0.50331,-0.63985 c -0.27682,-0.35192 -0.83059,-0.71174 -1.23061,-0.7996 -0.40002,-0.0879 -0.85493,-0.31353 -1.01092,-0.50148 -0.156,-0.18796 -0.60453,-0.41223 -0.99675,-0.49838 -0.39221,-0.0861 -0.84075,-0.31041 -0.99674,-0.49837 -0.15599,-0.18796 -0.61099,-0.41364 -1.0111,-0.50152 -0.40012,-0.0879 -0.78248,-0.24876 -0.84969,-0.35752 -0.0672,-0.10875 -0.93753,-0.61414 -1.93405,-1.12308 -1.96686,-1.00453 -2.08835,-1.07079 -5.84636,-3.18848 -1.39846,-0.78805 -2.64331,-1.43282 -2.76634,-1.43282 -0.12303,0 -0.42665,-0.22427 -0.67471,-0.49837 -0.24807,-0.27411 -0.55659,-0.49837 -0.6856,-0.49837 -0.23706,0 -1.87198,-0.98992 -4.83567,-2.92794 -0.89074,-0.58247 -1.67867,-1.05904 -1.75095,-1.05904 -0.0723,0 -0.45008,-0.2523 -0.83957,-0.56066 -0.38949,-0.30837 -1.4442,-1.00921 -2.34381,-1.55742 -0.89961,-0.5482 -2.89586,-1.91853 -4.43612,-3.04517 -1.54026,-1.12664 -3.39448,-2.47224 -4.12048,-2.99023 -0.726,-0.51799 -1.67914,-1.26206 -2.11808,-1.65348 -0.83141,-0.74142 -2.1803,-1.65304 -2.44832,-1.65465 -0.0853,-5e-4 -0.82902,0.5317 -1.65268,1.1827 -0.82365,0.651 -1.75863,1.35183 -2.07773,1.55741 -1.00726,0.64892 -2.01499,1.73472 -1.90909,2.05698 0.10649,0.32406 6.19688,4.51921 8.78486,6.05116 0.82232,0.48676 1.99972,1.21218 2.61645,1.61203 0.61674,0.39985 1.45774,0.89917 1.8689,1.10958 0.41115,0.21041 1.08395,0.60884 1.49511,0.8854 0.41116,0.27655 1.16806,0.68626 1.682,0.91047 0.51395,0.2242 0.93445,0.49059 0.93445,0.59197 0,0.10138 0.4205,0.3699 0.93445,0.59672 0.51394,0.22681 1.83151,0.89898 2.92793,1.4937 3.63046,1.96926 14.29276,7.23771 17.87908,8.83441 0.651,0.28983 1.6602,0.74466 2.24267,1.01073 0.58247,0.26606 1.36847,0.55882 1.74666,0.65057 0.37819,0.0918 0.74924,0.26652 0.82456,0.38839 0.0753,0.12187 0.40915,0.22158 0.74186,0.22158 0.43859,0 0.70913,-0.22266 0.98394,-0.80985 z m -91.627196,-0.31148 c 0.643629,-0.34263 1.287585,-0.62297 1.431011,-0.62297 0.143427,0 0.700663,-0.22426 1.238304,-0.49837 0.537641,-0.2741 1.698278,-0.66657 1.868893,-0.87215 0.170615,-0.20558 0.472177,-0.37378 0.670141,-0.37378 0.401104,0 3.003079,-1.21597 9.671069,-4.51955 4.519971,-2.23936 5.98842,-3.00975 9.81709,-5.15026 4.604448,-2.57423 5.212386,-2.92481 5.540477,-3.19505 0.187626,-0.15455 0.593438,-0.35833 0.901805,-0.45287 0.308368,-0.0945 0.560668,-0.25846 0.560668,-0.36428 0,-0.10582 0.297583,-0.32798 0.661295,-0.4937 1.314524,-0.59894 10.416793,-6.67918 14.403663,-9.62153 1.28446,-0.94794 3.50132,-2.64217 3.99775,-3.05528 0.2741,-0.2281 1.73184,-1.41514 3.23941,-2.63787 3.5904,-2.91204 6.95349,-5.98808 11.08877,-10.1423 3.59473,-3.6112 7.83523,-8.146286 8.4511,-9.038216 0.20633,-0.29881 0.68746,-0.879688 1.06918,-1.290848 0.38172,-0.41116 0.69455,-0.82365 0.69519,-0.91665 7.4e-4,-0.093 0.18255,-0.35049 0.40427,-0.5722 0.54536,-0.54536 1.87837,-2.18041 2.33792,-2.86765 0.20558,-0.30743 0.69772,-0.96679 1.09365,-1.46524 0.39593,-0.498454 1.20674,-1.635145 1.80181,-2.525984 0.59507,-0.890839 1.42049,-2.100247 1.83429,-2.687573 0.41378,-0.587326 0.75234,-1.158647 0.75234,-1.269604 0,-0.110958 0.22427,-0.404698 0.49837,-0.65276 0.27411,-0.248062 0.49852,-0.573808 0.4987,-0.723882 1.8e-4,-0.150072 0.44871,-0.918811 0.99674,-1.708306 0.54803,-0.789495 0.99642,-1.531274 0.99642,-1.648399 0,-0.117125 0.21953,-0.49204 0.48784,-0.833145 0.75773,-0.963297 4.02514,-7.263395 6.04572,-11.657123 0.40968,-0.890839 0.95742,-2.080525 1.21722,-2.643744 0.25979,-0.56322 0.47235,-1.152328 0.47235,-1.30913 0,-0.156801 0.22427,-0.703524 0.49837,-1.214946 0.27411,-0.511419 0.49911,-1.155781 0.50001,-1.431913 0.001,-0.276136 0.22444,-0.838463 0.49673,-1.24962 0.2723,-0.411156 0.49964,-0.915758 0.50519,-1.121336 0.006,-0.205578 0.22675,-0.822313 0.49156,-1.370522 0.2648,-0.548208 0.48526,-1.162775 0.48991,-1.365705 0.005,-0.202929 0.21991,-0.931798 0.47836,-1.619707 0.69623,-1.85318 2.24546,-7.144882 2.73716,-9.349284 0.13756,-0.616735 0.36043,-1.569871 0.49526,-2.11808 0.90223,-3.668416 1.12738,-4.707964 1.41426,-6.529672 0.17706,-1.124378 0.38997,-2.154408 0.47312,-2.288953 0.0832,-0.134546 0.32069,-1.61375 0.52786,-3.287122 0.20717,-1.673372 0.43129,-3.130885 0.49806,-3.238917 0.1344,-0.217467 1.11984,-11.698321 1.08912,-12.688737 -0.0106,-0.342631 -0.0759,-0.482798 -0.14501,-0.311483 -0.0691,0.171316 -0.28196,0.311483 -0.47296,0.311483 -0.191,0 -0.5444,0.308367 -0.78534,0.68526 -2.51754,3.938143 -8.89557,10.901747 -12.36534,13.50063 -2.44696,1.832789 -2.80214,2.337786 -2.99189,4.253858 -0.0882,0.890839 -0.3286,2.404643 -0.53417,3.364008 -0.20557,0.959366 -0.54473,2.585303 -0.75368,3.613194 -0.65799,3.236941 -1.08703,5.068739 -1.48294,6.331545 -0.21094,0.672779 -0.38351,1.473503 -0.38351,1.779386 0,0.30588 -0.22181,1.04496 -0.4929,1.642401 -0.2711,0.597438 -0.49536,1.425734 -0.49838,1.840658 -0.003,0.414927 -0.15934,0.975595 -0.34741,1.245929 -0.18807,0.270337 -0.46215,0.996123 -0.60907,1.612857 -0.30605,1.284748 -1.14891,3.743554 -1.67858,4.896783 -0.19835,0.431869 -0.36444,0.93647 -0.36909,1.121336 -0.005,0.184866 -0.22511,0.784654 -0.48992,1.332862 -0.2648,0.548209 -0.48527,1.12336 -0.48991,1.278114 -0.008,0.250985 -0.27144,0.890498 -1.68332,4.079381 -0.75007,1.694097 -1.26985,2.872771 -1.53843,3.488601 -0.14943,0.342631 -0.37582,0.791165 -0.50309,0.996743 -0.12727,0.205579 -0.82892,1.584062 -1.55922,3.063294 -1.33388,2.701784 -1.76854,3.515568 -2.77619,5.197671 -0.29982,0.50049 -0.984,1.677893 -1.52041,2.616451 -0.53641,0.938556 -1.04842,1.762534 -1.13779,1.83106 -0.0894,0.06853 -0.52024,0.756221 -0.95748,1.528214 -0.43724,0.77199 -0.96247,1.542622 -1.16718,1.712514 -0.20471,0.169893 -0.3722,0.41184 -0.3722,0.537661 0,0.284318 -0.41178,0.87156 -3.98697,5.685823 -1.61329,2.17242 -3.50882,4.594378 -3.70925,4.739378 -0.0947,0.0685 -0.95844,1.07773 -1.9194,2.242666 -2.58804,3.1374 -3.11028,3.70286 -7.3408,7.94842 -4.45501,4.47082 -5.74534,5.67362 -8.8405,8.24086 -1.23006,1.02027 -2.29254,1.93322 -2.36107,2.02881 -0.0685,0.0956 -1.41413,1.18885 -2.99022,2.42948 -1.5761,1.24064 -3.03384,2.40726 -3.239419,2.59249 -0.205578,0.18524 -0.990513,0.75219 -1.7443,1.25989 -2.306715,1.55365 -4.839056,3.35571 -5.232902,3.72384 -0.205578,0.19216 -0.990513,0.70761 -1.7443,1.14546 -0.753787,0.43785 -1.650856,1.00492 -1.993486,1.26016 -0.342631,0.25525 -1.267733,0.86887 -2.055783,1.36361 -0.78805,0.49473 -2.02152,1.27208 -2.741044,1.72743 -2.047425,1.29572 -2.992362,1.86139 -3.800083,2.27485 -0.411156,0.21046 -1.196091,0.66694 -1.7443,1.0144 -0.548209,0.34746 -1.305111,0.75161 -1.682004,0.89812 -0.376894,0.1465 -0.685261,0.35884 -0.685261,0.47186 0,0.11301 -0.392468,0.33501 -0.87215,0.49332 -0.479683,0.15831 -0.872151,0.37426 -0.872151,0.47989 0,0.10564 -0.420501,0.37346 -0.934446,0.59515 -0.513946,0.2217 -1.102647,0.51322 -1.308226,0.64782 -0.205578,0.13459 -0.678911,0.39072 -1.05185,0.56915 -0.372939,0.17844 -2.409086,1.19268 -4.52477,2.25388 -4.34502,2.17939 -4.188013,1.93754 -2.832071,4.3625 0.847672,1.51597 1.169214,1.59265 2.87374,0.68526 z m 94.474806,-4.57357 c 0.30069,-0.56184 -0.45238,-1.33245 -2.3478,-2.4025 -0.68526,-0.38686 -1.53874,-0.93784 -1.89663,-1.22441 -0.35788,-0.28656 -1.14281,-0.82886 -1.7443,-1.20509 -1.8581,-1.16228 -5.96836,-3.93585 -8.47807,-5.72093 -0.63516,-0.45176 -2.02248,-1.42202 -3.08295,-2.15613 -1.7067,-1.18145 -6.23092,-4.55534 -13.20523,-9.84766 -1.23347,-0.93599 -2.35481,-1.83047 -2.49186,-1.98772 -0.77134,-0.88504 -3.36157,-2.89226 -3.90993,-3.02989 -0.53683,-0.13473 -0.93116,0.0883 -2.41678,1.36693 -1.94518,1.67417 -2.01162,2.00827 -0.58354,2.93446 0.36981,0.23984 0.86243,0.60427 1.09471,0.80985 0.61503,0.54433 0.94119,0.78985 2.32694,1.75168 0.68526,0.47562 1.35806,0.98475 1.49512,1.13139 0.13705,0.14664 0.57438,0.48304 0.97185,0.74756 0.39746,0.26452 1.2017,0.81734 1.7872,1.22849 1.52046,1.06773 6.46444,4.36919 8.08053,5.39598 2.06391,1.31132 3.16276,1.97647 6.11131,3.6993 1.05551,0.61674 2.32691,1.36233 2.82532,1.65688 0.49841,0.29454 1.69114,0.94842 2.65051,1.45307 0.95936,0.50464 2.2489,1.20002 2.86563,1.54527 3.35917,1.88051 8.43606,4.30526 9.02422,4.31001 0.40781,0.003 0.77469,-0.17803 0.92375,-0.45654 z M 70.957535,139.0712 c 0.616735,-0.34417 1.697514,-0.91729 2.40173,-1.27358 0.704217,-0.3563 1.690364,-0.92603 2.191442,-1.26607 0.501075,-0.34004 0.992574,-0.61825 1.092219,-0.61825 0.09965,0 0.851567,-0.44537 1.67094,-0.9897 0.81937,-0.54434 1.612553,-0.99287 1.762626,-0.99675 0.150074,-0.004 0.47582,-0.23131 0.723882,-0.50541 0.248062,-0.27411 0.574742,-0.49837 0.72596,-0.49837 0.246667,0 1.535909,-0.77635 4.506941,-2.71397 0.548209,-0.35752 1.108877,-0.73727 1.245929,-0.84388 0.137052,-0.1066 1.258388,-0.86374 2.491858,-1.68252 1.233469,-0.81877 3.083674,-2.10617 4.111565,-2.86088 1.027892,-0.7547 2.149228,-1.56485 2.491858,-1.80032 0.34263,-0.23547 0.681483,-0.50808 0.753005,-0.6058 0.07152,-0.0977 0.520055,-0.4427 0.996743,-0.76663 1.518725,-1.03206 8.007957,-6.37809 10.460147,-8.61739 5.15653,-4.70886 12.35488,-12.21824 15.54154,-16.213056 1.69685,-2.127188 6.28178,-8.257039 6.76079,-9.038889 0.13705,-0.223699 0.61362,-0.928411 1.05904,-1.566028 0.44542,-0.637616 0.80985,-1.252084 0.80985,-1.365486 0,-0.113399 0.16452,-0.34272 0.3656,-0.509602 0.20108,-0.16688 0.78978,-1.036558 1.30823,-1.932618 0.51844,-0.896059 1.19097,-2.034754 1.49451,-2.530432 0.30354,-0.495678 0.72796,-1.237633 0.94315,-1.64879 0.2152,-0.411156 0.87951,-1.644626 1.47626,-2.741044 2.253,-4.139501 4.62887,-9.10403 4.62887,-9.672303 0,-0.197283 0.16099,-0.492309 0.35776,-0.655613 0.19677,-0.163304 0.43313,-0.653602 0.52525,-1.089552 0.0921,-0.435948 0.37967,-1.142273 0.63899,-1.569604 0.25932,-0.427334 0.47149,-0.960375 0.47149,-1.184537 0,-0.22416 0.22426,-0.825999 0.49837,-1.33742 0.2741,-0.511419 0.50218,-1.099715 0.50683,-1.307321 0.005,-0.207609 0.22511,-0.826004 0.48991,-1.374213 0.26481,-0.548208 0.48596,-1.22101 0.49145,-1.495114 0.006,-0.274105 0.18421,-0.832478 0.39713,-1.240831 0.21293,-0.408353 0.50373,-1.286068 0.64622,-1.950482 0.14249,-0.664411 0.41543,-1.507706 0.60653,-1.873992 0.1911,-0.366283 0.35195,-1.002369 0.35745,-1.413526 0.005,-0.411156 0.22665,-1.196092 0.49145,-1.7443 0.26481,-0.548209 0.48527,-1.357026 0.48992,-1.797373 0.005,-0.440346 0.21712,-1.337415 0.47216,-1.993486 0.25504,-0.656071 0.54181,-1.800955 0.63727,-2.544184 0.0954,-0.743232 0.27838,-1.5472 0.4065,-1.786598 0.12812,-0.239398 0.34542,-1.257237 0.48287,-2.261864 0.13746,-1.00463 0.4317,-2.5141 0.65387,-3.35438 0.26378,-0.99765 0.32439,-1.669933 0.17468,-1.937452 -0.20612,-0.368309 -10.06243,4.418939 -10.64997,4.823178 l -1.06826,0.734981 -0.14606,4.560217 c -0.089,2.779919 -0.29406,5.143908 -0.52517,6.055332 -0.20851,0.822313 -0.38311,1.891178 -0.38799,2.375257 -0.005,0.484078 -0.1835,1.49328 -0.39692,2.242672 -0.21343,0.749391 -0.49496,1.979265 -0.62563,2.733052 -0.13066,0.753787 -0.39582,1.76299 -0.58924,2.242672 -0.19341,0.479683 -0.48085,1.431328 -0.63874,2.114765 -0.1579,0.68344 -0.37797,1.356241 -0.48906,1.495115 -0.11108,0.138876 -0.28199,0.644968 -0.3798,1.12465 -0.0978,0.479683 -0.32031,1.098062 -0.49446,1.374178 -0.17416,0.276112 -0.40036,0.892847 -0.50269,1.370522 -0.10232,0.477671 -0.3349,1.148828 -0.51684,1.491459 -0.18194,0.34263 -0.62801,1.351833 -0.99127,2.242672 -0.36325,0.890839 -0.76293,1.787908 -0.88816,1.993486 -0.12524,0.205579 -0.33902,0.62608 -0.47508,0.934447 -0.13606,0.308367 -0.35869,0.812969 -0.49475,1.121336 -0.13606,0.308367 -0.36033,0.756902 -0.49837,0.996743 -0.13805,0.239842 -0.36455,0.632309 -0.50333,0.87215 -0.13878,0.239842 -0.47549,0.88461 -0.74825,1.432819 -0.27276,0.548209 -0.73723,1.389211 -1.03216,1.868893 -0.29493,0.479683 -0.661,1.096418 -0.81348,1.370522 -0.4049,0.727879 -1.00783,1.660968 -3.11635,4.822829 -1.03773,1.556138 -1.99891,3.006863 -2.13597,3.223834 -0.39174,0.620171 -5.67593,7.292215 -6.6524,8.399595 -0.48339,0.54821 -1.70736,1.948718 -2.71993,3.112238 -2.21729,2.547856 -9.94853,10.301866 -12.17684,12.212696 -1.97869,1.69678 -4.089101,3.54806 -5.238293,4.59509 -1.171527,1.06738 -10.835896,8.73008 -12.58988,9.98228 -1.512289,1.07966 -2.425218,1.78112 -3.080891,2.36727 -0.39085,0.3494 -2.838293,2.0596 -3.744375,2.61645 -0.634121,0.38971 -2.125941,1.45529 -2.264017,1.61715 -0.104504,0.1225 -3.059581,2.14143 -5.109961,3.49116 -0.312297,0.20557 -1.090071,0.73821 -1.72839,1.18363 -0.638319,0.44542 -1.205404,0.80985 -1.260187,0.80985 -0.05478,0 -0.621868,0.36444 -1.260187,0.80986 -1.543749,1.07723 -2.32613,1.58253 -3.225157,2.08297 -0.411157,0.22887 -0.803624,0.49697 -0.87215,0.59577 -0.06853,0.0988 -0.495858,0.36991 -0.949625,0.60245 -0.665919,0.34126 -0.810088,0.5503 -0.747557,1.08395 0.154796,1.32103 0.970182,1.14337 5.559561,-1.21133 2.329887,-1.19541 4.74076,-2.45507 5.357494,-2.79925 z m 27.064691,-26.09899 c 0.532789,-0.41995 1.942804,-1.66269 3.133364,-2.76164 1.5535,-1.43396 2.12283,-2.11538 2.01652,-2.41356 -0.13642,-0.38264 -0.94796,-1.30181 -4.436998,-5.02543 -0.7063,-0.75379 -2.287576,-2.61135 -3.513946,-4.127896 -1.226368,-1.51656 -2.3666,-2.918228 -2.533846,-3.114828 -0.465765,-0.5475 -3.321028,-4.47602 -4.161487,-5.725737 -0.41077,-0.610794 -0.803554,-1.166603 -0.87285,-1.235129 -0.0693,-0.06853 -0.41703,-0.573128 -0.77274,-1.121337 -1.968575,-3.033894 -2.47065,-3.847655 -2.743738,-4.447014 -0.165718,-0.363712 -0.386743,-0.661294 -0.491167,-0.661294 -0.104427,0 -0.319389,-0.392468 -0.477699,-0.872151 -0.158311,-0.479682 -0.379555,-0.87215 -0.491656,-0.87215 -0.112102,0 -0.419228,-0.420501 -0.682505,-0.934447 -0.263277,-0.513945 -1.264085,-2.44825 -2.224013,-4.298454 -0.959931,-1.850205 -1.818254,-3.588276 -1.907385,-3.86238 -0.08913,-0.274105 -0.268289,-0.666572 -0.398124,-0.872151 -0.481166,-0.761863 -1.522705,-2.990234 -1.522705,-3.257822 0,-0.15222 -0.224267,-0.561874 -0.498372,-0.910341 -0.274104,-0.348466 -0.498371,-0.853454 -0.498371,-1.122193 0,-0.268737 -0.166675,-0.786251 -0.37039,-1.150027 -0.203714,-0.363777 -0.528194,-1.109946 -0.721061,-1.658155 -0.835665,-2.375274 -0.99562,-2.794957 -1.434989,-3.76508 -0.255084,-0.56322 -0.467595,-1.236021 -0.472244,-1.495115 -0.0046,-0.259093 -0.225112,-0.919613 -0.489917,-1.467821 -0.264805,-0.548209 -0.489072,-1.221011 -0.498372,-1.495115 -0.0093,-0.274104 -0.233566,-0.946906 -0.498371,-1.495115 -0.264805,-0.548209 -0.485267,-1.25629 -0.489917,-1.573513 -0.0047,-0.317224 -0.2187,-1.102159 -0.475668,-1.744301 -0.256968,-0.642142 -0.599651,-1.784265 -0.761517,-2.538052 -0.849429,-3.955667 -1.196964,-5.422622 -1.339184,-5.65274 -0.08648,-0.139928 -0.282061,-1.083876 -0.434625,-2.097663 -0.152564,-1.013788 -0.430209,-2.403918 -0.616991,-3.089179 -0.18678,-0.685261 -0.415802,-2.030864 -0.50894,-2.990229 -0.09314,-0.959366 -0.295634,-1.980701 -0.449994,-2.269635 -0.154364,-0.288935 -1.579397,-1.589822 -3.166746,-2.890861 -2.698238,-2.211559 -4.997346,-4.449661 -6.985786,-6.800423 -0.463712,-0.548208 -0.97535,-1.108876 -1.136975,-1.245929 -0.161622,-0.137052 -1.022374,-1.258388 -1.912782,-2.491857 -0.890408,-1.23347 -1.932055,-2.549368 -2.314767,-2.924219 -0.952208,-0.932649 -1.198162,-0.437395 -0.869147,1.750113 0.138353,0.919863 0.377085,3.242348 0.530519,5.161078 0.253599,3.171328 0.888011,8.04144 1.509415,11.58714 0.132104,0.753787 0.403898,2.323657 0.603984,3.488601 0.200089,1.164943 0.530579,2.566613 0.734426,3.114822 0.203846,0.548209 0.375552,1.420845 0.381568,1.939194 0.006,0.518346 0.189137,1.359348 0.406938,1.868893 0.2178,0.509543 0.489313,1.487111 0.603358,2.172372 0.114047,0.685261 0.38862,1.806597 0.610161,2.491858 0.221544,0.685261 0.621724,1.974798 0.889292,2.865637 0.905277,3.014022 1.766662,5.603069 2.126606,6.391897 0.197064,0.431869 0.358297,0.93813 0.358297,1.125026 0,0.186895 0.224267,0.758243 0.498372,1.269662 0.274104,0.511421 0.498371,1.058145 0.498371,1.214945 0,0.156803 0.212927,0.74591 0.473172,1.30913 0.260244,0.56322 0.776166,1.752905 1.146496,2.643744 0.370327,0.890839 0.872756,2.068242 1.116509,2.616451 0.243751,0.548209 0.51205,1.164944 0.59622,1.370522 0.08417,0.205578 0.265946,0.541979 0.403952,0.747557 0.138007,0.205579 0.36272,0.654113 0.499363,0.996743 0.136644,0.342631 0.360911,0.791165 0.498372,0.996744 0.137461,0.205578 0.361728,0.654112 0.498372,0.996743 0.136643,0.34263 0.356325,0.791165 0.488184,0.996743 0.13186,0.205578 1.032078,1.775449 2.000486,3.488601 2.140117,3.785957 2.397923,4.21874 3.547506,5.955299 0.235979,0.35647 0.653236,1.040592 0.927238,1.520275 0.274002,0.479683 0.947948,1.488885 1.497656,2.242672 0.549709,0.753787 1.417499,1.987257 1.928422,2.741044 0.969477,1.430313 5.26759,6.928413 6.005596,7.682291 0.233968,0.239 1.261361,1.43964 2.283093,2.66807 3.293461,3.959746 13.350579,13.820666 14.095659,13.820666 0.164882,0 0.735706,-0.3436 1.268498,-0.76355 z m 8.703824,-8.0475 c 2.00238,-1.88764 2.00486,-2.08838 0.0514,-4.16896 -2.91282,-3.102426 -5.31415,-5.860354 -6.7547,-7.757754 -0.491343,-0.64718 -1.070887,-1.37604 -1.287873,-1.61971 -1.427072,-1.602545 -5.732439,-7.859461 -7.592068,-11.033428 -1.313114,-2.241192 -2.546369,-4.428116 -2.880687,-5.108308 -0.202084,-0.411157 -0.470281,-0.915758 -0.59599,-1.121336 -0.214599,-0.350949 -1.05495,-2.166188 -2.191811,-4.734531 -0.272995,-0.616734 -0.67942,-1.53075 -0.903166,-2.031145 -0.223746,-0.500395 -0.406813,-1.048781 -0.406813,-1.218636 0,-0.169852 -0.215095,-0.769643 -0.477988,-1.332862 -0.521579,-1.117417 -1.102882,-2.818813 -1.626937,-4.761824 -0.184823,-0.685261 -0.454427,-1.58233 -0.59912,-1.993486 -0.436748,-1.241067 -1.075922,-4.109271 -1.416028,-6.354238 -0.176486,-1.164943 -0.451572,-2.678747 -0.611305,-3.364008 -0.15973,-0.685261 -0.385296,-3.24272 -0.501254,-5.683243 -0.236027,-4.967534 -0.401349,-5.4875 -1.829956,-5.755509 -0.473705,-0.08887 -0.99841,-0.326809 -1.166015,-0.52876 -0.167605,-0.201952 -0.471973,-0.367185 -0.676373,-0.367185 -0.204399,0 -0.77937,-0.222328 -1.277715,-0.494061 C 73.48331,35.223992 72.795241,34.88493 72.45261,34.742251 72.10998,34.599575 71.381111,34.212445 70.832903,33.881959 68.39455,32.41202 67.40609,31.965945 67.151449,32.220585 c -0.251874,0.251875 0.257604,3.258541 1.229829,7.257803 0.216563,0.890839 0.49125,2.267937 0.610413,3.060216 0.119163,0.792281 0.385949,1.767881 0.592861,2.168001 0.206911,0.400123 0.380005,1.153563 0.384655,1.674314 0.0047,0.520751 0.225112,1.395356 0.489917,1.943565 0.264805,0.548209 0.485242,1.22101 0.489864,1.495115 0.0083,0.494678 0.186755,1.069769 1.893997,6.105052 0.487918,1.439048 1.008195,3.064985 1.156174,3.613194 0.147982,0.548208 0.421211,1.173772 0.607181,1.390142 0.18597,0.216371 0.338128,0.554431 0.338128,0.751248 0,0.196817 0.224267,0.776281 0.498371,1.2877 0.274105,0.511422 0.498372,1.049339 0.498372,1.195374 0,0.234611 0.500308,1.425331 1.616765,3.847853 0.331372,0.719023 1.386671,3.08792 1.720618,3.862379 0.08864,0.205579 0.433498,0.822314 0.766341,1.370522 0.332842,0.548209 0.723002,1.277077 0.867024,1.619708 0.144019,0.34263 0.372448,0.791165 0.507619,0.996743 0.135171,0.205578 0.452763,0.766246 0.705759,1.245929 1.228653,2.329518 2.142347,3.91515 2.567488,4.455629 0.257543,0.327413 0.46826,0.730996 0.46826,0.89685 0,0.165855 0.224267,0.504511 0.498371,0.752573 0.274105,0.248062 0.498372,0.540795 0.498372,0.650519 0,0.215327 1.039748,1.859076 1.553903,2.456581 0.173244,0.201332 0.461945,0.647736 0.641558,0.992009 0.179613,0.344275 0.661339,1.076619 1.070505,1.62743 0.409163,0.550812 1.190981,1.618212 1.737371,2.372002 0.546392,0.75378 1.215498,1.65085 1.486901,1.99348 0.271406,0.34263 1.233208,1.5761 2.137339,2.74105 0.90413,1.164938 1.773026,2.230208 1.930878,2.367258 0.157852,0.13706 0.84635,0.91751 1.529993,1.734336 0.683646,0.81684 1.872054,2.16244 2.640904,2.99023 0.76885,0.82779 1.76164,1.92558 2.20619,2.43953 1.13921,1.31706 1.6411,1.22722 3.63264,-0.65021 z"
       id="path1504"
       sodipodi:nodetypes="sssssscssssssscssssssssssssssssssssssssssssssssssssscssssssssscccsssscssssssssssssssssssssssssssssssssssssssscscsssssccsssssssssssssssssssssssssssssscsssssssssssssssssssscsscssssssssssscssssssscssssssssssssssssssssssssssscssssssssssssssscsscsssscssssssssssssssssssssssssssssssssssssssssssssssssssscsssssccsssssscsssssssssssssscssssssscssssccssssscsssssssssssssssssscsssssscssscsssscsssscssccsssssssssssssssssssscscsssssssscsssscssssssccssssssssscssssssssscsssssccsssssssscssssssssssssssssssssssssssssssscsssssssscssssssssscsssssssssssssssssssscssssssssssssssssssssssssssssssssssssscsscscsscssssssssssssssssssssssssssssssscssscssssssssssssssssssssssssssssscssssssssssscsssssssscssssssssssssssscscscsssscssssssssssssssssscscssssssssssssssssssssssssssssssssssssssssssssssssssssssssscsssssscssssssssssssssssssssssssscscssscscscsssssccscssssssssssssssssssssssssssssssssssssssssssssssssssssssssssssscssscssssssssssssssssscssssssssssssssssssssssssssscsssssssssssssssssssssssscscssssssssssssssssssssssssssss" />
  </g>
</svg>
