<?xml version="1.0" encoding="UTF-8" standalone="no"?>
<!-- Created with Inkscape (http://www.inkscape.org/) -->

<svg
   width="64mm"
   height="64mm"
   viewBox="0 0 64 64"
   version="1.1"
   id="svg2764"
   inkscape:version="1.1.2 (b8e25be833, 2022-02-05)"
   sodipodi:docname="sabersikon.svg"
   xmlns:inkscape="http://www.inkscape.org/namespaces/inkscape"
   xmlns:sodipodi="http://sodipodi.sourceforge.net/DTD/sodipodi-0.dtd"
   xmlns="http://www.w3.org/2000/svg"
   xmlns:svg="http://www.w3.org/2000/svg">
  <sodipodi:namedview
     id="namedview2766"
     pagecolor="#505050"
     bordercolor="#eeeeee"
     borderopacity="1"
     inkscape:pageshadow="0"
     inkscape:pageopacity="0"
     inkscape:pagecheckerboard="0"
     inkscape:document-units="mm"
     showgrid="false"
     inkscape:zoom="0.71090067"
     inkscape:cx="390.34989"
     inkscape:cy="449.42988"
     inkscape:window-width="1920"
     inkscape:window-height="991"
     inkscape:window-x="-9"
     inkscape:window-y="-9"
     inkscape:window-maximized="1"
     inkscape:current-layer="layer1" />
  <defs
     id="defs2761">
    <filter
       style="color-interpolation-filters:sRGB"
       inkscape:label="Invert"
       id="filter5507"
       x="0"
       y="0"
       width="1"
       height="1">
      <feColorMatrix
         values="1 0 0 0 0 0 1 0 0 0 0 0 1 0 0 0.21 0.72 0.07 1 0 "
         result="color2"
         id="feColorMatrix5505" />
    </filter>
  </defs>
  <g
     inkscape:label="Réteg 1"
     inkscape:groupmode="layer"
     id="layer1">
    <path
       style="fill:#000000;fill-opacity:1;fill-rule:nonzero;stroke:#156d6b;stroke-width:5.31653"
       d=""
       id="path6081"
       transform="scale(0.26458333)" />
    <path
       style="fill:#f2f2f2;fill-opacity:1;stroke-width:0.243974"
       d="M 11.021835,63.772158 C 6.8035157,63.069512 3.2926278,59.541191 0.86370406,53.563577 0.13649306,51.773896 0.23618216,51.502236 1.7193185,51.231929 l 0.8792297,-0.160243 0.7999468,1.98449 c 1.7547798,4.3532 4.5020522,7.343903 7.421426,8.079003 6.234131,1.569777 12.450759,-4.456451 11.155188,-10.813528 -0.395833,-1.942306 -1.163607,-3.272852 -3.178827,-5.508901 -2.224004,-2.467705 -3.106775,-3.799227 -3.699339,-5.579878 -0.535874,-1.610317 -0.553985,-2.653031 -0.04537,-2.612341 0.167741,0.01342 0.687136,0.04087 1.154229,0.061 0.716515,0.03087 0.871595,0.141472 0.992096,0.707525 0.324508,1.524396 1.784776,4.208557 2.289584,4.208557 0.105563,0 0.673978,-0.383194 1.263158,-0.851542 0.589172,-0.468349 1.192083,-0.852609 1.339795,-0.853909 0.147713,-0.0012 1.080913,0.575688 2.073784,1.282206 0.992861,0.706517 2.601173,1.82378 3.574024,2.482807 0.972842,0.659029 1.768612,1.261194 1.768372,1.338148 -2.4e-4,0.07696 -0.521729,0.460954 -1.158877,0.853327 -3.753836,2.311751 -4.227237,2.666179 -4.071059,3.04794 0.385192,0.941563 0.403182,4.56427 0.02988,6.020093 -1.124575,4.385916 -5.24717,8.162771 -9.681955,8.869981 -1.776339,0.283272 -1.816008,0.283115 -3.602795,-0.01448 z m 38.003173,-0.0074 C 45.573485,63.19459 42.167634,60.540703 40.456958,57.088415 39.593442,55.345778 39.442271,54.796174 39.329572,52.98966 39.250362,51.720234 39.314912,50.444633 39.494453,49.731677 39.830644,48.39655 39.84845,48.420933 37.563136,47.087254 32.421538,44.086466 22.390177,37.044344 17.796302,33.210505 14.841888,30.744888 9.4600252,25.448969 7.7244892,23.299533 2.7037699,17.08143 0.23418116,11.385482 0.22701636,6.0070659 0.22425126,3.8637463 0.83831846,0.11287249 1.1896599,0.12788439 c 0.076074,0.00323 0.4586563,0.6894295 0.8501095,1.52483961 1.081162,2.3073549 3.6520806,6.0823609 6.2683398,9.20412 4.3935758,5.24249 11.0630418,11.321122 20.8796798,19.029996 6.769801,5.31624 14.48147,11.293464 14.901176,11.549725 0.211993,0.129443 0.502005,0.05433 0.78737,-0.203914 0.532803,-0.482178 1.572811,-2.603662 1.812531,-3.697328 0.15083,-0.688145 0.275581,-0.779969 1.191317,-0.876907 0.56256,-0.05955 1.117843,-0.05618 1.233965,0.0075 0.394265,0.216218 -0.02831,2.260419 -0.784954,3.797424 -0.414515,0.841995 -1.497963,2.383575 -2.407669,3.425734 -2.729291,3.126672 -3.217252,3.853991 -3.760844,5.605695 -1.681361,5.418112 2.414567,11.40246 8.081832,11.807952 0.93094,0.06657 2.199382,-0.0083 2.831183,-0.167548 3.12388,-0.7866 6.014364,-4.076685 7.787144,-8.863698 0.23605,-0.637383 0.551494,-1.158265 0.700996,-1.157516 0.529676,0.0027 2.10163,0.512073 2.10151,0.681034 -7.4e-5,0.09433 -0.229033,0.775351 -0.50881,1.513374 -2.216175,5.846106 -5.988369,9.664337 -10.343115,10.469355 -1.617672,0.299039 -1.90228,0.298053 -3.786413,-0.01318 z M 7.7990232,55.970184 c -0.539867,-0.682979 -0.9815654,-1.337598 -0.9815654,-1.454707 0,-0.497944 2.2414964,-2.91128 4.0669922,-4.378769 1.962246,-1.577425 4.787639,-3.301838 5.844604,-3.567119 0.463701,-0.11638 0.690484,0.07322 1.393674,1.16512 0.678966,1.054292 0.791694,1.397589 0.588462,1.792064 -0.428651,0.831998 -4.132463,4.361487 -5.672392,5.405416 -1.331855,0.902876 -3.8285078,2.279775 -4.1337808,2.279775 -0.06842,0 -0.566127,-0.558801 -1.105994,-1.24178 z M 53.202118,56.36225 C 50.419796,54.86294 47.28842,52.224129 45.552765,49.916139 l -0.624553,-0.830506 0.740103,-1.20282 c 0.407055,-0.661549 0.885103,-1.258458 1.062323,-1.326467 1.194074,-0.458208 7.910779,4.362815 9.724363,6.979816 0.668887,0.965193 0.673866,0.99771 0.25416,1.659215 -0.495163,0.780435 -1.612167,2.019166 -1.813426,2.011046 -0.07552,-0.0031 -0.837661,-0.382925 -1.693617,-0.844173 z M 40.607898,35.715452 C 40.071149,35.31655 38.353852,33.990603 36.791682,32.768906 L 33.95136,30.547642 37.279624,27.883713 C 50.288341,17.471597 58.09152,9.1759229 61.90153,1.7078051 L 62.772812,-1.4714891e-5 63.106864,1.0978697 c 1.95757,6.4337662 -0.421736,14.1138233 -6.843339,22.0893163 -2.906087,3.609298 -13.467751,13.315079 -14.435761,13.265932 -0.134185,-0.0068 -0.683125,-0.338763 -1.219866,-0.737666 z"
       id="path7122" />
  </g>
</svg>
