<?xml version="1.0" encoding="UTF-8" standalone="no"?>
<!-- Created with Inkscape (http://www.inkscape.org/) -->

<svg
   width="42.5mm"
   height="45.25mm"
   viewBox="0 0 42.5 45.25"
   version="1.1"
   id="svg5"
   inkscape:version="1.1.2 (b8e25be833, 2022-02-05)"
   sodipodi:docname="szarny.svg"
   xmlns:inkscape="http://www.inkscape.org/namespaces/inkscape"
   xmlns:sodipodi="http://sodipodi.sourceforge.net/DTD/sodipodi-0.dtd"
   xmlns="http://www.w3.org/2000/svg"
   xmlns:svg="http://www.w3.org/2000/svg">
  <sodipodi:namedview
     id="namedview7"
     pagecolor="#505050"
     bordercolor="#eeeeee"
     borderopacity="1"
     inkscape:pageshadow="0"
     inkscape:pageopacity="0"
     inkscape:pagecheckerboard="0"
     inkscape:document-units="mm"
     showgrid="false"
     inkscape:zoom="8"
     inkscape:cx="130.5625"
     inkscape:cy="3.8125"
     inkscape:window-width="1920"
     inkscape:window-height="991"
     inkscape:window-x="-9"
     inkscape:window-y="-9"
     inkscape:window-maximized="1"
     inkscape:current-layer="layer1"
     inkscape:snap-nodes="true"
     inkscape:object-nodes="true"
     inkscape:object-paths="true"
     inkscape:snap-object-midpoints="false"
     inkscape:snap-center="true"
     inkscape:snap-text-baseline="true"
     inkscape:snap-smooth-nodes="true"
     inkscape:snap-midpoints="false"
     inkscape:snap-page="true"
     inkscape:snap-to-guides="false"
     inkscape:snap-grids="false" />
  <defs
     id="defs2">
    <filter
       inkscape:collect="always"
       style="color-interpolation-filters:sRGB"
       id="filter17389"
       x="-0.86585627"
       y="-0.86585627"
       width="2.7317125"
       height="2.7317125">
      <feGaussianBlur
         inkscape:collect="always"
         stdDeviation="1.5214484"
         id="feGaussianBlur17391" />
    </filter>
    <mask
       maskUnits="userSpaceOnUse"
       id="mask23262">
      <path
         style="mix-blend-mode:normal;fill:#ffffff;fill-opacity:1;fill-rule:nonzero;stroke:none;stroke-width:0.154307;stroke-miterlimit:4;stroke-dasharray:none;stroke-opacity:0"
         d="M 1.5396115,27.763019 C 1.3435557,27.604954 1.0179682,27.224893 0.89227974,27.007381 0.75658519,26.772554 0.62728686,26.432431 0.56732467,26.152577 0.52874497,25.972519 0.52084518,25.821798 0.5332899,25.503235 c 0.0140085,-0.358594 0.0915264,-0.830672 0.12906253,-0.785979 0.006826,0.0081 0.0469677,0.156763 0.0892046,0.330302 0.096019,0.394513 0.18647334,0.609264 0.41774457,0.991785 0.1850082,0.306001 0.3628018,0.696504 0.4021563,0.883288 l 0.021633,0.102676 -0.132783,-0.09886 C 1.2428554,26.764541 1.0928938,26.621938 0.9544858,26.445445 l -0.13065509,-0.166608 0.0612179,0.148924 c 0.0761807,0.185322 0.27646359,0.398196 0.52013599,0.552833 0.2370468,0.150433 0.3084809,0.312617 0.2948776,0.669489 l -0.00896,0.23507 z M 2.6659627,27.541875 C 1.9963037,27.180587 1.8158592,27.010254 1.5719091,26.509127 1.4909338,26.342785 1.3319608,26.051753 1.2186358,25.862389 1.0292829,25.545983 0.86879324,25.189651 0.89928615,25.153345 c 0.006933,-0.0083 0.0415878,0.03345 0.077011,0.09268 0.0971617,0.162466 0.41425035,0.432897 0.66935745,0.570865 0.5644607,0.305275 0.6633757,0.376421 0.8738903,0.628566 0.2162823,0.259054 0.3566939,0.529538 0.4378516,0.843463 0.046592,0.180224 0.092668,0.45302 0.075766,0.448582 -0.00492,-0.0013 -0.1701611,-0.08933 -0.3671998,-0.195631 z M 2.4326914,26.728184 C 2.3689281,26.586326 1.7339152,26.032867 1.5396115,25.949801 l -0.060596,-0.02591 0.060596,0.08222 c 0.1229792,0.166857 0.8294334,0.78842 0.9024325,0.79399 0.013084,9.94e-4 0.00888,-0.03136 -0.00935,-0.07192 z m 1.2883783,0.235224 C 3.2694231,26.844868 2.8602616,26.605858 2.5736267,26.293133 2.4040197,26.108089 2.3681666,26.045992 2.3098069,25.836204 2.2351391,25.567792 2.197597,25.485469 2.0469174,25.259732 1.9906307,25.175409 1.9557164,25.106767 1.96933,25.107196 c 0.087331,0.0028 0.594102,0.157338 0.8599188,0.262306 0.7225798,0.285338 0.9108897,0.459397 1.1549165,1.067516 0.084516,0.210616 0.1885604,0.427579 0.2312102,0.482142 l 0.077545,0.0992 -0.1950312,-0.0036 C 3.9906219,27.01276 3.8210532,26.98967 3.7210697,26.96343 Z M 3.5847286,26.227373 c 0,-0.06308 -0.318363,-0.248826 -0.6486761,-0.378458 -0.1818011,-0.07135 -0.3364729,-0.122669 -0.3437156,-0.114045 -0.033194,0.03952 0.2834408,0.227871 0.6136663,0.365037 0.1999669,0.08306 0.366985,0.153241 0.371151,0.155956 0.00417,0.0027 0.00758,-0.0101 0.00758,-0.02849 z M 1.8176608,25.736023 C 1.2059917,25.411177 0.94218491,25.091074 0.6912072,24.369182 0.15726248,22.833387 0.388005,21.426949 1.3971232,20.066429 1.69162,19.669381 2.1107828,19.2461 3.1757052,18.270372 3.4756558,17.995544 3.7747498,17.716604 3.8403585,17.650505 3.9769788,17.512864 4.0076979,17.53419 4.0084372,17.767189 4.0093,18.039647 3.8829625,18.263547 3.5503104,18.579086 c -0.1641713,0.155726 -0.4282789,0.383775 -0.5869051,0.506775 -0.1586264,0.123001 -0.2821227,0.231126 -0.2744362,0.240278 0.04381,0.05216 0.8757737,-0.565379 1.1337692,-0.841564 0.085726,-0.09177 0.1556633,-0.145057 0.1554169,-0.118417 -0.00137,0.148304 -0.1063678,0.543294 -0.2036737,0.766207 -0.175511,0.402068 -0.3726709,0.606364 -0.887664,0.919789 -1.1397591,0.693657 -1.8854808,1.516553 -2.09048692,2.306829 -0.0404074,0.155766 -0.0586438,0.324489 -0.0565968,0.523632 0.004922,0.478816 0.0395252,0.51775 0.0797014,0.08968 0.041483,-0.441997 0.11503269,-0.699404 0.28940612,-1.012855 0.1611107,-0.28961 0.5872932,-0.798755 0.83694,-0.999862 0.2123662,-0.171075 0.7137783,-0.461613 0.9648163,-0.559052 0.087485,-0.03396 0.1590645,-0.07082 0.1590645,-0.08192 0,-0.02131 -0.265384,0.0086 -0.3938743,0.04445 -0.1873352,0.0522 0.3014618,-0.207548 0.7120037,-0.378368 0.2499588,-0.104004 0.4794979,-0.204873 0.510087,-0.224152 0.095994,-0.0605 0.091686,-0.0021 -0.011699,0.158518 -0.1781437,0.276838 -0.3440896,0.465976 -0.483239,0.550777 -0.074988,0.0457 -0.3379895,0.159028 -0.5844484,0.251842 -1.0094529,0.380149 -1.4401394,0.785942 -1.6748626,1.578056 -0.054338,0.183375 -0.013134,0.174214 0.062617,-0.01392 0.1662165,-0.412817 0.5051938,-0.811269 0.9012027,-1.059323 0.191108,-0.119708 1.1113744,-0.499869 1.1367901,-0.469608 0.036146,0.04304 -0.5263821,0.674133 -1.0240216,1.148843 L 2.1152741,22.005814 2.2972637,21.900599 C 2.6120873,21.71859 2.923692,21.401026 3.4066375,20.77001 c 0.080761,-0.105522 0.1710383,-0.163481 0.4280499,-0.274815 0.1791371,-0.0776 0.3257039,-0.129997 0.3257039,-0.116439 0,0.07218 -0.5528157,0.830931 -0.737904,1.012794 -0.2447916,0.240527 -0.6163835,0.485053 -0.9786832,0.644023 -0.5176059,0.227115 -0.883931,0.498804 -1.1081488,0.82187 -0.1053327,0.151769 -0.2353653,0.406795 -0.2353653,0.461609 0,0.01058 0.063169,-0.03817 0.1403761,-0.108344 0.2445965,-0.222301 0.4441206,-0.311289 1.0412473,-0.464396 0.6531953,-0.167485 1.0371244,-0.367056 1.3352998,-0.694107 0.1262835,-0.138512 0.3076609,-0.172144 1.7248014,-0.319821 0.5778478,-0.06022 0.8408162,-0.126858 1.2575545,-0.318689 0.149783,-0.06895 0.2775322,-0.119169 0.2838869,-0.111602 0.029141,0.0347 -0.2017562,0.395148 -0.3847501,0.600627 -0.2406417,0.27021 -0.5509163,0.473437 -0.8721771,0.571267 -0.192884,0.05874 -0.3344457,0.07104 -0.8120017,0.07059 -0.3181149,-2.85e-4 -0.5938421,-0.01248 -0.6127275,-0.02706 -0.022412,-0.0173 0.019773,-0.09725 0.1214695,-0.230211 l 0.155806,-0.203708 0.2832048,-0.041 c 0.1557627,-0.02255 0.3533326,-0.06075 0.4390442,-0.08489 l 0.1558394,-0.04389 -0.2878311,-0.01057 c -0.5617648,-0.02064 -1.0074022,0.10339 -1.1713963,0.326012 -0.054338,0.07376 -0.054221,0.07491 0.00492,0.04772 0.2284573,-0.105032 0.3787254,-0.156269 0.3787254,-0.129135 0,0.01745 -0.068077,0.114944 -0.1512819,0.216654 -0.2232872,0.272947 -0.60198,0.45269 -1.2948712,0.614599 -0.1981692,0.04631 -0.2284355,0.107146 -0.053302,0.107146 0.2025544,0 0.4302977,0.08363 0.8328989,0.305847 0.5887048,0.324939 0.8975065,0.42296 1.878478,0.596277 0.5906945,0.104363 0.5888753,0.103272 0.4056992,0.243226 -0.4397483,0.335986 -1.075768,0.500108 -1.6528896,0.42652 C 4.0548069,24.633695 4.0437493,24.626768 3.9448877,24.469278 3.7515142,24.161227 3.3506804,23.859213 3.0154768,23.769001 2.7413148,23.695216 2.1754901,23.627362 1.83438,23.627362 c -0.3429722,0 -0.4303075,0.04246 -0.1794576,0.08725 0.2194959,0.03919 0.6873525,0.344032 0.6876559,0.448055 4.12e-5,0.01312 -0.1260772,0.0208 -0.2802568,0.01707 -0.3125398,-0.0076 -0.2765804,0.01781 0.1589951,0.112207 0.5096415,0.110446 1.0342523,0.502493 1.4536975,1.086364 0.1348841,0.187759 0.2606437,0.34138 0.2794657,0.34138 0.018822,0 0.025856,0.01 0.015632,0.02213 -0.010224,0.01217 -0.179515,-0.06705 -0.3762008,-0.176053 C 3.3972258,25.456761 3.120935,25.322572 2.979932,25.267566 2.8067232,25.199997 2.7035291,25.13754 2.6618026,25.075024 2.3773189,24.648796 2.0384093,24.399852 1.5513669,24.25936 1.2031346,24.158909 1.1649544,24.152444 1.2078478,24.201187 c 0.015831,0.01799 0.1446731,0.06871 0.2863165,0.112714 0.4198391,0.130427 0.7797648,0.381557 0.94654,0.660425 0.06182,0.10337 0.062157,0.107774 0.00629,0.08208 -0.03247,-0.01493 -0.1612924,-0.05189 -0.2862717,-0.08213 -0.1249793,-0.03024 -0.2868976,-0.09405 -0.359818,-0.141794 -0.07292,-0.04775 -0.1372227,-0.08681 -0.1428939,-0.08681 -0.00567,0 0.019164,0.05948 0.05519,0.132181 l 0.065501,0.132181 -0.1043951,-0.02422 C 1.5196779,24.949951 1.2241512,24.768176 1.0775659,24.61877 0.92646421,24.464763 0.90752343,24.506814 1.044393,24.692421 c 0.1295519,0.175682 0.326807,0.332242 0.5495603,0.436183 0.2618997,0.122206 0.3953285,0.243435 0.4834627,0.43926 0.1039959,0.231067 0.1280691,0.332968 0.077772,0.329203 -0.021953,-0.0016 -0.1738402,-0.07411 -0.3375272,-0.161044 z M 3.1601037,24.886274 C 3.0506035,24.783149 2.8871532,24.686035 2.7742563,24.657021 c -0.1471996,-0.03783 -0.1202605,0.03593 0.031614,0.08656 0.071546,0.02385 0.1908441,0.08887 0.265108,0.144491 0.1487319,0.111392 0.2080434,0.110193 0.089126,-0.0018 z m 1.5456522,-0.752019 c 0.065027,-0.02321 0.054309,-0.03083 -0.075745,-0.05387 -0.083319,-0.01476 -0.3219167,-0.08084 -0.5302156,-0.146841 -0.3962258,-0.125548 -0.7349399,-0.191606 -0.6817057,-0.132951 0.050069,0.05517 0.5616457,0.262867 0.7725998,0.313675 0.2208945,0.0532 0.4022758,0.06024 0.5150666,0.01999 z M 2.887874,23.429684 c 0,-0.0095 -0.057945,-0.05279 -0.1287667,-0.09616 -0.1381274,-0.08459 -0.6630083,-0.149167 -0.568088,-0.06989 0.024996,0.02088 0.093166,0.03931 0.15149,0.04097 0.058324,0.0017 0.1946649,0.03211 0.3029804,0.06768 0.2378874,0.07811 0.2423843,0.07918 0.2423843,0.05741 z M 2.2849953,21.578349 C 2.2440523,21.562099 2.0291962,21.72723 1.788194,21.960171 1.4241448,22.312044 1.5127036,22.296974 1.9196667,21.937801 2.1365106,21.74642 2.3009085,21.584668 2.2849953,21.578352 Z m 0.6502317,-0.01191 c 0.063526,-0.08059 0.071553,-0.102196 0.028053,-0.07549 -0.075917,0.04661 -0.1860733,0.18839 -0.1463665,0.18839 0.016129,0 0.06937,-0.05081 0.1183135,-0.112899 z M 1.9589563,20.110546 c 0.1139922,-0.07512 0.4050302,-0.240353 0.6467512,-0.367189 0.3824641,-0.200687 0.7068304,-0.408863 0.6370636,-0.408863 -0.04962,0 -1.0087086,0.405991 -1.1248128,0.476143 -0.3227394,0.195005 -0.6110516,0.491017 -0.7802388,0.801077 -0.06393,0.117161 -0.1162372,0.225881 -0.1162372,0.2416 0,0.01572 0.1192985,-0.114244 0.2651076,-0.288805 0.1694356,-0.202847 0.3399036,-0.366673 0.4723664,-0.453963 z m -0.186468,0.409397 c 0.1052127,-0.11188 0.232198,-0.246609 0.2821898,-0.299396 l 0.090894,-0.09598 -0.1211922,0.07284 c -0.1518119,0.09125 -0.2849326,0.231632 -0.3961101,0.417726 -0.047414,0.07936 -0.077403,0.136182 -0.066642,0.126261 0.010761,-0.0099 0.1056481,-0.109576 0.2108606,-0.221457 z m 2.4985828,5.251474 C 4.1203136,25.713972 3.9998191,25.587322 3.5998777,25.06594 3.4998941,24.935597 3.3730408,24.788822 3.3179815,24.739775 l -0.100108,-0.08918 0.191002,0.01391 c 0.5034721,0.03667 0.6999327,0.12921 1.1150922,0.525246 0.1583073,0.151016 0.3806178,0.330126 0.4940239,0.398023 l 0.2061924,0.12345 -0.1001492,0.04424 c -0.1622572,0.07167 -0.6812622,0.08138 -0.8529637,0.01595 z M 3.3726424,24.455932 C 2.6532508,24.304065 2.5669173,24.275204 2.5142051,24.168956 2.4873001,24.114726 2.4078986,24.008624 2.3377573,23.933174 l -0.1275296,-0.137182 0.2706526,0.02391 c 0.5292777,0.04676 0.8956162,0.209358 1.1976853,0.531578 0.1939082,0.206843 0.1882579,0.208773 -0.3059232,0.104448 z M 4.5997126,23.640736 C 4.39623,23.603085 4.1574751,23.504297 3.827113,23.321063 3.6354778,23.214774 3.4412859,23.116726 3.3955754,23.103178 c -0.1789433,-0.05303 -0.03575,-0.09023 0.2747603,-0.07136 0.3180626,0.01932 0.3211592,0.01875 0.1870751,-0.03457 -0.074988,-0.02982 -0.1602006,-0.05446 -0.1893625,-0.05476 -0.110317,-0.0011 -0.047171,-0.06932 0.086267,-0.09315 0.1963936,-0.03507 0.4924677,0.0081 0.7642969,0.111397 0.28334,0.107685 0.6947675,0.180959 0.8124847,0.1447 0.075288,-0.02319 0.044908,-0.04083 -0.2314663,-0.134384 -0.1749712,-0.05923 -0.4544704,-0.146948 -0.6211097,-0.19493 l -0.3029803,-0.08724 0.3635763,0.02091 c 0.4544912,0.02615 1.3119969,0.140629 1.6478157,0.219995 l 0.2541065,0.06005 -0.1026163,0.101809 c -0.1413569,0.140247 -0.609823,0.41162 -0.8297688,0.480669 -0.1833779,0.05757 -0.740788,0.09952 -0.9089411,0.0684 z M 1.6305057,22.706834 c 0.1252748,-0.123909 0.5068093,-0.35642 0.7336431,-0.447091 0.1916,-0.07659 1.0387843,-0.267768 1.0623312,-0.239733 0.025099,0.02989 -0.2840413,0.237347 -0.5083079,0.341122 -0.1249795,0.05783 -0.4286458,0.156204 -0.674814,0.218607 -0.2461682,0.0624 -0.5052165,0.136754 -0.5756625,0.165228 l -0.1280841,0.05177 z M 2.978768,21.915117 c 0,-0.01 0.065048,-0.05736 0.1445508,-0.105332 0.3665273,-0.221144 0.7661226,-0.699163 1.1224182,-1.342702 0.1110558,-0.200588 0.1781015,-0.280411 0.3085287,-0.367328 0.091652,-0.06108 0.255261,-0.202842 0.3635764,-0.315034 0.2782756,-0.288235 0.3926728,-0.358844 0.7877486,-0.486219 0.3464891,-0.11171 0.7535809,-0.308745 0.5605138,-0.271292 -0.5804149,0.112595 -0.8762767,0.16383 -0.8966713,0.155281 -0.057963,-0.0243 0.9280377,-0.61148 1.2602478,-0.750502 0.1999669,-0.08368 0.4431408,-0.199873 0.540386,-0.258205 0.1764305,-0.10583 0.176768,-0.105879 0.1573006,-0.02281 -0.091194,0.38913 -0.4433556,0.972026 -0.7492381,1.240136 -0.2305726,0.202099 -0.7184104,0.529597 -1.0479437,0.703512 -0.1381332,0.0729 -0.2593735,0.142338 -0.2694234,0.154304 -0.054374,0.06474 0.4777239,-0.153317 0.8774818,-0.359599 0.6218706,-0.320896 0.7782772,-0.396276 0.8853111,-0.42667 l 0.090894,-0.02581 -0.075745,0.09824 c -0.1463137,0.189764 -0.4279676,0.409175 -0.6649061,0.517969 -0.1316143,0.06043 -0.4791697,0.176059 -0.772345,0.256947 -0.8553905,0.236005 -1.0531309,0.34082 -1.1712367,0.620832 -0.2301453,0.545641 -0.5464961,0.811097 -1.103021,0.925565 -0.1166475,0.02399 -0.242763,0.0511 -0.2802568,0.06023 -0.037494,0.0091 -0.068171,0.0085 -0.068171,-0.0015 z M 5.4976479,19.51235 c 0.067607,-0.04107 0.1162565,-0.0826 0.1081107,-0.0923 -0.020728,-0.02468 -0.2216146,0.07891 -0.2466843,0.12721 -0.029567,0.05696 -6.922e-4,0.04969 0.1385736,-0.03491 z m -1.2312136,1.9513 c 0.1818411,-0.222319 0.2639354,-0.289655 0.5756627,-0.47217 0.3848078,-0.225303 0.3828996,-0.27199 -0.00512,-0.125278 -0.1290653,0.0488 -0.239718,0.08271 -0.2458948,0.07536 -0.00618,-0.0074 0.040958,-0.05589 0.1047435,-0.107863 0.1345302,-0.10961 0.4515995,-0.229658 0.9619366,-0.364206 0.6383941,-0.16831 1.004984,-0.348459 1.2993843,-0.638541 0.080122,-0.07895 0.1522868,-0.135669 0.1603653,-0.126051 0.00808,0.0096 -0.011828,0.100583 -0.044238,0.202142 -0.1672333,0.524032 -0.4166894,0.812742 -0.9852641,1.140301 -0.2186621,0.125972 -0.479372,0.257798 -0.5793557,0.292946 -0.099984,0.03515 -0.1954223,0.07794 -0.2120862,0.0951 -0.047417,0.04882 0.2178341,-0.0099 0.4687912,-0.103867 0.257221,-0.09626 0.6461642,-0.144502 0.7570164,-0.09389 0.068272,0.03117 0.058166,0.04038 -0.1211916,0.11045 -0.3101995,0.121186 -0.442656,0.146673 -1.0647304,0.204872 -0.6450651,0.06035 -1.1281949,0.119764 -1.2215088,0.15022 -0.036174,0.0118 0.02488,-0.08472 0.1514901,-0.23952 z M 3.8974574,20.123887 c 0.074602,-0.10154 0.1863283,-0.287817 0.2482808,-0.413948 0.097622,-0.198752 0.1515559,-0.26025 0.4045,-0.461236 0.1675303,-0.133117 0.3997907,-0.363908 0.5452265,-0.541777 l 0.2533674,-0.30987 -0.021372,0.169687 c -0.072244,0.573605 -0.365886,1.049246 -0.8599357,1.392921 -0.1781142,0.123901 -0.610759,0.348842 -0.6709531,0.348842 -0.019115,0 0.026284,-0.08308 0.1008861,-0.184619 z M 3.618979,19.600085 c 0.1370396,-0.173587 0.3322568,-0.518506 0.419327,-0.740887 0.044117,-0.112678 0.1878478,-0.310251 0.4330171,-0.595229 0.201839,-0.234612 0.4538085,-0.529826 0.5599321,-0.65603 0.1061238,-0.126205 0.1976277,-0.223606 0.2033426,-0.216447 0.027377,0.0343 -0.1506298,0.662567 -0.2698451,0.952414 -0.1180528,0.287019 -0.366529,0.694207 -0.3995966,0.654834 -0.00657,-0.0078 0.028376,-0.118101 0.077651,-0.24507 0.049276,-0.126969 0.098435,-0.295787 0.1092423,-0.37515 0.01737,-0.127555 6.929e-4,-0.104129 -0.1436708,0.201894 -0.2006936,0.425412 -0.3561908,0.681112 -0.4857254,0.798729 -0.1090844,0.09905 -0.4198916,0.291729 -0.5379249,0.33348 -0.070155,0.02482 -0.067628,0.01651 0.034251,-0.112538 z m 0.3886855,-0.215776 c 0.086765,-0.08693 0.2008725,-0.293111 0.1775703,-0.320856 -0.00546,-0.0065 -0.082407,0.0843 -0.1709979,0.201762 -0.1671297,0.221605 -0.1705379,0.283366 -0.00657,0.119094 z m 1.3763658,-0.450824 c 0.0872,-0.358686 0.1398427,-0.640271 0.1402363,-0.750127 2.245e-4,-0.07123 0.01048,-0.147841 0.022724,-0.170247 0.012244,-0.02241 0.1517836,-0.133962 0.310091,-0.247903 0.8187708,-0.589305 1.1466568,-0.990403 1.3495836,-1.65093 0.088488,-0.28803 0.1208534,-0.213076 0.091839,0.212689 -0.049075,0.720147 -0.2269695,1.204206 -0.6081213,1.654733 -0.1969838,0.232837 -0.3428908,0.358295 -0.7551842,0.649341 -0.2810645,0.19841 -0.5247626,0.366977 -0.5415507,0.374594 -0.018629,0.0085 -0.022376,-0.01967 -0.00962,-0.07215 z M 6.126025,17.971667 c 0.106259,-0.07015 0.228966,-0.165342 0.2726823,-0.211537 0.074489,-0.07871 0.064816,-0.07699 -0.1539511,0.02748 -0.2333789,0.111442 -0.553015,0.3882 -0.3876749,0.335671 0.041659,-0.01324 0.1626843,-0.08146 0.2689437,-0.15161 z m -1.0811144,0.551151 c 0.057607,-0.217043 0.1046639,-0.299671 0.2096575,-0.368146 0.1032494,-0.06734 0.1135908,-0.0688 0.088279,-0.01249 -0.035135,0.07817 -0.3113009,0.430987 -0.2979361,0.380633 z M 4.0868025,18.315389 c 0.013778,-0.08432 0.02658,-0.330787 0.02845,-0.547694 l 0.0034,-0.394378 0.1916451,-0.20987 c 0.1054046,-0.115429 0.2025824,-0.209871 0.2159497,-0.209871 0.038627,0 0.067738,0.313772 0.04908,0.529013 -0.022074,0.254657 -0.1639425,0.6128 -0.3253119,0.821242 -0.1610399,0.208017 -0.195714,0.210473 -0.1632138,0.01156 z M 5.2355209,17.95785 c 0.012843,-0.06625 0.038913,-0.204881 0.057934,-0.308077 0.032601,-0.176873 0.045839,-0.196213 0.2309345,-0.337392 0.2175242,-0.165914 0.3513314,-0.303665 0.4009481,-0.412769 0.027749,-0.06102 0.016953,-0.05775 -0.070778,0.02143 -0.056938,0.05139 -0.1351672,0.113386 -0.1738443,0.137772 l -0.070322,0.04434 0.055173,-0.10045 c 0.061464,-0.111903 0.040632,-0.103542 -0.1408776,0.05654 -0.090195,0.07955 -0.076883,0.04912 0.093563,-0.213891 0.3865501,-0.596466 0.6102839,-1.057751 0.7519682,-1.550379 0.07883,-0.274087 0.1203551,-0.722316 0.066917,-0.722316 -0.019081,0 -0.034692,0.03154 -0.034692,0.0701 0,0.133585 -0.1877001,0.743021 -0.3228385,1.048213 -0.1466209,0.331123 -0.4688631,0.915338 -0.6160883,1.116948 -0.088891,0.121727 -0.091226,0.122643 -0.09198,0.03607 -5.799e-4,-0.066 -0.023519,-0.03301 -0.089276,0.128365 -0.084946,0.208464 -0.3998729,0.666637 -0.4582151,0.666637 -0.015548,0 -0.020502,-0.06853 -0.011085,-0.153317 l 0.017029,-0.153316 -0.059382,0.126261 -0.059382,0.12626 -0.00472,-0.306633 c -0.0026,-0.168648 -0.00428,-0.352792 -0.00373,-0.409209 7.779e-4,-0.07948 0.064329,-0.181301 0.2822435,-0.452146 0.4147789,-0.515528 0.6623839,-0.928225 0.9008659,-1.501525 0.2680132,-0.644292 0.3068717,-0.803001 0.3305372,-1.350008 l 0.019388,-0.448145 0.1110689,0.199516 c 0.1737167,0.312053 0.3129162,0.669395 0.390869,1.003407 0.059834,0.25638 0.071685,0.39236 0.072312,0.829714 10e-4,0.705371 -0.090506,1.108921 -0.3587405,1.581885 -0.060207,0.106159 -0.1094663,0.20295 -0.1094663,0.215091 0,0.05352 0.3262647,-0.365402 0.5219056,-0.670125 0.1179997,-0.183792 0.2206589,-0.326887 0.2281316,-0.317989 0.00747,0.0089 -0.00941,0.0986 -0.03751,0.199346 -0.1189924,0.426556 -0.4622787,0.872341 -0.9446653,1.226725 -0.1472791,0.108199 -0.4094763,0.308502 -0.5826606,0.445119 l -0.3148806,0.248396 z"
         id="path23264"
         sodipodi:nodetypes="sssssssscsscssscssssssssscssscscsssssscsssccsscssssccssssscsscssssssssccscscsscssccscssssssssssssscsscsscssccscssssssssssssccsssscssssssssssscssssscssssssssssssssssscssssssssssccscssscsccssssssscssscsssssscsssssssscssssscsscssssssscscsccssssssssssscsscsscssccccsscsssscssscssssssscsssssscsssssssssscsscssscccccscsssssssssssssscsscccscsssscccssssscsssssssscssccccccssscsscsssscsscc"
         inkscape:transform-center-x="38.7105"
         inkscape:transform-center-y="4.0687715" />
    </mask>
  </defs>
  <g
     inkscape:label="Réteg 1"
     inkscape:groupmode="layer"
     id="layer1">
    <g
       id="g831"
       transform="matrix(1.0458025,0,0,1.0458025,1.389629,-2.1258311)">
      <path
         style="mix-blend-mode:normal;fill:#022502;fill-opacity:1;fill-rule:nonzero;stroke:none;stroke-width:1;stroke-miterlimit:4;stroke-dasharray:none;stroke-opacity:0"
         d="m -0.3781775,49.94784 c -1.3863957,-0.938764 -3.6887658,-3.195992 -4.5775628,-4.487815 -0.9595548,-1.394666 -1.8738792,-3.414694 -2.2978978,-5.076779 -0.2728137,-1.06938 -0.3286765,-1.964528 -0.2406745,-3.856508 0.09906,-2.129733 0.647223,-4.933452 0.9126568,-4.668017 0.048267,0.04827 0.3321291,0.931032 0.6308042,1.9617 0.678992,2.343056 1.3186335,3.618486 2.9540525,5.890316 1.308273,1.817376 2.5655284,4.136614 2.8438212,5.245949 L 0,45.56649 -0.9389661,44.979332 c -1.5377025,-0.961566 -2.5981459,-1.808497 -3.5768883,-2.85671 l -0.9239186,-0.989499 0.4328984,0.884471 c 0.5387065,1.100652 1.9549936,2.36493 3.6781065,3.283341 1.6762603,0.893438 2.1814016,1.856663 2.0852064,3.976167 l -0.06336,1.396106 z M 7.5867384,48.634443 C 2.8512899,46.488712 1.5752893,45.477084 -0.1497872,42.500836 -0.7223984,41.512918 -1.8465658,39.784448 -2.6479356,38.659792 -3.9869319,36.780621 -5.1218234,34.664327 -4.906195,34.448699 c 0.049026,-0.04903 0.2940852,0.198687 0.544578,0.550471 0.6870724,0.964903 2.9293432,2.571022 4.733316,3.390429 3.9915455,1.813055 4.6910162,2.235604 6.1796561,3.733122 1.5294252,1.538547 2.5223368,3.144982 3.0962378,5.009415 0.329475,1.070374 0.6552951,2.690535 0.5357741,2.664179 -0.0348,-0.0077 -1.2032831,-0.530517 -2.5966286,-1.161872 z M 5.9371762,43.801844 C 5.4862784,42.959334 0.9958275,39.672277 -0.3781775,39.178938 l -0.4285011,-0.153853 0.4285011,0.488292 c 0.8696391,0.990983 5.8652819,4.68251 6.3814896,4.715595 0.092524,0.0059 0.062765,-0.186277 -0.066134,-0.427128 z m 9.1106798,1.397018 C 11.854068,44.49484 8.9607099,43.075331 6.9337903,41.218028 5.7344263,40.11903 5.4808935,39.75023 5.068207,38.504277 4.5401986,36.910148 4.2747233,36.421219 3.2092015,35.080547 2.9151798,34.7106 2.6991156,34.39035 2.6450791,34.249273 c -0.019115,-0.0499 -0.028487,-0.380526 -0.00333,-0.37986 0.6175547,0.01637 4.2199523,1.239651 6.0996579,1.863068 5.109674,1.694653 6.441295,2.728409 8.166914,6.340096 0.597647,1.250867 1.333392,2.539438 1.634987,2.863491 l 0.548354,0.2727 v 0.31649 l -1.37915,-0.02152 c -0.758534,-0.01183 -1.957627,-0.149027 -2.664654,-0.304881 z m -0.964127,-4.371391 c 0,-0.374657 -2.251282,-1.477806 -4.5870691,-2.247706 -1.285594,-0.423745 -2.3793451,-0.728541 -2.4305611,-0.677326 -0.2347284,0.234728 2.0043321,1.353355 4.3394992,2.167999 1.414053,0.493306 2.59511,0.910113 2.624569,0.926239 0.02946,0.01613 0.05357,-0.06001 0.05357,-0.169206 z M 1.5880289,37.90929 C -2.7373478,35.979994 -4.6028394,34.078864 -6.3776112,29.791468 -10.153365,20.670217 -8.5216848,12.317225 -1.3857739,4.2369509 0.6967398,1.8788398 3.6608215,-0.635075 11.191348,-6.4300314 c 2.12108,-1.6322313 4.236103,-3.2888896 4.700051,-3.6814576 0.966101,-0.817462 1.183329,-0.690805 1.188557,0.6929983 0.0061,1.61816 -0.887286,2.9479252 -3.239613,4.8219459 -1.160926,0.9248727 -3.028545,2.2792807 -4.1502591,3.0097953 -1.1217161,0.7305146 -1.9950119,1.37267886 -1.9406572,1.42703436 0.3098009,0.3098018 6.1929743,-3.35784906 8.0173723,-4.99813926 0.606204,-0.5450286 1.100762,-0.8615106 1.09902,-0.7032932 -0.0097,0.8807926 -0.752173,3.2266812 -1.440265,4.5505864 C 14.18444,1.0773694 12.790237,2.290702 9.1484979,4.152166 1.0887691,8.2718719 -4.1845516,13.159141 -5.6342382,17.852679 c -0.2857384,0.925113 -0.4146955,1.927173 -0.4002208,3.109906 0.034803,2.84374 0.2794995,3.074974 0.5636027,0.532597 0.293344,-2.62507 0.8134458,-4.153837 2.0465157,-6.015455 C -2.2850572,13.759701 0.7286632,10.735834 2.4940238,9.5414342 3.9957567,8.5254014 7.5414587,6.7998646 9.3166569,6.2211657 9.9353049,6.0194895 10.441471,5.8005378 10.441471,5.7346026 c 0,-0.1265453 -1.8766452,0.051315 -2.7852556,0.2639715 -0.1617455,0.037856 -0.252214,0.048092 -0.2811152,0.035042 C 7.3586392,6.0261861 7.3451672,5.732502 7.3668602,5.7107607 7.6189889,5.458042 10.344338,4.5714986 12.691103,3.7514022 14.45867,3.1337113 16.08184,2.5346411 16.298149,2.4201378 c 0.243263,-0.1287737 0.420396,-0.4474928 0.48188,-0.399471 0.01502,0.011734 0.0039,0.3311676 0.0039,0.3311676 0.02658,0.1389076 -0.163407,0.4810729 -0.568482,1.0097644 C 14.955714,5.0057641 13.78224,6.1290813 12.798255,6.6327214 12.267984,6.9041338 10.408185,7.5772045 8.665368,8.1284362 1.52709,10.386183 -1.5184799,12.796232 -3.1783093,17.500688 c -0.3842508,1.089084 -0.09288,1.034671 0.4427907,-0.08269 1.1753886,-2.451762 3.5724437,-4.818214 6.3727938,-6.291432 1.3191371,-0.693981 7.5837338,-3.1135083 8.0477668,-3.0494908 0.01135,0.00157 -0.01332,0.2561477 -0.009,0.2604393 -0.07769,0.4719246 -3.7223082,4.0037475 -7.2413324,6.8231025 L 3.6926117,15.755168 4.9795389,15.130289 C 7.2057926,14.049313 9.4092843,12.163265 12.8244,8.4155944 c 0.571095,-0.6267067 1.209486,-0.9709345 3.026926,-1.6321562 1.209612,-0.4400816 2.21547,-1.0516495 2.303193,-1.0080346 0.0041,0.00206 0,0.3128575 0,0.31649 0,0.4286575 -3.909199,4.9349884 -5.218038,6.0150964 -1.731027,1.428513 -4.3587139,2.88078 -6.9206916,3.824921 -3.6602149,1.348861 -6.2506583,2.962451 -7.8361988,4.881174 -0.7448535,0.901376 -1.6643702,2.416002 -1.6643702,2.741549 0,0.06283 0.4466976,-0.226726 0.99266,-0.643467 1.7296478,-1.320271 3.1405687,-1.84878 7.3631095,-2.758102 4.6190264,-0.994707 7.3339551,-2.179983 9.4424821,-4.122372 0.893005,-0.822639 2.175603,-1.022386 12.196816,-1.899456 4.086211,-0.357632 5.945776,-0.753423 8.892713,-1.89273 1.059178,-0.409486 1.98005,-0.960824 2.024985,-0.915886 0.0091,0.0091 -0.0029,0.275019 -7.71e-4,0.291409 0.04591,0.354874 -1.50053,2.362345 -2.737458,3.528856 -1.701682,1.604806 -3.895767,2.811794 -6.167541,3.392816 -1.363967,0.348844 -2.36501,0.42193 -5.742015,0.419221 -2.249528,-0.0017 -4.199312,-0.07411 -4.332861,-0.160688 -0.02857,-0.01852 -0.04236,-0.363153 -0.04146,-0.405511 0.0041,-0.192653 0.310898,-0.314389 0.900422,-0.961739 l 1.101772,-1.209844 2.002663,-0.2435 c 1.101466,-0.133926 2.498568,-0.360799 3.104672,-0.504161 l 1.102008,-0.260661 -2.035379,-0.06279 c -3.972481,-0.12256 -7.123776,0.614041 -8.283449,1.936219 -0.38425,0.438097 -0.383417,0.444895 0.0348,0.283409 1.547837,-0.597662 2.593646,-1.200721 2.678096,-1.083438 0.0037,0.0051 7.7e-5,0.309739 7.7e-5,0.316489 0,0.103635 -0.481401,0.682664 -1.06978,1.286731 -1.57896,1.621059 -4.256861,2.688573 -9.1565937,3.650168 -1.40134,0.275018 -1.6153658,0.636354 -0.3769241,0.636354 1.4323501,0 3.0428208,0.496681 5.8897878,1.816458 4.162986,1.929848 6.346656,2.512007 13.283529,3.541352 2.463012,0.365481 3.485666,0.2826 3.631168,0.512703 0.02737,0.04328 0.0078,0.32008 -0.02172,0.371187 -0.07983,0.137982 -0.352708,0.311765 -0.740571,0.560656 -3.109655,1.995463 -7.607227,2.9702 -11.688303,2.533151 C 17.407933,31.362444 17.32974,31.321302 16.630647,30.385951 15.263219,28.5564 12.42875,26.762708 10.058381,26.226927 8.1196631,25.788714 4.1184721,25.385717 1.7063353,25.385717 c -2.4253049,0 -3.0428896,0.252181 -1.2690224,0.518191 1.477692,0.221594 4.5697671,1.653521 4.8627124,2.34456 0.014761,0.03482 -1.033e-4,0.28685 -3e-7,0.31649 2.786e-4,0.0779 -0.891547,0.123509 -1.981817,0.101345 -2.210104,-0.04494 -1.95582,0.105789 1.1243231,0.666412 3.6038949,0.655954 7.3136449,2.984364 10.2797229,6.452033 0.953824,1.115123 1.996103,1.84256 2.118692,1.791506 0,0 -0.05832,0.233462 -0.130618,0.305771 -0.0723,0.0723 -1.170739,-0.336536 -2.561589,-0.983915 C 12.757816,36.250722 10.804044,35.45376 9.8069509,35.127073 8.582117,34.725772 7.8523871,34.354834 7.5573207,33.983541 5.5456136,31.452129 3.149037,29.973625 -0.2950503,29.139226 -2.7575515,28.542637 -3.02754,28.504238 -2.7242223,28.793728 c 0.111946,0.106843 1.0230464,0.408083 2.0246676,0.669421 2.968864,0.774623 5.5140525,2.266111 6.6933938,3.922338 0.1352763,0.189977 0.2844248,0.138361 0.3336867,0.209709 0.00898,0.01301 -0.00859,0.225731 -0.1195586,0.291793 -0.040864,0.02433 -0.104447,0.01117 -0.1696644,-0.01402 C 5.8086981,33.784288 4.8977355,33.56479 4.0139524,33.385184 3.1301694,33.205578 1.9851756,32.826619 1.4695238,32.543052 0.9538721,32.259487 0.4991626,32.027477 0.4590597,32.027477 c -0.040096,0 0.1355189,0.353267 0.3902712,0.785039 l 0.463184,0.46855 v 0.31649 L 0.5742917,33.453741 c -1.0934284,-0.213019 -3.1832256,-1.292602 -4.2197935,-2.179937 -1.0685054,-0.914671 -1.2024438,-0.66492 -0.2345801,0.437416 0.9161178,1.043399 2.3109936,1.973227 3.8861783,2.590539 1.8520061,0.725794 2.7955384,1.44579 3.4187742,2.608814 0.4294479,0.801395 0.6769542,1.129206 0.7287589,1.435188 0.036907,0.217991 -0.030829,0.529289 -0.1788017,0.519987 -0.1552377,-0.0098 -1.2292994,-0.440165 -2.3868036,-0.956459 z M 11.081023,32.862538 C 10.3067,32.250069 9.1508719,31.673292 8.3525296,31.500975 c -1.0409123,-0.224674 -0.8504142,0.213418 0.2235527,0.514111 0.5059296,0.141651 1.3495406,0.527817 1.8746927,0.858148 1.051748,0.661567 1.471165,0.65445 0.630248,-0.01069 z m 10.929975,-4.466326 c 0.459832,-0.137826 0.384041,-0.183097 -0.535627,-0.319937 -0.589188,-0.08767 -2.276412,-0.480114 -3.749383,-0.872107 -2.801884,-0.745645 -5.197078,-1.137971 -4.820636,-0.789608 0.354056,0.327648 3.97164,1.561197 5.463387,1.862948 1.562041,0.315965 2.844666,0.357768 3.642259,0.118704 z M 9.1559689,24.21169 c 0,-0.05652 -0.409754,-0.313528 -0.9105648,-0.571122 -0.9767587,-0.502396 -4.6884181,-0.885923 -4.017196,-0.415097 0.1767564,0.123985 0.6588195,0.233482 1.0712518,0.243324 0.4124322,0.0098 1.3765594,0.190724 2.1425053,0.401958 1.6822047,0.463918 1.7140037,0.470245 1.7140037,0.340937 z M 4.8927535,13.216409 c -0.2895228,-0.09651 -1.8088665,0.88422 -3.5130972,2.267684 -2.5743491,2.089812 -1.9481116,2.000306 0.9297005,-0.132878 1.5333971,-1.136633 2.6959257,-2.097296 2.5833967,-2.134806 z m 4.5980694,-0.07075 c 0.449217,-0.478662 0.505978,-0.606949 0.198375,-0.448346 -0.536842,0.2768 -1.3158047,1.118865 -1.0350209,1.118865 0.1140539,0 0.4905459,-0.301733 0.8366459,-0.670519 z M 2.5871906,4.4989644 C 3.393279,4.0528305 5.4513346,3.0714797 7.1606478,2.318188 9.8652169,1.1262867 12.158951,-0.11009254 11.6656,-0.11009254 c -0.350883,0 -7.1330141,2.41122204 -7.9540378,2.82786414 -2.2822292,1.1581544 -4.3210097,2.916204 -5.5174052,4.7576822 -0.4520805,0.6958364 -0.8219639,1.341536 -0.8219639,1.4348894 0,0.093352 0.8436112,-0.6785076 1.8746907,-1.7152441 C 0.4450357,5.9903728 1.6504887,5.0173885 2.5871906,4.4989644 Z M 1.2685949,6.93042 C 2.012599,6.2659482 2.9105672,5.4657824 3.2640809,5.1522744 L 3.9068323,4.5822586 3.0498299,5.0148774 C 1.9763022,5.5568001 1.0349486,6.3905646 0.2487642,7.4957992 -0.0865204,7.9671508 -0.2985862,8.3045947 -0.2224919,8.2456761 -0.1463985,8.1867576 0.5245918,7.5948926 1.2685949,6.93042 Z M 18.937154,38.119499 c -1.066072,-0.341174 -1.91814,-1.093359 -4.746299,-4.189907 -0.707027,-0.774123 -1.604062,-1.645833 -1.99341,-1.937129 l -0.712378,-0.553186 0.0045,-0.292935 1.350653,0.399123 c 3.420698,1.010829 4.949527,0.767395 7.885299,3.119496 1.119459,0.896895 2.691513,1.96065 3.493456,2.363902 l 1.458076,0.416692 v 0.31649 l -0.708198,0.262731 c -1.147391,0.425665 -4.8175,0.483306 -6.031675,0.09473 z M 12.583976,30.306691 C 7.4968471,29.404734 6.8863453,29.233325 6.5135949,28.602307 6.323338,28.280228 5.7618555,27.650077 5.2658562,27.201972 l -0.9030604,-0.802518 0.00124,-0.32871 1.9139012,0.45851 c 3.6497674,0.874368 6.33329,1.243403 8.46935,3.157101 0.459415,0.41159 0.773154,0.442202 0.838896,0.602601 0.0135,0.03293 0.0043,0.305392 -0.0027,0.328854 -0.06066,0.203358 -0.916183,0.05826 -2.999556,-0.311123 z m 8.677144,-4.841542 c -1.438914,-0.223615 -3.127253,-0.810327 -5.463386,-1.89857 -1.355135,-0.631266 -2.72835,-1.213584 -3.051589,-1.294043 -0.356978,-0.08886 -0.532661,-0.170226 -0.551631,-0.238745 -0.003,-0.01072 -0.0059,-0.32486 -0.0013,-0.334933 0.07041,-0.153718 1.01651,0.07437 2.495875,0.149848 2.249158,0.114751 2.271056,0.11135 1.322889,-0.205282 -0.53027,-0.17708 -1.132848,-0.32342 -1.339064,-0.325218 -0.218306,-0.0019 -0.340552,-0.03498 -0.382725,-0.08474 -0.01033,-0.01219 -0.01516,-0.335853 -0.01611,-0.349834 -0.0091,-0.132863 0.394027,-0.02643 1.008865,-0.118628 1.388784,-0.208261 3.482452,0.04803 5.404674,0.661601 2.003619,0.639553 4.913001,1.074733 5.74543,0.859389 0.532398,-0.137727 0.317565,-0.24248 -1.636798,-0.79812 -1.237297,-0.351771 -3.213757,-0.872742 -4.392135,-1.157713 l -2.11273,-0.547802 -0.02977,-0.286816 2.571005,0.440709 c 3.171398,0.543625 9.277696,0.835206 11.652418,1.306572 l 1.796897,0.04018 -0.007,0.327698 -0.718625,0.593452 c -1.003266,0.828513 -4.312321,2.444652 -5.867654,2.854742 -1.296744,0.341907 -5.238432,0.591044 -6.427515,0.406253 z M 0.2645742,19.918601 c 0.8858729,-0.735904 3.5838687,-2.116815 5.1879079,-2.65532 1.3133359,-0.440911 7.0140649,-1.826092 7.5122029,-1.740289 0.01576,0.0027 -0.0051,0.311384 0,0.31649 -0.07883,0.251903 -2.008579,1.409629 -3.5944651,2.025959 -0.8837842,0.343469 -3.0311392,0.927716 -4.7719012,1.298332 -1.740762,0.370612 -3.5726044,0.812199 -4.0707583,0.981305 l -0.9057379,0.307463 v -0.31649 z m 9.5341457,-4.702094 c 0,-0.0094 -0.021822,-0.296746 0,-0.316519 0.1154156,-0.104576 0.5493771,-0.06947 1.0221811,-0.309058 2.591871,-1.313404 5.417584,-4.152407 7.937104,-7.974453 0.785324,-1.1913166 1.259433,-1.6653946 2.18174,-2.1816031 0.648108,-0.3627419 1.805061,-1.2047005 2.571006,-1.8710218 1.967807,-1.711859 2.776759,-2.13121154 5.570512,-2.88770424 2.450172,-0.66345706 5.328896,-1.83366956 3.963635,-1.61123266 -4.104365,0.6687101 -6.196532,0.9730038 -6.34075,0.9222307 -0.409884,-0.1443059 6.562556,-3.6316509 8.911756,-4.4573144 1.414053,-0.4969916 3.13364,-1.1870687 3.821303,-1.5335078 1.247616,-0.6285344 1.250003,-0.6288254 1.112341,-0.1354708 -0.644871,2.3110834 -3.13516,5.7729704 -5.298187,7.36530146 C 33.620882,1.4264432 30.171171,3.3714928 27.840897,4.4043918 26.864099,4.8373597 26.006756,5.2497514 25.935689,5.3208205 25.551187,5.7053231 29.313882,4.4102497 32.140743,3.185118 36.538256,1.2792829 37.644277,0.8315959 38.401159,0.65107966 l 0.642752,-0.4697867 v 0.31649 L 38.508285,1.0812345 c -1.03465,1.1270276 -3.026346,2.4301357 -4.701839,3.0762728 -0.930701,0.3589188 -3.388416,1.0456341 -5.461585,1.5260348 -6.048837,1.4016613 -7.447145,2.0241701 -8.282322,3.6871887 -1.627457,3.2406212 -3.86451,4.8171942 -7.799938,5.4970362 -0.824865,0.142497 -1.716682,0.303465 -1.981817,0.357711 -0.265135,0.05425 -0.4820641,0.0502 -0.4820641,-0.009 z M 27.610807,0.9462134 c 0.478076,-0.24389574 0.8221,-0.49057544 0.764499,-0.54817654 -0.146579,-0.1465797 -1.567133,0.46866884 -1.744412,0.75551374 -0.209083,0.338303 -0.0049,0.2951166 0.979913,-0.2073372 z M 18.904365,12.535199 c 1.285877,-1.320381 1.866401,-1.720294 4.07076,-2.804271 2.721142,-1.3380982 2.707648,-1.6153773 -0.03621,-0.7440399 -0.912677,0.2898285 -1.69515,0.4912249 -1.738829,0.4475481 -0.0079,-0.00788 -0.01514,-0.2939998 0,-0.31649 0.06878,-0.1021549 0.371018,-0.071154 0.740687,-0.3241194 0.951318,-0.650989 3.193455,-1.3639629 6.802268,-2.1630598 4.514361,-0.9996111 7.106678,-2.0695349 9.18851,-3.7923639 0.566579,-0.4688745 1.079153,-1.1244285 1.134012,-1.0651199 0.12741,0.1377442 -0.08364,0.9138614 -0.312829,1.5170299 -1.182577,3.1122862 -2.94659,4.8269624 -6.967226,6.7723709 -1.546255,0.748166 -3.389849,1.531095 -4.096876,1.739843 -0.707026,0.208748 -1.381915,0.462916 -1.499753,0.564818 -0.335304,0.289954 1.540398,-0.05908 3.315026,-0.616873 1.818919,-0.57171 4.569307,-0.858218 5.353191,-0.557642 0.145922,0.05595 0.2488,-0.185394 0.27571,-0.139687 0.01042,0.0177 0.003,0.321031 -0.0081,0.340017 -0.05515,0.09421 -0.388073,0.21398 -1.124591,0.455643 -2.193554,0.719738 -3.130211,0.871106 -7.529168,1.216756 -4.561534,0.358421 -7.977946,0.71132 -8.637816,0.892175 -0.08278,0.02269 -0.07178,-0.358289 -0.07178,-0.358289 0.515025,-0.4705 1.401464,-1.064246 1.143025,-1.064246 z M 16.29517,4.5781983 c 0.527542,-0.6030592 1.317608,-1.7093779 1.755701,-2.4584832 0.690328,-1.1804066 1.071717,-1.54565464 2.860394,-2.7393316 1.184679,-0.7905969 2.827093,-2.1612903 3.855532,-3.2176713 l 1.79167,-1.8403511 -0.151127,1.0077889 c -0.510866,3.4067047 -2.587338,6.2315864 -6.080977,8.2727099 -1.259523,0.735864 -4.670294,2.2126529 -4.7446,2.0718103 -0.02003,-0.037955 -0.0309,-0.3515827 -0.0309,-0.3515827 0,0 0.292163,-0.2280256 0.744302,-0.7448892 z m -1.969241,-3.110917 c 0.969065,-1.03095209 2.349531,-3.0794624 2.965242,-4.400207 0.311974,-0.6692111 1.328353,-1.8426166 3.062051,-3.535133 1.427291,-1.393385 3.209076,-3.1466913 3.959522,-3.8962333 0.750447,-0.749544 1.397511,-1.32802 1.437923,-1.285502 0.193595,0.203683 -1.065168,3.9350583 -1.908191,5.6564902 -0.834802,1.7046397 -2.591885,4.1229703 -2.82572,3.8891327 -0.04645,-0.04644 0.200655,-0.7014149 0.549106,-1.4554976 0.348449,-0.7540823 0.696074,-1.7567103 0.772499,-2.2280608 0.12283,-0.7575617 0.0049,-0.6184319 -1.015958,1.1990735 -1.419191,2.5265684 -2.518779,4.0451987 -3.434774,4.74373726 -0.771383,0.58825424 -2.969236,1.73260854 -3.8039,1.98057414 -0.206934,0.061477 -0.324442,0.088729 -0.338836,0.043986 -0.0022,-0.00688 -0.004,-0.312087 -0.0013,-0.3225122 0.02195,-0.084292 0.208603,0.00772 0.582303,-0.3898476 z m 2.748563,-1.28151964 c 0.613552,-0.5162685 1.420456,-1.74081536 1.255676,-1.90559696 -0.0386,-0.038594 -0.582732,0.5006392 -1.2092,1.1982879 -1.181846,1.3161378 -1.205947,1.6829414 -0.04647,0.70730906 z M 26.80737,-2.4917265 c 0.616632,-2.1302799 0.988888,-3.8026453 0.991671,-4.4550893 0.0017,-0.4230424 0.07411,-0.8780439 0.160688,-1.0111159 0.08658,-0.133071 1.073329,-0.795615 2.192787,-1.47232 5.789883,-3.4999483 8.108506,-5.8821173 9.54349,-9.8050573 0.625741,-1.71064 0.854606,-1.265481 0.649432,1.263182 -0.347034,4.277031 -1.605002,7.151914 -4.30029,9.8276413 -1.392957,1.3828461 -2.424729,2.1279532 -5.340233,3.8565091 -1.98753,1.1783779 -3.710824,2.1795162 -3.829541,2.2247512 -0.131729,0.050198 -0.15823,-0.1167924 -0.068,-0.4285011 z m 5.246964,-5.7123452 c 0.751404,-0.416631 1.619119,-0.981983 1.928254,-1.25634 0.526745,-0.4674873 0.45834,-0.4572333 -1.088653,0.163184 -1.650323,0.661861 -3.910609,2.30556 -2.741419,1.9935836 0.294594,-0.078601 1.150412,-0.4838016 1.901818,-0.9004276 z m -7.645027,3.2733435 c 0.407367,-1.2890373 0.740124,-1.7797762 1.482579,-2.1864579 0.73012,-0.3999284 0.803249,-0.4086167 0.624255,-0.074169 -0.248451,0.4642362 -2.201342,2.5596791 -2.106834,2.2606209 z m -6.775196,-1.23194 c 0.09743,-0.5008106 0.187962,-1.9645785 0.201185,-3.2528175 l 0.02404,-2.3422543 1.355205,-1.246441 c 0.745362,-0.685544 1.432548,-1.246443 1.527074,-1.246443 0.273148,0 0.479005,1.863523 0.347067,3.141863 -0.156097,1.512439 -1.159308,3.6394864 -2.300421,4.8774487 -1.138783,1.2354351 -1.383978,1.250019 -1.154155,0.068644 z m 8.123084,-2.1234625 c 0.09082,-0.393445 0.275172,-1.2168123 0.409679,-1.8297033 0.230538,-1.050468 0.324149,-1.165332 1.633037,-2.00381 1.538209,-0.985381 2.484416,-1.803502 2.835277,-2.451477 0.196227,-0.362393 0.11988,-0.342976 -0.500499,0.127289 -0.402629,0.305201 -0.955824,0.67341 -1.229328,0.818242 l -0.497275,0.263328 0.390151,-0.596583 c 0.434636,-0.664604 0.287323,-0.614948 -0.996206,0.335791 -0.637808,0.47244 -0.543673,0.2917 0.661624,-1.270321 2.733465,-3.542475 4.315582,-6.2821 5.317492,-9.20787 0.55744,-1.627831 0.851083,-4.28991 0.473203,-4.28991 -0.134928,0 -0.245325,0.18734 -0.245325,0.416312 0,0.793374 -1.327308,4.41288 -2.282931,6.225453 -1.036819,1.966572 -3.315533,5.436287 -4.356625,6.633672 -0.628587,0.722951 -0.645101,0.728392 -0.650435,0.21425 -0.0041,-0.391958 -0.166312,-0.196032 -0.631306,0.762372 -0.60069,1.238092 -2.827674,3.959232 -3.240237,3.959232 -0.109944,0 -0.144981,-0.406998 -0.07839,-0.910565 l 0.120418,-0.910565 -0.419913,0.749877 -0.419915,0.749876 -0.03341,-1.821128 c -0.01836,-1.001621 -0.03025,-2.095273 -0.02641,-2.430338 0.0055,-0.472013 0.454901,-1.076767 1.995866,-2.685345 2.933079,-3.061774 4.684002,-5.512829 6.370411,-8.917723 1.895237,-3.826518 2.170022,-4.76911 2.337371,-8.017844 l 0.137105,-2.661581 0.785416,1.18495 c 1.228427,1.853316 2.212766,3.975608 2.764003,5.959342 0.423115,1.522667 0.506919,2.33027 0.511352,4.927761 0.0071,4.189278 -0.640007,6.586006 -2.53681,9.394988 -0.425748,0.63049 -0.774084,1.205341 -0.774084,1.277449 0,0.317864 2.307158,-2.170161 3.69062,-3.979944 0.834426,-1.09156 1.560375,-1.941416 1.613219,-1.888572 0.05285,0.05285 -0.06652,0.585616 -0.265249,1.18394 -0.841447,2.533361 -3.268973,5.180926 -6.680137,7.285654 -1.041473,0.642601 -2.895582,1.832225 -4.120243,2.6436103 l -2.226657,1.4752476 z"
         id="path25359"
         sodipodi:nodetypes="sssssssscsscssscssssssssscssscscssssssscssscccsscssssccssssscsscssssssssccscssscsssscsscscscsssssssssssssscssscssscssccscssssssssssssssssccsssscsssssssssssssccsssssscssssssssssssssssscssssssssssccscssscsccsssssssccsssccssssssccsssssscssssscsssssssccsscscsssccsscscscccsssssssssssscsscscscssccccsscsssscsssscssssssssscssssssscsssssccscsscsscssscssssccsscccssssssscccscccssccssssscccssssscsssssssscssccccccssscsscsssscssccssss"
         inkscape:transform-center-x="38.7105"
         inkscape:transform-center-y="4.0687715" />
      <path
         style="mix-blend-mode:normal;fill:#004d00;fill-opacity:1;fill-rule:nonzero;stroke:none;stroke-width:1;stroke-miterlimit:4;stroke-dasharray:none;stroke-opacity:0"
         d="m -0.3781775,49.63135 c -1.3863957,-0.938764 -3.6887658,-3.195992 -4.5775628,-4.487815 -0.9595548,-1.394666 -1.8738792,-3.414694 -2.2978978,-5.076779 -0.2728137,-1.06938 -0.3286765,-1.964528 -0.2406745,-3.856508 0.09906,-2.129733 0.647223,-4.933452 0.9126568,-4.668017 0.048267,0.04827 0.3321291,0.931032 0.6308042,1.9617 0.678992,2.343056 1.3186335,3.618486 2.9540525,5.890316 1.308273,1.817376 2.5655284,4.136614 2.8438212,5.245949 L 0,45.25 -0.9389661,44.662842 c -1.5377025,-0.961566 -2.5981459,-1.808497 -3.5768883,-2.85671 l -0.9239186,-0.989499 0.4328984,0.884471 c 0.5387065,1.100652 1.9549936,2.36493 3.6781065,3.283341 1.6762603,0.893438 2.1814016,1.856663 2.0852064,3.976167 l -0.06336,1.396106 z M 7.5867384,48.317953 C 2.8512899,46.172222 1.5752893,45.160594 -0.1497872,42.184346 -0.7223984,41.196428 -1.8465658,39.467958 -2.6479356,38.343302 -3.9869319,36.464131 -5.1218234,34.347837 -4.906195,34.132209 c 0.049026,-0.04903 0.2940852,0.198687 0.544578,0.550471 0.6870724,0.964903 2.9293432,2.571022 4.733316,3.390429 3.9915455,1.813055 4.6910162,2.235604 6.1796561,3.733122 1.5294252,1.538547 2.5223368,3.144982 3.0962378,5.009415 0.329475,1.070374 0.6552951,2.690535 0.5357741,2.664179 -0.0348,-0.0077 -1.2032831,-0.530517 -2.5966286,-1.161872 z M 5.9371762,43.485354 C 5.4862784,42.642844 0.9958275,39.355787 -0.3781775,38.862448 l -0.4285011,-0.153853 0.4285011,0.488292 c 0.8696391,0.990983 5.8652819,4.68251 6.3814896,4.715595 0.092524,0.0059 0.062765,-0.186277 -0.066134,-0.427128 z m 9.1106798,1.397018 C 11.854068,44.17835 8.9607099,42.758841 6.9337903,40.901538 5.7344263,39.80254 5.4808935,39.43374 5.068207,38.187787 4.5401986,36.593658 4.2747218,36.10473 3.2092015,34.764057 2.8111742,34.263247 2.5642798,33.855579 2.6605473,33.858129 c 0.6175547,0.01637 4.201152,0.934445 6.0808576,1.557862 5.1096741,1.694653 6.4412951,2.728409 8.1669141,6.340096 0.597647,1.250867 1.333392,2.539438 1.634987,2.863491 l 0.548354,0.58919 -1.37915,-0.02152 c -0.758534,-0.01183 -1.957627,-0.149027 -2.664654,-0.304881 z m -0.964127,-4.371391 c 0,-0.374657 -2.251282,-1.477806 -4.5870691,-2.247706 -1.285594,-0.423745 -2.3793451,-0.728541 -2.4305611,-0.677326 -0.2347284,0.234728 2.0043321,1.353355 4.3394992,2.167999 1.414053,0.493306 2.59511,0.910113 2.624569,0.926239 0.02946,0.01613 0.05357,-0.06001 0.05357,-0.169206 z M 1.5880289,37.5928 C -2.7373478,35.663504 -4.6028394,33.762374 -6.3776112,29.474978 -10.153365,20.353727 -8.5216848,12.000735 -1.3857739,3.9204609 0.6967398,1.5623498 3.6608215,-0.951565 11.191348,-6.7465214 c 2.12108,-1.6322313 4.236103,-3.2888896 4.700051,-3.6814576 0.966101,-0.817462 1.183329,-0.690805 1.188557,0.6929983 0.0061,1.61816 -0.887286,2.9479252 -3.239613,4.8219459 -1.160926,0.9248727 -3.028545,2.2792807 -4.1502591,3.0097953 -1.1217161,0.7305146 -1.9950119,1.37267886 -1.9406572,1.42703436 0.3098009,0.3098018 6.1929743,-3.35784906 8.0173723,-4.99813926 0.606204,-0.5450286 1.100762,-0.8615106 1.09902,-0.7032932 -0.0097,0.8807926 -0.752173,3.2266812 -1.440265,4.5505864 C 14.18444,0.7608794 12.790237,1.974212 9.1484979,3.835676 1.0887691,7.9553819 -4.1845516,12.842651 -5.6342382,17.536189 c -0.2857384,0.925113 -0.4146955,1.927173 -0.4002208,3.109906 0.034803,2.84374 0.2794995,3.074974 0.5636027,0.532597 0.293344,-2.62507 0.8134458,-4.153837 2.0465157,-6.015455 C -2.2850572,13.443211 0.7286632,10.419344 2.4940238,9.2249442 3.9957567,8.2089114 7.5414587,6.4833746 9.3166569,5.9046757 9.9353049,5.7029995 10.441471,5.4840478 10.441471,5.4181126 c 0,-0.1265453 -1.8766452,0.051315 -2.7852556,0.2639715 C 6.3314875,5.9921344 9.7879819,4.4494306 12.691101,3.4349117 14.458668,2.8172209 16.081838,2.2181506 16.298147,2.1036473 16.97696,1.7443106 16.946502,2.0909183 16.215417,3.0451083 14.955686,4.6892751 13.78221,5.8125908 12.798225,6.3162309 12.267954,6.5876433 10.408155,7.260714 8.6653376,7.8119457 1.5270596,10.069692 -1.5185103,12.479741 -3.1783397,17.184198 c -0.3842508,1.089084 -0.09288,1.034671 0.4427907,-0.08269 1.1753886,-2.451763 3.5724437,-4.818214 6.3727938,-6.291433 C 4.9886521,10.099118 11.496253,7.8413005 11.675979,8.021024 11.93158,8.2766273 7.9537034,12.024772 4.4346792,14.844126 L 3.6925813,15.438677 4.9795085,14.813798 C 7.2057622,13.732822 9.4092539,11.846775 12.82437,8.0991039 13.395465,7.4723972 14.033856,7.12817 15.851296,6.4669477 c 1.266756,-0.4608716 2.303193,-0.7720686 2.303193,-0.6915446 0,0.4286575 -3.909199,4.9349889 -5.218038,6.0150959 -1.731027,1.428513 -4.3587143,2.88078 -6.920692,3.824921 -3.6602149,1.348862 -6.2506583,2.962451 -7.8361988,4.881175 -0.7448535,0.901376 -1.6643702,2.416002 -1.6643702,2.741549 0,0.06283 0.4466976,-0.226726 0.99266,-0.643468 1.7296478,-1.32027 3.1405687,-1.848779 7.3631095,-2.758101 4.6190264,-0.994707 7.3339555,-2.179983 9.4424825,-4.122372 0.893005,-0.82264 2.175603,-1.022386 12.196816,-1.899456 4.086211,-0.357632 5.945776,-0.753423 8.892713,-1.89273 1.059178,-0.409486 1.962549,-0.707755 2.007484,-0.662817 0.206072,0.206072 -1.426703,2.34683 -2.720733,3.567192 -1.701681,1.604807 -3.895767,2.811794 -6.167541,3.392816 -1.363967,0.348844 -2.36501,0.42193 -5.742015,0.419221 -2.249528,-0.0017 -4.199314,-0.07411 -4.332861,-0.160688 -0.158485,-0.102741 0.13982,-0.577569 0.858963,-1.36725 l 1.101772,-1.209844 2.002663,-0.2435 c 1.101466,-0.133926 2.498568,-0.360799 3.104672,-0.504162 l 1.102008,-0.26066 -2.035379,-0.06279 c -3.972481,-0.122561 -7.123776,0.614041 -8.283449,1.936219 -0.38425,0.438097 -0.383417,0.444895 0.0348,0.283408 1.61552,-0.623796 2.678131,-0.9281 2.678131,-0.766943 0,0.103635 -0.481401,0.682664 -1.06978,1.286731 -1.57896,1.621059 -4.256861,2.688573 -9.1565941,3.650168 -1.40134,0.275018 -1.6153658,0.636354 -0.3769241,0.636354 1.4323501,0 3.0428212,0.496681 5.8897882,1.816458 4.162986,1.929848 6.346656,2.512007 13.283529,3.541352 4.177058,0.619823 4.164192,0.613343 2.868876,1.444546 -3.109656,1.995462 -7.607227,2.970199 -11.688303,2.533151 -1.354222,-0.145024 -1.432415,-0.186166 -2.131508,-1.121518 -1.367428,-1.829551 -4.201897,-3.623243 -6.572266,-4.159023 -1.9387183,-0.438213 -5.9399093,-0.84121 -8.3520461,-0.84121 -2.4253049,0 -3.0428901,0.252185 -1.2690224,0.51819 1.5521503,0.23276 4.8605666,2.043243 4.8627124,2.66105 2.786e-4,0.0779 -0.891547,0.123509 -1.981817,0.101344 -2.210104,-0.04494 -1.95582,0.105789 1.1243231,0.666412 3.6038949,0.655954 7.313645,2.984365 10.279723,6.452034 0.953824,1.115123 1.843124,2.027498 1.976223,2.027498 0.125308,0 0.176733,0.05243 0.121988,0.118909 -0.0034,0.0041 -0.0072,0.0083 -0.01145,0.01255 -0.0723,0.0723 -1.269428,-0.398217 -2.660278,-1.045596 C 12.757816,35.934232 10.804044,35.13727 9.8069509,34.810583 8.582117,34.409282 7.8523871,34.038344 7.5573207,33.667051 5.5456136,31.135639 3.149037,29.657135 -0.2950503,28.822736 -2.7575515,28.226147 -3.02754,28.187748 -2.7242223,28.477238 c 0.111946,0.106843 1.0230464,0.408083 2.0246676,0.669421 2.968864,0.774623 5.5140544,2.266109 6.6933938,3.922338 0.4371568,0.613928 0.4395424,0.640081 0.044464,0.487492 C 5.8086934,33.467811 4.8977355,33.2483 4.0139524,33.068694 3.1301694,32.889088 1.9851756,32.510129 1.4695238,32.226562 0.9538721,31.942997 0.4991626,31.710987 0.4590597,31.710987 c -0.040096,0 0.1355189,0.353267 0.3902712,0.785039 l 0.463184,0.78504 -0.7382232,-0.143815 c -1.0934284,-0.213019 -3.1832256,-1.292602 -4.2197935,-2.179937 -1.0685054,-0.914671 -1.2024438,-0.66492 -0.2345801,0.437416 0.9161178,1.043399 2.3109936,1.973227 3.8861783,2.590539 1.8520061,0.725794 2.795539,1.44579 3.4187742,2.608814 0.7354,1.372334 0.9056321,1.977534 0.5499572,1.955175 -0.1552377,-0.0098 -1.2292994,-0.440165 -2.3868036,-0.956459 z M 11.081023,32.546048 C 10.3067,31.933579 9.1508719,31.356802 8.3525296,31.184485 c -1.0409123,-0.224674 -0.8504142,0.213418 0.2235527,0.514111 0.5059296,0.141651 1.3495406,0.527817 1.8746927,0.858148 1.051748,0.661567 1.471165,0.65445 0.630248,-0.01069 z m 10.929975,-4.466326 c 0.459832,-0.137826 0.384041,-0.183097 -0.535627,-0.319937 -0.589188,-0.08767 -2.276412,-0.480114 -3.749383,-0.872107 -2.801884,-0.745645 -5.197078,-1.137971 -4.820636,-0.789608 0.354056,0.327648 3.97164,1.561197 5.463387,1.862948 1.562041,0.315965 2.844666,0.357768 3.642259,0.118704 z M 9.1559689,23.8952 c 0,-0.05652 -0.409754,-0.313528 -0.9105648,-0.571122 -0.9767587,-0.502396 -4.6884181,-0.885923 -4.017196,-0.415097 0.1767564,0.123985 0.6588195,0.233482 1.0712518,0.243324 0.4124322,0.0098 1.3765594,0.190724 2.1425053,0.401958 1.6822047,0.463918 1.7140037,0.470245 1.7140037,0.340937 z M 4.8927535,12.899919 c -0.2895228,-0.09651 -1.8088665,0.88422 -3.5130972,2.267684 -2.5743491,2.089812 -1.9481116,2.000306 0.9297005,-0.132878 1.5333971,-1.136633 2.6959257,-2.097296 2.5833967,-2.134806 z m 4.5980694,-0.07075 c 0.449217,-0.478662 0.505978,-0.606949 0.198375,-0.448346 -0.536842,0.2768 -1.3158047,1.118865 -1.0350209,1.118865 0.1140539,0 0.4905459,-0.301733 0.8366459,-0.670519 z M 2.5871906,4.1824744 C 3.393279,3.7363405 5.4513346,2.7549897 7.1606478,2.001698 9.8652169,0.8097967 12.158951,-0.42658254 11.6656,-0.42658254 c -0.350883,0 -7.1330141,2.41122204 -7.9540378,2.82786414 -2.2822292,1.1581544 -4.3210097,2.916204 -5.5174052,4.7576822 -0.4520805,0.6958364 -0.8219639,1.341536 -0.8219639,1.4348894 0,0.093352 0.8436112,-0.6785076 1.8746907,-1.7152441 C 0.4450357,5.6738828 1.6504887,4.7008985 2.5871906,4.1824744 Z M 1.2685949,6.61393 C 2.012599,5.9494582 2.9105672,5.1492924 3.2640809,4.8357844 L 3.9068323,4.2657686 3.0498299,4.6983874 C 1.9763022,5.2403101 1.0349486,6.0740746 0.2487642,7.1793092 -0.0865204,7.6506608 -0.2985862,7.9881047 -0.2224919,7.9291861 -0.1463985,7.8702676 0.5245918,7.2784026 1.2685949,6.61393 Z M 18.937154,37.803009 c -1.066072,-0.341174 -1.91814,-1.093359 -4.746299,-4.189907 -0.707027,-0.774123 -1.604062,-1.645833 -1.99341,-1.937129 l -0.707907,-0.529631 1.350658,0.08263 c 3.560269,0.217792 4.949527,0.767395 7.885299,3.119496 1.119459,0.896895 2.691513,1.96065 3.493456,2.363902 l 1.458076,0.733182 -0.708198,0.262731 c -1.147391,0.425665 -4.8175,0.483306 -6.031675,0.09473 z M 12.583976,29.990201 C 7.496847,29.088245 6.8863453,28.916835 6.5135949,28.285817 6.323338,27.963738 5.7618555,27.333587 5.2658562,26.885482 l -0.9018165,-0.814738 1.9139012,0.142024 c 3.7427511,0.277735 6.3332891,1.243404 8.4693501,3.157101 1.371209,1.228467 1.331253,1.239925 -2.163315,0.620332 z m 8.677144,-4.841542 c -1.438914,-0.223615 -3.127253,-0.810327 -5.463386,-1.89857 -1.355135,-0.631266 -2.72835,-1.213583 -3.051589,-1.294043 -1.265385,-0.314974 -0.252806,-0.535856 1.942949,-0.42383 2.249158,0.114748 2.271056,0.11135 1.322889,-0.205282 -0.53027,-0.17708 -1.132848,-0.323429 -1.339064,-0.325218 -0.780099,-0.0068 -0.333569,-0.411702 0.610029,-0.553203 1.388784,-0.20826 3.482452,0.04803 5.404674,0.661601 2.003619,0.639553 4.913001,1.074733 5.74543,0.859389 0.532398,-0.137727 0.317565,-0.24248 -1.636798,-0.79812 -1.237297,-0.351771 -3.213757,-0.872742 -4.392135,-1.157713 l -2.142505,-0.518128 2.571005,0.124219 c 3.213904,0.15528 9.277696,0.835206 11.652418,1.306572 l 1.796897,0.356671 -0.725645,0.60466 c -0.999596,0.832937 -4.312321,2.444652 -5.867654,2.854742 -1.296744,0.341907 -5.238432,0.591044 -6.427515,0.406253 z M 0.2645742,19.602111 c 0.8858729,-0.735904 3.5838683,-2.116816 5.1879079,-2.65532 1.354886,-0.45486 7.3456929,-1.590306 7.5122029,-1.423799 0.177489,0.177489 -2.008579,1.409629 -3.5944651,2.025959 -0.8837842,0.343469 -3.0311392,0.927716 -4.7719012,1.298332 -1.740762,0.370612 -3.5726044,0.812199 -4.0707583,0.981305 l -0.9057379,0.307463 z m 9.5341457,-4.702094 c 0,-0.05918 0.4599811,-0.340688 1.0221811,-0.625577 2.591873,-1.3134 5.417584,-4.152407 7.937104,-7.974453 0.785324,-1.1913166 1.259433,-1.6653946 2.18174,-2.1816031 0.648108,-0.3627419 1.805061,-1.2047005 2.571006,-1.8710218 1.967807,-1.711859 2.776759,-2.13121154 5.570512,-2.88770424 2.450172,-0.66345706 5.328896,-1.83366956 3.963635,-1.61123266 -4.104365,0.6687101 -6.196532,0.9730038 -6.34075,0.9222307 -0.409884,-0.1443059 6.562556,-3.6316509 8.911756,-4.4573144 1.414053,-0.4969916 3.13364,-1.1870687 3.821303,-1.5335078 1.247616,-0.6285344 1.250003,-0.6288254 1.112341,-0.1354708 -0.644871,2.3110834 -3.13516,5.7729704 -5.298187,7.36530146 C 33.620882,1.1099532 30.171171,3.0550028 27.840897,4.0879018 26.864099,4.5208697 26.006756,4.9332614 25.935689,5.0043305 25.551187,5.3888331 29.313882,4.0937597 32.140743,2.868628 36.538256,0.9627929 37.644277,0.5151059 38.401159,0.33458966 l 0.642752,-0.1532967 -0.535626,0.58345154 c -1.03465,1.1270276 -3.026346,2.4301357 -4.701839,3.0762728 -0.930701,0.3589188 -3.388416,1.0456341 -5.461585,1.5260348 -6.048837,1.4016613 -7.447145,2.0241701 -8.282322,3.6871887 -1.627457,3.2406212 -3.86451,4.8171942 -7.799938,5.4970362 -0.824865,0.142497 -1.716682,0.303465 -1.981817,0.357711 -0.265135,0.05425 -0.4820641,0.0502 -0.4820641,-0.009 z M 27.610807,0.6297234 c 0.478076,-0.24389574 0.8221,-0.49057544 0.764499,-0.54817654 -0.146579,-0.1465797 -1.567133,0.46866884 -1.744412,0.75551374 -0.209083,0.338303 -0.0049,0.2951166 0.979913,-0.2073372 z M 18.904365,12.218709 c 1.285877,-1.320381 1.866401,-1.720294 4.07076,-2.804271 2.721142,-1.3380982 2.707648,-1.6153773 -0.03621,-0.7440399 -0.912677,0.2898285 -1.69515,0.4912247 -1.738829,0.4475481 -0.04368,-0.043678 0.289632,-0.3319515 0.740687,-0.6406094 0.951321,-0.6509846 3.193455,-1.3639629 6.802268,-2.1630598 4.514361,-0.9996111 7.106678,-2.0695349 9.18851,-3.7923639 0.566579,-0.4688745 1.076885,-0.8057572 1.134012,-0.7486299 0.05713,0.057129 -0.08364,0.5973714 -0.312829,1.2005399 -1.182577,3.1122862 -2.94659,4.8269624 -6.967226,6.7723709 -1.546255,0.748166 -3.389849,1.531095 -4.096876,1.739843 -0.707026,0.208748 -1.381915,0.462916 -1.499753,0.564818 -0.335304,0.289954 1.540398,-0.05908 3.315026,-0.616873 1.818919,-0.57171 4.569307,-0.858218 5.353191,-0.557642 0.482779,0.185119 0.411315,0.239819 -0.857001,0.655973 -2.193554,0.719738 -3.130211,0.871106 -7.529168,1.216756 -4.561534,0.358421 -7.977953,0.711294 -8.637816,0.892175 -0.255805,0.07011 0.175934,-0.503193 1.071252,-1.422535 z M 16.29517,4.2617083 c 0.527542,-0.6030592 1.317608,-1.7093779 1.755701,-2.4584832 0.690328,-1.1804066 1.071717,-1.54565464 2.860394,-2.7393316 1.184679,-0.7905969 2.827093,-2.1612903 3.855532,-3.2176713 l 1.79167,-1.8403511 -0.151127,1.0077889 c -0.510866,3.4067047 -2.587338,6.2315864 -6.080977,8.2727099 -1.259523,0.735864 -4.318941,2.0718103 -4.7446,2.0718103 -0.135169,0 0.185866,-0.4934128 0.713407,-1.0964719 z m -1.969241,-3.110917 c 0.969066,-1.03095144 2.349531,-3.0794624 2.965242,-4.400207 0.311974,-0.6692111 1.328353,-1.8426166 3.062051,-3.535133 1.427291,-1.393385 3.209076,-3.1466913 3.959522,-3.8962333 0.750447,-0.749544 1.397511,-1.32802 1.437923,-1.285502 0.193595,0.203683 -1.065168,3.9350583 -1.908191,5.6564902 -0.834802,1.7046397 -2.591885,4.1229703 -2.82572,3.8891327 -0.04645,-0.04644 0.200655,-0.7014149 0.549106,-1.4554976 0.348449,-0.7540823 0.696074,-1.7567103 0.772499,-2.2280608 0.12283,-0.7575617 0.0049,-0.6184319 -1.015958,1.1990735 -1.419191,2.5265684 -2.518779,4.0451987 -3.434774,4.74373726 -0.771383,0.58825424 -2.969235,1.73261094 -3.8039,1.98057414 -0.496098,0.1473829 -0.478226,0.09806 0.2422,-0.6683741 z m 2.748563,-1.28151964 c 0.613552,-0.5162685 1.420456,-1.74081536 1.255676,-1.90559696 -0.0386,-0.038594 -0.582732,0.5006392 -1.2092,1.1982879 -1.181846,1.3161378 -1.205947,1.6829414 -0.04647,0.70730906 z M 26.80737,-2.8082165 c 0.616632,-2.1302799 0.988888,-3.8026453 0.991671,-4.4550893 0.0017,-0.4230424 0.07411,-0.8780439 0.160688,-1.0111159 0.08658,-0.133071 1.073329,-0.795615 2.192787,-1.47232 5.789883,-3.4999483 8.108506,-5.8821173 9.54349,-9.8050573 0.625741,-1.71064 0.854606,-1.265481 0.649432,1.263182 -0.347034,4.277031 -1.605002,7.151914 -4.30029,9.8276413 -1.392957,1.3828461 -2.424729,2.1279532 -5.340233,3.8565091 -1.98753,1.1783779 -3.710824,2.1795162 -3.829541,2.2247512 -0.131729,0.050198 -0.15823,-0.1167924 -0.068,-0.4285011 z m 5.246964,-5.7123452 c 0.751404,-0.416631 1.619119,-0.981983 1.928254,-1.25634 0.526745,-0.4674873 0.45834,-0.4572333 -1.088653,0.163184 -1.650323,0.661861 -3.910609,2.30556 -2.741419,1.9935836 0.294594,-0.078601 1.150412,-0.4838016 1.901818,-0.9004276 z m -7.645027,3.2733435 c 0.407367,-1.2890373 0.740124,-1.7797762 1.482579,-2.1864579 0.73012,-0.3999284 0.803249,-0.4086167 0.624255,-0.074169 -0.248451,0.4642362 -2.201342,2.5596791 -2.106834,2.2606209 z m -6.775196,-1.23194 c 0.09743,-0.5008106 0.187962,-1.9645785 0.201185,-3.2528175 l 0.02404,-2.3422543 1.355205,-1.246441 c 0.745362,-0.685544 1.432548,-1.246443 1.527074,-1.246443 0.273148,0 0.479005,1.863523 0.347067,3.141863 -0.156097,1.512439 -1.159308,3.6394864 -2.300421,4.8774487 -1.138783,1.2354351 -1.383978,1.250019 -1.154155,0.068644 z m 8.123084,-2.1234625 c 0.09082,-0.393445 0.275172,-1.2168123 0.409679,-1.8297033 0.230538,-1.050468 0.324149,-1.165332 1.633037,-2.00381 1.538209,-0.985381 2.484416,-1.803502 2.835277,-2.451477 0.196227,-0.362393 0.11988,-0.342976 -0.500499,0.127289 -0.402629,0.305201 -0.955824,0.67341 -1.229328,0.818242 l -0.497275,0.263328 0.390151,-0.596583 c 0.434636,-0.664604 0.287323,-0.614948 -0.996206,0.335791 -0.637808,0.47244 -0.543673,0.2917 0.661624,-1.270321 2.733465,-3.542475 4.315582,-6.2821 5.317492,-9.20787 0.55744,-1.627831 0.851083,-4.28991 0.473203,-4.28991 -0.134928,0 -0.245325,0.18734 -0.245325,0.416312 0,0.793374 -1.327308,4.41288 -2.282931,6.225453 -1.036819,1.966572 -3.315533,5.436287 -4.356625,6.633672 -0.628587,0.722951 -0.645101,0.728392 -0.650435,0.21425 -0.0041,-0.391958 -0.166312,-0.196032 -0.631306,0.762372 -0.60069,1.238092 -2.827674,3.959232 -3.240237,3.959232 -0.109944,0 -0.144981,-0.406998 -0.07839,-0.910565 l 0.120418,-0.910565 -0.419913,0.749877 -0.419915,0.749876 -0.03341,-1.821128 c -0.01836,-1.001621 -0.03025,-2.095273 -0.02641,-2.430338 0.0055,-0.472013 0.454901,-1.076767 1.995866,-2.685345 2.933079,-3.061774 4.684002,-5.512829 6.370411,-8.917723 1.895237,-3.826518 2.170022,-4.76911 2.337371,-8.017844 l 0.137105,-2.661581 0.785416,1.18495 c 1.228427,1.853316 2.212766,3.975608 2.764003,5.959342 0.423115,1.522667 0.506919,2.33027 0.511352,4.927761 0.0071,4.189278 -0.640007,6.586006 -2.53681,9.394988 -0.425748,0.63049 -0.774084,1.205341 -0.774084,1.277449 0,0.317864 2.307158,-2.170161 3.69062,-3.979944 0.834426,-1.09156 1.560375,-1.941416 1.613219,-1.888572 0.05285,0.05285 -0.06652,0.585616 -0.265249,1.18394 -0.841447,2.533361 -3.268973,5.180926 -6.680137,7.285654 -1.041473,0.642601 -2.895582,1.832225 -4.120243,2.6436103 l -2.226657,1.4752476 z"
         id="path3454"
         sodipodi:nodetypes="sssssssscsscssscssssssssscssscscsssssscsssccsscssssccssssscsscssssssssccscscsscssccscssssssssssssscsscsscssccscssssssssssssccssssscssssssssssscssssscssssssssssssssssscssssssssssccscssscsccssssssscssscsssssscsssssssscssssscsscssssssscscsccssssssssssscsscsscssccccsscsssscssscssssssscsssssscsssssssssscsscssscccccscsssssssssssssscsscccscsssscccssssscsssssssscssccccccssscsscsssscsscc"
         inkscape:transform-center-x="38.7105"
         inkscape:transform-center-y="4.0687715" />
      <circle
         style="opacity:0.911491;mix-blend-mode:normal;fill:#1dff1d;fill-opacity:1;fill-rule:nonzero;stroke:none;stroke-width:0.552733;stroke-miterlimit:4;stroke-dasharray:none;stroke-opacity:0;filter:url(#filter17389)"
         id="path16709"
         cx="2.1196175"
         cy="22.908981"
         r="2.1085925"
         transform="matrix(7.0714322,0,0,5.9391095,-11.265436,-115.25626)"
         inkscape:transform-center-x="-1.8253545"
         inkscape:transform-center-y="-2.7445434"
         mask="url(#mask23262)" />
    </g>
  </g>
</svg>
