<?xml version="1.0" encoding="UTF-8" standalone="no"?>
<!-- Created with Inkscape (http://www.inkscape.org/) -->

<svg
   width="64mm"
   height="64mm"
   viewBox="0 0 64 64"
   version="1.1"
   id="svg2221"
   inkscape:version="1.1.2 (b8e25be833, 2022-02-05)"
   sodipodi:docname="ticketikon.svg"
   xmlns:inkscape="http://www.inkscape.org/namespaces/inkscape"
   xmlns:sodipodi="http://sodipodi.sourceforge.net/DTD/sodipodi-0.dtd"
   xmlns="http://www.w3.org/2000/svg"
   xmlns:svg="http://www.w3.org/2000/svg">
  <sodipodi:namedview
     id="namedview2223"
     pagecolor="#505050"
     bordercolor="#eeeeee"
     borderopacity="1"
     inkscape:pageshadow="0"
     inkscape:pageopacity="0"
     inkscape:pagecheckerboard="0"
     inkscape:document-units="mm"
     showgrid="false"
     inkscape:zoom="0.71090067"
     inkscape:cx="390.34989"
     inkscape:cy="111.82997"
     inkscape:window-width="1920"
     inkscape:window-height="991"
     inkscape:window-x="-9"
     inkscape:window-y="-9"
     inkscape:window-maximized="1"
     inkscape:current-layer="layer1" />
  <defs
     id="defs2218" />
  <g
     inkscape:label="Réteg 1"
     inkscape:groupmode="layer"
     id="layer1">
    <path
       style="fill:#f2f2f2;fill-opacity:1;stroke-width:0.304716"
       d="m 19.680232,4.1253436 c 0.421118,0.441796 0.881384,0.561309 1.867389,0.48488 l 1.308524,-0.10143 1.795156,2.436391 c 0.987331,1.340018 2.890958,3.9875004 4.230286,5.8832964 2.344485,3.318595 3.922557,5.513143 6.855946,9.534216 0.754589,1.034385 1.85429,2.579678 2.443784,3.43398 1.478022,2.141983 5.456424,7.701363 9.284344,12.973861 1.763328,2.428777 3.207208,4.503078 3.208611,4.609557 0.0014,0.106484 -0.202246,0.586146 -0.452581,1.065922 -0.271778,0.520891 -0.385222,1.248269 -0.281582,1.805498 0.263077,1.414469 -0.460792,1.879842 -1.878636,1.207771 -2.052553,-0.972929 -3.787193,0.184636 -3.787193,2.527274 0,1.742673 -0.655633,2.333564 -1.884772,1.698652 -1.584629,-0.818543 -2.973407,-0.416323 -3.751396,1.086483 -0.329271,0.636047 -0.378736,1.099559 -0.174575,1.635949 0.224404,0.589572 0.161392,0.860072 -0.296841,1.274312 -0.542112,0.490061 -0.65294,0.492107 -1.627739,0.03004 -1.283225,-0.60826 -1.520223,-0.612635 -2.612813,-0.04825 -1.038589,0.536485 -1.63762,2.003367 -1.24228,3.042049 0.229853,0.603893 0.14666,0.810731 -0.49499,1.230696 -0.715833,0.468514 -0.811107,0.468796 -1.325354,0.0039 -0.364557,-0.329552 -0.955389,-0.467943 -1.727305,-0.404581 -1.351867,0.110961 -1.071913,0.414708 -6.086541,-6.603772 -1.6755,-2.345026 -4.75397,-6.637383 -6.841051,-9.538571 C 14.121535,40.49228 12.208799,37.819865 11.958085,37.454766 11.707378,37.089668 8.9142405,33.168608 5.7511255,28.7413 L -1.3091794e-7,20.691668 0.52146147,19.80988 c 0.48865153,-0.826316 0.49931013,-1.581235 0.037585,-2.662935 -0.1203713,-0.282012 0.044247,-0.60685 0.4292232,-0.84701 0.51780123,-0.323024 0.73832063,-0.309909 1.29097943,0.07676 1.0890284,0.761948 2.8748928,0.600114 3.7466704,-0.339514 0.792342,-0.854015 0.982113,-2.188168 0.394716,-2.774926 -0.267333,-0.267035 -0.258273,-0.46649 0.03731,-0.822282 0.485812,-0.584732 1.203299,-0.585902 1.974514,-0.0032 0.845663,0.638921 2.0884615,0.552336 3.0630085,-0.2134 0.77869,-0.611843 0.828287,-0.780319 0.672813,-2.2851254 -0.146008,-1.413095 -0.08803,-1.667255 0.445344,-1.952399 0.469193,-0.250825 0.732557,-0.220398 1.12139,0.129553 1.985726,1.787168 5.239215,-0.275854 4.30517,-2.729887 -0.326993,-0.859118 -0.204357,-1.204139 0.564586,-1.5883496 0.359424,-0.1795892 0.686585,-0.079742 1.075432,0.3281986 z M 38.481488,20.360249 c 1.760705,0.75649 3.61287,1.560852 4.115931,1.787474 0.503056,0.226623 2.492421,1.097813 4.420815,1.935978 7.228714,3.141916 11.198014,4.865074 13.491106,5.856773 2.238377,0.96804 2.362849,1.07296 2.362849,1.991682 0,0.533396 0.291993,1.340613 0.648873,1.793815 0.5448,0.69184 0.593493,0.945414 0.303588,1.580988 -0.189908,0.416342 -0.484583,0.670991 -0.654834,0.565885 -0.17025,-0.105103 -0.800335,-0.02931 -1.400184,0.168448 -0.783517,0.258299 -1.210259,0.645524 -1.515431,1.375098 -0.465736,1.113432 -0.33493,1.781746 0.539174,2.754815 0.470641,0.523926 0.516697,0.79057 0.255213,1.477566 -0.217705,0.571982 -0.468404,0.781026 -0.789191,0.658064 -0.663725,-0.254417 -2.458025,0.558006 -2.850575,1.29068 -0.528782,0.986955 -0.383504,2.080876 0.396666,2.986887 0.600847,0.697755 0.670499,0.965091 0.403789,1.54981 -0.177268,0.388633 -0.538311,0.686285 -0.802313,0.661451 -1.106292,-0.104067 -1.614957,0.06509 -2.323174,0.772515 -0.951358,0.950316 -1.001074,2.521233 -0.110021,3.476614 0.973706,1.043997 0.581465,2.171382 -0.755459,2.171382 -0.585398,0 -1.378898,0.281865 -1.861905,0.661383 -0.946449,0.743658 -0.503139,0.848181 -5.42144,-1.27828 l -2.97967,-1.288282 1.205971,-0.885904 1.20597,-0.885906 -0.512934,-0.896611 c -0.392942,-0.686873 -0.434321,-1.022649 -0.176911,-1.435406 0.498722,-0.799667 1.501331,-0.820415 2.223594,-0.04601 0.564201,0.604938 0.716632,0.63599 1.380308,0.281192 0.41034,-0.219363 1.242195,-0.807345 1.848575,-1.306624 1.010856,-0.832319 1.063195,-0.951173 0.629624,-1.42974 -0.66533,-0.734377 -0.587558,-1.7297 0.17696,-2.264599 0.357418,-0.25007 0.576543,-0.645492 0.486947,-0.878718 -0.08959,-0.233226 -3.812289,-5.52359 -8.27266,-11.756362 -8.404363,-11.743991 -9.168208,-12.834796 -8.981817,-12.826461 0.06122,0.0027 1.551861,0.623921 3.312566,1.380408 z M 8.8416435,35.453222 c 1.2142375,1.708793 2.1443275,3.170197 2.0668775,3.247565 -0.07746,0.07736 -0.902307,-0.174599 -1.8329995,-0.559929 -1.61481,-0.668562 -1.692182,-0.751309 -1.692182,-1.809664 0,-0.789233 -0.219805,-1.315338 -0.762205,-1.824338 -0.877309,-0.823279 -0.898507,-0.915588 -0.374696,-1.631155 0.345063,-0.471381 0.629358,-0.189021 2.595205,2.577521 z"
       id="path2294" />
  </g>
</svg>
